<?xml version="1.0" standalone="no"?>
<svg viewBox="-350 -150 1500 1500" style="width: 585px; height: 585px; justify-content: center; align-self: center; transform: scale(1, 1);" xmlns="http://www.w3.org/2000/svg"><g transform="rotate(0 409.4652433395386 621.5763740539551)"><g transform="translate(0 459)"><path d="M92.9164 736.628C126.284 736.731 158.706 737.873 192.168 737.985C328.187 738.439 465.458 737.778 601.97 732.264C640.553 730.706 650.185 730.744 688.602 728.326C711.285 728.245 779.42 726.369 776.009 695.474C774.503 637.931 760.256 580.632 755.769 523.245C747.157 415.363 739.823 304.107 696.578 203.204C686.568 179.107 665.07 163.348 643.789 149.178C622.447 133.892 617.21 116.919 597.513 99.6499C593.348 95.998 569.697 94.512 556.972 85.2497C538.45 71.7685 529.265 49.6966 522.354 45.9392C517.269 43.1748 517.362 24.1015 507.171 17.3506C493.494 8.29145 449.911 1.55545 434.055 0.295585C418.836 -0.913655 392.365 1.62638 378.086 7.1992C354.274 16.4926 344.776 34.2203 334.289 57.0592C195.742 99.8788 69.1074 172.387 29.7794 318.64C-4.13557 441.303 -5.37857 572.805 7.72343 698.608C10.3444 707.807 8.50743 722.229 16.4574 728.326C-11.1706 729.911 89.1684 735.608 92.9164 736.628Z" transform="translate(25 -13.87934)" fill="#FFFFFF" stroke="none"></path><path d="M795.371 662.025C797.721 666.425 800.831 670.375 802.19 675.265C803.621 680.365 803.02 685.795 800.051 690.225C796.041 696.205 789.381 698.195 782.681 699.415C759.154 703.725 735.356 706.524 711.581 709.29C705.816 670.027 702.606 630.451 699.443 590.905C699.035 585.808 691.032 585.764 691.443 590.905C694.632 630.762 697.915 670.635 703.689 710.21C699.204 710.734 694.72 711.262 690.241 711.805C686.971 712.2 683.672 712.665 680.356 713.133C669.753 714.628 658.979 716.148 648.421 715.485C643.297 715.164 638.307 714.309 633.342 713.458C625.14 712.053 617.005 710.658 608.44 711.705C594.491 713.415 580.681 716.425 566.721 718.215C553.171 719.955 539.561 721.235 525.921 722.145C469.561 725.915 412.801 723.665 356.421 721.195C342.341 720.585 328.301 719.615 314.311 717.865C301.231 716.235 288.681 715.035 275.651 717.685C268.481 719.145 261.301 720.825 253.951 721.175C248.116 721.463 242.303 720.754 236.517 720.047C235.878 719.969 235.239 719.891 234.601 719.815C226.661 718.849 218.694 718.189 210.716 717.649C190.153 656.076 192.84 589.447 189.684 525.241C189.433 520.117 181.431 520.087 181.684 525.241C184.827 589.173 182.251 655.632 202.112 717.105C199.409 716.944 196.705 716.789 194.001 716.635C166.131 715.045 138.221 713.895 110.36 712.165C96.2803 711.295 82.2113 710.565 68.1713 709.255C62.8966 708.764 57.5647 708.872 52.2369 708.979C49.5347 709.034 46.8335 709.088 44.1413 709.065C43.6813 710.405 43.1313 711.725 42.4313 713.005C39.3713 718.575 29.6213 719.275 26.7703 713.005C23.5203 705.865 20.4713 698.615 17.7213 691.265C6.69034 661.725 0.381337 630.075 0.0203373 598.525C-0.128344 585.686 0.564 572.842 1.25563 560.01C1.44318 556.531 1.63068 553.052 1.80134 549.575C2.62134 533.075 3.43134 516.565 4.50134 500.075C6.64134 467.065 7.00134 433.945 9.57134 400.955C12.0113 369.515 17.2913 338.365 26.1713 308.085C35.2313 277.245 48.2913 248.015 62.2613 219.135C75.1813 192.435 88.0013 165.035 109.171 143.715C119.221 133.605 130.761 125.175 143.151 118.195C148.391 115.245 153.44 112.385 156.881 107.305C160.261 102.325 163.071 96.8448 167.381 92.5548C172.571 87.3948 178.721 85.4348 185.821 84.5248C191.671 83.7748 195.051 81.9248 199.151 77.7448C203.36 73.4548 207.301 68.9348 212.401 65.6448C218.681 61.5948 226.041 60.4348 233.27 59.3148C264.091 54.5348 293.451 40.8248 321.851 28.4948C325.581 26.8748 329.201 25.4548 333.241 24.8948C334.912 24.6569 336.583 24.7052 338.247 24.7534C339.799 24.7983 341.346 24.8431 342.881 24.6548C347.711 24.0548 349.551 16.8548 351.931 13.2848C353.081 11.5548 354.811 9.91481 356.811 8.56481C358.701 5.44481 362.061 3.76481 365.36 2.43481C373.051 -0.675194 385.261 -2.06519 390.161 6.15481C390.341 6.45481 390.491 6.75481 390.621 7.05481C413.371 11.9248 435.821 18.1748 458.961 21.2748C471.901 23.0048 484.961 23.8548 498.011 23.8948C504.681 23.9148 511.351 23.7248 518.011 23.3048C519.336 23.223 520.706 23.0526 522.09 22.8804C524.092 22.6315 526.123 22.3789 528.091 22.3848C532.121 13.7448 543.371 7.72481 552.53 13.7848C556.03 16.0948 558.011 19.8948 559.091 24.0548C561.551 26.5948 563.501 29.7448 564.841 33.0248C566.811 37.8248 568.151 43.0348 569.701 47.9748C570.94 51.9548 571.961 57.3848 575.19 60.3148C579.301 64.0348 586.78 62.6048 591.851 64.2448C597.641 66.1128 602.827 69.4618 607.958 72.6958C602.952 74.4048 598.033 76.3498 594.119 80.0458C590.367 83.5868 596.032 89.2358 599.776 85.7018C603.091 82.5728 607.606 81.2308 611.835 79.8188C613.438 79.2828 614.273 78.0798 614.513 76.7708C625.774 83.7488 637.042 90.7268 648.311 97.7048C669.741 110.975 689.931 125.215 706.821 144.125C722.711 161.915 736.161 182.435 743.501 205.275C745.401 211.175 746.811 217.225 747.711 223.365C748.571 229.175 748.711 235.165 750.311 240.845C751.921 246.615 755.53 251.565 757.961 257.005C760.491 262.655 761.601 268.495 762.11 274.655C763.251 288.405 763.431 302.275 764.121 316.055C764.461 322.885 764.181 330.175 766.221 336.765C767.86 342.065 771.261 346.645 773.36 351.775C777.469 361.782 775.803 371.893 774.119 382.11C773.856 383.706 773.593 385.304 773.351 386.905C772.481 392.725 772.311 398.275 774.221 403.895C776.001 409.115 778.741 413.955 780.341 419.235C782.94 427.812 781.458 435.995 779.957 444.286C779.153 448.726 778.343 453.196 778.151 457.775C777.687 468.933 779.631 480.012 781.558 491.001C781.915 493.032 782.27 495.06 782.61 497.085C787.11 523.855 791.411 550.435 793.28 577.555C795.032 602.933 795.078 628.311 793.226 653.671C792.586 653.009 791.68 652.568 790.483 652.568C785.637 652.571 780.835 652.796 776.368 654.843C774.404 655.743 773.92 658.583 774.933 660.316C776.112 662.333 778.434 662.654 780.405 661.751C783.089 660.52 786.375 660.543 789.347 660.564C789.732 660.566 790.111 660.569 790.483 660.569C792.176 660.568 793.302 659.695 793.882 658.534C794.309 659.62 794.583 660.542 795.371 662.025ZM353.302 110.813C351.628 107.535 349.434 103.691 346.097 101.88C341.565 99.4208 345.608 92.5158 350.135 94.9718C354.671 97.4338 357.917 102.286 360.21 106.775C362.55 111.356 355.644 115.399 353.302 110.813ZM222.263 119.16C225.335 117.668 228.893 116.346 232.34 116.25C237.477 116.106 237.499 108.105 232.34 108.25C227.415 108.388 222.614 110.12 218.226 112.252C213.595 114.501 217.646 121.402 222.263 119.16ZM505.654 124.344C510.206 122.12 514.822 120.366 518.559 116.806C522.296 113.248 516.633 107.597 512.903 111.15C509.741 114.16 505.472 115.552 501.616 117.436C496.991 119.696 501.042 126.597 505.654 124.344ZM666.067 168.09C672.161 168.092 678.054 168.26 684.012 169.675C689.017 170.863 691.153 163.152 686.139 161.961C679.499 160.384 672.864 160.092 666.067 160.09C660.919 160.088 660.911 168.088 666.067 168.09ZM337.444 193.154C339.234 193.639 341.076 193.957 342.932 194.01C348.081 194.155 348.077 186.155 342.932 186.01C339.961 185.926 337.261 184.441 334.292 184.282C332.132 184.166 330.292 186.203 330.292 188.282C330.292 190.544 332.126 192.166 334.292 192.282C333.757 192.253 334.102 192.31 334.515 192.379C334.763 192.42 335.035 192.465 335.157 192.499C335.923 192.707 336.679 192.946 337.444 193.154ZM198.444 191.337C193.572 192.929 195.658 200.656 200.571 199.051C206.289 197.182 212.134 195.735 217.851 193.867C222.724 192.275 220.638 184.547 215.725 186.152C210.007 188.021 204.163 189.468 198.444 191.337ZM508.528 209.016C505.906 207.707 503.173 206.21 500.18 206.106C495.037 205.926 495.03 197.926 500.18 198.106C504.67 198.262 508.614 200.135 512.566 202.108C517.179 204.41 513.122 211.308 508.528 209.016ZM634.966 240.412C633.78 238.196 631.995 237.26 629.779 237.21C624.631 237.092 624.63 229.092 629.779 229.21C634.829 229.324 639.46 231.86 641.873 236.375C644.302 240.918 637.393 244.955 634.966 240.412ZM259.323 250.891C254.683 252.469 250.541 254.703 246.455 257.4C242.142 260.246 238.139 253.315 242.417 250.492C247.08 247.415 251.903 244.977 257.196 243.176C262.09 241.512 264.171 249.242 259.323 250.891ZM416.608 290.861C415.286 289.461 414.386 287.179 414.323 285.049C414.176 279.913 406.175 279.891 406.323 285.049C406.446 289.283 408.029 293.424 410.951 296.518C414.493 300.269 420.143 294.605 416.608 290.861ZM578.567 294.79C580.009 296.313 582.79 296.352 584.224 294.79C585.723 293.157 585.762 290.758 584.224 289.133C584.134 289.038 584.048 288.948 584.006 288.911C583.882 288.731 583.761 288.546 583.652 288.359C583.407 287.937 583.198 287.496 582.976 287.063C582.393 285.922 581.65 284.881 580.768 283.949C579.326 282.426 576.545 282.387 575.11 283.949C573.612 285.582 573.573 287.981 575.11 289.606C575.2 289.701 575.287 289.791 575.329 289.828C575.453 290.008 575.574 290.194 575.683 290.381C575.927 290.802 576.136 291.243 576.358 291.676C576.942 292.817 577.684 293.858 578.567 294.79ZM102.075 301.003C97.8483 302.414 93.3313 303.757 90.0173 306.886C86.2723 310.42 80.6083 304.771 84.3603 301.229C88.7303 297.104 94.3513 295.157 99.9493 293.288C104.851 291.652 106.934 299.381 102.075 301.003ZM317.012 321.881L308.372 321.881C303.216 321.881 303.225 313.881 308.372 313.881L317.012 313.881C322.168 313.881 322.159 321.881 317.012 321.881ZM182.63 350.049C181.106 354.959 173.387 352.851 174.915 347.922C176.391 343.164 176.497 338.376 176.5 333.433C176.503 328.277 184.503 328.286 184.5 333.433C184.497 339.059 184.308 344.634 182.63 350.049ZM664.048 364.535C660.593 362.807 657.136 361.079 653.681 359.351C649.069 357.046 653.126 350.148 657.718 352.443L668.086 357.628C672.696 359.933 668.64 366.831 664.048 364.535ZM741.472 370.349C738.777 367.895 735.24 367.452 731.731 367.449C729.569 367.448 727.731 369.289 727.731 371.449C727.731 373.62 729.561 375.448 731.731 375.449C732.17 375.449 732.608 375.451 733.048 375.467C733.127 375.47 733.303 375.483 733.491 375.497C733.801 375.52 734.145 375.546 734.149 375.534C734.572 375.61 734.985 375.713 735.403 375.818C735.468 375.835 735.508 375.843 735.548 375.853C735.56 375.864 735.585 375.881 735.63 375.905C735.725 375.957 735.902 376.101 735.989 376.172C736.02 376.198 736.04 376.214 736.041 376.213C736.042 376.212 735.983 376.159 735.824 376.014C737.421 377.46 739.896 377.58 741.472 376.006C742.947 374.53 743.074 371.809 741.472 370.349ZM443.783 405.381C442.191 403.92 442.302 401.206 443.783 399.725C445.511 397.997 447.239 396.269 448.968 394.541C450.548 392.96 453.027 393.075 454.624 394.541C456.216 396.002 456.105 398.716 454.624 400.198C452.895 401.926 451.168 403.653 449.44 405.381C447.858 406.963 445.38 406.847 443.783 405.381ZM579.958 412.919C574.748 415.303 569.034 415.303 563.824 412.919C561.851 412.016 561.383 409.167 562.39 407.446C563.556 405.452 565.899 405.113 567.862 406.011C570.225 407.092 573.561 407.091 575.921 406.011C577.893 405.109 580.213 405.429 581.393 407.446C582.406 409.178 581.923 412.02 579.958 412.919ZM694.116 457.185C692.97 462.21 685.259 460.07 686.402 455.058C688.064 447.771 687.761 440.305 686.402 432.992C685.466 427.952 693.177 425.811 694.116 430.866C695.746 439.638 696.111 448.441 694.116 457.185ZM283.636 431.929C283.634 434.592 283.616 436.154 282.454 438.55C281.513 440.493 281.924 442.874 283.89 444.023C285.643 445.049 288.415 444.54 289.362 442.588C291.059 439.087 291.634 435.795 291.636 431.929C291.64 426.781 283.64 426.773 283.636 431.929ZM78.2583 457.847C80.2153 458.757 82.5683 458.398 83.7303 456.412C84.7423 454.682 84.2633 451.855 82.2963 450.939C78.2983 449.08 74.2723 448.669 69.9083 448.665C64.7613 448.661 64.7533 456.661 69.9083 456.665L70.1951 456.665C72.9327 456.666 75.7229 456.668 78.2583 457.847ZM220.244 475.673C218.888 475.734 217.729 475.001 217.011 473.947C216.936 473.947 216.862 473.945 216.788 473.945C214.546 473.944 212.886 472.113 212.788 469.945C212.691 467.786 214.696 465.944 216.788 465.945C218.2 465.946 219.601 466.032 220.913 466.586C223.032 467.48 224.158 469.413 224.244 471.673C224.329 473.913 222.343 475.579 220.244 475.673ZM560.659 499.865C562.919 499.779 564.852 498.653 565.747 496.534C566.3 495.222 566.387 493.821 566.388 492.409C566.389 490.317 564.547 488.312 562.388 488.409C560.22 488.506 558.389 490.167 558.388 492.409C558.388 492.484 558.386 492.558 558.385 492.632C557.332 493.35 556.599 494.509 556.659 495.865C556.753 497.964 558.42 499.95 560.659 499.865ZM398.227 505.049C393.013 504.904 388.688 502.249 385.031 498.693C381.332 495.097 386.995 489.445 390.688 493.037C392.781 495.071 395.196 496.965 398.227 497.049C403.374 497.192 403.378 505.192 398.227 505.049ZM644.667 534.282C652.063 532.321 658.226 528.395 662.609 522.076C665.55 517.836 658.618 513.832 655.701 518.038C652.528 522.613 647.829 525.166 642.54 526.568C637.567 527.886 639.677 535.605 644.667 534.282ZM125.204 534.425C127.272 534.332 128.852 532.897 129.143 530.905C131.046 530.607 132.752 529.012 132.66 526.969C132.566 524.867 130.9 522.887 128.66 522.969C124.634 523.116 121.351 526.398 121.204 530.425C121.128 532.518 123.099 534.519 125.204 534.425ZM287.629 574.494C287.294 574.401 286.94 574.336 286.601 574.29C285.522 574.144 284.404 574.154 283.305 574.164L283.302 574.164L283.279 574.164L283.276 574.164L283.254 574.164L283.231 574.164C282.97 574.167 282.71 574.169 282.452 574.169C277.296 574.166 277.304 566.166 282.452 566.169C286.509 566.171 290.731 566.228 293.921 569.069C295.54 570.511 295.383 573.263 293.921 574.725C292.331 576.315 289.876 576.162 288.264 574.725C288.363 574.813 288.209 574.743 288.019 574.656C287.881 574.592 287.723 574.52 287.629 574.494ZM455.252 575.897C457.468 575.947 459.253 576.883 460.437 579.1C462.866 583.642 469.774 579.606 467.346 575.062C464.933 570.548 460.302 568.012 455.252 567.897C450.101 567.78 450.103 575.78 455.252 575.897ZM740.08 592.631C737.458 591.322 734.725 589.825 731.731 589.721C726.589 589.542 726.582 581.541 731.731 581.721C736.222 581.878 740.166 583.75 744.118 585.723C748.729 588.025 744.673 594.923 740.08 592.631ZM545.107 629.465C538.723 629.568 532.485 631.089 526.1 631.193C520.941 631.276 520.957 623.276 526.1 623.193C532.484 623.089 538.722 621.568 545.107 621.465C550.266 621.381 550.25 629.381 545.107 629.465ZM73.3643 645.017C71.1243 645.099 69.4583 643.118 69.3643 641.017C69.2723 638.974 70.9773 637.379 72.8823 637.081C73.1723 635.089 74.7533 633.653 76.8203 633.561C78.9263 633.466 80.8973 635.467 80.8203 637.561C80.6733 641.588 77.3923 644.869 73.3643 645.017ZM407.532 672.522C412.966 674.33 418.376 675.986 424.147 676.121C429.298 676.24 429.296 668.24 424.147 668.121C419.126 668.004 414.382 666.379 409.659 664.808C404.763 663.178 402.663 670.902 407.532 672.522ZM299.104 680.133C301.226 678.127 304.314 676.885 306.934 675.574C308.866 674.608 309.409 671.88 308.37 670.102C307.22 668.135 304.836 667.697 302.897 668.667C299.606 670.313 296.15 671.921 293.447 674.476C289.698 678.021 295.362 683.671 299.104 680.133Z" transform="translate(7.999362 8.999794)" fill="#000000" fill-rule="evenodd" stroke="none"></path></g><g transform="translate(225 0)"><g><g><path d="M340.529 155.003C338.376 136.088 341.162 96.5517 341.348 94.1497C342.529 78.9648 335.414 19.0018 321.964 24.5268C299.401 6.66576 269.351 2.72176 241.251 0.837757C182.883 -3.07624 120.791 5.90876 75.7204 45.1888C53.4316 65.5878 31.7323 95.2567 33.4765 126.149C13.2256 155.431 -15.3236 195.598 9.90814 229.831C18.4849 240.768 32.1161 244.841 42.8905 253.124C64.5622 270.604 78.1586 295.69 100.036 313.066C157.996 365.149 256.413 376.029 313.359 316.789C357.394 273.885 350.274 209.699 342.529 155.003C337.321 118.23 344.728 191.904 340.529 155.003Z" transform="translate(65.0005 149)" fill="#FFFFFF" stroke="none"></path><path d="M227.86 0.104592C211.919 -0.485408 195.89 1.47459 180.28 4.62459C149.299 10.8646 117.57 21.0746 89.509 35.7146C77.727 41.8646 66.8569 49.4596 57.054 58.2086C48.193 53.9716 34.213 53.6276 31.373 63.3436C30.558 66.1326 30.964 68.6606 32.134 70.8226C31.793 71.0166 31.456 71.2246 31.126 71.4456C28.8908 72.9424 27.6975 74.0315 26.3137 75.4062L25.221 76.5016C21.761 79.9726 21.434 86.3956 25.221 89.8226L25.739 90.2906L26.0576 90.5686C26.7029 91.1105 27.3954 91.5689 28.118 91.9486C14.847 112.287 5.83895 135.465 2.10995 159.685C-0.0810489 173.905 -0.720049 188.125 0.929951 202.435C1.72995 209.425 2.92995 216.885 5.37895 223.495C6.56995 226.725 8.24895 229.865 9.75895 232.965C11.4 236.345 14.089 238.815 16.299 241.835C16.539 242.145 16.919 242.305 17.289 242.315C16.62 243.695 16.009 245.095 15.44 246.485C12.169 254.475 9.64995 263.085 8.18995 271.595C5.43995 287.645 7.11995 305.695 19.339 317.705C24.209 322.485 31.749 326.315 39.16 327.335C36.789 329.775 34.879 332.675 33.35 336.015C30.49 342.245 35.259 350.675 42.839 348.355C44.28 347.915 45.709 347.355 47.11 346.735C49.289 351.065 53.95 353.995 58.95 353.245C61.86 352.805 63.959 351.675 65.4 350.085C69.009 358.065 73.799 365.315 79.8699 371.715C86.2889 378.495 93.379 384.605 99.7799 391.405C105.999 398.005 109.69 406.625 117.02 412.065C119.299 413.755 122.79 411.955 123.43 409.455C125.915 399.726 119.222 391.626 112.872 384.935L112.07 384.095C105.259 377.015 97.39 371.105 90.14 364.505C82.61 357.645 76.549 350.365 71.089 341.765C70.6174 341.025 70.1472 340.27 69.6753 339.507L67.53 336.025C67.419 335.515 67.299 335.015 67.16 334.525C67.049 332.555 66.39 330.685 65.1199 328.965C63.549 326.835 61.45 325.225 59.11 324.475C58.32 323.635 57.499 322.835 56.64 322.095C57.709 320.925 58.65 319.545 59.45 317.945C60.93 314.965 59.2 310.225 55.24 310.615C54.0504 310.729 52.8818 310.675 51.7142 310.621C50.4369 310.562 49.1608 310.503 47.86 310.665C47.5484 310.704 47.237 310.745 46.9256 310.786C44.7888 311.069 42.6557 311.351 40.499 311.055C36.07 310.425 32.1 308.025 29.22 304.665C22.009 296.265 21.249 284.185 22.759 273.705C23.4263 269.026 24.5669 264.428 25.7788 259.855L27.6525 252.851C28.7204 248.937 30.007 244.881 32.52 241.695C40.4061 231.694 53.9178 239.542 62.0054 245.562L62.74 246.115C62.81 246.165 62.87 246.185 62.94 246.185C63.37 246.885 63.83 247.575 64.31 248.235C66.959 251.815 70.169 254.995 73.4799 257.995L74.1553 258.611C74.6084 259.02 75.066 259.425 75.52 259.825C79.39 263.235 84.629 260.725 85.14 255.845C86.089 246.645 85.83 237.345 86.419 228.105C87.0089 218.855 88.07 209.635 89.6499 200.505C91.2299 191.385 93.27 182.355 95.759 173.455C97.009 168.995 98.379 164.585 99.839 160.195C100.95 156.815 101.78 151.335 104.709 148.985C107.36 146.845 112.35 146.485 115.6 145.795C120.14 144.825 124.709 143.965 129.259 142.995C137.77 141.165 146.27 139.175 154.65 136.815C162.95 134.475 171.18 131.715 179.15 128.395C176.86 132.235 174.589 136.085 172.339 139.945C169.259 145.235 173.299 150.885 178.89 151.355C184.629 151.835 190.44 151.405 196.039 150.045C197.23 149.755 198.32 149.425 199.33 149.035C205.479 148.594 211.755 147.191 217.533 145.767L220.23 145.095C231.209 142.335 241.759 138.565 252.16 134.115C253.325 133.617 254.491 133.109 255.657 132.592C259.971 131.29 264.22 129.777 268.386 128.056C283.831 130.393 299.585 129.487 314.759 125.755C321.31 124.145 328.43 122.125 335.2 119.325C338.57 125.075 343.74 129.735 349.509 133.115C350.14 138.105 350.49 143.145 350.72 148.145C351.459 164.085 352.299 180.025 353.169 195.955L353.449 201.113C355.094 232.07 356.102 263.076 356.339 294.065C356.56 322.305 354.83 350.185 339.53 374.745C326.64 395.465 306.53 411.955 283.18 419.355C268.839 423.895 253.64 425.355 238.669 423.905C231.36 423.195 224.12 421.525 217.129 419.285L216.124 418.968C209.105 416.802 202.421 415.732 195.1 414.845C190.259 414.255 189.089 420.535 191.52 423.485C196.66 429.705 202.15 433.855 209.789 436.675C216.69 439.215 224.009 440.825 231.28 441.875C246.28 444.035 261.41 443.795 276.23 440.405C303.73 434.125 328.039 417.605 344.97 395.195C363.56 370.585 369.549 341.165 369.94 310.855C370.361 278.421 368.752 245.831 366.61 213.451L366.16 206.755C365.2 192.745 364.18 178.685 362.589 164.705C365.22 164.965 367.98 164.145 370.22 161.895C374.584 157.531 375.617 150.814 376.136 144.748L376.27 143.075C376.69 137.485 375.839 131.765 374.31 126.395C372.202 119.041 368.668 112.849 363.676 107.664C370.362 100.458 373.963 90.2596 374.757 80.6316C375.33 73.6936 375.863 64.5746 368.207 61.3416C366.695 60.7026 365.13 60.4666 363.556 60.4996C363.96 58.0286 364.233 55.5276 364.386 52.9966C364.631 48.9726 360.502 44.5616 356.369 44.9776C355.113 45.1046 353.857 45.2396 352.601 45.3706C353.352 44.1696 354.106 42.9716 354.88 41.7856C358.134 36.8086 353.736 31.2596 348.597 30.8346C334.938 29.7056 321.418 26.9046 308.386 22.6616C295.294 18.3976 281.618 14.1066 269.184 8.17159C268.306 7.75259 267.338 8.06259 266.736 8.66659C256.273 1.69209 241.083 0.631691 229.089 0.152327L227.86 0.104592ZM50.9901 264.032C46.347 261.873 40.0585 258.949 35.2303 260.525C33.0202 261.245 32.3693 263.585 33.3693 265.305L33.2892 265.305L33.4965 265.636C34.4149 267.034 35.5933 267.982 36.8854 268.882L37.4893 269.295C35.8693 270.445 34.6292 272.105 34.0892 274.225C33.2202 277.595 34.6292 281.735 37.8293 283.425C39.1103 284.095 40.4992 284.465 41.9492 284.535C43.9947 284.625 45.7013 283.683 47.2494 282.505L47.7093 282.145C48.3903 281.605 48.9403 280.885 49.3792 280.105C53.1103 284.925 56.2493 290.615 62.8392 290.795C65.9893 290.885 69.5493 288.375 70.1992 285.185C70.2702 284.875 70.3293 284.565 70.3903 284.265C70.9993 281.275 70.5602 277.775 68.1102 275.635C63.1903 271.355 58.1103 267.305 52.1403 264.565C51.7701 264.395 51.3861 264.216 50.9901 264.032Z" transform="translate(48.00005 65.00051)" fill="#000000" fill-rule="evenodd" stroke="none"></path></g></g><g transform="translate(159 186)"><g><path d="M140.63 0.473197L139.193 0.179116C137.503 -0.15929 135.804 -0.0161244 134.311 0.591153C132.847 1.18684 131.572 2.2242 130.68 3.72083C129.495 5.71373 129.337 7.38618 129.887 9.59525C130.311 11.3022 131.242 12.5864 132.46 13.5139C133.744 14.4911 135.37 15.0612 137.06 15.2595C144.854 16.175 152.53 17.8896 159.992 20.3235C163.488 21.4643 166.788 23.0096 170.058 24.6132L172.877 26.002C175.477 27.2735 178.163 28.499 181.557 29.3885C181.824 29.4584 182.087 29.5243 182.349 29.5865C183.29 29.2909 183.45 28.9329 183.649 28.6733L183.73 28.5721C183.972 28.2679 184.271 27.8025 183.988 25.6306C176.583 10.2711 156.267 3.74181 140.63 0.473197ZM43.5878 4.83023L45.4652 4.50163C51.273 3.49719 58.4944 2.53203 62.6028 7.20123C64.7819 9.67723 65.5318 14.2792 62.6028 16.6492C58.7671 19.7539 54.6298 19.6513 50.2182 19.5419C48.7043 19.5044 47.1582 19.466 45.5808 19.5562C40.4928 19.8482 35.6028 20.6902 30.7018 22.0912C19.9498 25.1642 11.1888 30.7742 2.00585 36.9342C0.800849 37.7422 -0.429151 36.2012 0.145849 35.0742C5.44685 24.6912 15.7198 16.1622 26.0098 10.9632C31.5019 8.18823 37.5118 5.88623 43.5878 4.83023ZM29.9632 50.1461C30.7976 39.7899 46.5702 37.4381 48.1392 47.6861C49.5442 56.8661 47.8902 65.2991 43.7552 73.5641C39.8042 81.4601 29.8737 77.7763 29.1227 70.5863C28.3809 63.4843 28.9069 59.2482 29.4428 54.933C29.6341 53.3921 29.8267 51.8412 29.9632 50.1461ZM159.205 41.8262C155.401 40.7152 152.226 42.6812 150.027 45.5612C149.773 45.8932 149.566 46.2222 149.38 46.5482C142.515 52.8562 145.101 65.6452 150.501 72.0492C153.814 75.9762 161.145 74.8452 163.413 70.3852C167.587 62.1722 171.09 45.2992 159.205 41.8262ZM128.748 119.039C136.872 107.66 125.366 96.9569 117.814 92.3669C115.836 90.9469 117.406 86.2431 121.634 86.9701C160.031 93.5671 140.136 159.708 91.112 123.413C85.2754 118.704 92.3434 108.334 98.6342 112.366C98.9532 112.611 99.2876 112.869 99.6364 113.139C106.704 118.603 119.636 128.601 128.748 119.039ZM93.5865 188.926C86.8642 186.184 80.8663 181.61 76.4812 175.766C74.9566 173.735 74.5614 171.589 74.8812 169.627C75.2408 167.421 76.546 165.422 78.326 164.08C80.1115 162.735 82.345 162.072 84.5043 162.41C86.3806 162.704 88.2484 163.731 89.7265 165.862L90.0354 166.288C92.6424 169.815 96.0396 172.708 99.9104 174.574C103.641 176.372 107.814 177.211 112.132 176.723C120.356 175.794 126.024 171.346 132.049 165.306C132.796 164.544 133.543 163.757 134.294 162.958C134.768 162.234 135.426 161.768 136.157 161.524C136.968 161.253 137.886 161.268 138.726 161.562C139.537 161.845 140.262 162.381 140.747 163.094C141.209 163.772 141.471 164.61 141.386 165.574C140.835 171.833 137.562 177.419 132.914 181.805C127.752 186.677 120.909 190.047 114.466 191.229C107.368 192.531 100.136 191.598 93.5865 188.926Z" transform="translate(53.00005 52.00027)" fill="#000000" fill-rule="evenodd" stroke="none"></path></g></g><g transform="translate(123 338)"><g><path d="M57.4005 3.42841C64.6505 1.69041 84.6205 -2.68059 95.7415 2.32841C108.247 -2.15859 132.409 2.27041 146.695 13.1914C159.748 23.1704 164.542 47.8034 152.83 49.3394C146.82 50.1278 142.779 48.1512 138.106 45.8656C135.181 44.4347 132.008 42.8828 127.95 41.8124C115.573 38.5464 100.237 36.5274 93.4465 32.7924C84.1465 38.0664 73.6755 39.4194 63.7495 40.9694C58.8906 41.7217 53.7682 43.3334 48.6268 44.951C40.8306 47.404 32.9907 49.8707 25.9595 49.3754C24.2265 50.1684 12.4445 45.3134 18.3495 29.8904C23.5895 16.2054 40.5455 7.47041 57.4005 3.42841ZM106.754 85.109C107.748 94.2859 109.415 109.689 117.761 107.654C124.018 106.128 136.982 95.5207 144.652 91.4247C155.51 88.3318 159.242 93.9786 157.63 102.754C156.863 106.93 146.098 123.977 142.275 128.084C125.474 146.137 97.8637 153.49 74.2653 148.708C50.9963 146.91 -1.44122 127.033 0.0303418 120.343C3.35502 105.228 14.2105 108.644 24.5514 111.898C26.9282 112.646 29.2777 113.385 31.5023 113.889C41.6163 115.754 52.7443 116.403 62.3633 116.437C75.9374 113.479 73.4727 92.1514 72.5501 84.1674C72.4472 83.2774 72.3635 82.5532 72.3233 82.0387C71.7057 74.129 76.2826 61.4116 88.4583 60.7567C100.634 60.1018 105.437 75.2808 106.288 81.1667C106.443 82.2379 106.589 83.588 106.754 85.109Z" transform="translate(112.1728 28.99979)" fill="#000000" fill-rule="evenodd" stroke="none"></path></g></g><g transform="translate(47 241)"><g><path d="M375.513 33.9959C378.273 31.6829 383.089 31.1349 386.423 31.1279C394.028 32.5829 390.88 44.1729 376.385 36.9629C398.166 128.052 258.709 131.937 282.237 45.3469C268.157 41.9599 253.29 41.6839 240.365 48.1139C251.522 87.8139 214.401 125.982 171.734 116.181C144.179 109.783 125.789 88.4229 134.308 57.0269C128.899 58.7229 118.76 57.3109 115.622 53.0899C104.775 52.1634 93.9913 50.8415 83.2204 49.5212C59.091 46.5633 35.0273 43.6135 10.4674 45.1359C7.12749 45.5983 7.31436 47.952 7.50111 50.304C7.68714 52.6469 7.87304 54.9883 4.57241 55.4569C-3.01759 54.7649 -0.0355915 41.9389 5.39841 39.8539C13.0234 34.3889 78.5984 39.8119 116.105 49.6479C121.083 46.3825 128.583 47.3802 134.493 48.1664C135.445 48.2929 136.355 48.414 137.206 48.5109C144.594 30.0029 168.272 6.93191 192.028 10.8229C213.793 12.0919 232.079 20.6889 239.509 45.2399C250.854 34.9489 271.426 31.6259 284.509 39.4079C291.765 23.0939 304.532 10.8229 321.737 5.28991C343.585 -10.2001 368.707 11.0429 375.513 33.9959ZM358.311 87.4579C346.17 100.003 325.902 103.603 309.749 96.8749C268.273 79.5459 288.574 25.4959 320.561 10.9809C324.557 9.98491 329.894 7.62191 334.761 7.08591C334.928 7.0043 335.168 7.04274 335.465 7.09029C335.954 7.1686 336.598 7.27161 337.32 6.90391C372.591 10.8419 380.623 65.5939 358.311 87.4579ZM164.916 105.906C185.6 114.302 210.916 108.73 224.533 90.6689C249.948 57.3679 225.561 0.903908 166.504 23.0949C138.547 41.8849 124.054 89.8139 164.916 105.906ZM135.953 50.6509C135.915 50.6329 135.877 50.6239 135.838 50.6059C136.054 50.5109 136.27 50.4159 136.485 50.3189C136.415 50.5019 136.339 50.6829 136.271 50.8659C136.165 50.7929 136.072 50.7079 135.953 50.6509Z" transform="translate(13.99969 7.999794)" fill="#000000" fill-rule="evenodd" stroke="none"></path></g></g></g></g></svg>