<?xml version="1.0" standalone="no"?>
<svg viewBox="-350 -150 1500 1500" style="width: 585px; height: 585px; justify-content: center; align-self: center; transform: scale(1, 1);" xmlns="http://www.w3.org/2000/svg"><g transform="rotate(0 467.1740951538086 603.7920112609863)"><g transform="translate(0 459)"><path d="M784.259 98.1183C773.942 69.7013 781.692 33.7233 760.426 10.2093C754.136 6.38629 750.8 8.51329 748.211 15.1793C746.648 23.9513 742.986 54.1543 756.156 54.1403C757.813 73.0033 756.777 92.0033 752.721 110.515C743.001 108.956 735.915 113.951 728.825 117.666C723.538 120.436 718.249 122.494 711.864 120.593C685.505 115.947 677.993 143.627 677.673 166.221C677.286 177.245 676.25 202.943 671.394 213.64C649.416 168.123 603.258 147.4 559.277 137.168C552.383 135.261 546.5 132.655 542.078 128.201C505.022 113.57 522.824 65.6343 505.776 38.0843C479.092 5.33229 447.046 -4.09171 406.674 1.52129C371.351 5.42729 347.34 41.3083 349.518 75.1773C350.171 82.0883 346.023 89.3573 343.583 96.4693C319.201 125.644 281.262 138.697 248.631 156.326C139.794 209.52 102.076 250.171 59.7807 363.361C39.9947 405.948 16.3157 447.28 8.45169 494.183C-0.789313 549.453 -0.818313 606.031 2.39869 661.845C-3.60731 662.566 2.92869 705.472 8.19669 720.335C10.0017 725.429 14.3267 729.102 19.7157 729.017C30.5557 734.286 56.0067 755.517 67.3447 754.813C103.978 752.557 139.586 756.046 174.88 754.242C213.063 752.29 250.878 745.167 289.225 746.091C356.096 747.702 308.22 751.672 377.405 754.813C421.08 756.827 580.418 732.974 623.969 736.868C659.393 744.32 675.554 731.757 670.15 694.75C668.152 680.564 661.772 649.017 682.76 647.677C692.688 648.829 700.906 658.75 708.345 664.547C774.043 713.46 841.16 678.24 846.449 597.83C856.406 530.388 870.367 514.455 840.018 447.107C743.999 196.392 888.663 230.455 790.989 113.023C783.362 119.664 785.301 101.939 784.259 98.1183Z" transform="translate(38.98101 -67.00008)" fill="#FFFFFF" stroke="none"></path><path d="M774.431 4.04116C769.321 -0.537836 760.991 -1.81884 755.751 3.33116C750.762 8.22967 751.811 15.9534 752.693 22.4519C752.746 22.8405 752.798 23.2248 752.848 23.6038L753.285 27.0135C754.341 34.9448 755.762 42.8175 756.581 50.7812C757.561 60.4012 758.021 69.8512 758.221 79.5012C758.331 84.5912 758.371 89.6912 758.271 94.7912L758.256 95.6603C758.24 96.8104 758.247 97.9272 758.311 99.0312C756.131 99.2612 753.981 99.7312 751.881 100.472C745.401 102.751 738.952 107.911 737.421 114.791C734.261 112.401 730.561 110.611 727.161 109.261C719.791 106.341 711.011 105.531 703.421 108.161C687.371 113.712 681.311 130.751 680.281 146.331C679.601 156.661 680.611 167.081 682.681 177.302C680.911 176.341 679.141 175.441 677.561 174.511L656.108 161.856C645.131 155.383 634.122 148.92 622.921 142.841C603.971 132.561 583.801 124.331 562.381 124.341C562.381 124.341 544.661 121.311 544.661 121.151C542.341 118.181 540.271 115.031 538.471 111.712C533.751 102.991 532.061 93.3512 528.011 84.4312C526.541 81.1712 522.331 82.7512 521.271 85.3112C516.961 95.7012 520.452 109.031 524.671 118.871C526.771 123.761 529.271 128.371 532.401 132.651C529.091 135.382 525.641 137.931 522.041 140.311C510.251 148.111 497.421 154.141 483.831 158.052C457.841 165.531 432.731 162.761 407.601 153.511C386.181 145.632 364.751 133.661 347.811 119.241C344.981 116.841 342.361 114.261 339.911 111.481L339.836 111.397L339.761 111.321C355.452 101.811 367.761 87.6412 366.661 67.6612C366.241 60.1512 354.441 60.1412 354.941 67.6612C356.161 85.9622 343.571 97.3712 328.581 104.921C319.325 104.817 309.364 107.852 300.815 111.281L299.511 111.811C293.611 114.241 287.941 117.231 282.181 119.962L281.254 120.405C280.637 120.702 280.024 121.005 279.411 121.311C263.211 125.931 247.011 130.561 231.061 135.972C206.931 144.151 183.151 154.222 161.951 168.521C140.341 183.091 122.331 201.931 106.511 222.521C41.0706 307.701 9.8906 414.781 2.0606 520.771C-0.399401 554.001 -0.619401 587.311 1.2006 620.581C2.1006 637.212 3.3506 653.931 5.5306 670.462L5.67336 671.575C7.79638 688.59 10.1759 727.908 14.8606 743.351C15.0306 743.911 15.6306 744.041 16.0306 743.811C15.7706 744.841 16.1906 746.081 17.4306 746.371C57.6452 755.796 100.059 755.673 141.151 753.62L144.231 753.462C156.307 752.828 168.369 751.996 180.426 751.081C179.345 741.759 178.155 731.975 176.926 721.856C169.308 659.179 160.128 583.645 165.387 525.344C165.846 520.249 173.849 520.218 173.387 525.344C168.118 583.749 177.34 659.555 184.964 722.233C185.889 729.829 186.789 737.233 187.638 744.39L188.353 750.47C216.676 748.245 244.975 745.683 273.351 744.201C294.054 743.12 314.759 745.333 335.465 747.547C350.481 749.152 365.497 750.758 380.512 751.106C380.559 748.935 380.837 716.071 381.302 712.935L381.331 712.78C381.437 712.352 381.636 711.753 381.866 711.055C382.805 708.215 384.282 703.744 382.358 702.554C381.093 701.772 377.537 702.422 375.068 702.874C374.235 703.026 373.525 703.156 373.07 703.2L365.789 703.913C364.576 704.031 363.362 704.147 362.149 704.261L361.836 704.289C356.322 704.769 350.816 704.154 347.712 698.891C345.021 694.328 345.639 688.415 348.359 684.032C349.772 681.755 351.675 679.758 353.59 677.903C355.327 676.221 358.17 674.253 358.332 671.583C358.617 666.885 346.002 663.777 340.323 662.558L338.557 662.19C337.83 662.042 338.088 661.056 338.719 660.994C347.671 660.111 365.888 659.391 366.584 672.14C366.87 677.358 364.251 681.566 361.357 685.616L360.82 686.362C360.77 686.429 360.708 686.511 360.638 686.604C359.764 687.761 357.513 690.739 358.572 691.842C358.532 691.8 362.775 691.177 364.518 690.936L366.787 690.639C367.477 690.545 368.186 690.443 368.909 690.34C379.472 688.827 393.087 686.878 396.267 699.9C397.586 705.302 395.08 721.586 393.781 726.821L393.77 726.869C393.472 728.271 390.802 746.578 390.254 750.696L390.159 751.462C435.993 752.798 485.816 755.403 531.601 757.341L535.328 757.497C582.538 759.449 629.804 760.5 677.041 758.531L677.129 758.528C677.505 758.516 678.248 758.506 679.265 758.492C686.811 758.393 709.445 758.095 709.341 755.041C709.122 748.619 692.65 672.118 688.328 651.418L687.751 648.632C687.557 647.689 687.61 646.721 687.662 645.75C687.688 645.275 687.714 644.802 687.711 644.331C690.452 650.701 694.921 656.531 699.551 661.111C709.081 670.531 720.721 678.121 732.391 684.632C758.341 699.121 787.441 701.811 814.961 690.851C820.271 689.671 825.16 687.311 829.721 684.291C839.681 677.701 847.901 668.552 853.881 658.241C866.678 636.217 870.31 608.465 871.788 583.281L871.941 580.561C873.391 553.132 870.821 525.962 866.601 498.871C857.291 439.161 843.141 380.222 835.041 320.321C835.971 319.401 836.741 318.321 837.321 317.031C838.651 314.071 837.021 311.451 833.881 311.041C830.767 310.632 828.03 311.338 825.165 312.078C824.323 312.296 823.469 312.516 822.591 312.712C822.141 312.811 821.691 312.901 821.231 312.972L821.376 312.417C822.285 308.692 821.971 304.779 821.661 300.922C821.57 299.788 821.48 298.659 821.421 297.541C821.131 292.052 820.841 286.561 820.681 281.061C820.381 270.441 820.521 259.802 821.561 249.222C822.621 238.441 824.831 227.831 828.441 217.621C831.821 208.031 836.561 198.951 839.351 189.151C844.751 170.212 839.641 151.601 828.871 135.621C821.782 125.101 811.771 117.281 800.681 111.291C794.621 81.6512 797.411 50.6322 785.431 22.3022C782.761 16.0012 779.631 8.69116 774.431 4.04116ZM764.91 13.0019L764.941 12.8612C765.321 12.9722 765.651 13.2122 765.931 13.5812C767.211 15.1912 768.341 16.7012 769.391 18.5012C777.259 32.0295 780.116 47.2488 783.16 62.3707L783.711 65.0912C786.511 78.7612 787.891 92.6712 790.471 106.382C788.411 105.501 786.341 104.671 784.261 103.882C778.461 101.701 772.081 99.6512 765.702 99.0412C767.361 94.0012 767.741 88.2412 768.381 83.3312L768.542 82.0466C769.63 73.0365 769.817 63.6503 769.331 54.6012C768.831 45.1912 767.301 35.8412 766.141 26.5012L766.066 25.9189C765.937 24.9603 765.779 23.9708 765.619 22.9655C765.093 19.6672 764.539 16.1976 764.891 13.0812C764.897 13.0545 764.904 13.0278 764.91 13.0019ZM760.702 107.341C752.952 107.341 745.631 109.871 739.771 116.761C741.861 118.751 743.531 121.061 744.452 123.771C747.321 122.201 750.361 120.972 753.471 120.101C762.961 117.451 775.941 117.491 783.921 124.001C788.101 127.401 783.511 133.501 779.011 132.451C774.981 131.511 771.481 129.771 767.251 129.571C763.581 129.391 759.981 129.871 756.461 130.931C751.091 132.552 746.211 135.621 742.621 139.851C741.421 141.271 740.371 142.811 739.491 144.472C732.791 157.191 737.841 175.431 747.091 185.901C743.461 173.841 747.081 159.621 754.311 149.632C763.015 137.604 776.034 136.241 789.749 138.118L790.202 138.181C803.471 140.052 819.901 143.321 829.821 153.071C828.831 150.821 827.691 148.641 826.41 146.531C818.891 134.151 806.421 124.491 793.481 117.601C791.311 116.431 789.121 115.351 786.941 114.351C778.651 110.541 769.411 107.341 760.702 107.341ZM691.271 145.621C692.481 130.531 700.961 114.861 718.481 117.431C724.351 118.291 737.381 122.811 734.631 130.731C734.521 131.052 734.401 131.361 734.261 131.651C733.181 132.811 732.181 134.041 731.281 135.341C726.687 138.738 719.112 138.307 713.291 137.976C712.63 137.939 711.991 137.902 711.382 137.873L710.651 137.841C706.101 137.671 705.051 144.861 709.571 145.851C714.821 147.011 720.501 147.901 725.931 147.281C725.671 148.321 725.461 149.371 725.301 150.421C725.051 150.472 724.811 150.521 724.561 150.561C722.751 150.861 720.921 150.851 719.101 150.701C715.911 150.462 713.641 153.991 714.421 156.851C715.271 159.921 718.801 161.222 721.551 159.741C722.702 159.132 723.801 158.451 724.861 157.691C725.341 171.361 733.161 184.382 747.531 188.311C747.671 188.351 747.801 188.341 747.911 188.291C749.461 192.231 751.921 195.802 754.991 198.691C750.571 199.281 746.231 203.021 743.841 206.281C739.351 212.441 737.761 222.071 742.871 228.151C746.361 232.311 752.391 229.472 753.952 225.231C754.858 222.782 754.899 219.985 754.94 217.191C754.97 215.183 754.999 213.176 755.351 211.302C755.991 207.891 757.471 204.731 758.391 201.441C762.901 204.561 768.301 206.341 773.952 206.101C780.311 205.831 787.421 202.712 789.901 196.451C790.741 194.341 790.861 192.331 790.611 190.361C796.351 194.241 805.681 196.481 811.191 192.661C813.291 191.201 813.741 187.791 811.191 186.431C808.428 184.956 805.945 184.803 803.097 184.775L801.091 184.761C799.691 184.746 798.297 184.653 796.905 184.559C794.646 184.407 792.391 184.256 790.121 184.441C789.791 184.472 789.481 184.561 789.202 184.701C788.731 183.241 788.251 181.771 787.911 180.271C790.391 179.722 792.771 178.821 795.051 177.472C796.181 176.791 797.251 175.321 797.081 173.921C796.44 168.618 791.413 169.935 787.076 171.072C785.525 171.478 784.063 171.861 782.921 171.911L782.702 171.925C780.315 172.123 778.439 173.976 778.391 176.431C778.331 179.231 778.861 181.871 779.671 184.552C779.826 185.058 780.039 185.629 780.265 186.236C781.046 188.328 781.99 190.857 781.301 192.701C779.321 197.921 770.531 196.911 766.681 195.261C754.264 189.959 753.343 175.006 757.359 163.802L757.611 163.121C759.871 157.212 763.621 151.052 769.571 148.281C775.069 145.73 781.552 146.055 787.503 146.723L789.021 146.901C796.161 147.761 803.311 149.212 810.291 150.981C816.871 152.641 823.321 154.611 830.131 154.861C830.282 154.871 830.41 154.811 830.511 154.731C832.681 160.081 833.961 165.741 834.151 171.561C834.452 180.722 831.681 189.351 828.321 197.751C824.921 206.251 821.241 214.561 818.831 223.411C816.441 232.141 814.91 241.132 813.931 250.121C812.801 260.391 812.521 270.741 812.651 281.061C812.721 286.561 812.891 292.052 813.171 297.541L813.196 298.089C813.234 298.966 813.257 299.855 813.281 300.75C813.39 304.905 813.502 309.187 815.081 312.972C815.211 313.291 815.391 313.581 815.601 313.841C815.044 313.911 814.486 313.977 813.928 314.041L808.542 314.634C801.067 315.43 793.568 316.016 786.061 316.291C778.291 316.571 770.281 316.501 762.581 315.421C757.001 314.641 751.781 313.171 746.531 311.552C748.978 306.349 747.332 299.8 745.885 294.045C745.751 293.513 745.619 292.988 745.492 292.471L745.012 290.489C743.062 282.553 740.552 274.778 737.181 267.321C733.641 259.491 729.311 252.291 724.241 245.351L723.715 244.626L721.754 241.936C718.77 237.864 715.487 233.627 711.651 230.481C710.531 228.321 709.531 226.071 708.541 223.831C705.291 216.411 702.621 208.712 700.161 201.001C698.631 196.201 697.171 191.321 695.871 186.382C692.401 173.061 690.181 159.321 691.271 145.621ZM349.057 191.831C347.814 184.384 354.309 176.138 362.09 180.33C365.1 181.952 366.101 186.171 364.375 189.048L364.199 189.35C364.018 189.649 363.82 189.936 363.612 190.216L363.62 190.248C364.241 190.906 364.452 192.484 364.562 193.679L364.665 194.922C364.871 197.999 364.109 200.915 362.046 203.3C358.019 207.956 352.591 208.298 346.956 207.788L345.919 207.686C345.689 207.662 345.407 207.605 345.1 207.543C344.428 207.408 343.642 207.249 343.056 207.359C342.92 207.53 342.544 207.93 342.47 208.363C342.126 210.366 342.371 212.337 342.87 214.296C343.15 215.397 343.458 216.494 343.767 217.59C345.11 222.366 346.45 227.129 345.426 232.177C344.284 237.809 340.246 242.583 334.682 244.265C330.651 245.482 326.59 245.063 322.515 244.642C321.404 244.527 320.292 244.412 319.18 244.33C313.829 243.936 309.948 244.949 309.481 251.036C309.313 253.218 309.796 255.441 310.276 257.654C311.014 261.054 311.747 264.432 310.113 267.61C309.775 268.268 309.025 268.413 308.366 268.321C301.694 267.391 298.011 258.332 297.341 252.446C296.599 245.929 298.926 238.811 304.179 234.692C309.265 230.703 315.699 230.714 321.819 231.333L321.991 231.351C322.549 231.412 323.144 231.494 323.756 231.579C327.973 232.164 332.998 232.861 332.093 227.176C331.681 224.589 330.867 222.165 330.056 219.752C328.873 216.228 327.697 212.726 327.793 208.771C327.955 202.084 331.256 195.559 337.969 193.405C340.813 192.493 343.568 192.665 346.409 192.995L348.217 193.216C348.609 193.316 349.002 193.386 349.399 193.434C349.268 192.872 349.163 192.382 349.117 192.157L349.057 191.831ZM561.209 228.85C554.388 227.026 547.21 229.511 542.519 234.661C538.577 238.99 536.535 244.306 534.711 249.74L533.669 252.866C532.153 257.292 530.411 260.805 524.992 259.117C522.93 258.475 520.951 257.692 518.988 256.916C514.337 255.076 509.783 253.274 504.472 253.483C497.606 253.754 490.887 256.707 486.107 261.657C481.217 266.72 478.883 273.774 479.921 280.725L479.989 281.15C480.53 284.352 485.213 295.78 490.177 290.519C492.392 288.173 491.955 285.576 492.481 282.595C492.981 279.755 494.051 276.97 495.804 274.667C498.912 270.585 503.911 268.994 508.798 270.438C515.244 272.343 520.937 276.27 527.881 276.362C535.186 276.46 541.388 272.672 545.417 266.725C548.67 261.924 549.83 256.305 552.119 251.085L552.339 250.587C554.261 246.292 555.571 244.741 559.973 246.795L561.511 247.533C568.102 250.664 575.515 253.531 582.33 249.115C588.661 245.014 591.36 236.772 586.035 230.771C583.097 227.458 576.296 228.022 574.387 232.272C574.052 233.003 573.741 233.744 573.435 234.487C572.852 234.309 572.285 234.093 571.747 233.791C568.175 232.181 565.073 229.884 561.209 228.85ZM183.119 266.009C172.737 255.328 154.72 261.118 147.619 272.448C146.146 274.797 148.579 277.775 151.165 277.061C152.887 276.587 154.807 275.723 156.822 274.818C162.037 272.473 167.888 269.843 172.6 272.921C176.503 275.471 175.548 281.337 174.799 285.939C174.619 287.046 174.451 288.079 174.365 288.976L174.301 289.666C173.74 295.962 173.613 304.576 178.517 309.288C181.339 312.001 185.668 311.634 189.39 311.247L190.574 311.124C194.962 310.683 199.321 309.909 203.524 308.559C207.388 307.319 211.049 305.634 214.679 303.849L215.587 303.401C215.766 303.312 215.992 303.194 216.254 303.057C218.342 301.963 222.732 299.665 224.158 301.429C224.932 302.388 223.214 306.345 222.612 307.733C222.563 307.844 222.522 307.94 222.49 308.015C220.862 311.821 218.792 315.405 217.299 319.279C214.668 326.104 214.448 333.804 218.143 340.317C221.723 346.628 229.48 351.741 236.355 346.893C240.291 344.117 240.28 339.067 236.355 336.289C234.278 334.819 232.184 333.85 231.326 331.384C230.206 328.169 231.647 324.758 233.042 321.782L234.712 318.241C238.412 310.334 242.109 301.24 236.94 293.158C231.602 284.813 220.753 284.681 212.546 288.157C207.862 290.141 203.588 292.802 198.707 294.337C195.33 295.4 191.94 296.11 188.481 296.499C187.989 293.845 188.255 290.988 188.514 288.194C188.662 286.608 188.808 285.041 188.812 283.543C188.83 277.262 187.66 270.681 183.119 266.009ZM685.99 335.693C687.066 329.947 693.632 328.886 698.035 330.793C700.38 331.808 703.437 334.675 706.233 335.599L706.382 335.262C706.642 333.127 708.078 331.037 710.266 330.623C721.378 328.52 725.331 341.527 718.043 348.778C714.16 352.642 708.11 353.37 703.01 351.989C701.671 351.627 700.428 351.091 699.23 350.472C697.354 356.451 694.626 362.1 690.012 366.563C682.707 373.628 672.794 375.558 663.235 372.255C661.936 371.807 660.325 371.025 658.555 370.165C652.387 367.172 644.278 363.236 640.675 369.162C638.18 373.266 637.047 378.282 635.665 382.837L635.552 383.212C634.25 387.598 633.29 392.274 629.498 395.12C628.348 395.983 626.459 395.532 625.522 394.607C619.102 388.274 623.065 373.341 625.997 365.534L626.314 364.706C629.949 355.414 637.604 349.468 647.881 350.442C652.946 350.922 657.455 352.655 662.08 354.676C662.566 354.888 663.07 355.118 663.587 355.354C667.166 356.984 671.404 358.916 675.156 357.541C682.021 355.025 684.058 346.293 685.337 339.309L685.99 335.693ZM363.661 348.19C361.048 343.589 352.276 345.235 353.003 351.076L353.235 352.894C353.533 355.382 353.598 357.72 351.879 359.933C349.793 362.619 346.222 363.431 342.981 363.02C340.12 362.658 337.692 361.341 335.285 360.036C331.918 358.211 328.595 356.409 324.191 357.275C318.061 358.481 313.828 363.497 311.377 368.966C308.782 374.758 308.837 381.037 306.904 387.001C304.678 393.86 299.931 393.544 294.003 391.144L292.727 390.62C292.389 390.479 292.051 390.338 291.713 390.197C286.375 387.963 280.989 385.71 275.047 386.769C264.552 388.642 255.514 404.779 265.347 412.571C267.122 413.977 270.224 413.243 270.149 410.583L270.139 410.079C270.089 405.239 271.31 398.992 276.858 397.851C280.72 397.057 284.913 399.098 288.883 401.032C290.959 402.043 292.975 403.024 294.851 403.555C309 407.557 317.06 396.908 319.463 384.313L319.55 383.831C320.318 379.422 320.924 371.264 325.535 369.2C327.379 368.374 329.316 369.692 331.037 370.863C331.61 371.253 332.158 371.627 332.672 371.899C335.865 373.593 339.291 374.669 342.903 374.944C356.265 375.963 371.448 361.91 363.661 348.19ZM743.625 350.815C743.649 345.667 735.649 345.661 735.625 350.815C735.33 416.036 704.818 476.322 699.337 540.895C698.903 546.025 706.905 545.996 707.337 540.895C712.82 476.303 743.33 416.141 743.625 350.815ZM397.628 414.395C406.028 403.897 418.32 392.925 432.634 399.349C437.882 401.704 441.829 406.424 443.017 412.08C443.922 416.393 443.269 420.549 442.61 424.747C442.339 426.478 442.066 428.215 441.901 429.974C440.631 443.474 456.738 436.633 465.329 432.985C466.471 432.5 467.481 432.071 468.299 431.754L468.708 431.599C479.903 427.474 495.573 428.983 500.799 441.44C503.415 447.677 501.561 453.795 499.232 459.737L498.686 461.126C497.169 465.079 497.571 465.706 499.181 468.219C499.58 468.841 500.052 469.578 500.588 470.509C502.506 473.841 501.558 479.026 497.881 480.834C488.422 485.482 480.428 477.7 480.381 468.119C480.362 464.277 481.417 460.643 483.002 457.183C483.401 456.312 484.01 455.353 484.645 454.353C485.938 452.318 487.338 450.113 487.289 448.141C487.131 441.705 475.704 444.531 472.572 445.612L471.988 445.816C470.302 446.415 468.638 447.072 466.976 447.729C461.371 449.943 455.806 452.141 449.584 451.994C442.591 451.828 435.124 449.117 431.297 442.913C427.243 436.343 428.491 429.03 430.119 421.965L430.568 420.035C432.1 413.174 430.194 408.14 422.5 406.813C414.358 405.41 407.036 410.015 400.406 414.186C400.115 414.369 399.826 414.551 399.538 414.732L398.423 415.427C397.74 415.849 397.195 414.937 397.628 414.395ZM795.012 436.642C795.024 436.198 794.478 435.858 794.095 436.116C785.198 442.097 779.246 454.585 782.589 465.224C784.212 470.39 787.664 474.921 792.51 477.429C798.535 480.545 805.188 479.359 811.518 478.026L814.207 477.451C816.102 477.052 817.972 476.76 819.901 477.292C820.563 477.475 821.331 478.052 821.96 478.176C821.7 478.618 821.424 479.385 821.284 479.669L820.825 480.592C820.365 481.527 819.916 482.499 819.634 483.482C818.688 486.777 818.922 490.315 820.454 493.39C823.308 499.118 829.294 502.347 835.526 502.895C836.677 502.997 838.371 502.755 840.227 502.49C844.354 501.899 849.28 501.195 850.806 503.912C855.196 511.73 867.697 506.472 865.267 497.815C863.624 491.962 858.963 488.18 853.188 486.597C850.111 485.754 846.926 485.868 843.797 486.213C842.571 486.348 841.349 486.538 840.122 486.668L839.207 486.753C839.291 486.743 838.742 486.724 838.019 486.699C837.189 486.67 836.131 486.632 835.54 486.593L835.778 485.952C835.813 485.861 835.845 485.782 835.874 485.721C837.118 483.06 838.04 480.409 837.965 477.436C837.828 472.075 834.358 467.398 829.799 464.817C825.596 462.436 820.591 461.486 815.813 462.017C814.029 462.216 811.989 462.827 809.872 463.461C805.755 464.694 801.342 466.017 797.932 464.569C794.041 462.917 792.72 457.156 792.66 453.381C792.612 450.383 793.225 447.467 793.838 444.55C794.387 441.935 794.937 439.319 795.012 436.642ZM67.6296 456.676C72.6416 454.286 78.8116 452.806 83.0236 457.576C86.7483 461.796 85.8156 467.521 84.6173 472.662L83.2861 478.241C82.6368 480.944 81.9806 483.644 81.3806 486.36C81.2106 487.127 81.0096 487.91 80.8066 488.702C82.4792 488.059 84.2233 487.339 86.0072 486.602C99.0653 481.212 114.256 474.94 119.151 491.442C121.093 497.993 118.886 503.935 116.34 509.774L114.972 512.882C114.6 513.732 114.314 515.65 113.89 516.898C114.09 516.849 114.287 516.8 114.475 516.751C114.508 516.587 115.874 515.698 116.668 515.179L117.345 514.729C119.866 513.126 123.832 514.381 125.188 516.947C128.826 523.83 123.741 531.743 116.714 533.624C109.32 535.604 101.647 532.294 98.4006 525.319C94.9647 517.936 98.0131 511.189 101.033 504.503C101.344 503.816 101.654 503.13 101.956 502.445L102.273 501.72C102.84 500.407 103.102 499.114 103.37 497.797L103.577 496.804C102.285 497.772 99.3986 498.157 97.8406 498.709L84.7626 503.344L84.0242 503.611C83.6793 503.738 83.3322 503.869 82.9831 504C79.7036 505.231 76.248 506.529 72.7646 505.763C62.3766 503.475 64.5636 492.658 66.8146 485.226L67.3536 483.453C68.4364 479.908 69.5532 476.366 70.7926 472.874C71.4156 471.12 72.1496 469.409 72.7816 467.661C73.1266 466.809 73.4196 465.941 73.6606 465.055C69.8096 465.666 65.9656 467.389 62.2726 468.575C57.3586 470.155 52.4286 471.246 47.3636 472.22C45.3636 472.603 44.2926 470.11 45.9916 468.964C52.8976 464.3 60.1016 460.265 67.6296 456.676ZM331.863 528.515C336.783 524.895 343.02 529.867 343.248 535.048C343.641 543.946 333.265 547.819 325.88 546.628C324.445 546.397 323.038 545.891 321.693 545.408C318.145 544.133 315.025 543.012 312.94 547.482C310.311 553.116 310.7 559.851 309.328 565.824C307.805 572.46 304.436 578.938 298.322 582.388C289.987 587.088 282.152 584.178 274.232 581.236C270.522 579.858 266.793 578.473 262.986 577.86C257.312 576.948 253.336 579.656 252.203 585.378C251.105 590.921 252.943 596.086 254.776 601.235C255.673 603.756 256.569 606.274 257.119 608.83C257.244 609.406 256.636 609.962 256.086 609.624C243.499 601.887 235.977 582.763 247.476 570.722C255.946 561.851 266.437 565.19 276.487 568.388C279.065 569.208 281.615 570.02 284.094 570.613L284.406 570.685C290.51 572.041 293.761 569.571 294.791 563.245C295.877 556.573 295.117 549.934 297.432 543.427C299.916 536.444 304.754 529.866 312.379 528.192C316.81 527.221 320.802 528.281 324.953 529.598L326.535 530.106C327.439 530.394 328.292 530.634 329.208 530.637L329.522 530.298C330.288 529.684 331.069 529.091 331.863 528.515ZM615.785 575.725C608.904 572.112 600.421 573.486 594.222 577.864C587.271 582.773 583.86 590.314 581.54 598.284C579.852 604.087 579.043 612.089 574.192 616.291C569.575 620.289 562.406 617.548 556.687 615.362C555.411 614.874 554.208 614.414 553.121 614.062C545.91 611.731 537.245 610.776 530.209 614.225C523.314 617.606 519.991 624.501 519.279 631.888C518.614 638.782 519.602 647.861 523.535 653.63C523.922 654.198 524.661 654.052 524.906 653.45C527.491 647.085 526.993 639.803 529.092 633.216C531.333 626.185 536.585 624.697 543.253 626.589C550.208 628.561 556.577 632.253 563.73 633.567C571.356 634.968 578.907 633.524 584.919 628.484C589.977 624.244 593.04 618.068 595.11 611.915C597.127 605.916 597.456 597.885 601.752 592.905C602.836 591.648 604.725 590.13 606.479 589.969C608.327 589.799 609.339 590.724 610.522 591.806C611.006 592.249 611.52 592.719 612.132 593.15C617.685 597.068 626.549 597.147 629.949 590.255C631.062 587.998 631.614 584.794 629.949 582.585C627.03 578.714 624.633 578.746 620.781 579.583C620.658 579.48 620.521 579.347 620.368 579.167L620.25 579.024C619.231 577.733 617.252 576.496 615.785 575.725ZM834.657 600.485C837.912 597.558 842.858 596.999 846.5 599.597C848.798 601.236 849.764 603.388 849.432 606.122L849.392 606.417L849.003 608.224C848.751 609.361 848.444 610.636 848.257 610.979C847.746 611.913 847.047 612.753 846.487 613.661C844.938 616.172 843.606 618.804 841.514 620.936C836.263 626.294 828.255 626.324 822.265 622.282C821.062 621.471 818.571 618.573 816.64 617.567C816.931 617.914 816.511 618.473 816.013 619.137C815.694 619.562 815.342 620.03 815.125 620.513C812.577 626.174 812.529 632.409 809.27 637.921C805.665 644.02 799.051 647.976 791.887 647.548C786.224 647.209 781.618 644.365 777.146 641.258L774.393 639.326L774.099 639.12C770.326 636.477 766.044 633.477 761.907 637.254C759.071 639.844 759.664 643.248 760.256 646.643C760.58 648.504 760.903 650.362 760.662 652.08C760.405 653.909 758.362 654.886 756.775 655.04C748.852 655.806 744.642 644.835 744.739 638.548C744.87 630.018 750.45 622.699 758.239 619.598C766.107 616.464 774.068 618.26 781.074 622.608C784.06 624.461 786.795 626.702 789.842 628.46C791.178 629.231 792.528 629.895 793.123 629.559C794.742 628.644 795.231 624.9 795.606 623.053L795.686 622.688C796.618 618.725 797.418 614.93 799.287 611.255C803.228 603.507 811.431 597.464 820.457 599.89C823.921 600.819 826.734 602.904 829.426 605.179L829.604 605.327C829.666 605.377 829.73 605.428 829.796 605.48L830.209 605.8C831.526 603.807 833.56 601.538 834.463 600.667L834.657 600.485ZM111.406 654.519L109.618 653.458C103.762 650.002 97.7297 646.815 90.6356 648.415C83.8776 649.938 79.0836 655.425 76.5646 661.608C75.3746 664.529 74.7536 667.475 74.2946 670.587C74.0366 672.329 73.8626 674.086 73.5566 675.821L73.4542 676.359C73.3157 677.049 73.1037 678.012 72.9106 678.846C71.0666 678.034 69.2096 676.747 67.7006 675.983L66.4836 675.371C63.6275 673.949 60.656 672.596 57.5436 671.938C50.8016 670.513 43.3226 672.574 39.4686 678.614C36.1723 683.778 36.2396 689.867 37.5007 695.655L37.5906 696.058C38.1376 698.46 40.9646 708.079 45.0766 706.676C49.0756 705.311 49.6096 699.995 49.9126 696.453L49.9351 696.115C49.9571 695.684 49.9618 695.175 49.9669 694.622C49.9932 691.751 50.0306 687.668 52.5666 686.818C55.3167 685.897 59.9163 688.71 63.4853 690.893C64.8206 691.709 66.0116 692.438 66.9076 692.849C72.7926 695.551 79.2576 696.349 84.0466 691.091C88.3404 686.377 88.7026 679.477 89.8139 673.499L90.1009 671.993C90.6904 668.955 91.8311 664.102 95.1926 664.225C97.9396 664.327 100.956 667.173 103.22 668.524C105.719 670.016 108.314 671.259 111.026 672.319C117.355 674.793 124.392 675.583 131.125 674.853C135.026 674.431 137.566 672.568 138.945 668.9C139.412 667.823 139.768 666.712 140.014 665.563C142.2 657.35 130.256 651.487 125.852 658.835C120.771 658.642 116.041 657.274 111.406 654.519Z" transform="translate(30.9999 -61.99936)" fill="#000000" fill-rule="evenodd" stroke="none"></path></g><g transform="translate(225 0)"><g><g><path d="M252.793 0C297.565 0 351.283 21.7046 355.85 22.1387L355.973 22.1453C358.376 22.1453 367.765 29.2985 384.141 43.6049L366.404 78.1989L367.84 79.5695C374.708 86.1548 380.572 92.1572 385.201 96.8888C422.992 135.523 429.785 287.213 420.878 340.112C411.972 393.011 395.476 444.774 318.678 444.774C241.879 444.774 156.439 398.596 143.278 384.216C134.503 374.63 124.647 370.037 113.71 370.438C113.26 369.87 112.815 369.305 112.372 368.741L110.763 368.513C95.6259 366.321 84.7798 363.37 78.2251 359.662C65.4219 352.418 51.3497 314.339 51.3497 305.951C51.3497 297.646 30.3369 237.234 29.9167 230.841L29.9103 230.664C29.9103 225.319 2.45921 200.752 2.45921 192.95C2.45921 185.147 -3.07401 185.621 2.45921 158.127L4.06676 150.05C9.95497 120.778 21.4798 72.3064 65.4219 51.2442C113.71 28.0989 207.57 0 252.793 0Z" transform="translate(-7.992421 58.70615)" fill="#FFFFFF" stroke="none"></path><path d="M294.952 1.14476C225.78 -7.23636 89.0586 32.3017 64.9759 57.8635C33.2369 83.9005 9.06486 144.648 1.68586 171.493C-0.0351405 179.159 -0.806141 187.687 1.16686 195.963C2.83758 206.706 8.84988 217.802 15.2437 226.989C15.2209 226.951 15.2529 226.872 15.3112 226.763L15.3959 226.613C18.083 230.297 21.3818 234.904 24.3887 239.009L25.6569 240.733C25.6519 240.764 25.6363 240.821 25.618 240.886C25.5455 241.147 25.4312 241.559 25.772 241.147L25.9069 240.973C26.1669 241.193 26.5069 241.413 26.8859 241.623L27.6159 242.633C28.2069 243.093 28.8369 243.473 29.5069 243.793C30.1569 244.153 30.8459 244.433 31.5559 244.643C31.5959 244.643 31.6269 244.643 31.6569 244.633C30.7849 278.287 38.5211 293.702 45.069 306.749C48.7185 314.021 51.9988 320.557 53.2139 329.105C54.8469 346.847 61.1629 363.303 77.2319 372.203C95.3989 382.161 124.768 394.314 139.457 381.593C148.24 393.149 159.311 403.525 171.957 411.693C173.846 413.233 175.826 414.603 177.877 415.833C180.056 417.403 182.247 418.953 184.417 420.533C186.887 421.903 189.467 423.063 192.137 424.013C192.417 424.143 192.556 424.093 192.627 423.953C193.467 424.293 194.306 424.603 195.177 424.873C196.195 425.318 195.622 423.987 195.218 423.193L195.056 422.883C195.627 423.093 196.197 423.293 196.777 423.483C197.157 423.533 197.366 423.373 197.387 422.993C197.266 422.313 196.967 421.713 196.476 421.203C196.016 420.553 195.497 419.783 194.927 419.073C195.407 419.263 195.896 419.463 196.387 419.643L196.493 419.685C197.388 419.978 196.612 418.177 196.497 418.003C196.476 417.983 196.467 417.963 196.447 417.933C196.797 418.063 197.146 418.203 197.497 418.323C198.297 418.683 198.717 418.333 198.527 417.493C198.146 416.803 197.697 416.153 197.186 415.563C196.707 414.933 196.167 414.363 195.567 413.853L193.527 412.873L193.391 412.745L193.257 412.623C193.317 412.523 193.356 412.423 193.356 412.343C187.491 407.509 177.881 404 171.616 398.543C169.927 397.363 168.297 396.113 166.686 394.843C151.957 381.107 140.56 363.67 131.737 345.112C130.573 344.178 129.592 345.583 130.826 347.303C130.6 347.187 130.383 346.609 130.124 345.922C129.557 344.416 128.793 342.384 127.311 343.532C127.302 343.593 127.294 343.648 127.287 343.697C127.245 343.98 127.229 344.09 127.255 344.188C127.298 344.355 127.462 344.491 127.826 345.403C127.825 345.511 127.824 345.603 127.824 345.682C127.821 345.965 127.819 346.085 127.848 346.197C127.904 346.417 128.074 346.607 128.567 347.922L128.737 348.383C128.587 348.403 128.417 348.453 128.266 348.543C128.655 348.254 123.731 341.214 124.606 346.073C124.564 346.059 124.552 346.054 124.539 346.054C124.533 346.053 124.527 346.055 124.516 346.056C124.502 346.059 124.48 346.062 124.441 346.066L124.286 346.073C124.313 345.574 121.762 344.607 122.667 346.983C122.577 346.963 122.515 346.889 122.438 346.799C122.231 346.556 121.922 346.194 120.697 346.443C81.5229 354.093 71.6599 274.957 109.887 266.673C110.137 266.853 110.536 266.823 110.646 266.483C119.636 263.959 132.39 265.438 138.587 274.963C138.28 275.907 143.464 279.537 140.257 274.353C140.507 274.603 140.757 274.783 141.007 274.853C141.421 276.754 146.1 280.48 142.917 274.563C142.947 274.563 142.987 274.553 143.027 274.543C143.419 276.329 148.398 278.776 144.826 273.683C160.7 268.433 158.187 253.529 155.802 239.385C155.006 234.664 154.225 230.028 154.146 225.863C158.396 203.789 158.557 190.282 180.627 175.303C196.104 161.186 196.186 135.831 214.266 122.973C232.692 108.85 256.307 106.499 279.141 105.031L287.561 104.506C314.516 102.994 340.797 101.399 367.677 99.9335C369.516 100.543 371.356 101.063 373.217 101.533C378.636 103.113 384.136 104.133 389.707 104.583C391.697 107.543 393.547 110.583 395.277 113.703C397.786 117.863 400.067 122.163 402.106 126.583C423.072 172.469 427.338 224.568 427.846 275.258L427.873 278.359C429.612 436.884 322.225 487.363 248.226 430.473C247.586 430.246 246.859 429.399 246.059 428.468C244.748 426.941 243.244 425.188 241.616 425.573C241.322 424.346 237.133 422.478 239.377 425.623C239.333 425.694 239.292 425.759 239.254 425.819C238.842 426.468 238.789 426.552 239.755 427.499L240.837 428.543C240.766 428.683 240.747 428.813 240.766 428.943C239.606 427.843 238.467 426.713 237.346 425.533L237.012 425.371C234.491 424.2 235.502 426.034 237.188 427.832L237.246 427.892L237.059 427.742C236.694 427.458 236.226 427.135 235.606 426.763C235.467 426.613 235.326 426.483 235.197 426.333C232.27 425.813 234.84 428.474 236.823 430.309L237.877 431.263C237.856 431.393 237.866 431.513 237.917 431.633C236.797 430.553 235.697 429.453 234.627 428.323C232.097 429.226 236.684 433.118 240.421 436.289C241.995 437.624 243.417 438.83 244.096 439.633C284.463 474.319 340.731 473.379 376.652 445.404C436.114 401.256 443.6 319.705 440.606 251.433C439.706 215.498 433.561 178.844 423.686 143.623C418.035 129.628 411.054 114.914 402.237 101.903C403.286 99.3635 404.106 96.9135 404.457 94.2535C407.246 86.5525 405.706 76.8925 401.579 69.0735C410.462 51.5634 388.198 39.3046 372.762 30.8053C368.858 28.656 365.391 26.7471 362.975 25.0545C348.636 14.8035 330.71 8.66647 313.356 4.61347C307.987 3.17347 302.547 2.11347 297.027 1.41347L294.952 1.14476ZM156.839 33.4435C201.601 20.9345 247.738 10.6005 294.646 14.6335C298.377 14.7135 302.047 15.2035 305.667 16.0935C323.142 19.7765 341.23 24.9985 357.008 34.6495C364.927 37.5245 372.615 40.9075 379.392 45.9865C369.953 44.0345 360.964 39.8325 351.532 38.9945C350.641 38.6935 349.75 38.3955 348.859 38.1005C287.723 32.0575 199.849 49.1955 167.661 88.7365C132.051 131.723 110.594 207.831 109.657 252.943C63.9789 259.716 60.1489 331.365 97.2069 352.413C100.458 355.065 105.481 357.741 110.226 358.793C110.707 358.893 111.197 358.973 111.686 359.053C113.161 359.496 114.81 359.973 117.427 360.133L117.924 360.171C120.24 360.312 122.503 360.009 124.707 359.253C125.326 359.113 125.297 358.703 125.076 358.293C125.417 358.203 125.747 358.123 126.076 358.013C126.887 359.713 127.737 361.393 128.616 363.053C128.657 363.123 128.697 363.183 128.726 363.243C127.639 363.768 127.866 364.364 128.613 365.592L129.346 366.783C121.167 368.545 112.049 366.058 103.699 362.907L102.614 362.492C76.146 353.704 74.3219 342.648 72.0485 328.869C70.8792 321.782 69.5911 313.975 64.7709 305.385C41.5398 267.317 43.145 239.43 44.824 210.262C45.509 198.36 46.2064 186.246 45.2339 173.139C43.0119 173.481 43.7919 174.34 42.7609 176.962C37.8209 193.745 34.6599 210.664 32.8059 228.093C14.9859 210.554 8.94086 182.231 20.7659 157.113C34.3079 123.306 49.8259 86.6905 79.8769 63.6735C101.386 48.1287 128.299 41.5935 153.751 34.331L156.839 33.4435ZM223.167 35.1131C215.938 30.6631 195.125 25.2621 210.925 36.6171C223.019 46.7931 228.094 39.4581 223.167 35.1131ZM165.699 48.5083C155.76 37.6549 182.359 48.0521 186.343 50.9381L186.457 51.0233C189.43 53.1163 188.827 57.6243 186.034 58.9483C180.277 59.0576 175.622 55.6122 171.007 52.1967C169.251 50.897 167.501 49.6017 165.699 48.5083ZM140.627 75.682C134.193 73.5444 119.499 68.6624 120.798 73.5932C129.818 78.5722 139.693 83.0132 148.7 88.8992C153.093 91.5922 160.185 90.3572 156.681 84.3952C153.691 80.0803 147.959 78.3519 142.959 76.4889L142.176 76.1932C141.743 76.0526 141.22 75.879 140.627 75.682ZM118.811 125.522L115.534 123.39C97.8503 111.816 72.8511 94.2793 117.186 112.423C122.239 114.59 128.953 115.872 131.71 120.684C136.041 129.553 124.643 130.149 118.811 125.522ZM102.079 162.351C104.084 150.029 79.0213 140.725 70.5363 143.833C66.6403 145.531 68.2203 149.397 71.8903 151.218C78.633 154.887 84.2971 158.575 90.5774 162.781L94.1863 165.204C96.9513 166.801 100.885 165.18 102.079 162.351ZM107.566 289.183C109.2 288.296 109.623 288.569 109.889 288.741C110.023 288.828 110.117 288.889 110.306 288.763C127.972 287.322 147.021 302.789 156.896 315.683C156.182 316.425 154.355 314.478 153.766 313.851C153.712 313.792 153.668 313.746 153.636 313.713C153.586 313.763 153.526 313.803 153.466 313.823L153.741 314.211C157.744 319.955 149.809 313.196 149.066 311.803C148.936 311.873 148.806 311.913 148.656 311.883C149.285 312.5 151.206 314.109 151.536 315.253L152.045 315.677C156.848 319.79 156.449 322.883 150.997 317.043C151.126 317.313 151.176 317.563 151.086 317.763L151.274 317.888C153.955 319.762 156.16 324.985 150.556 319.623C151.01 322.672 147.392 318.76 145.674 316.902C145.185 316.374 144.85 316.012 144.806 316.023C134.188 307.688 118.555 299.582 105.236 298.493L104.778 298.441C102.334 298.127 101.178 297.401 102.036 295.803C99.0262 295.087 99.7312 293.605 101.156 293.653C99.0332 292.257 100.944 290.922 102.176 291.443C101.58 289.792 103.087 290.078 104.14 290.278C104.583 290.362 104.944 290.43 105.036 290.333C106.23 288.492 106.833 288.938 107.189 289.2C107.358 289.325 107.472 289.409 107.566 289.183ZM238.524 429.117L238.123 428.76L238.475 429.201C238.66 429.429 238.849 429.634 239.157 429.843C239.137 429.773 239.137 429.703 239.146 429.623C238.942 429.468 238.733 429.297 238.524 429.117Z" transform="translate(-14.99996 50.99953)" fill="#000000" fill-rule="evenodd" stroke="none"></path></g></g><g transform="translate(159 186)"><g><path d="M140.63 0.473197L139.193 0.179116C137.503 -0.15929 135.804 -0.0161244 134.311 0.591153C132.847 1.18684 131.572 2.2242 130.68 3.72083C129.495 5.71373 129.337 7.38618 129.887 9.59525C130.311 11.3022 131.242 12.5864 132.46 13.5139C133.744 14.4911 135.37 15.0612 137.06 15.2595C144.854 16.175 152.53 17.8896 159.992 20.3235C163.488 21.4643 166.788 23.0096 170.058 24.6132L172.877 26.002C175.477 27.2735 178.163 28.499 181.557 29.3885C181.824 29.4584 182.087 29.5243 182.349 29.5865C183.29 29.2909 183.45 28.9329 183.649 28.6733L183.73 28.5721C183.972 28.2679 184.271 27.8025 183.988 25.6306C176.583 10.2711 156.267 3.74181 140.63 0.473197ZM43.5878 4.83023L45.4652 4.50163C51.273 3.49719 58.4944 2.53203 62.6028 7.20123C64.7819 9.67723 65.5318 14.2792 62.6028 16.6492C58.7671 19.7539 54.6298 19.6513 50.2182 19.5419C48.7043 19.5044 47.1582 19.466 45.5808 19.5562C40.4928 19.8482 35.6028 20.6902 30.7018 22.0912C19.9498 25.1642 11.1888 30.7742 2.00585 36.9342C0.800849 37.7422 -0.429151 36.2012 0.145849 35.0742C5.44685 24.6912 15.7198 16.1622 26.0098 10.9632C31.5019 8.18823 37.5118 5.88623 43.5878 4.83023ZM29.9632 50.1461C30.7976 39.7899 46.5702 37.4381 48.1392 47.6861C49.5442 56.8661 47.8902 65.2991 43.7552 73.5641C39.8042 81.4601 29.8737 77.7763 29.1227 70.5863C28.3809 63.4843 28.9069 59.2482 29.4428 54.933C29.6341 53.3921 29.8267 51.8412 29.9632 50.1461ZM159.205 41.8262C155.401 40.7152 152.226 42.6812 150.027 45.5612C149.773 45.8932 149.566 46.2222 149.38 46.5482C142.515 52.8562 145.101 65.6452 150.501 72.0492C153.814 75.9762 161.145 74.8452 163.413 70.3852C167.587 62.1722 171.09 45.2992 159.205 41.8262ZM128.748 119.039C136.872 107.66 125.366 96.9569 117.814 92.3669C115.836 90.9469 117.406 86.2431 121.634 86.9701C160.031 93.5671 140.136 159.708 91.112 123.413C85.2754 118.704 92.3434 108.334 98.6342 112.366C98.9532 112.611 99.2876 112.869 99.6364 113.139C106.704 118.603 119.636 128.601 128.748 119.039ZM93.5865 188.926C86.8642 186.184 80.8663 181.61 76.4812 175.766C74.9566 173.735 74.5614 171.589 74.8812 169.627C75.2408 167.421 76.546 165.422 78.326 164.08C80.1115 162.735 82.345 162.072 84.5043 162.41C86.3806 162.704 88.2484 163.731 89.7265 165.862L90.0354 166.288C92.6424 169.815 96.0396 172.708 99.9104 174.574C103.641 176.372 107.814 177.211 112.132 176.723C120.356 175.794 126.024 171.346 132.049 165.306C132.796 164.544 133.543 163.757 134.294 162.958C134.768 162.234 135.426 161.768 136.157 161.524C136.968 161.253 137.886 161.268 138.726 161.562C139.537 161.845 140.262 162.381 140.747 163.094C141.209 163.772 141.471 164.61 141.386 165.574C140.835 171.833 137.562 177.419 132.914 181.805C127.752 186.677 120.909 190.047 114.466 191.229C107.368 192.531 100.136 191.598 93.5865 188.926Z" transform="translate(53.00005 52.00027)" fill="#000000" fill-rule="evenodd" stroke="none"></path></g></g><g transform="translate(123 338)"></g><g transform="translate(47 241)"><g><path d="M375.513 33.9959C378.273 31.6829 383.089 31.1349 386.423 31.1279C394.028 32.5829 390.88 44.1729 376.385 36.9629C398.166 128.052 258.709 131.937 282.237 45.3469C268.157 41.9599 253.29 41.6839 240.365 48.1139C251.522 87.8139 214.401 125.982 171.734 116.181C144.179 109.783 125.789 88.4229 134.308 57.0269C128.899 58.7229 118.76 57.3109 115.622 53.0899C104.775 52.1634 93.9913 50.8415 83.2204 49.5212C59.091 46.5633 35.0273 43.6135 10.4674 45.1359C7.12749 45.5983 7.31436 47.952 7.50111 50.304C7.68714 52.6469 7.87304 54.9883 4.57241 55.4569C-3.01759 54.7649 -0.0355915 41.9389 5.39841 39.8539C13.0234 34.3889 78.5984 39.8119 116.105 49.6479C121.083 46.3825 128.583 47.3802 134.493 48.1664C135.445 48.2929 136.355 48.414 137.206 48.5109C144.594 30.0029 168.272 6.93191 192.028 10.8229C213.793 12.0919 232.079 20.6889 239.509 45.2399C250.854 34.9489 271.426 31.6259 284.509 39.4079C291.765 23.0939 304.532 10.8229 321.737 5.28991C343.585 -10.2001 368.707 11.0429 375.513 33.9959ZM358.311 87.4579C346.17 100.003 325.902 103.603 309.749 96.8749C268.273 79.5459 288.574 25.4959 320.561 10.9809C324.557 9.98491 329.894 7.62191 334.761 7.08591C334.928 7.0043 335.168 7.04274 335.465 7.09029C335.954 7.1686 336.598 7.27161 337.32 6.90391C372.591 10.8419 380.623 65.5939 358.311 87.4579ZM164.916 105.906C185.6 114.302 210.916 108.73 224.533 90.6689C249.948 57.3679 225.561 0.903908 166.504 23.0949C138.547 41.8849 124.054 89.8139 164.916 105.906ZM135.953 50.6509C135.915 50.6329 135.877 50.6239 135.838 50.6059C136.054 50.5109 136.27 50.4159 136.485 50.3189C136.415 50.5019 136.339 50.6829 136.271 50.8659C136.165 50.7929 136.072 50.7079 135.953 50.6509Z" transform="translate(13.99969 7.999794)" fill="#000000" fill-rule="evenodd" stroke="none"></path></g></g></g></g></svg>