<?xml version="1.0" standalone="no"?>
<svg viewBox="-350 -150 1500 1500" style="width: 585px; height: 585px; justify-content: center; align-self: center; transform: scale(-1, 1);" xmlns="http://www.w3.org/2000/svg"><rect x="-350" y="-150" width="100%" height="100%" fill="#ffd55a" rx="30"></rect><g transform="rotate(0 414.8352165222168 616.8316116333008)"><g transform="translate(0 459)"><path d="M400.156 0.660696C386.368 -0.290304 370.919 -0.723304 357.48 2.9967C345 6.4507 335.754 15.4727 331.918 27.7907C329.253 36.3468 329.358 45.5245 329.46 54.482C329.481 56.3087 329.502 58.1264 329.499 59.9277C329.49 65.8807 324.659 84.5117 322.196 87.4687C314.848 96.2907 305.062 101.823 294.428 106.925L294.018 107.12C280.125 113.689 228.628 133.597 225.079 136.551C218.347 142.156 210.779 140.513 202.899 145.079C183.958 156.054 164.584 166.044 146.134 177.886C126.858 190.257 46.8228 255.601 39.7538 263.948C31.8758 273.252 26.4428 283.665 24.0478 295.673C21.6268 307.814 21.0148 320.352 19.9508 332.664L19.1352 342.211C17.2515 364.489 15.5034 386.779 13.8908 409.079C10.1818 460.381 7.19178 511.735 4.92278 563.121C2.37578 620.807 0.745783 678.53 0.000765261 736.268C-0.0622169 741.525 3.76978 746.388 8.78078 747.793C48.8948 759.046 88.6086 768.387 130.477 770.578C136.046 770.869 135.795 769.099 135.476 766.847C135.065 763.951 134.541 760.26 146.134 759.132C157.705 758.005 182.926 759.604 207.157 761.141C228.076 762.468 248.256 763.747 258.278 763.186C327.666 759.297 397.164 759.837 466.635 760.377C482.116 760.497 497.596 760.617 513.073 760.689C555.884 760.886 598.709 760.715 641.495 759.132C652.023 758.742 662.546 758.27 673.065 757.694L673.651 757.663C683.454 757.169 694.546 757.605 703.318 752.66C712.786 747.323 715.878 737.096 716.337 726.878C716.814 716.246 716.735 705.557 716.834 694.915L716.874 690.168C717.516 606.313 714.495 522.428 707.837 438.835C706.134 417.461 704.193 396.105 702.015 374.772C700.942 364.272 699.812 353.775 698.625 343.286C697.517 333.503 698.449 320.104 690.532 312.976L690.251 312.717C680.045 303.126 576.082 189.355 573.348 175.794C570.514 161.737 560.299 152.989 547.399 148.126C527.24 140.526 505.072 134.566 491.496 116.76C485.89 109.405 483.379 100.959 481.576 90.8497C480.924 87.1949 480.6 84.7389 480.228 81.4628L479.278 72.8958C478.816 68.778 478.331 64.664 477.751 60.5597C476.333 50.5307 474.07 40.6567 469.245 31.6537C463.376 20.7017 453.744 13.0587 442.322 8.5137C429.183 3.2857 414.158 1.6277 400.156 0.660696ZM297.976 437.439L380.263 277.189L538.347 282.009L493.876 353.28L538.347 353.28L474.229 437.439L538.347 437.439L367.479 651.191L397.358 526.476L313.129 526.476L351.484 437.439L297.976 437.439Z" transform="translate(51.99511 -55)" fill="#FFFFFF" fill-rule="evenodd" stroke="none"></path><path d="M739.529 623.34C740.349 637.91 741.119 652.481 741.809 667.051C742.159 674.34 742.499 681.631 742.839 688.91C742.919 690.697 743.063 692.539 743.208 694.407C743.665 700.254 744.141 706.352 742.739 711.801C739.789 723.26 724.449 721.84 720.899 711.801C719.678 708.365 719.59 704.593 719.504 700.901C719.48 699.875 719.457 698.855 719.409 697.851C719.209 693.551 719.009 689.24 718.809 684.941C718.429 676.99 718.039 669.04 717.639 661.09C716.849 645.2 716.099 629.301 715.309 613.41C712.479 556.49 709.539 499.58 706.699 442.651C705.269 413.901 703.709 385.141 702.929 356.351C702.409 336.971 702.429 317.59 702.389 298.2C701.859 298.681 701.329 299.181 700.799 299.67C694.239 305.83 687.809 312.061 681.589 318.561C678.379 321.92 675.199 325.301 672.109 328.771C669.169 332.08 666.569 335.74 662.799 338.181C659.729 340.311 655.469 339.151 652.909 336.901C652.689 336.7 652.469 336.51 652.249 336.321C651.979 336.09 651.729 335.821 651.499 335.53C651.469 340.981 651.439 346.431 651.419 351.881C651.249 412.801 652.639 473.851 657.559 534.58C660.039 565.29 663.219 595.971 666.719 626.58C668.429 641.551 670.289 656.51 672.279 671.45C673.289 679.01 674.349 686.561 675.449 694.111C676.029 698.131 677.149 702.41 677.239 706.471C677.339 710.811 675.389 713.71 672.739 716.84C671.319 718.51 668.669 719.04 666.509 718.5C665.829 720.03 664.869 721.46 663.629 722.681C658.055 728.138 649.979 727.81 642.371 727.5C640.124 727.409 637.918 727.319 635.829 727.381C615.519 727.981 595.209 728.58 574.899 729.181C501.649 731.351 428.409 733.521 355.169 735.681C318.549 736.771 281.929 737.71 245.299 738.51C226.989 738.901 208.679 738.92 190.369 738.79C176.779 738.691 162.739 737.91 149.059 736.21C147.139 739.881 143.039 742.16 138.649 741.571C133.639 740.901 128.849 735.7 129.739 730.381C128.633 705.312 129.09 680.091 129.544 654.991C129.582 652.847 129.621 650.703 129.659 648.561C130.529 600.431 133.289 552.45 137.009 504.46C138.899 480.16 141.129 455.771 144.299 431.601C145.859 419.7 147.009 407.551 149.729 395.84C151.049 390.17 152.059 384.16 153.359 378.25C152.019 376.131 150.689 374.01 149.289 371.971C144.989 365.7 140.499 359.54 135.799 353.561C107.649 317.74 72.5889 286.92 34.8089 261.141C36.4089 264.321 35.4289 269.04 32.2389 270.7C31.6289 295.54 29.6289 320.28 27.9189 345.131C23.8389 404.53 20.3989 464.01 20.8389 523.58C21.0589 553.361 21.7289 583.16 22.9189 612.92C23.5289 627.971 24.2089 643.01 25.0089 658.051C25.4289 665.891 25.9289 673.731 26.3989 681.58C26.4261 682.03 26.4552 682.482 26.4842 682.934C26.9241 689.778 27.3697 696.713 21.7789 700.981C21.7689 701.04 21.7589 701.111 21.7489 701.17C21.0089 706.771 13.1189 708.75 11.3489 702.58C11.2589 702.25 11.1589 701.931 11.0689 701.601C3.77888 697.191 4.21888 687.981 3.67888 679.62C3.12888 671.12 2.64888 662.631 2.20888 654.131C1.32888 637.131 0.748882 620.12 0.398882 603.111C-0.841118 542.931 0.868882 482.561 4.70888 422.49C6.62888 392.391 9.17888 362.37 12.7689 332.42C15.2689 311.631 18.3789 291.071 23.0089 270.78C18.3989 269.431 14.7489 266.04 12.7589 260.92C11.0789 256.571 11.0089 252.151 12.1989 247.99C11.6289 249.33 11.1689 250.71 10.8289 252.12C10.6389 252.901 9.52888 252.551 9.64888 251.79C11.0889 242.651 17.5489 234.651 22.7689 227.28C28.1389 219.691 33.8689 212.33 39.9889 205.33C82.4389 156.78 138.489 124.901 196.179 97.761C200.189 95.87 204.199 94.011 208.219 92.17C209.519 91.58 210.779 91.481 211.919 91.731C211.919 91.731 211.929 91.74 211.929 91.731C214.739 90.901 217.939 91.88 220.319 93.761C222.509 95.49 224.439 96.99 226.139 99.25C227.159 100.62 227.399 102.441 227.119 104.17C234.169 102.271 241.119 99.95 247.949 97.391C263.459 91.58 278.399 84.601 293.329 77.441C305.109 71.79 319.049 65.851 326.159 54.24C330.229 47.611 331.499 39.74 332.889 32.2C334.499 23.481 335.739 14.611 337.789 5.981C338.619 2.521 342.179 0 345.649 0C347.219 0 348.369 0.5 349.769 1.111C353.269 2.651 353.999 7.061 353.509 10.321C352.119 19.63 349.869 28.891 347.959 38.111C346.249 46.391 344.139 54.851 339.549 62.061C330.959 75.54 316.479 82.91 302.419 89.38C285.839 97.011 268.959 104.761 251.349 109.731C242.749 112.151 233.969 113.861 225.079 114.7C224.749 114.731 224.409 114.761 224.079 114.78C228.059 116.96 232.059 119.08 236.039 121.181C248.779 127.91 261.649 134.321 274.829 140.151C321.639 160.851 373.389 171.571 424.569 170.721C450.149 170.301 475.589 167.09 500.399 160.771C513.729 157.361 526.979 153.16 539.559 147.551C546.449 144.481 553.189 141.061 559.669 137.21C561.299 136.24 562.879 135.221 564.439 134.2C552.489 130.16 540.669 125.561 528.999 121.04C514.529 115.45 501.669 108.441 492.189 95.851C484.029 85.021 480.279 71.95 478.819 58.63C477.429 45.931 477.319 31.79 479.759 19.21C479.969 18.13 481.559 18.24 481.829 19.21C485.249 31.2 486.719 43.641 490.419 55.611C493.789 66.471 498.169 77.62 505.099 86.731C513.209 97.391 525.229 102.45 537.429 106.95C549.839 111.521 562.459 115.53 574.929 119.91C581.369 120.46 587.759 122.011 593.959 124.16C591.669 122.62 589.419 121.021 587.269 119.321C586.849 118.981 587.319 118.34 587.779 118.46C595.879 120.54 604.109 124.59 611.629 128.25C619.249 131.971 626.729 135.96 633.979 140.361C649.069 149.53 663.679 159.641 676.409 171.941C688.709 183.811 699.149 197.391 708.699 211.53C713.309 218.361 717.709 225.34 721.979 232.391C724.119 235.91 726.229 239.46 728.319 243.011C730.709 247.071 733.769 251.17 734.869 255.78C735.479 258.34 726.699 288.561 722.889 294.721C722.569 295.231 722.249 295.721 721.919 296.21C717.519 302.731 708.639 298.59 709.189 292.051C708.679 292.5 708.159 292.96 707.649 293.42C711.639 317.321 715.619 341.21 718.469 365.28C725.259 422.7 729.479 480.311 734.009 537.941C736.239 566.381 737.909 594.861 739.529 623.34ZM206.969 105.061C207.349 104.891 207.719 104.721 208.089 104.551C208.279 104.821 208.509 105.071 208.749 105.321C209.349 105.931 209.939 106.59 210.559 107.191C209.359 106.49 208.159 105.78 206.969 105.061ZM483.369 326.881C490.549 317.271 498.369 298.061 505.759 288.62C513.699 278.481 521.619 268.33 529.879 258.45L528.929 257.651C526.695 260.579 522.386 260.268 518.899 260.016C518.468 259.984 518.049 259.954 517.649 259.931C513.079 259.681 508.509 259.391 503.949 259.071C485.349 257.78 408.819 257.401 402.859 255.651C400.829 261.25 398.899 266.76 396.449 272.231C393.449 278.95 390.439 285.67 387.429 292.381C381.689 305.181 375.639 317.84 369.539 330.46C363.299 343.381 357.059 356.29 350.819 369.21C347.769 375.5 344.509 381.74 341.669 388.131C340.959 389.731 339.649 393.09 339.759 395.26C363.209 388.631 387.079 385.141 411.409 384.481C412.304 384.455 413.194 384.442 414.086 384.425C391.92 415.553 373.212 449.542 359.567 484.75C358.937 486.377 359.419 487.68 360.388 488.522C360.097 489.119 359.798 489.712 359.509 490.311C360.462 490.022 361.419 489.748 362.372 489.463C363.773 489.738 365.342 489.405 366.409 488.268C390.122 481.317 414.133 475.447 438.379 470.67C443.349 469.691 447.319 474.51 444.899 479.151C444.289 480.321 443.679 481.481 443.079 482.651C431.419 505.051 419.989 527.571 408.449 550.03C402.379 561.851 396.309 573.66 390.239 585.481C390.209 585.53 390.189 585.58 390.159 585.631C396.899 577.361 403.529 569.01 410.069 560.571C436.049 527.021 462.259 493.78 486.559 458.96C492.789 450.03 498.799 440.941 504.779 431.84C507.849 427.16 510.899 422.46 513.929 417.74C514.199 417.33 515.559 414.66 516.529 413.181C516.062 413.156 515.594 413.118 515.123 413.08C513.557 412.954 511.964 412.826 510.319 413.141C505.119 414.151 499.959 415.78 494.829 417.101C485.549 419.471 476.279 421.851 466.999 424.231C465.679 424.561 464.359 424.901 463.039 425.24C456.659 426.881 451.979 424.12 456.649 418.03C457.879 416.431 459.109 414.83 460.359 413.24C478.809 389.521 495.489 361.71 515.579 339.321C505.799 340.061 496.019 340.79 486.229 341.311C481.329 341.58 477.349 335.2 480.329 331.03C481.329 329.641 482.339 328.26 483.369 326.881ZM665.679 335.301C665.489 335.49 665.289 335.681 665.099 335.881C665.319 335.571 665.509 335.25 665.679 334.931L665.679 335.301Z" transform="translate(42.99992 -23.0002)" fill="#000000" fill-rule="evenodd" stroke="none"></path></g><g transform="translate(225 0)"><g><g><path d="M451.63 368.844C447.666 362.982 438.121 320.442 432.024 313.899C432.484 288.769 439.431 201.762 419.588 162.65C423.762 158.429 434.854 122.074 432.024 108.331C441.372 79.549 381.319 33.8356 358.464 21.4828C252.243 -35.4759 98.3207 27.3968 50.0137 132.912C20.9847 196.457 20.4497 267.603 17.1677 335.978C16.7797 350.614 15.4347 365.364 15.4497 379.982C17.5487 392.827 27.7336 405.908 20.0126 416.589C11.4836 422.488 -5.75429 436.86 1.92071 445.01C6.41871 448.755 13.6037 446.582 18.4847 450.183C20.9697 451.573 22.5197 454.62 25.4257 455.083C51.9717 454.075 70.7042 453.989 97.3322 452.913C108.989 452.531 126.739 457.462 140.12 447.646C186.858 473.642 167.308 435.927 176.759 409.075C205.539 418.806 262.869 449.837 293.546 450.839C318.475 453.92 341.786 439.402 366.294 442.707C396.741 454.018 432.423 456.533 460.312 437.395C467.272 432.383 475.015 438.189 483.787 432.776C500.836 424.623 460.234 377.889 451.63 368.844Z" transform="translate(-20.01256 56)" fill="#FFFFFF" stroke="none"></path><path d="M277.777 0.620342C318.933 -1.94866 362.887 3.10934 399.855 22.4283C420.158 33.0373 435.851 49.0723 447.064 69.0273C453.759 80.9433 458.838 94.1383 460.762 107.704C462.738 121.643 460.418 134.072 451.518 145.152C447.983 149.552 442.029 144.637 442.9 140.135C448.228 112.591 439.586 85.3773 424.259 62.5743C402.018 29.4843 363.177 14.7853 325.36 8.22834C306.78 5.00834 287.935 3.66234 269.085 4.31734C254.714 4.81734 239.972 6.15634 226.334 10.9913C225.759 11.1953 225.53 10.2993 226.084 10.0883C242.352 3.87534 260.512 1.69834 277.777 0.620342ZM169.771 28.2817C171.042 27.6357 171.937 29.3167 170.859 30.1437C148.482 47.3047 128.442 69.0647 112.222 92.0957C82.3093 134.573 63.1253 183.727 54.2913 234.803C49.0753 264.966 47.7133 295.586 48.2343 326.151C48.4407 338.292 49.1341 350.397 49.9055 362.505L50.7763 375.927C51.1807 382.18 51.5185 388.38 51.2574 394.664L51.1863 396.116C51.059 398.363 51.0388 400.615 51.0186 402.865C50.9731 407.936 50.9277 412.991 49.6573 417.932C48.7163 421.59 43.5573 422.166 41.6893 418.973C41.3233 418.348 40.9813 417.703 40.6493 417.052C36.2713 424.192 30.6013 430.575 24.3103 436.277C27.3173 435.637 30.3533 435.229 33.4703 435.602C38.4113 436.194 42.8433 438.102 45.9793 441.446C49.0923 440.043 52.2933 439.077 55.9743 439.057C58.6853 439.043 60.7183 442.248 59.1713 444.629C56.0853 449.381 51.7793 452.045 46.8863 454.678C43.4186 456.544 39.2801 454.948 37.9996 451.258L37.9263 451.034C36.4853 446.366 28.8213 447.12 25.2053 447.842L24.1411 448.059C23.4462 448.204 22.753 448.352 22.0609 448.501C16.05 449.791 10.1294 451.062 3.98026 449.404C-0.442735 448.211 -1.59874 441.553 2.66526 439.343C16.1353 432.363 27.4433 422.987 39.0643 413.573C36.4983 407.282 35.0413 400.253 33.3613 393.856C30.9963 384.852 30.3053 375.164 29.4513 365.915C27.8283 348.33 27.2093 330.554 27.3833 312.9C27.9723 253.272 38.1703 193.459 64.2193 139.464C75.6313 115.811 90.6233 93.9237 108.344 74.5507C125.96 55.2917 146.535 40.0837 169.771 28.2817ZM344.254 65.1172C343.526 62.9382 340.934 61.5602 338.815 62.9032C332.47 66.9252 329.348 76.2452 326.028 82.6912C322.318 89.8942 318.433 96.9062 313.775 103.553C304.295 117.08 293.344 129.138 281.266 140.385C280.389 141.201 281.503 142.355 282.459 141.93C298.069 135 312.294 123.974 323.117 110.76C328.527 104.153 333.766 97.1192 337.84 89.5962C341.44 82.9482 346.822 72.7992 344.254 65.1172ZM377.805 70.9136C378.238 66.0106 371.178 65.7056 369.703 69.8166C367.532 75.8686 366.593 82.3166 364.593 88.4566C362.431 95.0936 359.693 101.519 356.429 107.689C350.034 119.781 341.956 130.622 331.995 140.007C331.59 140.389 332.177 140.931 332.592 140.604C343.682 131.865 353.605 121.46 361.379 109.649C368.705 98.5166 376.615 84.3916 377.805 70.9136ZM408.032 71.9527C409.386 67.2247 417.098 68.0297 416.779 73.1367C415.954 86.3297 409.73 99.5727 402.967 110.754C396.003 122.267 387.184 132.527 377.075 141.388C376.577 141.825 375.895 141.152 376.346 140.659C385.068 131.111 392.113 120.235 397.33 108.399C402.541 96.5797 404.508 84.2477 408.032 71.9527ZM295.882 81.7093C297.258 76.6253 290.915 73.0823 287.186 76.6463C281.149 82.4185 276.22 89.1576 271.421 95.9679L268.3 100.41C262.336 108.881 255.814 116.887 248.914 124.609C242.151 132.178 235.14 139.476 227.893 146.584C223.077 151.308 217.802 155.683 212.8 160.285C213.587 149.693 213.511 139.039 212.575 128.488C212.497 127.601 211.164 127.568 211.169 128.488C211.232 140.355 210.151 152.127 208.033 163.703C206.11 164.562 205.015 166.578 204.865 168.816C204.802 169.741 205.801 170.53 206.687 170.347C203.997 182.654 200.15 194.72 195.24 206.419C190.181 218.472 183.843 230.015 176.461 240.801C169.017 251.673 158.695 261.219 152.684 272.958C152.193 273.918 152.188 274.886 152.5 275.709C150.582 274.756 148.578 273.904 146.633 273.001L145.658 272.553C140.431 270.182 134.814 268.145 129.007 268.627C121.059 269.287 111.9 274.143 111.891 283.084C111.891 283.662 112.752 283.951 113.026 283.392C116.601 276.113 125.805 276.696 132.014 279.984C133.07 280.543 134.16 281.271 135.277 282.092C134.888 282.499 134.51 282.923 134.144 283.369C131.501 286.597 128.389 291.978 131.395 295.928C132.312 297.132 134.107 298.083 135.564 297.02C138.63 294.784 138.98 291.34 140.169 287.97C140.351 287.455 140.563 286.944 140.788 286.438C146.105 290.658 151.875 294.614 157.79 292.277C160.587 291.172 163.505 288.015 162.109 284.669C160.835 281.613 158.692 279.486 156.156 277.795C156.492 277.732 156.833 277.624 157.173 277.447C168.509 271.578 176.543 259.613 183.223 248.906L184.267 247.227C191.537 235.504 197.537 222.977 202.252 210.015C207.148 196.554 210.384 182.494 212.038 168.244C218.888 165.137 225.371 160.774 231.49 156.46L234.091 154.618C242.726 148.485 250.942 141.619 258.504 134.199C266.116 126.73 273.218 118.705 279.847 110.354C286.737 101.674 292.956 92.5293 295.882 81.7093ZM442.592 155.722C441.435 153.522 438.444 155.141 438.822 157.312C441.407 172.144 445.798 186.56 448.164 201.455C450.549 216.474 451.112 231.789 450.665 246.976C449.782 276.952 445.502 307.088 436.514 335.731C428.252 362.06 416.748 389.726 397.549 410.063C388.077 420.096 376.733 427.64 363.512 431.756C349.575 436.093 334.746 436.861 320.25 435.937C293.082 434.207 262.2 425.113 244.255 403.318C243.39 402.267 241.981 403.606 242.488 404.681C248.201 416.81 256.203 426.172 267.429 433.566C279.1 441.255 292.365 445.75 306.054 448.212C332.396 452.948 361.812 451.466 385.479 438.224C387.627 440.36 390.171 442.208 392.362 443.705C397.661 447.328 403.389 450.103 409.493 452.086C421.829 456.09 434.737 457.298 446.688 451.607C450.316 449.879 448.297 444.558 444.748 444.444C442.055 444.358 439.342 444.337 436.623 444.317C428.417 444.254 420.15 444.191 412.184 442.32C407.049 441.115 401.858 439.414 397.076 437.183C395.785 436.581 394.465 435.847 393.125 435.082L391.779 434.31C392.885 433.552 393.982 432.777 395.056 431.961C418.721 413.961 432.949 386.466 443.455 359.232L444.093 357.565C448.65 345.589 452.495 333.128 455.481 320.435C455.729 321.914 455.987 323.391 456.258 324.867C458.621 337.689 461.562 350.317 465.715 362.687C469.759 374.735 474.72 386.649 481.288 397.553C486.399 406.04 492.791 416.407 501.751 421.716C500.456 421.791 499.16 421.901 497.829 422.026C496.083 422.19 496.08 424.581 497.829 424.745C500.962 425.039 503.905 425.3 507.045 425.026C507.589 424.978 507.99 424.748 508.253 424.431C512.297 424.984 514.462 420.406 512.998 416.943C508.797 407.005 499.334 399.439 493.371 390.491C487.184 381.209 481.979 371.278 477.699 360.98C473.313 350.427 469.732 339.491 466.331 328.586C464.702 323.361 463.2 318.099 461.614 312.861L460.794 310.133C460.25 308.314 459.711 306.493 459.178 304.671L458.889 303.679C461.264 289.74 462.529 275.65 462.445 261.721C462.335 243.613 460.348 225.701 457.341 207.863C454.364 190.211 450.997 171.703 442.592 155.722ZM94.6408 265.709C103.216 246.42 130.344 229.309 148.535 247.247C148.876 247.582 148.529 248.313 148.034 248.108C136.719 243.419 122.867 249.383 115.036 257.913C108.823 264.679 105.09 273.367 104.349 282.524C103.608 291.689 105.799 301.255 111.886 308.344C115.079 312.063 119.391 315.583 124.465 316.03C127.571 316.303 130.363 315.085 133.159 313.864C134.976 313.072 136.794 312.279 138.701 311.893C142.352 311.155 145.108 313.446 145.466 317.045C146.255 324.988 138.347 330.319 131.492 331.614C124.118 333.006 116.592 331.485 110.238 327.489C89.7158 314.583 85.2888 286.748 94.6408 265.709ZM150.52 318.692C149.574 318.071 148.225 319.338 148.916 320.296C162.22 338.701 173.862 358.643 180.666 380.42C187.529 402.388 188.014 425.016 191.135 447.612C191.834 452.672 198.659 451.302 200.084 447.612C209.037 424.444 203.463 397.231 194.385 375.014C185.214 352.573 171.001 332.145 150.52 318.692ZM97.466 372.694C97.496 372.069 96.485 371.918 96.361 372.545C94.215 383.398 91.634 394.204 88.487 404.811C86.992 409.85 85.392 414.865 83.562 419.793C81.579 425.131 78.168 430.722 77.204 436.28C76.379 441.041 82.747 444.471 85.429 439.748C88.113 435.022 88.886 428.803 90.084 423.513L90.5675 421.361C91.6876 416.338 92.7467 411.301 93.655 406.236C95.647 395.123 96.919 383.972 97.466 372.694ZM133.036 393.652C133.148 393.253 133.8 393.322 133.772 393.752C133.259 401.72 132.911 409.785 131.909 417.709C131.422 421.56 130.778 425.386 130.23 429.228C129.668 433.168 129.753 437.146 127.462 440.511C124.426 444.972 116.36 443.717 116.631 437.578C116.818 433.343 118.764 430.625 120.587 426.908C121.756 424.525 122.775 422.062 123.758 419.587L125.218 415.875C128.12 408.514 130.897 401.277 133.036 393.652ZM164.657 403.855L164.896 403.61C165.828 402.597 167.218 403.272 167.663 404.341C169.087 407.766 168.841 411.671 168.603 415.434C168.537 416.485 168.471 417.524 168.443 418.539L168.419 419.554C168.322 424.265 168.389 428.678 166.253 433.027C163.659 438.308 156.824 435.028 156.295 430.33C155.835 426.251 157.276 422.24 158.673 418.352C159.032 417.354 159.388 416.364 159.708 415.382C160.703 412.33 161.428 409.156 162.941 406.386C161.647 406.609 160.355 407.056 159.172 407.379C158.642 407.522 158.442 406.744 158.948 406.564C160.904 405.872 163.112 405.352 164.657 403.855ZM438.281 418.15C437.47 417.772 436.691 418.703 437.316 419.402C444.907 427.9 456.662 432.929 467.878 433.939C472.564 434.363 472.535 427.047 467.878 426.627C457.131 425.658 448.021 422.699 438.281 418.15Z" transform="translate(-41.99957 58.00006)" fill="#000000" fill-rule="evenodd" stroke="none"></path></g></g><g transform="translate(159 186)"><g><path d="M158.318 0.693899C152.624 -0.294101 146.406 -0.326101 140.801 1.2469C136.392 2.4829 129.461 5.2939 127.556 9.7969C127.172 10.7059 127.178 12.1069 128.286 12.5789C129.782 13.0739 132.392 13.3339 132.12 12.7759C133.404 12.6387 134.699 12.3881 136.002 12.1362C138.05 11.74 140.115 11.3407 142.172 11.3749C146.542 11.4479 150.621 12.2129 154.693 13.8459C158.359 15.3159 161.795 17.4139 164.72 20.0749C168.265 23.2989 170.235 28.1409 174.422 30.5579C179.558 33.5219 185.507 29.6969 185.778 24.0419C186.103 17.2698 180.049 11.7076 174.976 7.88481L174.436 7.4819C169.789 4.0409 164.01 1.6819 158.318 0.693899ZM11.2575 13.4754C20.3265 5.4474 36.8055 -2.3056 49.0345 1.6454C56.0655 3.9164 59.1305 15.2454 51.2815 18.8364C42.1925 22.9944 31.7135 21.3024 22.4625 25.6124C18.5775 27.4234 14.9235 29.6864 12.2185 33.0054C10.0875 35.6214 7.91949 39.0634 4.83749 40.5714C4.02749 40.9684 2.93049 40.9784 2.28149 40.2424C-4.47451 32.6004 5.35849 18.6964 11.2575 13.4754ZM183.351 63.4506C187.073 48.5286 170.526 33.8726 156.389 35.0376C149.225 35.6286 142.842 39.7526 138.922 45.7026C136.183 49.8606 133.59 58.1526 137.91 62.1356C138.52 62.6976 139.347 62.6636 139.965 62.1356C142.475 59.9866 143.924 56.4336 146.347 54.0056C149.03 51.3166 152.561 49.4036 156.389 49.1456C159.862 48.9116 163.093 50.4356 165.367 53.0596C168.122 56.2376 168.018 59.6236 169.057 63.4506C170.945 70.4056 181.566 70.6106 183.351 63.4506ZM38.1784 39.9406C45.5584 38.6316 53.1184 40.4666 59.2254 44.7846L59.6882 45.1175C65.5717 49.4203 72.1545 56.9758 68.7784 64.3926C67.4234 67.3706 63.3654 67.8376 60.7904 66.4876C56.5034 64.2396 55.7264 58.7086 51.9014 55.6476C48.7644 53.1386 44.5404 51.6166 40.5004 51.9836C31.0094 52.8456 25.1714 62.2066 22.2234 70.2736C21.8464 71.3056 20.3314 71.7066 19.7394 70.5986C12.7884 57.6066 25.0924 42.2626 38.1784 39.9406ZM129.748 109.04C137.871 97.6606 126.365 86.9575 118.814 82.3675C116.836 80.9475 118.406 76.2437 122.633 76.9707C161.03 83.5677 141.135 149.708 92.1117 113.413C86.2751 108.705 93.3431 98.3342 99.6339 102.366C99.9529 102.611 100.287 102.87 100.636 103.139C107.704 108.604 120.635 118.602 129.748 109.04ZM74.1496 134.293C79.7437 125.091 91.6675 147.632 92.9344 151.508C94.0565 154.942 94.7972 158.459 95.1736 162.017C99.5106 162.989 104.014 162.991 108.458 162.139C115.063 160.872 119.1 157.322 124.84 154.273C128.805 152.166 133.802 154.636 135.864 158.13C138.289 162.243 136.744 166.511 133.554 169.577C127.505 175.391 115.603 176.727 107.707 175.183C103.183 174.299 99.0371 172.602 95.3756 170.136C95.3514 170.597 95.3352 171.057 95.2989 171.516L95.229 172.313C94.6223 178.761 92.85 186.869 87.8417 191.065C79.6274 197.947 69.4898 184.711 77.4715 177.836L77.7189 177.63C82.6801 173.621 83.7624 162.866 83.4952 156.943C83.3201 153.076 82.6158 149.16 81.395 145.478L81.144 144.745C80.7765 143.704 76.7699 133.837 75.3221 135.094L75.253 135.165C74.6559 135.877 73.6911 135.047 74.1496 134.293Z" transform="translate(52.00031 61.9997)" fill="#000000" fill-rule="evenodd" stroke="none"></path></g></g><g transform="translate(123 338)"></g><g transform="translate(47 241)"><g><path d="M314.024 93.4625C333.15 107.282 369.087 94.5517 378.267 83.0828C386.399 72.922 391.327 59.0269 390.695 41.7577C390.616 38.7724 391.502 36.6176 392.907 34.8843C394.48 32.9455 398.905 29.4027 401.506 28.0201C404.775 26.2828 400.579 0.816439 400.301 0.786495C367.066 -2.79457 334.253 6.30769 303.477 18.8718C286.742 25.1834 247.226 16.4545 235.621 13.8907C234.318 13.6029 233.366 13.3928 232.839 13.2904C196.359 7.0863 157.13 3.16601 123.036 17.9269C122.764 18.0449 118.906 18.993 117.774 18.8718C95.2701 16.4619 56.425 17.1006 30.2932 28.0201C9.16148 36.8503 -0.130007 55.4079 0.00420779 63.6069C0.16202 65.3484 9.07173 59.7484 14.2199 56.5126C15.2594 55.8592 16.1455 55.3023 16.7753 54.9216C44.4742 34.6206 83.8064 38.2989 114.906 44.0692C116.631 44.3894 132.384 46.3174 135.238 48.4816C138.249 50.7646 141.687 61.6144 141.687 61.6144C145.066 86.0741 159.927 103.848 178.713 112.159C188.519 116.497 221.713 115.097 240.062 105.261C250.421 98.1247 256.035 87.5178 261.736 76.9756C266.79 67.6283 271.892 58.3049 279.773 50.9847C281.18 49.6774 284.51 50.9021 284.782 52.7434C287.339 70.0118 294.897 79.6428 314.024 93.4625ZM377.122 45.7609C376.456 55.7782 372.083 65.8885 365.507 73.6601C359.234 81.0725 350.979 86.3271 342.101 87.5358C334.263 88.6029 325.889 86.58 317.868 79.9721C311.83 74.9808 306.878 68.4389 303.991 61.2326C301.333 54.5986 300.421 47.4073 301.958 40.3207L301.965 39.4865C302.931 37.1465 304.04 36.0556 305.234 35.4291C310.307 29.9706 325.522 21.5188 340.23 17.7369C351.605 14.812 362.418 14.8991 368.537 20.1513C375.287 27.6141 377.728 36.6444 377.122 45.7609ZM251.728 67.6737C255.63 62.0286 256.862 49.3476 255.228 40.0964C254.4 35.4123 252.794 31.6838 250.778 29.8278C249.438 28.5941 247.91 28.0133 246.242 28.0995C245.328 28.1468 244.338 28.4068 243.29 28.9721C229.096 21.2945 211.902 18.5302 195.603 19.3252C182.629 19.3228 173.371 22.3853 167.094 27.1525C159.54 32.8887 156.137 41.1349 155.94 50.0778C155.706 60.6894 160.065 72.2986 167.216 81.4845C174.061 90.2767 183.423 96.7948 193.581 98.2987C205.111 100.588 216.862 98.3732 227.078 92.9563C237.556 87.4007 246.407 78.4781 251.728 67.6737Z" transform="translate(-7.999279 10.99843)" fill="#FFFFFF" fill-rule="evenodd" stroke="none"></path><path d="M403.623 0.802188C369.897 -2.83181 336.584 6.33919 305.419 19.0632C287.397 25.8602 269.822 21.4413 252.221 17.0159C246.936 15.6871 241.649 14.3577 236.346 13.3312C199.28 7.02819 160.279 4.95419 125.661 19.9422C125.135 18.9992 123.574 18.9052 122.843 19.6622C84.5652 15.5632 -0.904759 18.9992 0.00724127 66.7622C0.397241 71.5532 3.94324 78.4762 9.69924 77.3582C14.9532 73.3192 15.2452 64.0232 21.4632 60.4072C50.0518 39.3764 91.3849 44.8718 122.424 50.9872L124.311 51.3622C136.258 51.3103 139.154 53.9214 141.576 64.4521L141.733 65.1502C148.949 116.75 205.131 139.715 244.764 110.73C264.411 97.1952 267.924 71.8702 284.602 56.3072L284.815 56.1812C296.407 134.479 399.502 121.38 396.694 44.6772C396.564 39.7211 399.997 37.8963 403.857 35.8443C410.652 32.2323 418.771 27.9164 411.11 4.57919C409.874 0.635188 406.412 -0.258812 403.623 0.802188ZM400.52 9.62019C381.819 8.68519 364.521 9.70819 346.165 14.2032C336.491 16.5372 329.067 19.4882 319.807 23.0372C292.474 35.1468 276.584 31.3393 253.706 25.8574C228.241 19.7554 194.118 11.579 125.919 20.9712C127.594 28.1452 127.902 35.2482 127.992 41.9882C146.097 41.2586 148.883 52.8689 152.022 65.9542C153.467 71.9747 154.986 78.3074 158.107 83.8943L158.412 84.4292C172.846 110.297 206.906 122.363 234.381 105.205C257.303 91.8452 259.539 57.9602 282.361 44.5122C294.295 44.0429 296.154 53.5723 298.115 63.6171C299.404 70.2241 300.737 77.054 305.008 81.4082C320.162 101.629 352.373 104.456 371.375 85.4362C380.29 76.2842 385.028 64.6642 385.29 52.1802C385.39 50.5796 385.415 48.9737 385.439 47.3839C385.536 41.0516 385.629 34.9734 390.449 30.4892C394.676 26.1952 402.186 27.6282 403.048 21.1372C403.596 17.2992 402 13.1362 400.52 9.62019ZM374.329 19.94C358.586 6.30099 313.421 27.555 304.559 38.048C303.559 38.454 302.711 39.244 302.24 40.481C301.974 40.791 301.928 40.7343 301.92 40.983L301.914 41.669C298.254 58.034 306.617 74.934 319.329 85.541C357.495 117.274 403.062 52.141 374.329 19.94ZM251.464 31.4965C235.513 22.3855 215.857 19.1595 197.28 20.0745C128.44 20.0055 155.952 97.7685 195.438 103.49C220.749 108.534 247.036 93.3455 258.327 70.2435C266.164 59.4425 263.271 22.1005 251.464 31.4965ZM101.641 24.192C111.382 23.6992 118.918 23.3178 122.171 22.2162C121.221 26.718 120.698 31.3064 120.203 36.2112L119.741 40.8352C97.3982 36.3662 74.8612 33.9072 52.2002 38.1542C35.5402 41.2762 17.0082 47.0292 8.06024 61.5262C14.5494 28.5988 69.8428 25.801 101.641 24.192ZM373.928 57.565C383.104 7.79689 347.276 23.0718 315.206 36.7443C313.409 37.5105 311.624 38.2716 309.859 39.016C311.644 40.647 311.636 42.874 311.123 44.704C307.615 83.7 355.012 105.798 373.928 57.565ZM250.33 34.0005L249.319 33.8528C247.008 33.5002 244.159 32.9745 240.915 32.3759C220.142 28.5431 183.185 21.7238 167.641 38.2375C150.2 69.9065 194.447 123.1 240.492 80.7305C253.307 67.6835 258.274 51.8625 250.33 34.0005Z" transform="translate(-10.99964 8.000212)" fill="#000000" fill-rule="evenodd" stroke="none"></path></g></g></g></g></svg>