<?xml version="1.0" standalone="no"?>
<svg viewBox="-305 -150 1500 1500" style="width: 585px; height: 585px; justify-content: center; align-self: center; transform: scale(1, 1);" xmlns="http://www.w3.org/2000/svg"><g transform="rotate(0 519.7896137237549 592.7927093505859)"><g transform="translate(0 459)"><path d="M971.081 233.472C956.802 234.874 942.523 236.274 928.243 237.676C859.855 242.901 791.494 253.813 723.63 260.362C721.94 257.612 718.633 258.065 716.625 259.976C709.853 259.383 702.263 254.207 696.129 259.591C695.93 259.563 695.731 259.53 695.529 259.511C684.607 238.548 677.058 216.189 669.73 193.8C665.054 180.035 658.761 166.71 647.133 157.468C627.289 143.693 581.822 115.76 558.52 116.934C558.134 112.762 556.189 108.462 552.995 105.684C560.034 93.6851 531.892 85.8561 529.907 87.2471C531.179 47.1591 512.322 12.3451 470.742 4.36214C433.492 -3.39986 380.509 -4.70386 360.475 34.2251C358.273 33.9771 335.762 33.8599 333.584 34.1039C330.197 29.8149 293.008 70.457 308.25 84.606C171.978 144.888 94.4928 137.695 56.7747 307.164C51.6756 323.084 51.3042 340.505 45.9198 356.07C26.7635 400.801 11.2258 448.432 7.35888 497.104C-1.98054 499.497 -3.05463 515.964 7.76329 518.346C11.8955 519.257 15.3509 520.501 18.364 522.86C16.0086 562.746 25.6553 653.86 31.7335 653.579C44.127 693.022 99.4086 704.154 138.546 690.293C131.799 702.986 138.546 710.967 138.546 717.749C279.373 723.077 433.353 720.008 574.141 727.315C592.15 727.059 611.092 731.738 628.855 729.045C639.688 726.448 639.706 709.415 628.718 707.309L676.731 696.881C675.658 696.476 696.522 682.598 712.291 656.665C726.969 627.655 716.979 592.637 723.63 561.081C775.574 556.833 828.377 555.017 879.753 546.22C886.758 567.179 917.082 542.113 926.721 532.03C926.709 532.014 926.697 531.999 926.685 531.983C931.349 530.707 935.09 526.335 935.215 521.159C938.486 516.485 939.173 509.897 936.036 505.38C950.414 422.412 972.335 337.7 980.258 253.952C983.058 253.332 985.696 252.104 987.932 250.212L987.751 250.031C991.54 245.807 992.277 238.516 985.96 234.927C980.865 232.029 976.611 232.928 971.081 233.472Z" transform="translate(25.00024 -24.00044)" fill="#FFFFFF" stroke="none"></path><path d="M369.072 6.18403C373.315 -4.47897 387.658 -0.33397 386.059 10.868C385.102 17.578 381.427 24.665 378.126 30.546C375.438 35.333 372.372 40.005 368.215 43.593C375.615 50.497 383.296 57.149 391.172 63.465C399.766 70.356 408.803 76.708 418.144 82.546C426.335 87.666 434.896 92.202 442.617 98.044C449.796 103.475 456.336 110.007 459.664 118.534C463.209 127.614 461.668 136.992 459.058 146.066L458.758 147.092C456.091 156.082 451.474 166.919 457.876 175.389C461.135 179.701 465.873 182.755 469.964 186.202C473.6 189.266 477.013 192.598 480.143 196.177C486.968 203.979 492.519 212.758 496.022 222.54L496.335 223.429C499.338 232.088 501.532 242.696 497.475 251.198C496.311 253.635 492.557 252.843 491.905 250.47C490.431 245.094 490.508 239.464 489.272 234.012C487.986 228.342 485.846 222.96 483.051 217.868C477.643 208.017 470.319 199.603 461.666 192.489L459.076 190.383C452.326 184.843 446.124 178.966 444.754 169.798C443.288 159.989 447.218 150.645 449.745 141.361C451.506 134.891 452.081 128.689 450.178 122.842C447.853 126.637 444.681 130.239 442.172 133.452C437.175 139.853 432.131 146.215 427.1 152.589C421.942 159.125 416.911 165.764 412.12 172.575C409.977 175.622 407.857 178.687 405.744 181.755C404.155 184.061 401.939 186.365 400.207 188.717C400.628 189.975 400.596 191.425 399.833 192.455C390.648 204.865 377.581 178.971 374.173 172.429C367.233 159.106 362.068 144.952 355.105 131.632C347.89 117.824 339.674 104.384 330.517 91.778C324.978 84.153 318.77 76.991 313.703 69.124C301.766 79.948 286.058 87.204 271.63 93.784C255.777 101.013 239.308 106.918 223.055 113.188L218.254 115.053C190.249 125.983 161.56 137.99 138.283 157.403C110.93 180.216 94.7478 212.012 82.7008 244.938C68.8328 282.843 57.3598 321.771 46.6648 360.674C41.1918 380.579 35.9988 400.574 31.1168 420.633C26.8148 438.305 23.2488 456.153 18.2688 473.643C28.3688 473.286 39.8878 477.196 48.5108 478.325C87.8098 483.469 126.58 491.669 163.683 505.866C168.266 507.62 169.592 512.197 168.594 515.907C171.237 515.161 173.878 514.405 176.521 513.663C173.625 509.226 175.007 501.294 175.235 496.376L175.249 496.038C175.483 489.485 176.194 482.925 176.655 476.384C177.533 463.915 178.675 451.537 180.195 439.14L180.583 436.04C182.305 422.552 183.578 408.985 185.457 395.52L185.679 393.979C184.778 390.534 183.729 387.131 182.628 383.743C179.694 374.718 175.553 366.223 171.924 357.482C171.496 356.453 172.962 355.862 173.647 356.479C179.793 362.008 184.675 369.022 188.597 376.358C188.665 376.012 188.725 375.665 188.796 375.319L189.243 373.116C190.347 367.744 191.689 362.092 194.985 357.735C195.336 357.272 196.03 357.175 196.362 357.735C199.516 363.072 199.869 369.831 200.354 375.904C200.903 382.774 200.972 389.731 200.875 396.62C200.686 410.083 199.737 423.584 198.981 437.025C198.239 450.233 196.783 463.274 194.906 476.352L194.549 478.805C193.631 485.03 192.88 491.333 191.67 497.515L191.328 499.198C190.681 502.264 190.283 506.587 188.995 510.178C222.133 500.935 255.322 491.903 288.574 483.03C312.607 476.616 336.665 470.298 360.713 463.94C361.982 461.653 363.562 459.517 365.534 457.608C372.031 451.316 380.641 448.509 388.538 453.352C389.18 453.747 389.234 454.753 388.538 455.134C387.025 455.961 385.509 456.809 384.02 457.693L398.46 453.782C409.253 450.857 420.175 447.202 431.222 445.163C451.569 435.122 473.453 427.854 494.887 420.671L497.413 419.817C508.387 416.075 519.739 411.886 531.078 409.812C539.379 408.294 549.123 410.126 552.461 418.63C556.687 421.415 560.663 424.688 564.5 427.907C567.274 430.233 569.933 432.706 572.637 435.114L573.135 435.552C575.346 437.47 577.097 438.754 577.64 441.807C577.92 443.384 576.918 445.516 574.973 445.307C569.022 444.67 564.183 437.772 560.147 433.653C557.029 430.469 553.886 427.177 551.04 423.678C549.381 424.581 547.107 424.419 546.051 422.419C540.575 412.05 525.574 419.235 517.274 421.694L505.384 425.213C499.439 426.975 493.497 428.746 487.565 430.548C471.261 435.499 455.037 441.04 438.585 445.587C440.057 447.205 439.854 450.083 437.058 451.178C424.18 456.231 410.052 458.844 396.673 462.311C388.226 464.502 379.784 466.706 371.345 468.923C369.898 471.267 368.857 473.919 368.419 477.006C366.808 488.357 369.914 501.453 372.94 512.431L373.396 514.069C375.883 522.895 379.542 533.715 387.157 539.288C389.016 540.647 391.383 541.593 393.769 541.807C408.676 534.134 423.582 526.462 438.497 518.804C441.26 517.385 443.813 519.306 444.433 521.59C449.692 520.727 454.939 519.367 459.718 517.745C467.748 515.018 474.018 509.817 481.546 506.22C496.112 499.262 510.987 507.809 524.028 514.307L527.034 515.784C532.882 518.622 545.05 524.073 547.856 516.312C550.57 508.804 541.989 500.78 536.447 497.401C529.841 493.372 522.149 491.216 514.683 489.42C510.42 488.394 506.105 487.557 501.764 486.946C496.84 486.253 491.754 486.357 487.013 484.76C484.657 483.968 484.295 480.226 487.013 479.608C494.311 477.947 503.021 479.759 510.637 481.61L514.618 482.591C522.291 484.474 530.038 486.837 537.027 490.593C542.109 493.325 547.473 497.475 550.977 502.555C554.02 499.728 557.807 499.824 561.752 500.872L563.893 501.468C567.429 502.447 570.295 503.122 573.736 502.443C574.196 499.94 574.662 497.436 575.161 494.932C580.064 470.318 585.441 445.798 591.374 421.409C601.608 379.341 613.45 337.735 626.8 296.556L628.14 292.439C631.219 283.02 633.697 272.758 638.661 264.105C643.356 255.923 650.878 251.21 659.815 248.714C669.957 245.882 680.614 244.4 690.96 242.487C693.268 242.061 695.582 241.656 697.892 241.237C695.94 237.712 694.483 233.711 693.17 230.641L692.94 230.109C690.12 223.68 687.587 217.136 685.141 210.556L683.312 205.61C678.895 193.699 674.336 181.984 668.127 170.844C661.591 159.12 652.92 149.535 642.111 141.602C620.073 125.426 593.51 117.175 572.135 99.888C571.259 99.18 572.382 97.969 573.271 98.417C587.704 105.669 603.285 110.6 618.297 116.504L621.258 117.672C633.124 122.376 645.174 127.497 655.444 135.112C666.894 143.604 675.912 154.15 682.69 166.691C689.37 179.053 693.643 192.89 698.356 206.094L699.616 209.612C701.517 214.888 703.481 220.148 705.731 225.282C707.517 229.358 710.85 234.011 712.365 238.667C716.51 237.948 720.654 237.227 724.803 236.534C814.67 221.53 905.541 212.714 996.614 210.135C1000.18 210.034 1002.02 213.434 1001.49 216.542C992.755 268.223 984.988 320.081 976.466 371.801C972.746 394.374 968.952 416.93 965.069 439.475C963.102 450.897 960.828 462.275 958.965 473.714C957.461 482.952 956.369 492.262 953.787 501.286C951.471 509.377 947.917 517.179 942.08 523.352C935.788 530.006 927.006 533.227 918.166 534.749C895.725 538.611 872.707 540.188 850.084 542.761L729.637 556.464C731.397 572.463 731.529 588.212 730.721 604.397L730.261 613.233C729.884 620.339 729.435 627.457 728.414 634.49C727.134 643.313 723.098 650.784 717.153 657.374C711.694 663.426 705.062 668.59 698.611 673.538C691.915 678.676 684.996 683.635 677.123 686.812L676.101 687.218C669.194 689.914 656.237 694.09 646.797 692.564C648.031 698.747 650.419 705.395 648.302 711.513C647.32 714.354 643.605 715.771 641.329 713.354C636.82 708.563 636.468 702.235 635.4 695.985C634.289 689.481 633.331 682.954 632.48 676.411C630.834 663.76 629.553 650.993 629.162 638.235C628.76 625.133 628.915 612.013 629.621 598.925C629.984 592.204 630.434 585.487 631.287 578.809C631.651 575.961 632.023 573.111 632.448 570.27C632.603 569.234 632.775 568.203 632.96 567.174L622.149 568.394C605.572 570.244 588.988 571.915 572.294 572.175C570.317 572.205 568.796 571.305 567.802 569.994C566.743 571.719 564.899 572.953 562.258 572.943C538.945 572.856 517.235 565.233 496.031 556.249C485.343 551.719 474.821 546.815 464.117 542.324C454.126 538.132 443.445 535.141 433.695 530.419L408.075 543.857C407.887 544.518 407.646 545.143 407.39 545.666C405.722 549.071 402.433 550.918 399.074 552.309C395.85 553.647 392.511 554.063 389.258 553.725C369.828 563.907 350.393 574.079 330.945 584.228L311.493 594.368C272.737 614.547 234.134 635.057 195.134 654.762L192.263 656.207C178.792 662.962 164.327 669.809 149.378 674.918C149.112 678.702 149.28 682.382 149.597 686.387L149.673 687.259C150.119 691.992 151.075 697.923 147.278 701.292C145.303 703.044 141.775 703.051 140.432 700.409C137.995 695.618 140.183 688.065 140.955 682.86C141.229 681.009 141.563 679.106 142.057 677.26C124.919 682.362 107.262 684.836 89.8218 681.971C72.8418 679.184 59.6908 668.487 49.0888 655.403C37.8998 641.596 29.9488 625.505 25.6828 608.256C20.8278 588.628 20.5108 568.358 20.6248 548.253C20.7458 526.844 21.5378 505.329 24.1418 484.064C21.2888 483.393 18.1248 482.813 15.2418 483.013C13.8138 485.298 11.0438 486.26 8.5408 485.963C3.0978 491.966 16.9038 498.101 21.3158 499.637C22.8478 500.171 22.6838 502.659 20.9168 502.584L19.8038 502.531C12.9864 502.168 5.94317 501.004 1.9348 494.669C-1.2772 489.591 -0.312196 483.575 3.5168 479.434C6.0458 455.522 12.0918 432.237 17.7188 408.911C23.2408 386.016 29.3818 363.268 35.8908 340.635L38.8088 330.505C49.0571 295.016 59.7692 259.241 73.9058 225.163C80.9648 208.147 89.0968 191.444 100.12 176.607C110.395 162.776 122.526 150.941 136.47 140.833C162.465 121.987 192.967 110.6 222.937 99.7515L224.279 99.266C239.81 93.648 255.303 87.963 270.657 81.876C284.236 76.493 297.245 69.668 310.76 64.204C310.321 63.407 309.897 62.601 309.489 61.786L309.239 61.9962C309.196 62.0301 309.152 62.063 309.107 62.094C307.748 63.036 305.747 62.573 304.627 61.516C301.464 58.532 302.535 55.2195 304.646 52.1249L304.921 51.731C307.503 48.114 309.806 44.29 312.189 40.542L313.681 38.1982C317.681 31.9365 321.884 25.6331 327.218 20.458C329.688 18.06 332.392 16.266 335.257 14.929C335.012 14.411 337.16 13.352 337.769 13.885C346.846 10.563 357.289 11.259 367.185 12.175M723.809 557.126L711.189 558.561C697.305 560.141 683.415 561.668 669.524 563.181L639.352 566.46C639.275 568.18 639.066 569.862 639.028 571.161C638.831 577.858 638.684 584.558 638.545 591.257C638.266 604.685 638.572 618.126 639.456 631.528C640.313 644.514 641.441 657.502 643.195 670.401L643.554 672.979L643.762 674.335C645.193 674.473 646.599 675.153 647.768 676.55C650.32 679.597 659.561 676.635 663.17 675.351C669.105 673.239 674.694 669.671 679.851 666.093C684.887 662.599 689.422 658.526 693.78 654.234L697.345 650.708C700.892 647.183 704.443 643.428 706.616 638.995C709.563 632.983 709.944 625.603 710.808 619.055C711.872 611.001 713.139 602.948 714.478 594.934M357.454 472.584L356.145 472.928C308.594 485.563 261.114 498.571 213.417 510.648C189.813 516.626 166.097 522.169 142.464 528.032L138.638 528.989C119.994 533.701 101.126 539.372 86.8488 552.895C86.3218 553.393 85.5568 552.628 86.0528 552.099C101.44 535.719 123.324 528.785 144.336 522.774C148.22 521.663 152.109 520.578 155.994 519.473C127.418 509.286 98.3908 500.423 68.6938 494.102C61.0468 492.474 53.3108 491.279 45.6698 489.645C40.3409 488.505 35.1367 486.857 29.8641 485.489L25.7168 484.446L25.6617 497.554C25.5927 516.119 25.6257 534.669 26.5728 553.231L26.7521 556.67C27.8572 577.327 29.5821 598.413 36.9128 617.891C42.8698 633.719 52.3648 648.63 64.7818 660.159C71.0648 665.992 77.8198 670.533 86.1698 672.775C93.9228 674.856 102.046 675.1 110.016 674.545C148.245 671.878 182.275 651.111 215.483 633.917C269.8 605.794 324.123 577.685 378.495 549.67C377.025 548.665 375.641 547.507 374.382 546.206C367.091 538.676 363.245 528.368 360.719 518.385C358.03 507.759 356.422 496.37 356.235 485.4M426.637 560.526C427.117 560.268 427.673 560.591 427.695 561.133C427.863 565.286 425.568 569.382 423.853 573.123L423.672 573.522C421.589 578.156 419.308 582.728 416.949 587.228C412.234 596.219 407.334 605.114 402.22 613.883C391.936 631.524 380.508 648.422 367 663.782C363.949 667.252 358.931 662.803 360.889 659.067C370.329 641.057 381.334 624.052 392.662 607.195C398.333 598.755 404 590.307 409.727 581.905C412.116 578.399 414.536 574.906 417.021 571.466L418.52 569.408M990.592 220.45C942.875 221.891 895.214 225.003 847.724 229.88C803.558 234.415 759.554 240.452 715.798 247.978C706.659 249.55 697.531 251.186 688.414 252.887L682.946 253.915C673.828 255.643 662.689 256.356 654.571 261.227C646.012 266.362 643.699 277.094 640.851 285.944C637.503 296.352 634.24 306.79 631.065 317.253C618.457 358.796 606.94 400.699 596.666 442.879C591.566 463.816 587.041 484.87 582.273 505.883C578.037 524.553 573.363 543.012 568.48 561.495C569.082 561.027 569.82 560.671 570.711 560.481C594.959 555.322 619.71 553.08 644.321 550.23L646.702 549.952C672.161 546.958 697.62 543.986 723.094 541.122L891.753 522.155C901.7 521.037 912.356 520.885 922.036 518.216C938.494 513.676 942.351 495.276 945.112 480.623L945.196 480.18C953.521 435.907 960.148 391.249 967.912 346.864M572.405 510.029C565.857 509.597 556.895 503.6 551.927 504.03C554.535 508.406 555.712 513.397 554.209 518.727C550.026 533.559 531.109 525.885 521.997 521.354C514.526 517.637 507.312 513.089 499.041 511.348C489.671 509.378 483.323 513.104 475.407 517.399C468.905 520.926 461.824 523.459 454.542 524.77C450.67 525.468 446.992 525.542 443.321 525.27C443.1 525.45 442.851 525.617 442.567 525.766L440.625 526.785C449.406 527.187 458.35 529.897 466.522 532.378C474.99 534.948 483.303 538.046 491.572 541.214L499.706 544.341C519.772 552.024 540.542 559.321 562.258 559.257C563.819 559.253 565.098 559.685 566.105 560.39M535.769 463.555C542.238 462.764 548.209 463.612 553.378 467.823C559.612 472.901 563.8 481.323 572.762 481.876C575.375 482.037 575.982 485.711 573.385 486.479C566.714 488.454 561.313 484.845 556.768 480.159L553.712 476.966C549.221 472.316 545.078 468.72 537.457 468.998C529.295 469.296 521.119 471.182 513.01 472.141C503.824 473.227 494.64 474.153 485.425 474.952C484.997 474.989 484.924 474.315 485.325 474.216L495.646 471.647M529.525 437.109L530.592 437.002C539.985 436.09 548.576 436.055 556.966 441.108L558.575 442.081C566.139 446.678 574.372 452.094 579.102 459.538C579.876 460.757 578.597 462.19 577.302 461.88C568.211 459.698 561.565 453.028 553.92 448.036C545.34 442.434 536.477 443.358 526.694 444.228C517.222 445.071 507.755 446.229 498.376 447.808C489.563 449.29 480.722 451.63 471.82 452.376L471.822 452.358C470.805 452.356 470.225 450.829 471.262 450.311C480.296 445.8 490.759 443.665 500.586 441.604M814.89 344.264C813.982 339.921 819.324 337.907 821.799 341.352L822.326 342.079C827.675 349.407 835.411 358.603 835.018 367.923C839.72 368.026 844.595 370.883 846.427 375.126C847.273 377.089 847.561 379.415 847.374 381.823C851.648 382.155 856.309 384.961 858.922 387.693C863.253 392.222 863.594 398.622 860.488 403.914C853.713 415.45 838.914 419.646 826.421 420.583L825.976 420.615C813.072 421.507 794.478 421.266 785.63 410.195C777.095 399.516 786.528 390.87 796.201 386.175C793.683 383.876 792.379 380.579 793.605 377.102C795.758 370.991 803.359 368.63 807.654 364.382C812.889 359.202 816.349 352.097 814.97 344.669M821.982 353.655C820.558 359.839 817.063 365.495 812.193 369.977C810.331 371.691 808.294 373.217 806.13 374.528L805.87 374.679C803.95 375.757 799.229 377.777 799.592 380.196C799.966 382.682 807.657 386.573 809.753 386.575C810.23 386.575 810.5 387.32 810.013 387.536C806.214 389.214 802.896 389.933 799.182 388.16C796.7 390.694 794.289 393.316 791.901 395.915C787.677 400.514 789.122 405.37 794.112 408.794C802.13 414.296 814.318 414.162 823.673 413.762C833.089 413.36 843.154 411.26 850.509 404.988L850.83 404.709C854.827 401.154 858.478 395.13 852.357 391.706C849.959 390.365 847.37 390.444 845.094 389.792C842.964 393.967 839.508 397.311 835.292 397.956C831.885 398.477 829.539 394.195 832.638 392.146L833.334 391.714C837.226 389.23 840.547 385.404 840.459 380.421C840.399 376.962 835.569 372.594 832.422 375.844L832.279 375.999C829.645 378.967 825.008 375.227 826.739 371.938L826.823 371.789M207.862 181.676C207.85 180.933 208.895 180.655 209.26 181.298C215.372 192.051 218.568 205.232 221.824 217.079C225.233 229.489 227.986 242.025 230.46 254.653C235.468 280.224 238.137 305.648 238.319 331.71C238.343 335.431 232.281 336.421 231.688 332.608C227.751 307.257 223.979 281.88 220.012 256.536C218.016 243.789 215.693 231.091 213.471 218.382M268.371 200.405C267.921 198.922 270.078 198.426 270.63 199.782C282.896 229.891 287.051 264.013 279.176 295.778C277.97 300.637 270.854 298.532 271.763 293.734M426.588 173.651C426.526 172.541 427.967 172.366 428.51 173.13C434.322 181.319 436.733 192.286 446.93 196.518C452.021 198.631 457.75 198.263 462.248 201.832C465.255 204.219 467.561 207.987 465.304 211.602C464.576 212.77 462.538 213.355 461.55 212.086C460.108 210.237 459.345 208.023 457.386 206.637C454.623 204.682 450.897 204.561 447.729 203.642C443.631 202.454 440.019 200.375 437.061 197.286M523.686 37.0674C524.285 36.7624 524.86 36.9574 525.243 37.4754C525.79 38.2134 525.723 38.9314 525.053 39.4374C525.948 41.2664 527.005 45.8484 527.156 46.5154C527.768 49.2194 528.419 51.9074 529.1 54.5934C530.474 60.0104 531.678 65.4694 533.053 70.8884C534.511 76.6324 536.248 82.3154 538.181 87.9164C538.306 88.2791 538.443 88.6493 538.587 89.025L538.807 89.5924L538.861 89.5064C539.254 88.8854 540.072 89.3194 539.975 89.9754C539.885 90.5734 539.764 91.1684 539.662 91.7664L539.865 92.3022C541.129 95.7053 541.995 99.2895 539.675 102.292C538.807 103.415 537.852 104.08 536.662 104.278C534.754 110.568 532.36 116.741 529.797 122.669L529.046 124.401C525.276 133.051 521.255 141.587 515.252 148.951C508.698 156.991 499.683 162.481 493.974 171.291C491.318 175.389 489.47 179.698 487.97 184.326L487.406 186.083C486.341 189.357 485.113 192.529 482.042 194.449C481.062 195.061 479.594 194.866 478.804 194.031C472.507 187.37 479.099 174.932 482.896 168.483C488.174 159.515 495.813 153.778 503.462 147.012C511.707 139.719 516.966 129.963 522.053 120.352C525.169 114.464 528.177 108.449 531.344 102.535C528.035 99.6111 526.976 93.8021 525.855 89.7645L525.753 89.4024C523.9 82.9364 522.428 76.3024 521.498 69.6394C520.603 63.2328 520.23 56.9184 520.466 50.4759L520.535 48.8348M535.988 67.5592C535.257 66.5572 536.467 65.4222 537.47 65.6312C543.569 66.8922 549.531 70.5835 555.004 73.5683L555.588 73.8852C559.957 76.2412 564.353 79.1272 566.647 83.7042C569.142 88.6788 568.937 94.4084 568.597 99.8144L568.564 100.32C568.147 106.803 568.08 113.539 566.708 119.905C566.006 123.163 563.055 124.081 560.532 123.311C557.53 132.79 549.097 139.774 542.937 147.254C535.083 156.79 536.561 169.665 537.382 181.15C537.714 185.8 531.93 187.122 528.951 184.641L522.086 178.939C520.943 177.987 519.801 177.034 518.662 176.076C517.687 175.256 516.721 174.429 515.762 173.591L514.33 172.327C513.695 171.759 510.894 168.63 510.075 168.5C508.092 168.185 503.379 173.413 501.766 175.053L501.561 175.257C498.525 178.234 495.782 181.437 493.227 184.834C492.757 185.458 491.838 184.94 492.174 184.219C494.464 179.315 497.126 174.626 500.287 170.238L500.925 169.364C503.028 166.53 505.851 161.526 509.563 160.689C514.096 159.668 518.622 164.213 521.92 166.736L522.128 166.894C523.697 168.071 525.248 169.269 526.796 170.475C526.634 161.924 527.714 153.284 532.129 145.915C535.242 140.718 539.906 136.869 543.897 132.403C548.34 127.43 550.66 121.318 554.682 116.139C555.2 115.473 555.914 115.114 556.687 115C556.842 110.837 557.455 106.632 557.929 102.513L558.066 101.28C558.545 96.8052 559.677 91.3392 557.486 87.1482C555.417 83.1897 550.668 80.3955 547.152 77.7097L544.28 75.4825M338.074 20.241C336.238 21.303 334.522 22.624 332.965 24.275C328.064 29.474 324.56 35.944 321.15 42.168C319.314 45.52 317.544 48.909 315.693 52.253C314.888 53.708 314.06 55.147 313.223 56.584C312.836 57.246 311.686 58.562 311.116 59.373C311.749 60.2604 312.404 61.1342 313.072 61.9986C313.327 62.3284 330.908 81.4797 337.036 88.975C346.42 100.456 354.808 112.583 361.979 125.563C369.001 138.274 374.347 151.732 380.852 164.689C384.108 171.176 387.744 177.617 392.379 183.231C392.558 183.45 392.747 183.657 392.93 183.873C394.699 179.094 399.232 173.977 401.458 171.039L401.666 170.762C406.715 163.956 412.047 157.355 417.495 150.866C422.471 144.941 427.573 139.143 432.799 133.442L434.765 131.308C438.406 127.375 443.031 121.49 448.361 118.68C447.79 117.662 447.129 116.655 446.369 115.661C441.375 109.135 434.315 104.399 427.35 100.126L422.832 97.3781C405.804 87.0013 389.042 76.1436 374.259 62.661C366.438 55.527 358.725 48.054 352.151 39.733L349.826 36.7909M366.486 15.104C358.512 15.773 349.901 15.614 342.532 18.212C349.083 24.405 355.31 31.092 361.707 37.389C362.276 33.13 363.44 28.923 364.426 24.77" transform="translate(18.9997 -5.000531)" fill="#000000" stroke="none"></path></g><g transform="translate(225 0)"><g><g><path d="M178.112 0C234.892 0 318.002 37.9164 324.252 74.3958C331.617 117.386 347.977 279.039 339.07 331.938C330.164 384.838 295.436 423.924 218.637 423.924C141.839 423.924 84.5171 382.043 71.3556 367.663C58.1941 353.283 42.2461 308.533 42.2461 308.533C42.2461 308.533 0.198436 301.406 0.00350104 267.887C-0.191434 234.368 21.1264 224.01 21.1264 224.01C21.1264 224.01 9.62125 84.9611 33.803 50.522C57.9848 16.0828 121.331 -8.27315e-15 178.112 0Z" transform="translate(63.92951 75.25961)" fill="#FFFFFF" stroke="none"></path><path d="M358.472 255.336C361.581 289.126 362.751 323.206 363.352 357.126C363.932 389.266 361.102 422.786 342.791 450.266C326.782 474.306 302.402 491.756 275.251 501.176C259.801 506.546 242.692 508.536 226.372 509.026C217.942 509.276 209.492 508.916 201.112 508.046C192.982 507.196 184.572 507.286 178.631 501.126C177.001 499.436 177.022 495.966 179.432 494.866C184.022 492.776 187.131 492.556 192.162 493.246C196.331 493.815 200.512 494.266 204.711 494.556C213.711 495.186 222.772 495.206 231.772 494.516C248.312 493.246 265.232 488.575 280.251 481.496C303.801 470.376 324.032 452.155 334.952 428.246C347.471 400.871 346.842 369.213 346.256 339.735L346.232 338.526C345.581 305.826 344.372 273.226 341.532 240.636C340.152 224.836 338.022 209.146 336.102 193.416C335.091 185.056 333.762 176.735 332.131 168.476C331.272 164.105 330.152 159.796 329.232 155.456C328.562 155.565 327.881 155.626 327.182 155.655C323.001 155.796 318.432 154.776 315.331 151.806C314.142 152.616 312.631 153.126 310.812 153.216C299.696 153.765 288.466 153.52 277.262 153.276C271.14 153.143 265.026 153.01 258.942 153.006C241.662 152.996 224.372 153.006 207.081 153.056C204.446 153.063 201.809 153.074 199.172 153.084C184.527 153.14 169.858 153.196 155.232 152.806C139.162 152.376 122.551 152.726 106.692 149.786C101.362 168.726 101.551 189.536 112.662 206.456C115.801 211.226 113.251 216.846 109.162 219.826C104.981 222.867 97.4661 227.53 91.0361 228.009C90.4131 229.408 89.7731 230.8 89.1651 232.188C86.0961 239.181 83.3311 246.218 81.3961 253.622C80.3991 257.438 79.5411 261.317 78.8191 265.22C78.8781 265.903 78.9391 266.585 79.0121 267.266C79.0121 267.336 79.0221 267.405 79.0321 267.485C79.0721 267.766 79.1221 268.086 79.1521 268.266C79.5221 270.226 79.8811 272.186 80.2721 274.136C81.2021 278.886 81.9211 283.676 82.4321 288.485C83.3621 297.286 83.2721 308.726 74.6921 313.936C70.1021 316.726 64.6021 316.436 59.7511 314.565C56.4921 313.306 53.7221 311.526 50.7221 309.776C48.9421 308.735 47.0811 307.886 45.3411 306.806C44.8621 306.506 44.4021 306.146 43.9721 305.766C40.7221 306.456 37.5511 307.746 35.7721 308.626C31.0011 310.996 26.8121 314.426 23.2511 318.366C15.6821 326.756 13.4121 338.576 14.4721 349.546C15.4611 359.756 19.4721 371.485 27.5411 378.276C31.0511 381.235 35.4321 382.966 40.0621 382.916C42.3411 382.896 44.4421 382.416 46.6421 381.836C48.8121 381.266 51.4921 381.436 53.4921 380.636C56.4611 379.446 60.1221 383.076 58.9121 386.056C58.0011 388.296 57.4821 390.276 56.3411 392.026C64.6221 405.546 73.6921 418.646 83.3411 431.216C92.0411 442.536 102.282 452.056 111.961 462.426C116.232 467.006 118.012 476.026 110.282 477.985C103.483 479.723 98.2005 473.49 94.0084 468.543C93.4467 467.88 92.9047 467.24 92.3811 466.646C74.0321 445.776 60.1621 421.815 53.6711 394.766C50.7421 396.846 47.3811 397.976 43.8411 398.466C36.7911 399.436 29.6621 398.046 23.4821 394.476C0.0811214 380.966 -5.57888 344.456 5.38112 321.576C8.02412 316.067 11.9281 311.149 16.6871 307.33C16.3121 306.613 16.1641 305.773 16.4051 304.87C16.8281 303.289 17.2931 301.727 17.7811 300.171C17.2481 299.934 16.8581 299.444 16.9321 298.716C17.3721 294.216 17.8011 289.716 18.2321 285.216C18.1863 283.152 18.124 281.09 18.0616 279.026C17.9186 274.29 17.7754 269.55 17.8311 264.786C17.9521 253.886 18.6121 242.996 18.6521 232.096C18.7821 194.076 20.3311 156.096 20.4421 118.076C20.5011 99.485 20.5411 80.866 20.0511 62.286C20.0411 62.036 20.0411 61.796 20.0321 61.546C19.9706 59.2658 19.8259 56.8673 19.6775 54.4057C18.8576 40.8146 17.9217 25.3007 30.2321 17.155C32.6221 15.576 35.6021 15.556 38.2021 16.576C45.6821 11.366 55.0621 8.85501 64.0321 7.40501C81.1221 4.64601 98.3621 3.31501 115.572 1.56501C124.551 0.655005 134.001 0.306005 143.041 0.506005C147.744 0.608909 152.479 0.439142 157.221 0.26912C161.695 0.108692 166.176 -0.0519622 170.642 0.0160053C181.081 0.186005 191.602 0.576005 202.081 1.43601C202.572 1.38601 203.072 1.34601 203.562 1.29601C219.438 -0.226326 235.293 0.578633 251.156 1.38393C254.998 1.57895 258.839 1.77399 262.682 1.93601C281.461 2.72601 301.291 4.66601 318.152 13.655C320.32 14.809 322.157 16.121 323.724 17.583C325.921 17.892 328.016 18.515 329.899 19.562C335.327 18.465 341.387 20.897 342.671 27.196C344.541 36.426 345.251 45.735 344.131 55.096C344.102 55.315 344.081 55.546 344.051 55.786C346.318 64.47 346.167 73.954 344.283 82.519C345.077 93.341 345.53 104.194 345.593 115.029C345.603 116.669 345.626 118.315 345.65 119.964C345.734 125.855 345.819 131.79 345.274 137.628C344.66 144.198 341.956 149.397 337.701 154.387C336.899 155.327 335.544 155.483 334.417 155.255C334.125 155.196 333.871 155.116 333.641 155.021C336.206 160.52 338.234 166.354 340.312 171.926C343.612 180.786 346.812 189.796 349.081 198.976C353.682 217.485 356.711 236.346 358.472 255.336ZM40.6118 339.655C39.3918 338.836 38.1918 337.926 36.8618 337.296C36.7318 337.235 31.2518 335.456 32.3118 337.806C32.6718 338.586 31.7318 339.456 31.0618 338.766C29.1618 336.836 30.2218 334.516 32.0318 332.796C35.3008 329.686 40.1818 330.405 44.1918 331.146C49.7718 332.176 55.1918 334.616 59.8918 337.746C64.9518 341.116 71.2018 345.786 72.2018 352.176C73.1118 358.046 67.2718 364.516 61.2618 360.586C55.6918 356.936 52.9818 350.246 48.1918 345.666C45.8408 343.426 43.3008 341.456 40.6118 339.655Z" transform="translate(54.99938 -2.999605)" fill="#000000" fill-rule="evenodd" stroke="none"></path></g></g><g transform="translate(159 186)"><g><path d="M140.63 0.473197L139.193 0.179116C137.503 -0.15929 135.804 -0.0161244 134.311 0.591153C132.847 1.18684 131.572 2.2242 130.68 3.72083C129.495 5.71373 129.337 7.38618 129.887 9.59525C130.311 11.3022 131.242 12.5864 132.46 13.5139C133.744 14.4911 135.37 15.0612 137.06 15.2595C144.854 16.175 152.53 17.8896 159.992 20.3235C163.488 21.4643 166.788 23.0096 170.058 24.6132L172.877 26.002C175.477 27.2735 178.163 28.499 181.557 29.3885C181.824 29.4584 182.087 29.5243 182.349 29.5865C183.29 29.2909 183.45 28.9329 183.649 28.6733L183.73 28.5721C183.972 28.2679 184.271 27.8025 183.988 25.6306C176.583 10.2711 156.267 3.74181 140.63 0.473197ZM43.5878 4.83023L45.4652 4.50163C51.273 3.49719 58.4944 2.53203 62.6028 7.20123C64.7819 9.67723 65.5318 14.2792 62.6028 16.6492C58.7671 19.7539 54.6298 19.6513 50.2182 19.5419C48.7043 19.5044 47.1582 19.466 45.5808 19.5562C40.4928 19.8482 35.6028 20.6902 30.7018 22.0912C19.9498 25.1642 11.1888 30.7742 2.00585 36.9342C0.800849 37.7422 -0.429151 36.2012 0.145849 35.0742C5.44685 24.6912 15.7198 16.1622 26.0098 10.9632C31.5019 8.18823 37.5118 5.88623 43.5878 4.83023ZM29.9632 50.1461C30.7976 39.7899 46.5702 37.4381 48.1392 47.6861C49.5442 56.8661 47.8902 65.2991 43.7552 73.5641C39.8042 81.4601 29.8737 77.7763 29.1227 70.5863C28.3809 63.4843 28.9069 59.2482 29.4428 54.933C29.6341 53.3921 29.8267 51.8412 29.9632 50.1461ZM159.205 41.8262C155.401 40.7152 152.226 42.6812 150.027 45.5612C149.773 45.8932 149.566 46.2222 149.38 46.5482C142.515 52.8562 145.101 65.6452 150.501 72.0492C153.814 75.9762 161.145 74.8452 163.413 70.3852C167.587 62.1722 171.09 45.2992 159.205 41.8262ZM128.748 119.039C136.872 107.66 125.366 96.9569 117.814 92.3669C115.836 90.9469 117.406 86.2431 121.634 86.9701C160.031 93.5671 140.136 159.708 91.112 123.413C85.2754 118.704 92.3434 108.334 98.6342 112.366C98.9532 112.611 99.2876 112.869 99.6364 113.139C106.704 118.603 119.636 128.601 128.748 119.039ZM93.5865 188.926C86.8642 186.184 80.8663 181.61 76.4812 175.766C74.9566 173.735 74.5614 171.589 74.8812 169.627C75.2408 167.421 76.546 165.422 78.326 164.08C80.1115 162.735 82.345 162.072 84.5043 162.41C86.3806 162.704 88.2484 163.731 89.7265 165.862L90.0354 166.288C92.6424 169.815 96.0396 172.708 99.9104 174.574C103.641 176.372 107.814 177.211 112.132 176.723C120.356 175.794 126.024 171.346 132.049 165.306C132.796 164.544 133.543 163.757 134.294 162.958C134.768 162.234 135.426 161.768 136.157 161.524C136.968 161.253 137.886 161.268 138.726 161.562C139.537 161.845 140.262 162.381 140.747 163.094C141.209 163.772 141.471 164.61 141.386 165.574C140.835 171.833 137.562 177.419 132.914 181.805C127.752 186.677 120.909 190.047 114.466 191.229C107.368 192.531 100.136 191.598 93.5865 188.926Z" transform="translate(53.00005 52.00027)" fill="#000000" fill-rule="evenodd" stroke="none"></path></g></g><g transform="translate(123 338)"><g><path d="M139.816 13.717C129.739 8.099 118.659 0.831 106.945 0C99.8638 0.301 98.2868 8.676 103.541 12.571C112.734 17.702 123.938 19.63 133.062 25.271C142.406 30.48 152.448 34.35 161.965 39.125L162.042 39.1614C162.534 39.3518 163.134 38.7908 162.798 38.292L162.426 37.6664C156.692 28.0954 149.514 19.511 139.816 13.717ZM72.3164 13.8353C75.8244 12.5963 76.9034 8.3553 76.4764 5.6833C75.8314 1.6513 68.4234 -0.1757 64.9494 0.5823C46.0404 4.7043 -8.72363 30.5783 1.18937 36.7803L1.61737 36.9683C15.2644 30.1282 30.9104 25.4671 46.3249 21.1251L54.3496 18.8776C60.5403 17.1815 66.1532 16.0094 72.3164 13.8353Z" transform="translate(123 33.9998)" fill="#000000" fill-rule="evenodd" stroke="none"></path></g></g><g transform="translate(47 241)"><g><path d="M375.513 33.9959C378.273 31.6829 383.089 31.1349 386.423 31.1279C394.028 32.5829 390.88 44.1729 376.385 36.9629C398.166 128.052 258.709 131.937 282.237 45.3469C268.157 41.9599 253.29 41.6839 240.365 48.1139C251.522 87.8139 214.401 125.982 171.734 116.181C144.179 109.783 125.789 88.4229 134.308 57.0269C128.899 58.7229 118.76 57.3109 115.622 53.0899C104.775 52.1634 93.9913 50.8415 83.2204 49.5212C59.091 46.5633 35.0273 43.6135 10.4674 45.1359C7.12749 45.5983 7.31436 47.952 7.50111 50.304C7.68714 52.6469 7.87304 54.9883 4.57241 55.4569C-3.01759 54.7649 -0.0355915 41.9389 5.39841 39.8539C13.0234 34.3889 78.5984 39.8119 116.105 49.6479C121.083 46.3825 128.583 47.3802 134.493 48.1664C135.445 48.2929 136.355 48.414 137.206 48.5109C144.594 30.0029 168.272 6.93191 192.028 10.8229C213.793 12.0919 232.079 20.6889 239.509 45.2399C250.854 34.9489 271.426 31.6259 284.509 39.4079C291.765 23.0939 304.532 10.8229 321.737 5.28991C343.585 -10.2001 368.707 11.0429 375.513 33.9959ZM358.311 87.4579C346.17 100.003 325.902 103.603 309.749 96.8749C268.273 79.5459 288.574 25.4959 320.561 10.9809C324.557 9.98491 329.894 7.62191 334.761 7.08591C334.928 7.0043 335.168 7.04274 335.465 7.09029C335.954 7.1686 336.598 7.27161 337.32 6.90391C372.591 10.8419 380.623 65.5939 358.311 87.4579ZM164.916 105.906C185.6 114.302 210.916 108.73 224.533 90.6689C249.948 57.3679 225.561 0.903908 166.504 23.0949C138.547 41.8849 124.054 89.8139 164.916 105.906ZM135.953 50.6509C135.915 50.6329 135.877 50.6239 135.838 50.6059C136.054 50.5109 136.27 50.4159 136.485 50.3189C136.415 50.5019 136.339 50.6829 136.271 50.8659C136.165 50.7929 136.072 50.7079 135.953 50.6509Z" transform="translate(13.99969 7.999794)" fill="#000000" fill-rule="evenodd" stroke="none"></path></g></g></g></g></svg>