<svg id="Layer_1" data-name="Layer 1" xmlns="http://www.w3.org/2000/svg" viewBox="0 0 408 243"><defs><style>.cls-1{fill:#fff;}</style></defs><path class="cls-1" d="M295.79,236.53c-41.8,0-71-32.53-71-79.12,0-2.81-.06-5.66-.12-8.42-.32-14.16-.65-28.79,7.87-40.82l-9.28-60A21.6,21.6,0,0,1,266,41.56l6,39q1-.3,1.92-.57l2.5-43.52a21.61,21.61,0,0,1,43.17,1.81c.49,3.6,2.27,20.46-3.24,48.82l-11.86-2.31c5.64-29,3.11-45,3.08-45.18l-.11-.66,0-.69a9.53,9.53,0,0,0-19-1.09l-3,52.48-4.46,1a67.63,67.63,0,0,0-11.51,3.67l-7.13,3L254,43.41a9.52,9.52,0,1,0-18.82,2.91l10.09,65.22-1.73,2.1c-7.4,9-7.13,21.07-6.82,35.08.07,2.83.13,5.75.13,8.69,0,40.1,23.68,67,58.92,67S354,198.74,354,158.93l-.52-9.55-.48-.81.43-.25,0-.42.79,0,9.2-5.44,2,3.36.69,13C366.11,205.28,337.85,236.53,295.79,236.53Z"/><path class="cls-1" d="M347.54,155.94a21.36,21.36,0,0,1-4.67-.52l-.66-.15a21.26,21.26,0,0,1-16.08-25.41l6.36-28.3A21.26,21.26,0,0,1,357.9,85.47l.66.15A21.29,21.29,0,0,1,374.64,111l-6.36,28.31A21.3,21.3,0,0,1,347.54,155.94Zm-2.68-12.45.66.14a9.19,9.19,0,0,0,11-6.94l6.37-28.31a9.19,9.19,0,0,0-6.95-11l-.66-.15a9.17,9.17,0,0,0-11,6.95l-6.37,28.3a9.2,9.2,0,0,0,6.95,11Z"/><path class="cls-1" d="M318.23,144.92a21.27,21.27,0,0,1-4.66-.52l-.67-.15a21.28,21.28,0,0,1-16.08-25.41l8.6-38.26A21.3,21.3,0,0,1,330.83,64.5l.66.15a21.29,21.29,0,0,1,16.09,25.41L339,128.31A21.31,21.31,0,0,1,318.23,144.92Zm7.94-68.86a9.21,9.21,0,0,0-9,7.17l-8.6,38.26a9.18,9.18,0,0,0,6.95,11h0l.66.15a9.19,9.19,0,0,0,11-7l8.6-38.25a9.2,9.2,0,0,0-7-11l-.65-.14A8.76,8.76,0,0,0,326.17,76.06Z"/><path class="cls-1" d="M313.65,229.14H301.57c0-25.22-20.2-47.3-37.49-58.54l-5.67-3.68,20.08-24.42c12-13,6.51-18.06,4.45-20a11.71,11.71,0,0,0-10.39-3.09A21.22,21.22,0,0,0,261,126.32l-.39.41-25,18.64-7.22-9.68,24.12-18a33.1,33.1,0,0,1,18-10.16,23.86,23.86,0,0,1,20.65,6.11c14.73,13.55,2.48,30.22-3.63,36.89l-11.32,13.78C294.54,178.11,313.65,201.83,313.65,229.14Z"/><rect class="cls-1" x="336.48" y="14.02" width="13.42" height="37.58" rx="5" transform="translate(62.39 -167.2) rotate(30)"/><rect class="cls-1" x="359.3" y="27.44" width="13.42" height="37.58" rx="5" transform="translate(139.9 -245.27) rotate(45)"/><rect class="cls-1" x="378.77" y="46.91" width="13.42" height="37.58" rx="5" transform="translate(294.26 -314.55) rotate(66.84)"/><path class="cls-1" d="M3.32,91.5c0-59.32,41.82-86.95,97.84-86.95S199,32.18,199,90.74c0,58.8-41.83,86.18-94,86.18,0,3.29,5.07,6.08,16,6.08,29.91,0,57.29-10.14,57.29-10.14l9.13,57.54c-18,5.83-40,10.14-72.5,10.14-42.58,0-58.81-10.9-58.81-30.92,0-17,11.92-29.91,33.72-29.91v-3.8C45.14,175.91,3.32,149.29,3.32,91.5Zm79.59-1c0,21,5.83,35.74,18.25,35.74s18.25-14.7,18.25-35.74S113.58,55,101.16,55,82.91,69.44,82.91,90.48Z"/></svg>