<?xml version="1.0" standalone="no"?>
<svg viewBox="-350 -150 1500 1500" style="width: 487.5px; height: 487.5px; justify-content: center; align-self: center; transform: scale(-1, 1);" xmlns="http://www.w3.org/2000/svg"><g transform="rotate(0 441.6845817565918 604.0788421630859)"><g transform="translate(0 459)"><path d="M298.817 752.115C238.632 750.82 183.845 754.456 125.89 742.701L125.816 740.749C113.385 740.391 117.5 728.774 119.999 720.649C-113.895 710.243 38.6643 140.153 200.749 101.822C208.689 100.468 217.315 99.7529 226.061 99.6669C237.345 96.2209 248.465 95.6099 260.261 92.4669C261.393 88.3369 261.578 85.9489 266.582 87.1719C284.543 70.0199 316.861 54.2209 327.766 87.6909C342.117 67.7439 350.347 44.4219 356.343 20.8029L357.313 20.9619C359.861 14.6819 364.033 6.73594 369.108 5.42494C377.018 2.80594 391.934 3.40994 400.534 2.34694C419.18 1.05394 440.839 -2.11506 458.712 2.16194C503.375 13.0959 484.019 65.8199 520.231 100.144C536.849 93.2649 562.896 95.1509 578.817 103.342C589.07 111.553 583.929 120.81 582.131 129.49C696.488 119.182 726.915 251.818 750.514 339.255C759.982 368.343 769.379 388.063 785.505 410.521C806.453 436.774 818.216 471.154 796.754 498.85C827.394 559.989 794.131 617.453 758.937 663.607C752.045 670.998 740.866 691.563 730.765 692.969C728.024 695.474 723.646 698.557 720.557 700.796L724.282 705.68C724.727 710.19 724.756 715.037 727.84 719.059C730.807 721.95 733.979 724.914 734.067 729.23C729.339 734.717 723.233 728.588 718.746 725.863C717.026 729.243 717.273 737.272 711.762 736.96C575.11 746.332 435.159 752.476 298.817 752.115" transform="translate(37.00013 -20.00004)" fill="#FFFFFF" stroke="none"></path><path d="M344.686 72.415C352.834 57.409 370.539 14.148 359.673 0C355.527 4.846 354.941 11.741 353.292 17.776C349.154 32.973 343.236 47.748 334.725 61.047C320.809 35.89 287.084 50.979 270.798 66.467C266.707 65.918 262.843 69.155 261.79 73.015C215.964 83.385 190.59 75.149 152.874 111.071C34.4031 203.656 -104.571 682.971 118.451 711.904C110.892 739.253 148.621 735.973 135.801 711.489C217.755 701.093 286.5 648.378 360.429 616.717C375.02 613.163 387.794 619.937 400.285 626.561C402.838 627.914 405.378 629.261 407.92 630.513L408.887 630.984C421.869 635.717 434.037 642.41 446.874 647.565C514.048 673.415 652.906 725.563 719.758 696.729C715.723 709.382 728.54 728.291 740.596 721.83C744.646 720.757 747.612 716.139 746.205 712.105L746.133 711.878C745.966 711.374 745.904 711.34 745.946 711.774L745.984 712.091C746.05 713.093 746.025 713.143 745.911 712.24L745.645 709.933C745.083 707.266 742.267 704.284 740.217 702.273L738.997 701.091C735.872 697.686 738.036 691.506 735.368 687.62C736.841 686.552 738.278 685.427 739.658 684.241C753.095 679.904 760.828 662.906 770.072 652.766L770.403 652.3C796.555 615.516 825.395 574.95 820.903 527.59C819.44 513.015 815.507 498.665 809.863 485.131C834.377 448.505 812.977 416.453 792.408 385.643C788.879 380.357 785.374 375.107 782.129 369.877C735.956 276.376 734.806 108.802 596.318 108.477C605.25 73.094 550.708 72.56 528.274 78.514C512.431 61.7136 507.155 38.9278 502.841 16.9634L502.258 13.974C489.535 30.58 506.612 77.823 522.067 92.607C462.561 105.816 400.394 95.675 344.686 72.415ZM332.549 64.35C319.416 56.291 301.235 59.724 290.599 70.219C285.886 74.422 281.795 80.104 276.428 83.406C275.759 83.817 275.073 84.097 274.384 84.273C278.081 91.263 283.731 97.964 288.507 103.729C314.117 126.091 342.947 144.871 374.633 157.227C375.93 138.217 382.508 119.755 390.026 102.289C383.018 100.177 376.109 97.746 369.324 94.995C368.46 99.566 364.175 103.096 361.465 106.644C355.316 113.845 351.218 122.65 345.363 129.976C338.841 136.811 327.76 128.094 332.447 120.011C340 108.983 349.761 99 361.101 91.491C353.626 88.137 346.498 84.19 339.604 79.774C339.312 80.078 339.011 80.368 338.706 80.648C338.245 77.802 334.328 78.551 332.245 79.017C331.177 78.1123 329.834 78.6788 328.549 79.221C328.049 79.4321 327.557 79.6395 327.094 79.755C326.852 79.315 326.649 78.85 326.505 78.362C318.016 86.747 311.631 100.026 300.678 105.033C296.166 106.278 290.934 101.798 292.654 97.01C295.551 89.658 319.055 74.055 326.819 69.932C325.12 67.46 326.479 66.239 329.233 66.606C329.706 66.014 330.431 65.831 331.186 66.333C331.665 65.689 332.114 65.023 332.549 64.35ZM191.063 98.882C212.944 85.222 239.561 88.064 263.418 81.469L265.222 84.6352C325.395 187.11 534.046 240.603 595.237 111.925C738.642 130.092 707.06 317.197 779.464 406.304C788.769 418.518 799.301 432.812 799.027 448.88C797.402 465.963 788.008 481.192 782.677 497.332C780.212 503.012 786.634 509.048 791.658 504.261C795.278 500.811 799.019 497.478 802.505 493.911C802.655 496.486 802.822 499.059 802.989 501.633C803.734 513.094 804.478 524.552 803.671 536.059C799.335 579.473 769.763 614.913 743.89 648.38L741.501 651.48C727.019 670.149 716.047 680.6 691.652 684.764C624.901 688.653 558.682 667.699 494.626 647.429C482.536 643.603 470.522 639.801 458.597 636.196C443.421 630.892 428.334 625.341 413.143 620.083C402.472 614.352 391.871 607.452 380.084 604.349C441.332 570.599 506.372 545.319 572.856 524.036C604.058 541.53 643.809 551.844 677.976 537.494C682.067 535.69 684.997 528.82 683.221 524.602C674.06 502.83 674.372 479.007 674.679 455.503C674.79 447.017 674.9 438.573 674.564 430.282C671.654 393.087 662.88 356.553 657.886 319.592C654.095 298.4 652.812 276.587 646.067 256.152C646.023 255.68 645.308 255.661 645.317 256.152C645.361 258.497 644.775 260.647 644.186 262.81C643.736 264.461 643.283 266.12 643.107 267.88C640.836 303.094 644.4 338.017 647.964 372.93C651.484 407.417 655.001 441.883 652.895 476.607C639.201 467.601 625.635 459.717 610.02 455.094C604.048 437.529 565.309 433.873 551.266 442.805C539.192 443.634 527.819 444.721 515.924 446.102C492.096 420.444 347.972 416.168 313.645 428.374C310.905 428.05 307.777 427.587 304.395 427.087C280.017 423.481 242.383 417.914 240.819 448.034C223.334 448.785 205.932 453.241 189.874 462.022C195.567 446.746 194.282 430.693 197.252 414.984C197.369 411.448 198.07 406.352 198.857 400.631C200.947 385.441 203.643 365.852 197.601 359.417C186.766 369.944 185.919 397.961 182.035 412.925C181.407 418.875 180.119 424.734 178.833 430.587C176.67 440.423 174.512 450.242 175.493 460.454C174.468 464.786 173.1 469.02 172.348 473.4C158.091 483.723 145.002 496.868 134.349 510.833C123.746 525.956 117.901 544.126 117.747 562.589C119.902 580.171 147.92 558.285 159.679 549.099C161.024 548.048 162.157 547.163 163.014 546.523L163.491 546.171C162.154 550.031 160.407 553.835 158.655 557.65C154.495 566.711 150.306 575.832 151.51 585.911C159.108 613.218 183.857 591.295 195.138 578.644L195.811 577.882C200.018 606.338 234.221 600.765 248.048 582.257C263.353 564.883 288.898 538.801 294.01 516.407C381.798 492.533 469.628 462.874 561.239 459.059C567.338 475.22 572.116 492.258 570.011 509.545C420.681 528.171 303.336 637.519 162.917 683.005C106.967 702.43 57.8101 678.452 37.8401 622.531C-1.69887 499.609 35.9091 365.114 82.8971 249.429L83.5965 247.701C106.753 190.659 137.536 132.576 191.063 98.882ZM555.011 88.652C556.532 90.445 557.048 93.061 556.493 95.411C563.153 105.58 566.812 117.092 570.159 128.528L571.096 127.365C586.27 108.402 594.875 91.2078 561.526 89.335C559.358 89.028 557.184 88.8 555.011 88.652ZM251.878 118.507C268.955 106.208 209.679 95.2156 237.227 115.336C241.585 118.292 246.623 120.415 251.878 118.507ZM508.995 110.95C519.857 109.42 530.637 107.281 541.232 104.43C547.556 113.694 556.662 120.743 565.686 127.349L569.061 129.809C554.212 147.185 536.314 162.592 513.674 168.139C513.606 150.065 508.916 132.62 506.536 114.889C508.055 114.252 509.038 112.658 508.995 110.95ZM407.112 106.771C407.016 108.255 406.595 109.723 405.9 110.963C396.744 126.824 388.706 143.374 379.028 158.899C399.914 166.636 421.862 171.681 444.007 173.675C441.889 160.891 442.301 147.946 442.714 135C442.953 127.493 443.191 119.986 442.937 112.51C430.892 111.354 418.92 109.43 407.112 106.771ZM460.743 113.651C471.372 113.995 482.018 113.725 492.62 112.825C497.631 131.848 500.811 151.279 508.139 169.639C488.412 174.647 467.87 175.485 447.63 173.991C448.612 170.775 449.639 167.573 450.364 164.276C453.126 150.175 454.121 135.75 456.309 121.553C460.961 122.261 462.381 117.158 460.743 113.651ZM167.17 137.839C165.5 138.028 163.85 138.215 162.284 138.208C161.228 138.203 160.792 139.474 161.456 140.209C168.282 149.898 185.699 147.133 178.671 139.089C175.298 136.919 171.175 137.386 167.17 137.839ZM228.406 203.034C237.31 197.014 231.971 182.454 220.929 185.298C211.083 188.292 184.861 205.474 179.613 214.007C182.118 218.804 223.953 206.852 228.406 203.034ZM650.432 185.746C656.498 184.98 659.698 184.576 660.27 185.617C660.91 186.779 658.268 189.745 652.675 196.024C650.661 198.286 648.264 200.977 645.5 204.169C632.753 215.357 619.836 192.437 635.701 187.337C641.762 186.841 646.653 186.223 650.432 185.746ZM323.85 215.757C313.201 212.892 334.974 258.382 340.96 259.076C348.367 264.149 357.623 255.786 355.549 247.861C350.284 234.568 337.274 224.611 325.475 216.822L323.85 215.757ZM474.885 240.363C475.747 239.972 476.508 241.198 475.642 241.659C471.944 243.622 467.928 247.778 465.604 251.285C457.646 261.238 448.232 243.65 460.463 242.328C464.925 242.649 470.791 242.218 474.885 240.363ZM540.289 267.722C532.215 261.354 532.135 293.963 545.693 295.907C550.21 297.283 556.045 292.438 554.025 287.575C550.029 280.484 543.041 275.719 540.289 267.722ZM134.052 288.69C135.989 288.987 140.659 287.126 145.795 285.079C155.931 281.039 167.885 276.275 164.247 285.94C160.68 290.022 156.164 290.12 151.102 290.497L150.964 290.484C150.362 290.445 148.885 290.536 147.028 290.649C140.875 291.027 130.554 291.66 134.052 288.69ZM420.579 307.624C424.585 300.355 433.792 292.643 442.627 293.274C448.046 293.094 450.163 300.887 445.389 303.474L445.23 303.541C442.233 304.737 419.503 310.57 420.579 307.624ZM270.575 318.136C270.143 312.028 276.956 309.844 281.549 311.839C289.745 315.4 296.097 328.499 293.503 336.971C291.415 345.375 278.695 347.235 274.653 339.435C272.329 332.233 272.016 325.357 270.575 318.136ZM702.517 326.482C699.225 327.675 695.959 328.857 692.747 329.537C687.45 334.525 722.29 335.803 723.561 330.062C725.81 327.573 724.715 324.145 721.701 323.012C715.331 321.842 708.874 324.18 702.517 326.482ZM168.188 355.298C171.489 347.147 159.431 347.364 154.663 349.779C153.786 350.523 151.291 350.729 148.755 350.938C144.672 351.275 140.481 351.621 142.753 354.236C149.958 359.699 161.756 363.827 168.188 355.298ZM591.543 364.445L591.284 364.47C582.891 366.292 581.408 378.868 588.798 383.077C598.523 387.857 605.294 377.261 610.572 369.002C611.537 367.492 612.452 366.06 613.326 364.815L613.67 364.331C613.708 360.73 601.923 362.73 595.211 363.869C593.636 364.136 592.341 364.356 591.543 364.445ZM466.071 363.814C468.693 358.981 473.682 366.831 476.704 371.587C477.507 372.851 478.172 373.896 478.616 374.427C481.626 381.167 472.942 386.423 468.659 380.247C466 375.43 464.817 369.222 466.071 363.814ZM352.757 384.707C351.566 382.435 353.898 383.155 356.201 383.867C357.564 384.288 358.916 384.705 359.523 384.499C362.556 384.685 365.295 385.308 367.011 388.036C369.76 392.411 364.419 397.101 360.212 394.835C356.152 392.592 357.128 386.741 352.757 384.707ZM56.2436 440.909L56.3329 440.672C59.2739 432.413 77.0229 420.163 85.8399 423.371C86.2519 423.352 86.6599 423.754 86.6359 424.168L86.7799 425.192C87.2762 428.823 87.5323 432.377 85.1359 435.616C80.8449 442.531 76.7479 451.148 68.4949 453.845C60.3621 456.423 53.3955 448.71 56.2436 440.909ZM498.149 448.565C443.885 429.109 384.743 429.679 327.819 431.491L329.316 431.942C353.857 439.387 382.591 450.955 395.382 473.845C428.913 462.909 463.223 453.854 498.149 448.565ZM750.397 464.251C731.402 475.399 717.653 423.201 741.593 434.413L743.3 436.242C750.235 443.727 760.957 456.38 750.397 464.251ZM282.042 437.322L284.753 437.465C281.543 441.674 278.942 446.472 277.357 451.245C266.765 448.992 256.085 447.841 245.585 447.913C251.603 435.622 269.227 436.606 281.659 437.3L282.042 437.322ZM285.706 453.177C291.85 448.304 298.914 444.733 304.981 439.809C317.516 441.837 330.045 445.068 341.734 449.909C331.988 452.855 322.783 457.033 315.129 463.596C305.735 459.13 295.807 455.735 285.706 453.177ZM563.288 443.641C579.192 442.53 595.447 449.141 603.796 463.926C593.254 462.63 582.739 463.512 573.971 469.629C571.542 464.953 568.792 460.426 565.863 456.085C568.172 453.694 568.216 448.911 565.604 446.735C564.141 445.516 562.513 444.658 560.782 444.051L563.288 443.641ZM324.821 468.619C334.272 463.426 354.901 467.66 358.036 458.018C367.097 463.414 375.397 470.06 382.62 478.13C370.431 482.331 358.31 486.773 346.287 491.467C344.598 481.91 334.738 474.393 325.657 469.101L324.821 468.619ZM187.759 471.724C234.327 448.386 296.643 458.148 331.19 497.487C317.482 501.33 302.486 502.283 290.05 510.413C282.627 508.899 278.136 516.231 274.148 522.742C272.769 524.993 271.45 527.146 270.09 528.802C268.058 531.37 265.547 534.874 262.688 538.862C250.382 556.035 231.64 582.189 216.955 581.242C211.34 579.944 212.109 575.616 213.419 570.889L214.472 567.141C218.379 553.408 222.773 539.787 226.891 526.12C230.003 515.795 214.397 511.738 210.891 521.71C202.552 544.96 187.72 566.37 167.622 580.919C172.994 557.101 185.824 534.857 194.209 511.809C196.807 503.649 184.603 498.556 180.354 505.97C167.431 524.03 151.048 538.483 132.399 550.018C135.543 522.866 152.956 499.02 173.412 481.609C171.826 482.012 170.255 482.486 168.704 483.047C174.88 479.365 180.899 473.734 187.759 471.724ZM632.829 509.694C630.777 492.108 626.205 473.999 614.623 460.141C631.471 469.17 643.48 483.795 653.926 499.372C654.644 506.505 655.825 513.579 657.734 520.448C649.996 522.003 641.854 521.701 633.947 520.54C634.076 517.821 633.631 514.957 633.205 512.216C633.071 511.361 632.94 510.517 632.829 509.694ZM576.1 473.954C588.404 473.181 598.89 476.077 610.331 480.708C611.642 486.137 612.43 491.699 612.961 497.251C608.292 497.357 603.762 499.716 598.854 499.968C594.016 500.218 588.339 499.817 583.329 498.397C582.368 489.976 579.739 481.778 576.1 473.954ZM501.5 484.616C508.738 481.722 519.396 489.699 511.457 495.95C505.677 499.876 497.77 494.611 493.078 491.024C490.492 488.054 499.239 485.155 501.5 484.616ZM583.724 504.219C583.759 506.125 583.696 508.04 583.542 509.964C593.784 511.167 603.873 513.737 613.897 516.237L613.832 513.193C613.81 512.171 613.785 511.146 613.751 510.137C603.843 512.808 591.67 510.042 583.724 504.219ZM361.053 539.476C369.088 531.427 346.511 515.888 344.073 527.316C344.724 534.626 353.428 545.307 361.053 539.476ZM72.0947 528.91C93.2897 515.112 95.8437 548.525 64.5037 538.764C62.4357 535.636 66.903 532.557 70.0889 530.361C70.8745 529.82 71.5822 529.332 72.0947 528.91ZM729.519 560.399C731.583 558.606 734.114 557.367 736.854 558.28L737.12 558.376C745.402 561.273 738.982 572.606 731.88 568.619C729.467 566.81 726.846 565.289 723.968 564.298C722.905 563.204 724.866 562.479 726.77 561.775C727.957 561.336 729.123 560.906 729.519 560.399ZM529.355 604.987C533.852 602.555 533.672 566.735 526.088 576.848C525.623 578.141 525.119 579.452 524.609 580.778C521.734 588.252 518.68 596.191 521.387 603.945C522.626 607.49 527.279 608.264 529.355 604.987ZM167.252 583.152L167.088 583.76C166.246 587.046 168.226 582.711 167.463 583.35C167.395 583.278 167.323 583.216 167.252 583.152ZM245.481 615.437C230.382 606.479 263.434 594.414 264.675 609.026C265.16 618.944 251.771 618.416 245.481 615.437ZM671.073 626.51C683.499 619.577 659.526 598.466 655.501 605.807C654.891 608.068 655.924 610.41 656.878 612.576C657.14 613.17 657.396 613.75 657.611 614.313C659.438 620.552 662.659 630.947 671.073 626.51ZM102.706 623.856C103.31 606.316 131.228 629.153 128.65 638.726C127.086 651.956 111.041 645.776 107.408 636.843C105.153 632.757 103.254 628.511 102.706 623.856ZM397.224 705.108C385.292 698.698 382.324 669.454 401.692 683.512C418.924 689.639 414.19 711.56 397.224 705.108ZM526.747 695.974C514.038 683.572 506.61 690.669 515.071 706.596C522.785 718.949 538.35 704.727 526.747 695.974ZM272.367 718.289C260.476 708.87 278.543 694.018 288.837 700.006C290.167 701.634 289.017 701.901 287.33 702.293C284.985 702.837 281.604 703.622 282.404 708.633C284.406 714.359 278.43 721.98 272.367 718.289Z" transform="translate(31.00027 0.9996)" fill="#000000" fill-rule="evenodd" stroke="none"></path></g><g transform="translate(225 0)"><g><g><path d="M451.63 368.844C447.666 362.982 438.121 320.442 432.024 313.899C432.484 288.769 439.431 201.762 419.588 162.65C423.762 158.429 434.854 122.074 432.024 108.331C441.372 79.549 381.319 33.8356 358.464 21.4828C252.243 -35.4759 98.3207 27.3968 50.0137 132.912C20.9847 196.457 20.4497 267.603 17.1677 335.978C16.7797 350.614 15.4347 365.364 15.4497 379.982C17.5487 392.827 27.7336 405.908 20.0126 416.589C11.4836 422.488 -5.75429 436.86 1.92071 445.01C6.41871 448.755 13.6037 446.582 18.4847 450.183C20.9697 451.573 22.5197 454.62 25.4257 455.083C51.9717 454.075 70.7042 453.989 97.3322 452.913C108.989 452.531 126.739 457.462 140.12 447.646C186.858 473.642 167.308 435.927 176.759 409.075C205.539 418.806 262.869 449.837 293.546 450.839C318.475 453.92 341.786 439.402 366.294 442.707C396.741 454.018 432.423 456.533 460.312 437.395C467.272 432.383 475.015 438.189 483.787 432.776C500.836 424.623 460.234 377.889 451.63 368.844Z" transform="translate(-20.01256 56)" fill="#FFFFFF" stroke="none"></path><path d="M277.777 0.620342C318.933 -1.94866 362.887 3.10934 399.855 22.4283C420.158 33.0373 435.851 49.0723 447.064 69.0273C453.759 80.9433 458.838 94.1383 460.762 107.704C462.738 121.643 460.418 134.072 451.518 145.152C447.983 149.552 442.029 144.637 442.9 140.135C448.228 112.591 439.586 85.3773 424.259 62.5743C402.018 29.4843 363.177 14.7853 325.36 8.22834C306.78 5.00834 287.935 3.66234 269.085 4.31734C254.714 4.81734 239.972 6.15634 226.334 10.9913C225.759 11.1953 225.53 10.2993 226.084 10.0883C242.352 3.87534 260.512 1.69834 277.777 0.620342ZM169.771 28.2817C171.042 27.6357 171.937 29.3167 170.859 30.1437C148.482 47.3047 128.442 69.0647 112.222 92.0957C82.3093 134.573 63.1253 183.727 54.2913 234.803C49.0753 264.966 47.7133 295.586 48.2343 326.151C48.4407 338.292 49.1341 350.397 49.9055 362.505L50.7763 375.927C51.1807 382.18 51.5185 388.38 51.2574 394.664L51.1863 396.116C51.059 398.363 51.0388 400.615 51.0186 402.865C50.9731 407.936 50.9277 412.991 49.6573 417.932C48.7163 421.59 43.5573 422.166 41.6893 418.973C41.3233 418.348 40.9813 417.703 40.6493 417.052C36.2713 424.192 30.6013 430.575 24.3103 436.277C27.3173 435.637 30.3533 435.229 33.4703 435.602C38.4113 436.194 42.8433 438.102 45.9793 441.446C49.0923 440.043 52.2933 439.077 55.9743 439.057C58.6853 439.043 60.7183 442.248 59.1713 444.629C56.0853 449.381 51.7793 452.045 46.8863 454.678C43.4186 456.544 39.2801 454.948 37.9996 451.258L37.9263 451.034C36.4853 446.366 28.8213 447.12 25.2053 447.842L24.1411 448.059C23.4462 448.204 22.753 448.352 22.0609 448.501C16.05 449.791 10.1294 451.062 3.98026 449.404C-0.442735 448.211 -1.59874 441.553 2.66526 439.343C16.1353 432.363 27.4433 422.987 39.0643 413.573C36.4983 407.282 35.0413 400.253 33.3613 393.856C30.9963 384.852 30.3053 375.164 29.4513 365.915C27.8283 348.33 27.2093 330.554 27.3833 312.9C27.9723 253.272 38.1703 193.459 64.2193 139.464C75.6313 115.811 90.6233 93.9237 108.344 74.5507C125.96 55.2917 146.535 40.0837 169.771 28.2817ZM344.254 65.1172C343.526 62.9382 340.934 61.5602 338.815 62.9032C332.47 66.9252 329.348 76.2452 326.028 82.6912C322.318 89.8942 318.433 96.9062 313.775 103.553C304.295 117.08 293.344 129.138 281.266 140.385C280.389 141.201 281.503 142.355 282.459 141.93C298.069 135 312.294 123.974 323.117 110.76C328.527 104.153 333.766 97.1192 337.84 89.5962C341.44 82.9482 346.822 72.7992 344.254 65.1172ZM377.805 70.9136C378.238 66.0106 371.178 65.7056 369.703 69.8166C367.532 75.8686 366.593 82.3166 364.593 88.4566C362.431 95.0936 359.693 101.519 356.429 107.689C350.034 119.781 341.956 130.622 331.995 140.007C331.59 140.389 332.177 140.931 332.592 140.604C343.682 131.865 353.605 121.46 361.379 109.649C368.705 98.5166 376.615 84.3916 377.805 70.9136ZM408.032 71.9527C409.386 67.2247 417.098 68.0297 416.779 73.1367C415.954 86.3297 409.73 99.5727 402.967 110.754C396.003 122.267 387.184 132.527 377.075 141.388C376.577 141.825 375.895 141.152 376.346 140.659C385.068 131.111 392.113 120.235 397.33 108.399C402.541 96.5797 404.508 84.2477 408.032 71.9527ZM295.882 81.7093C297.258 76.6253 290.915 73.0823 287.186 76.6463C281.149 82.4185 276.22 89.1576 271.421 95.9679L268.3 100.41C262.336 108.881 255.814 116.887 248.914 124.609C242.151 132.178 235.14 139.476 227.893 146.584C223.077 151.308 217.802 155.683 212.8 160.285C213.587 149.693 213.511 139.039 212.575 128.488C212.497 127.601 211.164 127.568 211.169 128.488C211.232 140.355 210.151 152.127 208.033 163.703C206.11 164.562 205.015 166.578 204.865 168.816C204.802 169.741 205.801 170.53 206.687 170.347C203.997 182.654 200.15 194.72 195.24 206.419C190.181 218.472 183.843 230.015 176.461 240.801C169.017 251.673 158.695 261.219 152.684 272.958C152.193 273.918 152.188 274.886 152.5 275.709C150.582 274.756 148.578 273.904 146.633 273.001L145.658 272.553C140.431 270.182 134.814 268.145 129.007 268.627C121.059 269.287 111.9 274.143 111.891 283.084C111.891 283.662 112.752 283.951 113.026 283.392C116.601 276.113 125.805 276.696 132.014 279.984C133.07 280.543 134.16 281.271 135.277 282.092C134.888 282.499 134.51 282.923 134.144 283.369C131.501 286.597 128.389 291.978 131.395 295.928C132.312 297.132 134.107 298.083 135.564 297.02C138.63 294.784 138.98 291.34 140.169 287.97C140.351 287.455 140.563 286.944 140.788 286.438C146.105 290.658 151.875 294.614 157.79 292.277C160.587 291.172 163.505 288.015 162.109 284.669C160.835 281.613 158.692 279.486 156.156 277.795C156.492 277.732 156.833 277.624 157.173 277.447C168.509 271.578 176.543 259.613 183.223 248.906L184.267 247.227C191.537 235.504 197.537 222.977 202.252 210.015C207.148 196.554 210.384 182.494 212.038 168.244C218.888 165.137 225.371 160.774 231.49 156.46L234.091 154.618C242.726 148.485 250.942 141.619 258.504 134.199C266.116 126.73 273.218 118.705 279.847 110.354C286.737 101.674 292.956 92.5293 295.882 81.7093ZM442.592 155.722C441.435 153.522 438.444 155.141 438.822 157.312C441.407 172.144 445.798 186.56 448.164 201.455C450.549 216.474 451.112 231.789 450.665 246.976C449.782 276.952 445.502 307.088 436.514 335.731C428.252 362.06 416.748 389.726 397.549 410.063C388.077 420.096 376.733 427.64 363.512 431.756C349.575 436.093 334.746 436.861 320.25 435.937C293.082 434.207 262.2 425.113 244.255 403.318C243.39 402.267 241.981 403.606 242.488 404.681C248.201 416.81 256.203 426.172 267.429 433.566C279.1 441.255 292.365 445.75 306.054 448.212C332.396 452.948 361.812 451.466 385.479 438.224C387.627 440.36 390.171 442.208 392.362 443.705C397.661 447.328 403.389 450.103 409.493 452.086C421.829 456.09 434.737 457.298 446.688 451.607C450.316 449.879 448.297 444.558 444.748 444.444C442.055 444.358 439.342 444.337 436.623 444.317C428.417 444.254 420.15 444.191 412.184 442.32C407.049 441.115 401.858 439.414 397.076 437.183C395.785 436.581 394.465 435.847 393.125 435.082L391.779 434.31C392.885 433.552 393.982 432.777 395.056 431.961C418.721 413.961 432.949 386.466 443.455 359.232L444.093 357.565C448.65 345.589 452.495 333.128 455.481 320.435C455.729 321.914 455.987 323.391 456.258 324.867C458.621 337.689 461.562 350.317 465.715 362.687C469.759 374.735 474.72 386.649 481.288 397.553C486.399 406.04 492.791 416.407 501.751 421.716C500.456 421.791 499.16 421.901 497.829 422.026C496.083 422.19 496.08 424.581 497.829 424.745C500.962 425.039 503.905 425.3 507.045 425.026C507.589 424.978 507.99 424.748 508.253 424.431C512.297 424.984 514.462 420.406 512.998 416.943C508.797 407.005 499.334 399.439 493.371 390.491C487.184 381.209 481.979 371.278 477.699 360.98C473.313 350.427 469.732 339.491 466.331 328.586C464.702 323.361 463.2 318.099 461.614 312.861L460.794 310.133C460.25 308.314 459.711 306.493 459.178 304.671L458.889 303.679C461.264 289.74 462.529 275.65 462.445 261.721C462.335 243.613 460.348 225.701 457.341 207.863C454.364 190.211 450.997 171.703 442.592 155.722ZM94.6408 265.709C103.216 246.42 130.344 229.309 148.535 247.247C148.876 247.582 148.529 248.313 148.034 248.108C136.719 243.419 122.867 249.383 115.036 257.913C108.823 264.679 105.09 273.367 104.349 282.524C103.608 291.689 105.799 301.255 111.886 308.344C115.079 312.063 119.391 315.583 124.465 316.03C127.571 316.303 130.363 315.085 133.159 313.864C134.976 313.072 136.794 312.279 138.701 311.893C142.352 311.155 145.108 313.446 145.466 317.045C146.255 324.988 138.347 330.319 131.492 331.614C124.118 333.006 116.592 331.485 110.238 327.489C89.7158 314.583 85.2888 286.748 94.6408 265.709ZM150.52 318.692C149.574 318.071 148.225 319.338 148.916 320.296C162.22 338.701 173.862 358.643 180.666 380.42C187.529 402.388 188.014 425.016 191.135 447.612C191.834 452.672 198.659 451.302 200.084 447.612C209.037 424.444 203.463 397.231 194.385 375.014C185.214 352.573 171.001 332.145 150.52 318.692ZM97.466 372.694C97.496 372.069 96.485 371.918 96.361 372.545C94.215 383.398 91.634 394.204 88.487 404.811C86.992 409.85 85.392 414.865 83.562 419.793C81.579 425.131 78.168 430.722 77.204 436.28C76.379 441.041 82.747 444.471 85.429 439.748C88.113 435.022 88.886 428.803 90.084 423.513L90.5675 421.361C91.6876 416.338 92.7467 411.301 93.655 406.236C95.647 395.123 96.919 383.972 97.466 372.694ZM133.036 393.652C133.148 393.253 133.8 393.322 133.772 393.752C133.259 401.72 132.911 409.785 131.909 417.709C131.422 421.56 130.778 425.386 130.23 429.228C129.668 433.168 129.753 437.146 127.462 440.511C124.426 444.972 116.36 443.717 116.631 437.578C116.818 433.343 118.764 430.625 120.587 426.908C121.756 424.525 122.775 422.062 123.758 419.587L125.218 415.875C128.12 408.514 130.897 401.277 133.036 393.652ZM164.657 403.855L164.896 403.61C165.828 402.597 167.218 403.272 167.663 404.341C169.087 407.766 168.841 411.671 168.603 415.434C168.537 416.485 168.471 417.524 168.443 418.539L168.419 419.554C168.322 424.265 168.389 428.678 166.253 433.027C163.659 438.308 156.824 435.028 156.295 430.33C155.835 426.251 157.276 422.24 158.673 418.352C159.032 417.354 159.388 416.364 159.708 415.382C160.703 412.33 161.428 409.156 162.941 406.386C161.647 406.609 160.355 407.056 159.172 407.379C158.642 407.522 158.442 406.744 158.948 406.564C160.904 405.872 163.112 405.352 164.657 403.855ZM438.281 418.15C437.47 417.772 436.691 418.703 437.316 419.402C444.907 427.9 456.662 432.929 467.878 433.939C472.564 434.363 472.535 427.047 467.878 426.627C457.131 425.658 448.021 422.699 438.281 418.15Z" transform="translate(-41.99957 58.00006)" fill="#000000" fill-rule="evenodd" stroke="none"></path></g></g><g transform="translate(159 186)"><g><path d="M140.63 0.473197L139.193 0.179116C137.503 -0.15929 135.804 -0.0161244 134.311 0.591153C132.847 1.18684 131.572 2.2242 130.68 3.72083C129.495 5.71373 129.337 7.38618 129.887 9.59525C130.311 11.3022 131.242 12.5864 132.46 13.5139C133.744 14.4911 135.37 15.0612 137.06 15.2595C144.854 16.175 152.53 17.8896 159.992 20.3235C163.488 21.4643 166.788 23.0096 170.058 24.6132L172.877 26.002C175.477 27.2735 178.163 28.499 181.557 29.3885C181.824 29.4584 182.087 29.5243 182.349 29.5865C183.29 29.2909 183.45 28.9329 183.649 28.6733L183.73 28.5721C183.972 28.2679 184.271 27.8025 183.988 25.6306C176.583 10.2711 156.267 3.74181 140.63 0.473197ZM43.5878 4.83023L45.4652 4.50163C51.273 3.49719 58.4944 2.53203 62.6028 7.20123C64.7819 9.67723 65.5318 14.2792 62.6028 16.6492C58.7671 19.7539 54.6298 19.6513 50.2182 19.5419C48.7043 19.5044 47.1582 19.466 45.5808 19.5562C40.4928 19.8482 35.6028 20.6902 30.7018 22.0912C19.9498 25.1642 11.1888 30.7742 2.00585 36.9342C0.800849 37.7422 -0.429151 36.2012 0.145849 35.0742C5.44685 24.6912 15.7198 16.1622 26.0098 10.9632C31.5019 8.18823 37.5118 5.88623 43.5878 4.83023ZM29.9632 50.1461C30.7976 39.7899 46.5702 37.4381 48.1392 47.6861C49.5442 56.8661 47.8902 65.2991 43.7552 73.5641C39.8042 81.4601 29.8737 77.7763 29.1227 70.5863C28.3809 63.4843 28.9069 59.2482 29.4428 54.933C29.6341 53.3921 29.8267 51.8412 29.9632 50.1461ZM159.205 41.8262C155.401 40.7152 152.226 42.6812 150.027 45.5612C149.773 45.8932 149.566 46.2222 149.38 46.5482C142.515 52.8562 145.101 65.6452 150.501 72.0492C153.814 75.9762 161.145 74.8452 163.413 70.3852C167.587 62.1722 171.09 45.2992 159.205 41.8262ZM128.748 119.039C136.872 107.66 125.366 96.9569 117.814 92.3669C115.836 90.9469 117.406 86.2431 121.634 86.9701C160.031 93.5671 140.136 159.708 91.112 123.413C85.2754 118.704 92.3434 108.334 98.6342 112.366C98.9532 112.611 99.2876 112.869 99.6364 113.139C106.704 118.603 119.636 128.601 128.748 119.039ZM93.5865 188.926C86.8642 186.184 80.8663 181.61 76.4812 175.766C74.9566 173.735 74.5614 171.589 74.8812 169.627C75.2408 167.421 76.546 165.422 78.326 164.08C80.1115 162.735 82.345 162.072 84.5043 162.41C86.3806 162.704 88.2484 163.731 89.7265 165.862L90.0354 166.288C92.6424 169.815 96.0396 172.708 99.9104 174.574C103.641 176.372 107.814 177.211 112.132 176.723C120.356 175.794 126.024 171.346 132.049 165.306C132.796 164.544 133.543 163.757 134.294 162.958C134.768 162.234 135.426 161.768 136.157 161.524C136.968 161.253 137.886 161.268 138.726 161.562C139.537 161.845 140.262 162.381 140.747 163.094C141.209 163.772 141.471 164.61 141.386 165.574C140.835 171.833 137.562 177.419 132.914 181.805C127.752 186.677 120.909 190.047 114.466 191.229C107.368 192.531 100.136 191.598 93.5865 188.926Z" transform="translate(53.00005 52.00027)" fill="#000000" fill-rule="evenodd" stroke="none"></path></g></g><g transform="translate(123 338)"></g><g transform="translate(47 241)"></g></g></g></svg>