<?xml version="1.0" standalone="no"?>
<svg viewBox="-350 -150 1500 1500" style="width: 487.5px; height: 487.5px; justify-content: center; align-self: center; transform: scale(-1, 1);" xmlns="http://www.w3.org/2000/svg"><g transform="rotate(0 441.54943084716797 604.8801727294922)"><g transform="translate(0 459)"><path d="M569.933 257.977C561.249 254.881 552.879 251.305 545.253 246.045C523.27 229.682 508.936 205.057 495.392 181.726C476.314 147.793 462.723 111.635 453.328 73.915C449.291 57.709 447.92 38.919 438.748 24.551C417.956 -5.53401 356.987 -1.63601 324.612 3.64499C302.932 7.48099 298.451 31.743 293.527 49.696C289.427 64.613 286.743 79.699 284.49 94.987C279.13 98.511 273.079 101.373 267.311 103.866C204.452 123.141 193.404 158.875 169.395 214.073C128.844 294.302 18.8088 325.715 2.18783 420.664C-8.52117 483.349 21.9318 542.322 53.3288 594.434C82.5688 651.355 123.39 678.675 188.399 665.227C249.374 651.549 307.974 628.668 367.876 610.987C396.889 603.854 425.856 585.3 456.375 591.769C519.26 605.892 583.871 612.532 648.317 610.699C738.801 614.358 738.787 527.513 729.5 460.26C722.995 355.599 670.205 288.395 569.933 257.977L569.933 257.977Z" transform="translate(90.00037 -39.99969)" fill="#FFFFFF" stroke="none"></path><path d="M794.691 379.885C794.177 383.043 793.572 385.897 792.138 388.798C790.279 392.564 787.675 396.045 784.568 398.93C794.01 419.989 797.814 443.248 798.848 466.184C799.592 485.591 798.788 505.366 795.001 524.457C792.066 539.262 786.359 553.446 776.101 564.713C767.629 574.018 756.623 580.535 744.822 584.684C724.011 592 701.218 592 679.343 589.928C679.829 592.002 680.232 594.075 680.648 596.036C681.984 602.329 683.405 659.119 686.264 672.05C687.473 677.52 688.066 684.97 691.321 689.57C694.417 693.946 696.183 698.84 695.089 704.248C694.27 708.299 691.75 713.34 688.789 716.284C687.399 717.664 687.103 718.253 686.625 718.534C685.746 719.052 684.252 718.525 674.199 719.962C554.944 737 258.844 747.2 101.32 713.336C94.9797 720.916 81.2917 721.231 75.7457 711.882C72.7921 706.904 72.5839 699.582 72.4062 693.331C72.3667 691.944 72.3288 690.61 72.2627 689.366C71.7947 680.547 68.9227 608.328 68.0587 590.024C67.924 587.171 67.7834 584.317 67.6428 581.464C66.8942 566.267 66.1451 551.062 66.2807 535.845C66.3607 526.827 66.7427 517.803 67.6357 508.826C67.9957 505.221 68.0347 499.682 69.9067 495.973C64.8607 481.336 58.5817 467.233 51.1207 453.66C38.9077 450.503 27.0537 446.045 15.8167 440.297C10.6977 437.68 5.36067 435.47 3.10267 429.865C1.09767 424.885 -0.205331 419.82 0.0266694 414.368C0.612669 400.589 3.06067 386.643 5.01767 373.002C7.04267 358.885 9.39967 344.816 12.0987 330.812C20.1557 289.016 29.7697 246.559 46.5427 207.297C62.9817 168.825 87.8947 135.92 123.257 113.04C163.377 87.0808 211.808 72.6538 258.844 66.3328C259.776 66.2075 260.704 66.062 261.628 65.9172C265.973 65.236 270.229 64.5688 274.488 66.0738C274.792 66.1813 275.101 66.2979 275.412 66.4155C276.666 66.8889 277.966 67.3799 279.234 67.3678C281.667 67.3448 284.357 66.5468 286.823 66.2588C293.509 65.4778 300.236 65.1348 306.949 64.6658C312.385 64.2878 318.279 64.2498 323.418 62.2048C334.395 57.8368 340.188 20.1098 341.96 14.0308C343.225 9.69184 344.547 3.30184 348.571 0.802843C350.705 -0.521157 354.159 -0.207157 355.842 1.74184C358.971 5.36231 357.852 11.564 356.911 16.7842C356.659 18.1808 356.419 19.507 356.278 20.6948C355.451 27.6258 352.63 78.5528 315.437 81.0528C281.291 83.348 281.572 86.2632 281.848 89.1198C281.872 89.3748 281.897 89.6293 281.897 89.8828C286.357 97.8228 293.101 108.328 298.802 115.135C306.403 124.208 314.804 132.739 323.85 140.377C353.611 165.509 392.588 180.01 431.606 179.382C452.066 179.053 471.029 174.057 484.741 158.006C497.546 143.016 504.724 116.424 510.138 97.7128C497.288 81.6958 491.704 60.1978 496.569 44.2078C498.023 39.4285 500.777 35.1878 506.05 38.3918C510.489 41.0888 510.132 53.8958 511.271 58.4538C513.648 67.9698 518.892 73.1968 525.49 80.6798C530.16 80.3038 534.529 82.1578 537.8 85.5528C567.749 92.8868 596.421 102.286 620.5 122.238C639.544 138.018 654.709 157.973 668.622 178.263C684.893 201.991 700.417 226.258 716.207 250.309C734 277.411 751.765 304.53 769.652 331.571C774.032 338.193 778.419 344.81 782.816 351.421C785.014 354.727 787.215 358.031 789.418 361.333C791.413 364.321 794.192 367.454 795.212 370.957C795.947 373.483 795.411 376.18 794.971 378.393C794.866 378.921 794.766 379.421 794.691 379.885ZM623.983 371.422C631.544 376.422 637.903 384.003 643.008 391.981C621.696 389.764 600.421 387.208 579.193 384.298C581.972 382.522 584.777 380.785 587.646 379.145C588.559 378.63 589.501 378.088 590.466 377.531C600.569 371.711 613.315 364.368 623.983 371.422ZM262.96 423.524C264.482 426.937 265.993 432.891 269.898 434.42C272.95 435.615 277.089 435.098 280.767 434.639C282.104 434.473 283.38 434.314 284.521 434.247C309.179 432.803 334.259 435.301 358.25 441.154C379.688 446.384 400.104 454.807 419.291 465.665C438.121 476.319 455.845 488.779 474.42 499.854C512.509 522.566 553.793 539.318 596.864 549.846C619.102 555.282 641.892 559.338 664.576 562.405C680.749 564.591 697.311 565.99 713.621 564.68C727.654 563.553 742.78 559.969 753.501 550.289C767.661 537.504 770.402 517.536 771.678 499.484C773.067 477.833 772.853 455.801 767.935 434.573C765.582 424.417 761.998 414.964 757.4 405.624C754.767 400.274 749.956 393.6 748.888 387.113C730.006 386.115 711.815 389.696 694.398 396.263C696.568 396.395 698.737 396.527 700.906 396.67C706.23 397.023 711.543 397.476 716.835 398.157C721.037 398.697 726.366 398.731 730.044 401.072C735.949 404.827 735.796 413.346 731.077 417.965C726.059 422.875 716.507 421.762 709.19 420.91C707.816 420.75 706.52 420.599 705.349 420.499C667.205 417.245 629.132 413.538 591.179 408.473C552.441 403.303 513.974 396.715 475.505 389.858C436.991 382.993 398.181 376.591 359.007 375.313C339.667 374.682 320.221 375.362 301.058 378.17C283.236 380.784 266.506 386.225 249.302 391.129C253.833 401.936 258.188 412.821 262.96 423.524ZM242.096 423.552C244.617 431.733 246.546 441.074 251.927 447.948C257.257 454.76 265.298 457.164 273.628 457.77C279.525 458.198 285.463 458.214 291.398 458.229C295.571 458.24 299.744 458.251 303.9 458.406C324.545 459.173 344.907 462.526 364.643 468.677C383.035 474.41 400.108 483.352 416.554 493.272C431.762 502.446 446.524 512.295 461.737 521.441C457.688 523.297 453.685 525.305 449.66 527.053C441.218 530.719 432.724 534.256 424.192 537.705C407.367 544.505 390.471 551.14 373.402 557.304C338.984 569.733 304 580.592 268.595 589.842C251.709 594.254 234.583 599.407 217.04 600.141C201.484 600.791 187.075 596.394 174.529 587.145C148.507 567.961 127.804 540.271 111.068 512.958C101.125 496.731 92.4477 479.681 85.2707 462.052C81.6407 453.137 78.3487 444.085 75.3857 434.927C73.9957 430.627 72.6777 426.303 71.4297 421.959C70.8807 420.049 70.3547 418.133 69.8337 416.215C96.4427 408.095 123.368 400.765 150.925 396.696C165.638 394.523 180.547 393.423 195.421 393.583C202.804 393.662 210.183 394.061 217.527 394.823C221.48 395.233 225.417 395.761 229.337 396.415C230.957 396.684 232.622 397.082 234.292 397.375C236.843 406.116 239.415 414.85 242.096 423.552Z" transform="translate(41.99993 -1.999843)" fill="#000000" fill-rule="evenodd" stroke="none"></path></g><g transform="translate(225 0)"><g><g><path d="M372.581 193.192C372.183 170.79 371.743 147.94 368.413 125.756C365.157 104.068 356.2 84.4644 340.808 68.7154C308.115 35.2624 260.725 27.0914 216.613 19.6034L141.194 6.80038C118.185 2.89538 93.6377 -3.34662 70.3907 2.19138C58.9357 4.92038 49.2077 11.2604 40.3167 18.7614C31.7467 25.9914 22.5327 33.7554 16.7257 43.4824C10.9087 53.2234 8.9077 64.6104 7.0167 75.6274C4.8837 88.0484 3.2267 100.566 2.0497 113.114C-0.309298 138.254 -0.631297 163.583 1.0797 188.775C1.9087 200.994 3.2277 213.178 4.9117 225.308C5.7467 231.323 6.6907 237.323 7.7567 243.302C8.0707 245.065 8.3097 247.017 8.6317 248.989C6.2527 255.755 4.9007 262.762 5.0097 269.739C5.3307 290.291 22.6777 303.23 40.1657 310.177C50.3057 314.205 60.9067 316.942 70.8697 321.442C81.3507 326.175 88.4847 333.848 95.6507 342.601C109.318 359.295 124.741 374.299 142.352 386.817C179.69 413.358 226.982 425.911 272.286 416.383C283.156 414.097 294.122 410.547 303.893 405.198C314.209 399.551 321.966 391.368 328.48 381.693C340.575 363.732 349.249 343.507 355.811 322.926C362.504 301.932 367.255 280.9 369.846 259.009C372.428 237.189 372.972 215.147 372.581 193.192L372.581 193.192Z" transform="translate(45.99902 88.99984)" fill="#FFFFFF" stroke="none"></path><path d="M329.741 38.5583C314.198 10.4243 271.121 -3.52869 239.911 0.764309C169.075 10.5123 127.36 61.8043 124.697 76.7473C122.543 81.6213 121.144 88.1003 120.312 94.1663C118.648 102.92 118.498 112.895 118.521 122.477L118.545 128.165C134.471 118.65 151.178 110.429 168.316 103.522C171.902 102.077 173.447 107.883 169.911 109.308C144.01 119.745 119.093 133.308 96.5093 149.934C-23.4667 247.345 -43.0067 401.635 103.363 409.245C104.918 409.39 106.479 409.538 108.045 409.687C134.425 412.187 162.279 414.828 187.551 404.848C196.096 420.347 244.427 476.392 252.623 458.55C255.734 452.922 249.568 448.927 244.164 445.425C242.04 444.049 240.033 442.748 238.754 441.455C231.04 435.916 224.799 430.139 217.941 423.234C198.504 404.826 190.79 385.714 179.091 374.998C177.491 371.27 173.948 370.486 169.824 373.055C120.742 388.24 111.943 301.61 156.601 295.858C159.297 295.668 162.046 295.817 164.79 296.203C167.19 297.411 169.722 299.092 172.275 300.785C179.611 305.652 187.113 310.628 192.085 304.819C194.115 302.447 194.068 299.533 193.648 296.603C192.992 292.03 192.132 287.477 191.375 282.92L186.932 256.172C252.637 184.563 354.491 155.73 449.621 166.178C483.029 252.209 490.268 400.919 420.06 461.569C382.599 494.751 333.986 494.214 298.232 462.772C294.217 458.1 290.848 457.898 294.759 464.18L295.044 464.628C331.557 519.017 410.464 498.002 444.348 452.466C487.043 398.723 493.077 278.238 489.207 259.431C542.36 238.895 622.52 147.81 558.701 78.7283C497.54 20.4913 403.947 21.0643 329.741 38.5583ZM168.958 286.014L169.528 285.681L169.522 286.284C169.522 286.686 169.53 287.089 169.54 287.492C168.883 287.162 168.219 286.853 167.547 286.567C168.023 286.462 168.497 286.283 168.958 286.014ZM154.648 315.747C156.175 314.296 158.597 314.995 160.628 315.58C161.602 315.862 162.487 316.117 163.139 316.096C168.284 316.8 173.172 318.973 176.984 321.655C179.501 323.065 181.265 324.389 182.739 325.607L182.765 325.6C182.758 325.603 182.749 325.608 182.742 325.61L182.881 325.704C185.027 327.229 192.884 335.818 187.92 333.508C187.55 333.027 187.171 332.565 186.789 332.112C186.748 332.174 186.691 332.235 186.623 332.294L186.902 332.708C191.121 339.054 183.837 332.368 182.716 330.592C182.663 330.635 182.603 330.664 182.544 330.695L184.003 332.471C184.207 332.723 184.368 332.925 184.501 333.095L184.809 333.392C189.687 338.187 189.839 342.502 184.172 335.413C184.395 335.747 184.574 336.101 184.599 336.415L184.935 336.843C189.384 342.577 185.765 340.541 183.554 338.092L183.369 337.881L183.407 337.938C185.464 341.107 181.383 338.884 180.661 337.189L180.631 337.112C179.845 336.471 179.361 335.751 179.196 335.569L179.165 335.539C175.339 331.619 169.793 328.302 165.082 326.795C164.399 326.665 163.708 326.561 163.01 326.487C160.177 325.855 157.313 325.422 154.419 325.188C154.065 325.146 153.706 324.886 153.438 324.55C149.062 324.402 150.413 322.609 152.228 322.275L152.26 322.27L151.9 322.24C149.091 321.966 147.173 320.958 150.013 320.339L150.373 320.268C150.329 320.199 150.29 320.13 150.252 320.061C147.82 319.794 149.407 317.43 150.757 318.002C150.353 316.681 151.549 316.769 152.39 316.83C152.732 316.855 153.015 316.876 153.109 316.796C153.356 316.522 153.663 316.28 153.84 316.267C154.345 315.91 154.366 315.805 154.426 315.77C154.46 315.751 154.505 315.753 154.648 315.747ZM182.765 325.6C182.77 325.598 182.775 325.596 182.779 325.596L182.765 325.6Z" transform="translate(-62.00126 16.99961)" fill="#000000" fill-rule="evenodd" stroke="none"></path></g></g><g transform="translate(159 186)"><g><path d="M140.63 0.473197L139.193 0.179116C137.503 -0.15929 135.804 -0.0161244 134.311 0.591153C132.847 1.18684 131.572 2.2242 130.68 3.72083C129.495 5.71373 129.337 7.38618 129.887 9.59525C130.311 11.3022 131.242 12.5864 132.46 13.5139C133.744 14.4911 135.37 15.0612 137.06 15.2595C144.854 16.175 152.53 17.8896 159.992 20.3235C163.488 21.4643 166.788 23.0096 170.058 24.6132L172.877 26.002C175.477 27.2735 178.163 28.499 181.557 29.3885C181.824 29.4584 182.087 29.5243 182.349 29.5865C183.29 29.2909 183.45 28.9329 183.649 28.6733L183.73 28.5721C183.972 28.2679 184.271 27.8025 183.988 25.6306C176.583 10.2711 156.267 3.74181 140.63 0.473197ZM43.5878 4.83023L45.4652 4.50163C51.273 3.49719 58.4944 2.53203 62.6028 7.20123C64.7819 9.67723 65.5318 14.2792 62.6028 16.6492C58.7671 19.7539 54.6298 19.6513 50.2182 19.5419C48.7043 19.5044 47.1582 19.466 45.5808 19.5562C40.4928 19.8482 35.6028 20.6902 30.7018 22.0912C19.9498 25.1642 11.1888 30.7742 2.00585 36.9342C0.800849 37.7422 -0.429151 36.2012 0.145849 35.0742C5.44685 24.6912 15.7198 16.1622 26.0098 10.9632C31.5019 8.18823 37.5118 5.88623 43.5878 4.83023ZM29.9632 50.1461C30.7976 39.7899 46.5702 37.4381 48.1392 47.6861C49.5442 56.8661 47.8902 65.2991 43.7552 73.5641C39.8042 81.4601 29.8737 77.7763 29.1227 70.5863C28.3809 63.4843 28.9069 59.2482 29.4428 54.933C29.6341 53.3921 29.8267 51.8412 29.9632 50.1461ZM159.205 41.8262C155.401 40.7152 152.226 42.6812 150.027 45.5612C149.773 45.8932 149.566 46.2222 149.38 46.5482C142.515 52.8562 145.101 65.6452 150.501 72.0492C153.814 75.9762 161.145 74.8452 163.413 70.3852C167.587 62.1722 171.09 45.2992 159.205 41.8262ZM128.748 119.039C136.872 107.66 125.366 96.9569 117.814 92.3669C115.836 90.9469 117.406 86.2431 121.634 86.9701C160.031 93.5671 140.136 159.708 91.112 123.413C85.2754 118.704 92.3434 108.334 98.6342 112.366C98.9532 112.611 99.2876 112.869 99.6364 113.139C106.704 118.603 119.636 128.601 128.748 119.039ZM93.5865 188.926C86.8642 186.184 80.8663 181.61 76.4812 175.766C74.9566 173.735 74.5614 171.589 74.8812 169.627C75.2408 167.421 76.546 165.422 78.326 164.08C80.1115 162.735 82.345 162.072 84.5043 162.41C86.3806 162.704 88.2484 163.731 89.7265 165.862L90.0354 166.288C92.6424 169.815 96.0396 172.708 99.9104 174.574C103.641 176.372 107.814 177.211 112.132 176.723C120.356 175.794 126.024 171.346 132.049 165.306C132.796 164.544 133.543 163.757 134.294 162.958C134.768 162.234 135.426 161.768 136.157 161.524C136.968 161.253 137.886 161.268 138.726 161.562C139.537 161.845 140.262 162.381 140.747 163.094C141.209 163.772 141.471 164.61 141.386 165.574C140.835 171.833 137.562 177.419 132.914 181.805C127.752 186.677 120.909 190.047 114.466 191.229C107.368 192.531 100.136 191.598 93.5865 188.926Z" transform="translate(53.00005 52.00027)" fill="#000000" fill-rule="evenodd" stroke="none"></path></g></g><g transform="translate(123 338)"></g><g transform="translate(47 241)"></g></g></g></svg>