<?xml version="1.0" standalone="no"?>
<svg viewBox="-900 -300 2600 2600" style="width: 585px; height: 585px; justify-content: center; align-self: center; transform: scale(1, 1);" xmlns="http://www.w3.org/2000/svg"><g transform="rotate(0 580.4679946899414 993.4951772689819)"><g transform="translate(-172 456)"><path d="M667.834 1592.07C684.941 1595.67 702.504 1597.49 720.033 1597.49C748.379 1597.49 776.183 1592.81 802.671 1583.59L802.926 1583.5L803.187 1583.43C818.41 1579.6 836.335 1570.2 842.065 1557.81C844.741 1552.02 844.464 1546.12 841.221 1539.77L840.099 1537.57L840.891 1535.23C852.961 1499.72 782.781 1459.29 736.342 1432.53C722.147 1424.35 709.889 1417.29 701.673 1411.43L689.373 1402.66L704.437 1400.78C707.274 1400.42 708.618 1397.62 708.497 1395.73C708.312 1392.85 704.95 1392.24 702.163 1392.24C699.022 1392.24 693.433 1393.09 684.633 1397.12L681.547 1398.54L678.73 1396.66C674.363 1393.73 669.82 1390.56 664.841 1386.96L652.539 1378.07L667.695 1376.33C728.932 1369.29 848.992 1353 965.062 1323.03C1091.29 1290.44 1179.9 1250.67 1228.45 1204.8L1228.59 1204.67C1267 1170.71 1292.26 1117.91 1292.95 1070.14C1293.44 1036.34 1281.56 1007.05 1258.61 985.415C1225.68 961.591 1181.04 950.007 1122.17 950.007C1080.07 950.007 1036.51 955.609 994.391 961.027C966.669 964.593 940.484 967.962 916.253 969.525L910.747 969.881L909.928 964.506C899.559 896.507 896.631 826.945 893.798 759.674C891.115 695.941 888.341 630.037 879.22 565.75C863.14 442.82 844.91 303.483 800.568 174.123C792.301 151.555 781.368 136.747 766.163 127.52C752.042 118.95 733.644 114.959 708.265 114.959C707.618 114.959 706.176 114.968 706.176 114.968L706.033 114.962C695.591 114.553 684.803 113.632 674.371 112.741C660.525 111.56 646.209 110.338 632.826 110.338C631.191 110.338 629.57 110.356 627.908 110.394C622.144 110.487 617.602 111.311 614.019 112.912L608.479 115.388L606.043 109.895C603.675 104.555 601.557 98.8243 599.749 92.8599L599.496 92.0264L599.501 89.927L599.501 89.8809C599.52 82.3722 599.54 74.6095 598.924 67.1157C596.859 42.0207 588.527 24.5649 573.451 13.7514C560.475 4.44423 542.716 0.0768455 517.561 0.00492599L514.736 0C495.061 0 474.732 0.959584 461.341 12.4214C454.283 18.4626 450.024 28.159 449.657 39.0247C449.512 43.3153 449.935 47.7368 450.321 51.1092L450.46 52.321L450.1 53.4874C438.831 90.0777 421.66 114.897 397.606 129.362L396.16 130.231L393.544 130.227C265.203 130.227 162.696 189.665 104.907 297.593L104.722 297.94L104.49 298.26C93.228 313.866 82.396 330.631 72.289 348.095C70.949 350.926 69.187 353.799 67.324 356.835C59.439 369.69 57.613 375.066 63.081 379.634L66.284 382.308L64.83 386.189C54.199 414.566 44.22 443.737 34.568 471.947C30.266 484.521 25.819 497.521 21.367 510.295C20.072 514.764 18.3 519.252 16.585 523.594L16.5836 523.597C12.8312 533.1 9.28716 542.075 10.355 550.66L10.478 551.65L10.266 552.625C8.28802 561.668 9.05102 570.492 12.358 576.836L12.644 577.384L12.808 577.979C14.855 585.353 22.793 609.934 39.001 616.593L39.987 616.998L40.77 617.715C52.079 628.044 67.183 636.516 86.946 643.618L92.643 645.665L90.505 651.256C44.747 770.863 26.746 896.973 9.48702 1037.65C2.02602 1091.93 -4.46198 1155.56 3.98802 1215.91C13.266 1282.16 38.8 1332.01 82.052 1368.31L83.944 1369.9L84.141 1372.34C85.709 1391.74 97.049 1420.68 121.867 1420.91L124.313 1420.93L126.047 1422.63C132.183 1428.66 138.883 1431.46 147.134 1431.46C158.421 1431.46 170.814 1426.11 182.801 1420.94L183.52 1420.63L183.67 1420.57C216.82 1408.3 253.763 1400.04 296.606 1395.34L299.065 1395.07L301.003 1396.58C301.644 1397.09 302.603 1397.37 303.637 1397.37C305.004 1397.37 306.342 1396.87 307.128 1396.07L308.357 1394.81L310.084 1394.41C313.052 1393.73 316.19 1393.4 319.679 1393.4C327.611 1393.4 335.837 1395.19 343.094 1396.77C348.941 1398.04 354.466 1399.25 358.577 1399.25C363.318 1399.25 363.993 1397.85 364.54 1395.56L365.522 1391.45L369.793 1391.03C385.161 1389.54 400.766 1387.32 415.855 1385.17C429.455 1383.23 443.517 1381.22 457.469 1379.74L471.306 1378.27L462.89 1389.19C452.876 1402.19 452.203 1423.03 461.254 1439.88L462.699 1442.57L461.316 1445.29C452.575 1462.49 454.961 1477.53 468.823 1492.62C481.459 1506.38 501.622 1517.66 517.824 1526.72C520.025 1527.95 522.169 1529.15 524.282 1530.35C565.666 1554.32 614.301 1580.83 667.834 1592.07ZM701.918 970.847C712.823 951.988 717.401 929.68 715.162 906.32C706.865 861.194 705.22 811.674 709.983 750.517C711.319 726.327 712.645 702.133 713.97 677.941C716.983 622.924 720.099 566.035 723.31 510.092L735.246 509.632C739.407 539.855 743.696 570.582 747.845 600.295C763.608 713.215 779.908 829.98 792.803 945.24C793.049 947.385 793.236 949.552 793.418 951.649C794.093 959.453 794.73 966.824 798.172 972.906L802.452 980.475L793.739 981.641C780.13 983.465 763.193 985.733 746.906 985.733C731.08 985.733 717.413 983.643 705.123 979.345L698.37 976.983L701.918 970.847Z" transform="translate(106.9999 -77.0026)" fill="#FFFFFF" fill-rule="evenodd" stroke="none"></path><path d="M999.584 931.858C1092.6 919.895 1198 906.339 1268.44 957.565C1335.93 1020.74 1300.31 1131.14 1238.57 1185.72C1126.19 1291.87 829.644 1340.97 674.365 1358.82C678.875 1362.08 683.435 1365.28 688.075 1368.38C726.465 1350.78 725.925 1381.42 711.165 1383.26C719.144 1388.95 731.354 1395.98 745.346 1404.04C794.679 1432.46 866.172 1473.65 852.554 1513.71C866.345 1540.73 833.885 1559.9 810.644 1565.75C766.415 1581.15 718.394 1584.08 672.554 1574.43C620.415 1563.49 572.804 1538.44 527.215 1512.04C525.161 1510.88 523.027 1509.68 520.837 1508.46C487.018 1489.54 439.657 1463.06 461.925 1419.25C452.615 1401.92 451.724 1378.27 464.085 1362.24C434.755 1365.35 405.715 1370.69 376.355 1373.54C373.664 1384.8 361.753 1382.2 347.772 1379.16C337.847 1377 326.878 1374.61 317.425 1376.79C313.835 1380.46 307.275 1380.98 303.245 1377.83C265.655 1381.96 227.825 1389.36 191.755 1402.72L191.18 1402.97C169.966 1412.12 146.812 1422.12 127.785 1403.43C100.064 1403.18 86.0446 1373.06 84.1346 1349.43C-14.3054 1266.84 -6.19642 1127.82 9.51458 1013.53C25.5446 882.899 43.5536 749.554 90.8646 625.912C73.1246 619.539 56.1146 611.078 42.6646 598.794C26.8136 592.283 17.2546 571.637 12.9946 556.29C8.50458 547.681 8.41458 537.092 10.3746 528.138C9.12041 518.076 13.0896 508.028 16.9678 498.21C18.6897 493.851 20.3936 489.538 21.6146 485.288C36.0746 443.808 49.7546 402.082 65.1746 360.928C54.835 352.291 61.9385 340.713 68.1632 330.566C69.9756 327.612 71.7134 324.779 72.9246 322.176C82.9046 304.917 93.7946 287.956 105.575 271.633C165.775 159.221 272.314 100.858 400.455 101.144C435.644 79.985 449.775 37.7762 457.525 0C470.064 48.5722 440.185 112.353 386.955 127.424C394.595 138.367 400.545 150.494 407.445 161.891C443.144 218.925 528.335 243.393 589.965 216.521C625.234 197.835 633.144 154.838 631.865 118.835C615.755 136.004 601.885 92.1207 599.554 80.9701C596.335 65.4065 596.965 49.1829 602.885 34.3187C603.295 33.2844 604.675 33.4814 604.795 34.565C606.715 51.6357 610.515 68.5783 617.515 84.3586C622.495 82.1324 628.265 81.4035 633.785 81.3138C648.94 80.9586 664.899 82.3206 680.854 83.6822C691.398 84.5821 701.939 85.4817 712.245 85.8854C763.285 85.4914 794.285 100.03 812.205 148.987C855.625 275.604 873.855 409.598 891.144 541.751C909.915 674.031 901.695 808.252 921.835 940.317C945.869 938.766 972.189 935.381 999.584 931.858ZM623.625 96.1396C622.375 94.0021 621.185 91.8153 620.045 89.599C623.905 89.7467 627.665 89.8847 631.465 90.5151C631.354 94.511 631.46 98.528 631.567 102.553C631.624 104.689 631.68 106.827 631.705 108.965C629.804 104.453 626.085 100.336 623.625 96.1396ZM23.6046 531.112C21.7336 549.089 31.4146 566.032 43.7336 579.3C64.0046 599.967 92.7846 608.921 120.125 616.486C188.564 635.132 256.984 653.818 325.325 672.8C351.095 680.129 377.185 686.344 402.655 694.589C414.115 698.244 428.605 699.15 434.555 710.872C434.617 710.703 434.731 710.377 434.889 709.927C436.591 705.063 443.365 685.705 445.205 693.801C437.855 713.551 439.685 735.843 442.825 756.322C445.665 774.84 448.885 793.398 449.865 812.144C449.312 831.612 447.621 851.057 445.93 870.504C442.595 908.844 439.261 947.187 444.655 985.707C465.415 970.853 463.325 940.553 469.075 918.203C471.695 904.944 474.585 891.774 477.605 878.604C479.465 870.468 493.035 872.241 492.415 880.574C490.894 901.23 490.605 921.906 490.115 942.612C490.439 945.874 490.109 951.192 489.74 957.13C488.926 970.23 487.926 986.344 493.355 990.051C503.539 994.779 506.966 974.923 509.212 961.915C509.885 958.012 510.452 954.726 511.064 952.905C515.455 932.495 519.535 912.026 523.304 891.498C524.635 884.297 536.365 886.12 536.105 893.202C535.275 915.553 534.304 937.893 533.405 960.244C533.316 962.401 533.148 964.738 532.971 967.185C532.027 980.284 530.854 996.56 540.535 1005.51C548.611 997.826 549.07 986.19 549.512 975.015C549.688 970.555 549.861 966.168 550.515 962.135C552.425 940.326 554.335 918.508 556.245 896.689C556.955 888.612 569.644 888.415 569.215 896.689C568.195 925.551 569.015 957.003 575.135 984.111C575.495 986.022 575.875 987.923 576.265 989.834C576.535 989.509 576.795 989.193 577.045 988.859C576.155 987.48 575.595 985.914 575.415 984.22C583.275 983.964 585.405 969.73 584.285 962.736C585.035 953.388 585.045 943.881 585.415 934.594C587.314 886.819 587.275 838.257 574.365 791.793C555.215 720.062 512.345 684.207 456.505 639.997C381.935 577.577 300.465 522.72 221.575 466.681C216.535 467.715 213.255 463.421 213.925 458.79C217.035 444.163 235.445 430.993 244.385 418.336C237.938 419.834 231.951 416.028 226.365 412.477C224.863 411.522 223.39 410.585 221.945 409.776C215.435 406.121 208.845 402.595 202.185 399.195C165.984 380.293 127.605 365.902 88.5946 353.904C70.2546 401.126 54.6146 449.225 37.7646 496.96C33.4546 508.368 31.0046 521.242 23.6046 531.112ZM900.655 942.74C879.945 805.435 892.125 665.56 870.775 528.098C863.925 472.562 854.054 417.557 844.175 362.513C807.615 368.945 772.265 381.702 740.915 401.412C740.355 418.828 739.505 436.234 738.535 453.639C744.955 482.383 750.554 511.165 756.095 540.066C778.685 660.832 795.734 782.582 811.175 904.412C811.532 910.395 812.488 916.432 813.446 922.479C815.222 933.695 817.005 944.948 814.984 955.969C843.415 950.728 871.925 945.961 900.655 942.74ZM728.085 888.119C718.655 837.005 718.915 785.213 722.945 733.538C727.375 653.395 731.675 573.233 736.275 493.1C756.245 638.137 777.535 783.006 793.814 928.506C794.974 938.632 794.795 949.349 799.905 958.382C771.665 962.165 741.564 965.977 714.105 956.373C726.155 935.539 730.405 911.819 728.085 888.119ZM84.1046 1333.2C10.7746 1260.76 -3.45542 1140.08 23.6346 1045.22C26.0446 1010.05 38.3446 976.527 49.3646 943.222C84.4546 842.197 130.605 745.003 185.955 653.237C254.625 672.101 323.175 691.466 392.005 709.709C401.484 711.768 410.974 715.836 420.705 716.427C424.185 718.644 427.675 721.087 431.295 723.233C427.41 742.263 429.029 761.586 430.642 780.833C431.217 787.7 431.791 794.557 432.115 801.387C433.234 821.836 431.025 841.862 428.314 862.095C428.095 864.218 427.828 866.685 427.528 869.444C423.681 904.931 414.616 988.526 437.805 1004.79C442.583 1007.09 447.075 1004.25 450.739 1001.92C453.569 1000.13 455.904 998.648 457.495 1000.1C460.785 997.803 463.855 994.819 466.355 991.529C476.005 1022.73 491.775 1051.68 501.515 1082.92C505.574 1097.3 512.54 1114.47 519.901 1132.61C536.036 1172.38 554.074 1216.84 547.585 1246.91C540.275 1273.95 508.295 1279.78 485.215 1288.62C458.545 1297.9 431.575 1306.41 404.165 1313.33C390.785 1284.93 377.995 1256.27 365.445 1227.49C308.085 1094.74 257.285 959.219 211.885 822.083C211.035 819.039 200.595 786.06 198.685 795.26C198.525 794.314 197.335 791.871 196.885 793.96C204.585 826.161 212.394 858.352 220.845 890.375C200.085 887.469 177.765 886.337 158.765 896.512C157.785 897.034 158.505 898.323 159.474 898.167C178.557 894.858 197.065 899.656 215.431 904.417C218.719 905.269 222.003 906.121 225.285 906.924C255.635 1010.23 294.795 1110.92 336.245 1210.35C327.585 1207.59 317.986 1208.76 308.541 1209.91C304.005 1210.46 299.506 1211.01 295.165 1211.11C253.025 1215.47 211.365 1224.69 171.555 1239.03C121.515 1255.25 86.1346 1276.41 84.1046 1333.2ZM676.075 1346.37C677.905 1344.51 678.675 1342.06 676.965 1339.2C671.437 1332.14 660.942 1335.02 652.665 1337.29C651.045 1337.74 649.511 1338.16 648.115 1338.48C644.894 1335.8 641.695 1333.11 638.615 1330.27C639.337 1325.79 635.93 1322.32 632.631 1318.96C631.047 1317.35 629.489 1315.76 628.425 1314.1C625.205 1310.33 622.175 1306.04 618.314 1302.88C611.714 1297.73 603.327 1298.64 595.138 1299.52C591.649 1299.9 588.202 1300.27 584.945 1300.17C576.535 1289.47 567.875 1279.11 559.875 1268.06C569.095 1252.56 569.745 1234.41 566.685 1217.14C708.115 1163.48 830.535 1061.87 983.495 1038.39C988.755 1037.51 991.705 1031.12 990.394 1026.43C979.724 1000.97 826.394 1066.67 803.474 1078.57C735.875 1110.93 672.554 1151.28 606.855 1186.88C593.155 1194.16 578.085 1198.07 563.105 1201.85C540.085 1126.3 501.144 1057.04 471.285 984.2C473.224 980.841 474.875 977.315 476.275 973.69C475.285 1013.75 514.245 1013.19 519.625 975.187C517.405 994.996 532.385 1037.42 554.005 1009.58C559.075 1002.59 560.875 993.637 561.734 984.604C562.845 990.849 564.105 997.065 565.505 1003.26C571.054 1015.53 586.205 1000.61 589.724 994.208C591.755 993.844 593.655 992.918 595.045 991.785C633.275 997.094 678.304 996.789 706.355 966.607C744.593 981.276 786.112 973.595 825.92 966.23C835.645 964.43 845.267 962.65 854.715 961.219C878.209 958.518 901.725 955.477 925.266 952.432C999.839 942.789 1074.65 933.114 1149.74 934.111C1193.85 936.672 1245.89 943.794 1273.79 981.432C1309.58 1035.69 1289.35 1108.96 1249.87 1155.93C1154.9 1276.17 828.915 1328.46 676.075 1346.37ZM98.9046 1348.21C97.4446 1326.52 101.095 1299.52 117.165 1283.35C153.945 1252.26 205.445 1242.48 251.405 1231.22C272.814 1226.99 294.515 1224.18 316.305 1222.79C318.059 1222.65 319.921 1222.63 321.815 1222.61C328.267 1222.55 335.093 1222.49 339.314 1217.6C342.125 1224.26 344.974 1230.91 347.825 1237.56C256.325 1225.57 65.4246 1267.22 118.885 1392.57C107.564 1380.3 100.064 1365.37 98.9046 1348.21ZM317.705 1270.51C337.625 1266.27 359.175 1278.7 370.835 1293.89C372.905 1296.59 374.745 1299.45 376.355 1302.43C368.585 1285.15 360.915 1267.83 353.385 1250.46C273.655 1243.39 138.595 1254.55 121.495 1350.07C120.255 1366.22 124.685 1385.19 137.835 1396.06C150.719 1406.82 165.805 1400.38 179.974 1394.34C184.477 1392.42 188.887 1390.54 193.105 1389.26C217.925 1380.61 243.435 1374.26 269.325 1369.99C268.855 1350.48 268.325 1330.67 263.935 1311.71C272.655 1294.46 289.205 1361.67 288.974 1367.18C292.545 1366.74 296.105 1366.34 299.685 1365.97C299.025 1346.22 298.935 1326.29 301.665 1306.7C301.755 1305.9 302.825 1305.73 303.105 1306.51C306.974 1316.33 310.045 1326.53 312.715 1336.76C316.355 1345.64 313.775 1358.46 324.095 1363.01C334.525 1367.37 346.035 1368.05 356.945 1370.99C359.095 1370.89 361.205 1370.63 363.224 1370.14C366.635 1369.31 365.785 1364.66 362.894 1364.18C363.144 1363.56 363.335 1362.85 363.545 1362.05C364.115 1362.01 364.695 1361.98 365.275 1361.94C363.776 1355.8 365.341 1349.59 366.923 1343.31C368.413 1337.4 369.917 1331.43 368.894 1325.41C367.965 1297.96 344.465 1276.74 317.705 1273.1C316.394 1272.84 316.425 1270.79 317.705 1270.51ZM569.585 1306.21C562.855 1297.05 557.705 1287.03 553.495 1276.51C529.175 1300.3 487.175 1309.26 455.465 1321.23C457.906 1323.81 460.317 1326.39 462.699 1328.94C496.857 1365.49 524.932 1395.53 551.295 1326.56C555.695 1318.61 561.935 1311.21 569.585 1306.21ZM385.795 1323.42C385.165 1324.75 384.265 1326.15 384.245 1327.75C383.605 1322.25 382.355 1316.81 380.455 1311.6C382.234 1315.54 384.015 1319.48 385.795 1323.42ZM683.945 1388.39C682.215 1388.79 680.474 1389.22 678.745 1389.68C667.515 1392.69 656.625 1396.84 646.035 1401.56C645.155 1401.95 644.435 1401.01 645.025 1400.28C651.845 1391.99 660.325 1384.36 669.765 1378.13C660.045 1370.75 650.665 1362.77 642.135 1354.19C630.365 1357.21 619.535 1361.89 608.635 1367.51C599.575 1367.5 630.275 1344.77 633.224 1344.62C624.635 1335.08 618.314 1324.1 610.984 1313.67C610.755 1314.57 610.335 1315.6 609.865 1316.32C603.365 1310.46 593.415 1311.56 585.635 1316.82C570.885 1321.7 565.405 1338 559.125 1350.08C540.915 1389.9 504.765 1392.69 476.285 1360.66C446.224 1415.6 519.314 1448.15 560.984 1464.67C593.785 1479.05 630.085 1495.07 663.045 1509.57C673.245 1514.19 683.355 1518.97 694.554 1520.67C724.995 1526.99 756.564 1526.03 787.045 1520.48C796.474 1518.77 805.814 1516.6 815.064 1514.1C820.375 1512.66 828.775 1511.65 832.285 1507.2C839.359 1481.69 775.138 1443.95 727.591 1416C708.395 1404.71 691.917 1395.03 683.945 1388.39ZM388.365 1359.95C390.984 1359.66 393.605 1359.35 396.224 1359.02C419.835 1356.07 443.314 1351.88 467.015 1349.78C460.505 1341.36 455.205 1332.21 450.205 1322.92C437.525 1326.92 424.775 1330.68 411.945 1334.16C402.965 1337.42 388.825 1340.86 384.445 1329.54C385.255 1337 384.695 1344.59 383.185 1351.94C386.545 1353.02 388.635 1356.49 388.365 1359.95ZM819.265 1544.47C713.234 1592.1 600.984 1539.06 510.564 1482.52C489.695 1470.87 462.245 1454.35 466.465 1426.92C481.835 1449.4 507.175 1462.21 531.495 1473.31C572.355 1491.78 613.484 1509.66 654.445 1527.9C658.314 1540.74 676.814 1541.23 687.995 1544.08C737.765 1553.73 791.265 1548.93 838.105 1529.68C835.394 1537.71 826.525 1541.4 819.265 1544.47Z" transform="translate(99.99972 -53.9982)" fill="#000000" fill-rule="evenodd" stroke="none"></path></g><g transform="translate(225 0)"><g><g><path d="M185.626 0C242.407 0 301.136 44.012 321.95 72.0972C339.449 95.7099 348.871 202.486 348.871 274.645C348.871 289.737 357.199 318.186 354.769 332.622C345.863 385.521 307.06 429.886 230.262 429.886C153.463 429.886 98.3997 399.445 41.3173 317.713C13.6206 317.713 0.197717 296.473 0.00278191 262.954C-0.192153 229.435 26.7371 217.24 26.7371 217.24C26.7371 217.24 17.1355 84.9611 41.3173 50.522C65.499 16.0828 128.845 -8.27315e-15 185.626 0Z" transform="translate(56.41525 75.25961)" fill="#FFFFFF" stroke="none"></path><path d="M274.456 7.28737C239.126 0.976367 203.996 -2.07363 168.146 1.55637C150.635 3.33737 133.196 6.21637 116.196 10.8274C101.246 14.8974 84.2463 19.6864 71.3463 28.8374C66.4163 22.4874 58.5363 17.1574 50.2063 19.6674C41.3563 22.3374 39.9063 30.1064 41.6563 38.1474C41.8288 38.9319 42.0203 39.4037 42.1459 39.713C42.3425 40.1973 42.3774 40.2832 41.9244 40.5476L41.4163 40.8274C39.7263 41.7474 37.7153 41.9174 36.0263 43.0264C32.9653 45.0374 30.9363 48.3664 30.0453 51.8774C28.0963 59.5264 31.8353 66.1764 36.5563 71.8274C19.9063 95.9174 10.5263 124.337 6.82627 153.287C4.85627 168.667 4.45627 184.457 5.93627 199.897C6.63527 207.207 7.40627 214.647 8.98627 221.827C10.3353 227.966 12.4163 233.797 14.7063 239.606L15.0053 240.386C6.83527 247.547 1.84627 258.547 0.516266 269.167C-1.69373 286.766 3.30627 308.337 13.3163 323.087C16.2953 327.466 19.8163 331.317 23.9363 334.417C22.4563 337.287 21.2663 340.337 20.1863 343.136L19.7935 344.15C17.8906 349.058 15.7137 354.843 17.8263 359.936C20.1463 365.547 26.3753 366.726 31.4463 364.087C32.0863 363.755 32.7193 363.399 33.3503 363.033C34.5763 363.052 35.8333 362.887 37.0913 362.605C38.4253 367.075 41.1703 371.184 44.7483 373.629C51.5473 378.276 61.4233 377.832 68.2513 373.184C75.1443 384.313 83.8243 394.421 93.4363 403.266L93.6568 403.47C94.0369 403.822 94.4257 404.186 94.8229 404.559C99.9048 409.324 106.361 415.378 113.585 412.497C120.626 409.696 119.465 401.247 115.186 396.407C110.786 391.446 104.806 387.537 100.016 382.886C94.9463 377.976 90.0263 372.987 85.3753 367.676C80.4463 362.047 75.5853 356.346 70.5763 350.797C67.8663 347.787 65.0663 344.837 62.4063 341.776C61.3663 340.183 60.2507 338.652 59.1808 337.222L57.6253 335.157C57.7763 334.926 57.9363 334.707 58.0763 334.466C60.1663 330.987 58.0363 327.147 54.5763 325.856C49.3463 323.917 43.7763 324.556 38.6353 322.497C33.4563 320.426 29.5363 316.207 26.6753 311.537C20.1753 300.917 16.3263 286.957 16.4363 274.537C16.5263 263.926 20.8853 252.386 30.3753 246.787C34.5423 244.33 41.3453 243.214 47.3933 244.233C49.9383 246.436 52.7063 248.484 55.0193 250.939L54.7263 251.667C54.4763 252.297 55.4763 252.897 55.8963 252.346L56.0673 252.124C56.7393 252.936 57.3643 253.791 57.9013 254.722C60.5933 259.394 61.7203 264.323 67.4233 266.281C71.0817 267.537 74.5448 266.638 78.0434 265.729C79.5464 265.339 81.0559 264.947 82.5903 264.723C86.8643 264.1 88.8083 258.87 87.9903 255.212C85.4563 243.874 83.1253 232.516 80.3183 221.238L79.3443 217.421C86.1473 205.805 92.3913 193.842 98.3753 181.766C98.5563 184.037 98.7663 186.317 99.0163 188.587C99.4463 192.446 104.786 196.237 107.906 192.266C118.175 179.186 128.476 166.436 137.056 152.127C142.776 142.587 147.835 132.587 152.316 122.356C152.776 123.886 153.276 125.407 153.816 126.886C155.585 131.647 159.976 135.056 165.236 133.616C170.206 132.257 173.246 127.556 175.516 123.306L177.817 118.981C179.345 116.094 180.863 113.2 182.376 110.306C189.956 120.067 199.266 128.276 210.045 134.547C212.755 136.127 216.986 134.787 217.635 131.466C219.326 122.846 221.005 114.237 222.686 105.627C237.076 116.067 252.236 125.356 268.106 133.417C271.686 135.237 276.196 133.026 276.206 128.766C276.215 121.946 276.766 115.186 278.085 108.497C285.026 113.827 292.795 117.827 301.166 120.426C309.166 122.917 317.826 124.077 326.175 123.266C326.246 123.257 326.326 123.247 326.396 123.247L327.616 123.946L327.848 124.073C330.084 125.239 332.218 124.691 333.706 123.356C337.726 153.657 344.576 183.476 347.156 214.037C348.566 230.726 349.266 247.516 349.056 264.276C348.946 272.356 348.635 280.426 348.125 288.497C347.666 295.596 346.465 302.776 345.956 309.897C344.146 311.856 343.226 314.606 344.096 317.567C346.686 326.337 350.795 334.257 351.715 343.537C352.616 352.686 351.826 361.957 349.536 370.846C345.045 388.237 334.835 404.397 320.675 415.497C291.175 438.616 249.856 447.337 213.096 442.196C191.835 439.216 172.266 433.096 155.396 419.377C154.936 418.997 154.146 419.476 154.516 420.056C178.096 456.707 224.786 465.577 265.135 458.987C308.726 451.866 352.125 424.466 366.505 381.047C370.316 369.556 372.026 357.096 370.946 345.016C370.076 335.257 368.016 324.446 362.896 315.737C364.396 307.476 364.416 298.707 364.816 290.356L364.947 287.46C365.271 279.734 365.398 272.001 365.335 264.276C365.206 247.167 364.146 230.087 361.996 213.106C358.98 189.239 354.786 164.745 346.5 141.931C348.723 141.443 350.829 139.454 351.027 137.046C351.62 129.833 350.615 122.775 348.489 116.024C353.587 113.692 357.985 110.117 359.005 104.147C359.516 101.127 359.045 98.1474 357.816 95.6164C366.286 87.6274 373.476 76.3064 372.916 65.1474C372.536 57.7574 367.156 52.2074 359.916 51.2474C358.556 51.0674 357.186 51.0374 355.826 51.1274C356.496 49.5564 357.085 47.9464 357.436 46.2664C358.806 39.6864 356.375 32.5374 350.175 29.2974C345.304 26.7516 339.903 27.5423 334.904 29.1461L334.175 29.3864C334.755 28.3464 335.326 27.3064 335.875 26.2374C338.625 20.8564 335.206 14.8974 329.175 14.5674C312.556 13.6574 295.896 12.4364 279.255 11.6764C278.686 9.54737 277.156 7.77637 274.456 7.28737ZM41.0667 261.738C34.9557 260.667 28.7457 264.707 28.8067 271.257C28.8167 272.207 30.2157 272.408 30.4657 271.477L30.5265 271.288C31.2093 269.445 34.0773 268.822 35.6257 269.267C36.4283 269.496 37.0957 269.979 37.7172 270.509L38.1257 270.867C40.0167 272.527 41.2267 274.727 42.6067 276.797L42.9212 277.273C45.9584 281.892 48.9263 286.864 53.5567 289.967C60.3067 294.467 67.5357 285.828 64.1157 279.408C61.7823 275.057 57.2886 271.745 53.3745 268.672L51.8074 267.432C48.5931 264.901 45.17 262.452 41.0667 261.738Z" transform="translate(50.00023 54.99953)" fill="#000000" fill-rule="evenodd" stroke="none"></path></g></g><g transform="translate(159 186)"><g><path d="M175.373 49.5872C175.699 49.4437 175.991 49.2049 176.203 48.8583C178.978 44.3099 179.267 38.8813 178.039 33.5637C176.563 27.172 172.899 20.9588 168.944 16.7559C163.959 11.4582 157.895 7.75374 151.246 4.94731C150.762 4.74287 150.267 4.53098 149.763 4.31514C142.964 1.40541 134.597 -2.01031 127.865 1.47064C125.161 2.86951 123.673 5.20381 123.256 7.7496C122.814 10.4534 123.597 13.4099 125.462 15.7216C128.557 19.5594 133.339 20.3533 138.087 21.0465C139.602 21.2677 141.106 21.486 142.53 21.8229C147.429 22.9821 152.604 24.4361 157.104 26.7244C166.253 31.3762 170.54 38.5898 172.747 48.2853C172.837 48.6781 173.037 48.9988 173.3 49.2406C173.575 49.4928 173.921 49.6579 174.285 49.7192C174.651 49.7808 175.032 49.7375 175.373 49.5872ZM58.3942 19.1934C55.0693 22.4329 51.1339 22.9347 47.1526 23.381C44.9405 23.6313 43.1746 23.8331 41.4369 24.2252C36.6605 25.3034 31.9393 26.9272 27.6319 29.2659C23.1292 31.7106 18.2224 34.659 14.6922 38.4361C13.8528 39.3349 13.0615 40.278 12.2691 41.2232C11.5465 42.0851 10.8505 42.9149 10.1169 43.7149C9.27449 44.6339 8.47449 45.597 7.67875 46.5576C7.1867 47.3681 7.0895 47.5675 6.99041 47.775C6.8413 48.0869 6.66786 48.4359 6.46976 48.8103C6.19845 49.323 5.88066 49.8843 5.54784 50.3932C4.9941 51.3234 4.69697 51.5796 4.44022 51.6942C4.01419 51.8839 3.61015 51.9774 3.21817 51.9268C2.85064 51.8793 2.50438 51.7028 2.16244 51.4138C0.455387 49.9715 -0.0480658 47.6046 0.00353523 45.092C0.0818393 41.2793 1.48813 37.0578 2.78452 34.4628C5.79888 28.4331 9.97938 22.1649 15.0062 17.6646C20.7422 12.5276 27.0177 8.63869 34.2256 5.95894C38.705 4.29304 43.8913 2.76391 48.7713 2.95706C52.284 3.09609 55.6373 4.14026 58.4066 6.74782C60.1072 8.34853 60.9235 10.6254 60.9235 12.9006C60.9235 15.2211 60.0757 17.5554 58.3942 19.1934ZM164.634 78.3299C166.478 78.8824 167.779 78.6212 169.441 77.7551C170.719 77.0896 171.589 76.0387 172.088 74.8117C172.599 73.5559 172.706 72.1077 172.454 70.7659C171.405 65.1948 168.042 60.2513 163.503 57.0672C159.091 53.9728 153.589 52.5435 148.048 53.7341C144.003 54.6036 138.007 58.4424 134.85 63.1243C133.504 65.1203 132.671 67.2595 132.581 69.3723C132.495 71.387 133.008 73.4183 135.676 76.096C135.935 76.177 136.208 76.2208 136.477 76.2208C137.138 76.2208 137.821 75.9439 138.274 75.5441C139.469 74.4935 140.311 73.1636 141.178 71.7329C141.641 70.9679 142.102 70.1976 142.69 69.5195C144.449 67.4927 147.002 65.7736 149.683 65.3262C152.167 64.911 154.406 65.6469 156.181 67.0355C158.256 68.6601 159.713 71.1522 160.252 73.8146C160.472 74.8933 161.036 75.8657 161.818 76.6477C162.607 77.4367 163.615 78.0237 164.634 78.3299ZM46.1749 69.1109C43.7479 67.5587 40.8928 67.0259 37.7287 68.4655C35.256 69.5899 30.9192 73.3385 27.9011 78.2662C25.8363 81.6374 24.3721 85.5922 24.6769 89.7117C24.7477 90.6684 24.3942 91.3738 23.8366 91.8954C23.3962 92.3073 22.7601 92.61 22.013 92.7047C21.3786 92.785 20.6686 92.7125 20.0913 92.5324C18.9931 92.1896 18.4119 91.4772 18.1929 90.8957C16.0797 85.2836 16.9901 79.0208 19.3585 73.3707C22.5547 65.7456 28.3592 59.3585 32.1622 57.2993C38.6698 53.7742 46.347 53.612 52.8639 57.2031C58.4114 60.2596 61.8802 65.1942 65.3301 70.2242C66.0635 71.2934 66.7914 72.3548 67.5436 73.3976C69.0513 75.487 69.2013 77.5593 68.6175 79.3363C67.9707 81.3049 66.3215 82.9663 64.2592 83.8357C62.353 84.6393 60.1407 84.7524 58.1831 83.9268C56.5293 83.2293 55.0117 81.8695 54.0513 79.5625C52.434 75.6771 49.7393 71.3904 46.1749 69.1109ZM127.748 115.98C135.872 104.601 124.366 93.898 116.814 89.3079C114.836 87.8879 116.406 83.1842 120.634 83.9112C159.031 90.5082 139.136 156.649 90.112 120.354C84.2754 115.645 91.3434 105.275 97.6342 109.307C97.9532 109.552 98.2876 109.81 98.6364 110.08C105.704 115.544 118.636 125.542 127.748 115.98ZM117.042 185.1C109.675 187.233 101.768 187.424 94.2589 185.221C87.4481 183.222 80.4549 178.823 75.4423 173.003C70.9894 167.832 68.1055 161.549 68.2187 154.842C68.2316 154.076 68.5055 153.436 68.9268 152.94C69.3804 152.406 70.014 152.039 70.6926 151.88C71.3906 151.716 72.1285 151.774 72.7568 152.059C73.3256 152.318 73.8129 152.757 74.1176 153.398C74.8879 154.41 75.6553 155.407 76.4257 156.376C82.6196 164.024 88.618 169.74 97.9319 171.79C102.985 172.903 108.032 172.409 112.663 170.712C117.62 168.895 122.102 165.7 125.613 161.612C127.2 159.765 129.074 159.011 130.905 158.998C132.982 158.983 135.034 159.948 136.579 161.49C138.099 163.006 139.116 165.065 139.209 167.219C139.29 169.11 138.673 171.085 137.032 172.848C131.626 178.652 124.621 182.904 117.042 185.1Z" transform="translate(54.00004 55.05923)" fill="#000000" fill-rule="evenodd" stroke="none"></path></g></g><g transform="translate(123 338)"><g><path d="M57.4005 3.42841C64.6505 1.69041 84.6205 -2.68059 95.7415 2.32841C108.247 -2.15859 132.409 2.27041 146.695 13.1914C159.748 23.1704 164.542 47.8034 152.83 49.3394C146.82 50.1278 142.779 48.1512 138.106 45.8656C135.181 44.4347 132.008 42.8828 127.95 41.8124C115.573 38.5464 100.237 36.5274 93.4465 32.7924C84.1465 38.0664 73.6755 39.4194 63.7495 40.9694C58.8906 41.7217 53.7682 43.3334 48.6268 44.951C40.8306 47.404 32.9907 49.8707 25.9595 49.3754C24.2265 50.1684 12.4445 45.3134 18.3495 29.8904C23.5895 16.2054 40.5455 7.47041 57.4005 3.42841ZM106.754 85.109C107.748 94.2859 109.415 109.689 117.761 107.654C124.018 106.128 136.982 95.5207 144.652 91.4247C155.51 88.3318 159.242 93.9786 157.63 102.754C156.863 106.93 146.098 123.977 142.275 128.084C125.474 146.137 97.8637 153.49 74.2653 148.708C50.9963 146.91 -1.44122 127.033 0.0303418 120.343C3.35502 105.228 14.2105 108.644 24.5514 111.898C26.9282 112.646 29.2777 113.385 31.5023 113.889C41.6163 115.754 52.7443 116.403 62.3633 116.437C75.9374 113.479 73.4727 92.1514 72.5501 84.1674C72.4472 83.2774 72.3635 82.5532 72.3233 82.0387C71.7057 74.129 76.2826 61.4116 88.4583 60.7567C100.634 60.1018 105.437 75.2808 106.288 81.1667C106.443 82.2379 106.589 83.588 106.754 85.109Z" transform="translate(112.1728 28.99979)" fill="#000000" fill-rule="evenodd" stroke="none"></path></g></g><g transform="translate(47 241)"><g><path d="M375.513 33.9959C378.273 31.6829 383.089 31.1349 386.423 31.1279C394.028 32.5829 390.88 44.1729 376.385 36.9629C398.166 128.052 258.709 131.937 282.237 45.3469C268.157 41.9599 253.29 41.6839 240.365 48.1139C251.522 87.8139 214.401 125.982 171.734 116.181C144.179 109.783 125.789 88.4229 134.308 57.0269C128.899 58.7229 118.76 57.3109 115.622 53.0899C104.775 52.1634 93.9913 50.8415 83.2204 49.5212C59.091 46.5633 35.0273 43.6135 10.4674 45.1359C7.12749 45.5983 7.31436 47.952 7.50111 50.304C7.68714 52.6469 7.87304 54.9883 4.57241 55.4569C-3.01759 54.7649 -0.0355915 41.9389 5.39841 39.8539C13.0234 34.3889 78.5984 39.8119 116.105 49.6479C121.083 46.3825 128.583 47.3802 134.493 48.1664C135.445 48.2929 136.355 48.414 137.206 48.5109C144.594 30.0029 168.272 6.93191 192.028 10.8229C213.793 12.0919 232.079 20.6889 239.509 45.2399C250.854 34.9489 271.426 31.6259 284.509 39.4079C291.765 23.0939 304.532 10.8229 321.737 5.28991C343.585 -10.2001 368.707 11.0429 375.513 33.9959ZM358.311 87.4579C346.17 100.003 325.902 103.603 309.749 96.8749C268.273 79.5459 288.574 25.4959 320.561 10.9809C324.557 9.98491 329.894 7.62191 334.761 7.08591C334.928 7.0043 335.168 7.04274 335.465 7.09029C335.954 7.1686 336.598 7.27161 337.32 6.90391C372.591 10.8419 380.623 65.5939 358.311 87.4579ZM164.916 105.906C185.6 114.302 210.916 108.73 224.533 90.6689C249.948 57.3679 225.561 0.903908 166.504 23.0949C138.547 41.8849 124.054 89.8139 164.916 105.906ZM135.953 50.6509C135.915 50.6329 135.877 50.6239 135.838 50.6059C136.054 50.5109 136.27 50.4159 136.485 50.3189C136.415 50.5019 136.339 50.6829 136.271 50.8659C136.165 50.7929 136.072 50.7079 135.953 50.6509Z" transform="translate(13.99969 7.999794)" fill="#000000" fill-rule="evenodd" stroke="none"></path></g></g></g></g></svg>