<?xml version="1.0" standalone="no"?>
<svg viewBox="-350 -150 1500 1500" style="width: 585px; height: 585px; justify-content: center; align-self: center; transform: scale(1, 1);" xmlns="http://www.w3.org/2000/svg"><g transform="rotate(0 441.6845817565918 621.0788154602051)"><g transform="translate(0 459)"><path d="M298.817 752.115C238.632 750.82 183.845 754.456 125.89 742.701L125.816 740.749C113.385 740.391 117.5 728.774 119.999 720.649C-113.895 710.243 38.6643 140.153 200.749 101.822C208.689 100.468 217.315 99.7529 226.061 99.6669C237.345 96.2209 248.465 95.6099 260.261 92.4669C261.393 88.3369 261.578 85.9489 266.582 87.1719C284.543 70.0199 316.861 54.2209 327.766 87.6909C342.117 67.7439 350.347 44.4219 356.343 20.8029L357.313 20.9619C359.861 14.6819 364.033 6.73594 369.108 5.42494C377.018 2.80594 391.934 3.40994 400.534 2.34694C419.18 1.05394 440.839 -2.11506 458.712 2.16194C503.375 13.0959 484.019 65.8199 520.231 100.144C536.849 93.2649 562.896 95.1509 578.817 103.342C589.07 111.553 583.929 120.81 582.131 129.49C696.488 119.182 726.915 251.818 750.514 339.255C759.982 368.343 769.379 388.063 785.505 410.521C806.453 436.774 818.216 471.154 796.754 498.85C827.394 559.989 794.131 617.453 758.937 663.607C752.045 670.998 740.866 691.563 730.765 692.969C728.024 695.474 723.646 698.557 720.557 700.796L724.282 705.68C724.727 710.19 724.756 715.037 727.84 719.059C730.807 721.95 733.979 724.914 734.067 729.23C729.339 734.717 723.233 728.588 718.746 725.863C717.026 729.243 717.273 737.272 711.762 736.96C575.11 746.332 435.159 752.476 298.817 752.115" transform="translate(37.00013 -20.00004)" fill="#FFFFFF" stroke="none"></path><path d="M344.686 72.415C352.834 57.409 370.539 14.148 359.673 0C355.527 4.846 354.941 11.741 353.292 17.776C349.154 32.973 343.236 47.748 334.725 61.047C320.809 35.89 287.084 50.979 270.798 66.467C266.707 65.918 262.843 69.155 261.79 73.015C215.964 83.385 190.59 75.149 152.874 111.071C34.4031 203.656 -104.571 682.971 118.451 711.904C110.892 739.253 148.621 735.973 135.801 711.489C217.755 701.093 286.5 648.378 360.429 616.717C375.02 613.163 387.794 619.937 400.285 626.561C402.838 627.914 405.378 629.261 407.92 630.513L408.887 630.984C421.869 635.717 434.037 642.41 446.874 647.565C514.048 673.415 652.906 725.563 719.758 696.729C715.723 709.382 728.54 728.291 740.596 721.83C744.646 720.757 747.612 716.139 746.205 712.105L746.133 711.878C745.966 711.374 745.904 711.34 745.946 711.774L745.984 712.091C746.05 713.093 746.025 713.143 745.911 712.24L745.645 709.933C745.083 707.266 742.267 704.284 740.217 702.273L738.997 701.091C735.872 697.686 738.036 691.506 735.368 687.62C736.841 686.552 738.278 685.427 739.658 684.241C753.095 679.904 760.828 662.906 770.072 652.766L770.403 652.3C796.555 615.516 825.395 574.95 820.903 527.59C819.44 513.015 815.507 498.665 809.863 485.131C834.377 448.505 812.977 416.453 792.408 385.643C788.879 380.357 785.374 375.107 782.129 369.877C735.956 276.376 734.806 108.802 596.318 108.477C605.25 73.094 550.708 72.56 528.274 78.514C512.431 61.7136 507.155 38.9278 502.841 16.9634L502.258 13.974C489.535 30.58 506.612 77.823 522.067 92.607C462.561 105.816 400.394 95.675 344.686 72.415ZM332.549 64.35C319.416 56.291 301.235 59.724 290.599 70.219C285.886 74.422 281.795 80.104 276.428 83.406C275.759 83.817 275.073 84.097 274.384 84.273C278.081 91.263 283.731 97.964 288.507 103.729C314.117 126.091 342.947 144.871 374.633 157.227C375.93 138.217 382.508 119.755 390.026 102.289C383.018 100.177 376.109 97.746 369.324 94.995C368.46 99.566 364.175 103.096 361.465 106.644C355.316 113.845 351.218 122.65 345.363 129.976C338.841 136.811 327.76 128.094 332.447 120.011C340 108.983 349.761 99 361.101 91.491C353.626 88.137 346.498 84.19 339.604 79.774C339.312 80.078 339.011 80.368 338.706 80.648C338.245 77.802 334.328 78.551 332.245 79.017C331.177 78.1123 329.834 78.6788 328.549 79.221C328.049 79.4321 327.557 79.6395 327.094 79.755C326.852 79.315 326.649 78.85 326.505 78.362C318.016 86.747 311.631 100.026 300.678 105.033C296.166 106.278 290.934 101.798 292.654 97.01C295.551 89.658 319.055 74.055 326.819 69.932C325.12 67.46 326.479 66.239 329.233 66.606C329.706 66.014 330.431 65.831 331.186 66.333C331.665 65.689 332.114 65.023 332.549 64.35ZM191.063 98.882C212.944 85.222 239.561 88.064 263.418 81.469L265.222 84.6352C325.395 187.11 534.046 240.603 595.237 111.925C738.642 130.092 707.06 317.197 779.464 406.304C788.769 418.518 799.301 432.812 799.027 448.88C797.402 465.963 788.008 481.192 782.677 497.332C780.212 503.012 786.634 509.048 791.658 504.261C795.278 500.811 799.019 497.478 802.505 493.911C802.655 496.486 802.822 499.059 802.989 501.633C803.734 513.094 804.478 524.552 803.671 536.059C799.335 579.473 769.763 614.913 743.89 648.38L741.501 651.48C727.019 670.149 716.047 680.6 691.652 684.764C624.901 688.653 558.682 667.699 494.626 647.429C482.536 643.603 470.522 639.801 458.597 636.196C443.421 630.892 428.334 625.341 413.143 620.083C402.472 614.352 391.871 607.452 380.084 604.349C441.332 570.599 506.372 545.319 572.856 524.036C604.058 541.53 643.809 551.844 677.976 537.494C682.067 535.69 684.997 528.82 683.221 524.602C674.06 502.83 674.372 479.007 674.679 455.503C674.79 447.017 674.9 438.573 674.564 430.282C671.654 393.087 662.88 356.553 657.886 319.592C654.095 298.4 652.812 276.587 646.067 256.152C646.023 255.68 645.308 255.661 645.317 256.152C645.361 258.497 644.775 260.647 644.186 262.81C643.736 264.461 643.283 266.12 643.107 267.88C640.836 303.094 644.4 338.017 647.964 372.93C651.484 407.417 655.001 441.883 652.895 476.607C639.201 467.601 625.635 459.717 610.02 455.094C604.048 437.529 565.309 433.873 551.266 442.805C539.192 443.634 527.819 444.721 515.924 446.102C492.096 420.444 347.972 416.168 313.645 428.374C310.905 428.05 307.777 427.587 304.395 427.087C280.017 423.481 242.383 417.914 240.819 448.034C223.334 448.785 205.932 453.241 189.874 462.022C195.567 446.746 194.282 430.693 197.252 414.984C197.369 411.448 198.07 406.352 198.857 400.631C200.947 385.441 203.643 365.852 197.601 359.417C186.766 369.944 185.919 397.961 182.035 412.925C181.407 418.875 180.119 424.734 178.833 430.587C176.67 440.423 174.512 450.242 175.493 460.454C174.468 464.786 173.1 469.02 172.348 473.4C158.091 483.723 145.002 496.868 134.349 510.833C123.746 525.956 117.901 544.126 117.747 562.589C119.902 580.171 147.92 558.285 159.679 549.099C161.024 548.048 162.157 547.163 163.014 546.523L163.491 546.171C162.154 550.031 160.407 553.835 158.655 557.65C154.495 566.711 150.306 575.832 151.51 585.911C159.108 613.218 183.857 591.295 195.138 578.644L195.811 577.882C200.018 606.338 234.221 600.765 248.048 582.257C263.353 564.883 288.898 538.801 294.01 516.407C381.798 492.533 469.628 462.874 561.239 459.059C567.338 475.22 572.116 492.258 570.011 509.545C420.681 528.171 303.336 637.519 162.917 683.005C106.967 702.43 57.8101 678.452 37.8401 622.531C-1.69887 499.609 35.9091 365.114 82.8971 249.429L83.5965 247.701C106.753 190.659 137.536 132.576 191.063 98.882ZM555.011 88.652C556.532 90.445 557.048 93.061 556.493 95.411C563.153 105.58 566.812 117.092 570.159 128.528L571.096 127.365C586.27 108.402 594.875 91.2078 561.526 89.335C559.358 89.028 557.184 88.8 555.011 88.652ZM251.878 118.507C268.955 106.208 209.679 95.2156 237.227 115.336C241.585 118.292 246.623 120.415 251.878 118.507ZM508.995 110.95C519.857 109.42 530.637 107.281 541.232 104.43C547.556 113.694 556.662 120.743 565.686 127.349L569.061 129.809C554.212 147.185 536.314 162.592 513.674 168.139C513.606 150.065 508.916 132.62 506.536 114.889C508.055 114.252 509.038 112.658 508.995 110.95ZM407.112 106.771C407.016 108.255 406.595 109.723 405.9 110.963C396.744 126.824 388.706 143.374 379.028 158.899C399.914 166.636 421.862 171.681 444.007 173.675C441.889 160.891 442.301 147.946 442.714 135C442.953 127.493 443.191 119.986 442.937 112.51C430.892 111.354 418.92 109.43 407.112 106.771ZM460.743 113.651C471.372 113.995 482.018 113.725 492.62 112.825C497.631 131.848 500.811 151.279 508.139 169.639C488.412 174.647 467.87 175.485 447.63 173.991C448.612 170.775 449.639 167.573 450.364 164.276C453.126 150.175 454.121 135.75 456.309 121.553C460.961 122.261 462.381 117.158 460.743 113.651ZM167.17 137.839C165.5 138.028 163.85 138.215 162.284 138.208C161.228 138.203 160.792 139.474 161.456 140.209C168.282 149.898 185.699 147.133 178.671 139.089C175.298 136.919 171.175 137.386 167.17 137.839ZM228.406 203.034C237.31 197.014 231.971 182.454 220.929 185.298C211.083 188.292 184.861 205.474 179.613 214.007C182.118 218.804 223.953 206.852 228.406 203.034ZM650.432 185.746C656.498 184.98 659.698 184.576 660.27 185.617C660.91 186.779 658.268 189.745 652.675 196.024C650.661 198.286 648.264 200.977 645.5 204.169C632.753 215.357 619.836 192.437 635.701 187.337C641.762 186.841 646.653 186.223 650.432 185.746ZM323.85 215.757C313.201 212.892 334.974 258.382 340.96 259.076C348.367 264.149 357.623 255.786 355.549 247.861C350.284 234.568 337.274 224.611 325.475 216.822L323.85 215.757ZM474.885 240.363C475.747 239.972 476.508 241.198 475.642 241.659C471.944 243.622 467.928 247.778 465.604 251.285C457.646 261.238 448.232 243.65 460.463 242.328C464.925 242.649 470.791 242.218 474.885 240.363ZM540.289 267.722C532.215 261.354 532.135 293.963 545.693 295.907C550.21 297.283 556.045 292.438 554.025 287.575C550.029 280.484 543.041 275.719 540.289 267.722ZM134.052 288.69C135.989 288.987 140.659 287.126 145.795 285.079C155.931 281.039 167.885 276.275 164.247 285.94C160.68 290.022 156.164 290.12 151.102 290.497L150.964 290.484C150.362 290.445 148.885 290.536 147.028 290.649C140.875 291.027 130.554 291.66 134.052 288.69ZM420.579 307.624C424.585 300.355 433.792 292.643 442.627 293.274C448.046 293.094 450.163 300.887 445.389 303.474L445.23 303.541C442.233 304.737 419.503 310.57 420.579 307.624ZM270.575 318.136C270.143 312.028 276.956 309.844 281.549 311.839C289.745 315.4 296.097 328.499 293.503 336.971C291.415 345.375 278.695 347.235 274.653 339.435C272.329 332.233 272.016 325.357 270.575 318.136ZM702.517 326.482C699.225 327.675 695.959 328.857 692.747 329.537C687.45 334.525 722.29 335.803 723.561 330.062C725.81 327.573 724.715 324.145 721.701 323.012C715.331 321.842 708.874 324.18 702.517 326.482ZM168.188 355.298C171.489 347.147 159.431 347.364 154.663 349.779C153.786 350.523 151.291 350.729 148.755 350.938C144.672 351.275 140.481 351.621 142.753 354.236C149.958 359.699 161.756 363.827 168.188 355.298ZM591.543 364.445L591.284 364.47C582.891 366.292 581.408 378.868 588.798 383.077C598.523 387.857 605.294 377.261 610.572 369.002C611.537 367.492 612.452 366.06 613.326 364.815L613.67 364.331C613.708 360.73 601.923 362.73 595.211 363.869C593.636 364.136 592.341 364.356 591.543 364.445ZM466.071 363.814C468.693 358.981 473.682 366.831 476.704 371.587C477.507 372.851 478.172 373.896 478.616 374.427C481.626 381.167 472.942 386.423 468.659 380.247C466 375.43 464.817 369.222 466.071 363.814ZM352.757 384.707C351.566 382.435 353.898 383.155 356.201 383.867C357.564 384.288 358.916 384.705 359.523 384.499C362.556 384.685 365.295 385.308 367.011 388.036C369.76 392.411 364.419 397.101 360.212 394.835C356.152 392.592 357.128 386.741 352.757 384.707ZM56.2436 440.909L56.3329 440.672C59.2739 432.413 77.0229 420.163 85.8399 423.371C86.2519 423.352 86.6599 423.754 86.6359 424.168L86.7799 425.192C87.2762 428.823 87.5323 432.377 85.1359 435.616C80.8449 442.531 76.7479 451.148 68.4949 453.845C60.3621 456.423 53.3955 448.71 56.2436 440.909ZM498.149 448.565C443.885 429.109 384.743 429.679 327.819 431.491L329.316 431.942C353.857 439.387 382.591 450.955 395.382 473.845C428.913 462.909 463.223 453.854 498.149 448.565ZM750.397 464.251C731.402 475.399 717.653 423.201 741.593 434.413L743.3 436.242C750.235 443.727 760.957 456.38 750.397 464.251ZM282.042 437.322L284.753 437.465C281.543 441.674 278.942 446.472 277.357 451.245C266.765 448.992 256.085 447.841 245.585 447.913C251.603 435.622 269.227 436.606 281.659 437.3L282.042 437.322ZM285.706 453.177C291.85 448.304 298.914 444.733 304.981 439.809C317.516 441.837 330.045 445.068 341.734 449.909C331.988 452.855 322.783 457.033 315.129 463.596C305.735 459.13 295.807 455.735 285.706 453.177ZM563.288 443.641C579.192 442.53 595.447 449.141 603.796 463.926C593.254 462.63 582.739 463.512 573.971 469.629C571.542 464.953 568.792 460.426 565.863 456.085C568.172 453.694 568.216 448.911 565.604 446.735C564.141 445.516 562.513 444.658 560.782 444.051L563.288 443.641ZM324.821 468.619C334.272 463.426 354.901 467.66 358.036 458.018C367.097 463.414 375.397 470.06 382.62 478.13C370.431 482.331 358.31 486.773 346.287 491.467C344.598 481.91 334.738 474.393 325.657 469.101L324.821 468.619ZM187.759 471.724C234.327 448.386 296.643 458.148 331.19 497.487C317.482 501.33 302.486 502.283 290.05 510.413C282.627 508.899 278.136 516.231 274.148 522.742C272.769 524.993 271.45 527.146 270.09 528.802C268.058 531.37 265.547 534.874 262.688 538.862C250.382 556.035 231.64 582.189 216.955 581.242C211.34 579.944 212.109 575.616 213.419 570.889L214.472 567.141C218.379 553.408 222.773 539.787 226.891 526.12C230.003 515.795 214.397 511.738 210.891 521.71C202.552 544.96 187.72 566.37 167.622 580.919C172.994 557.101 185.824 534.857 194.209 511.809C196.807 503.649 184.603 498.556 180.354 505.97C167.431 524.03 151.048 538.483 132.399 550.018C135.543 522.866 152.956 499.02 173.412 481.609C171.826 482.012 170.255 482.486 168.704 483.047C174.88 479.365 180.899 473.734 187.759 471.724ZM632.829 509.694C630.777 492.108 626.205 473.999 614.623 460.141C631.471 469.17 643.48 483.795 653.926 499.372C654.644 506.505 655.825 513.579 657.734 520.448C649.996 522.003 641.854 521.701 633.947 520.54C634.076 517.821 633.631 514.957 633.205 512.216C633.071 511.361 632.94 510.517 632.829 509.694ZM576.1 473.954C588.404 473.181 598.89 476.077 610.331 480.708C611.642 486.137 612.43 491.699 612.961 497.251C608.292 497.357 603.762 499.716 598.854 499.968C594.016 500.218 588.339 499.817 583.329 498.397C582.368 489.976 579.739 481.778 576.1 473.954ZM501.5 484.616C508.738 481.722 519.396 489.699 511.457 495.95C505.677 499.876 497.77 494.611 493.078 491.024C490.492 488.054 499.239 485.155 501.5 484.616ZM583.724 504.219C583.759 506.125 583.696 508.04 583.542 509.964C593.784 511.167 603.873 513.737 613.897 516.237L613.832 513.193C613.81 512.171 613.785 511.146 613.751 510.137C603.843 512.808 591.67 510.042 583.724 504.219ZM361.053 539.476C369.088 531.427 346.511 515.888 344.073 527.316C344.724 534.626 353.428 545.307 361.053 539.476ZM72.0947 528.91C93.2897 515.112 95.8437 548.525 64.5037 538.764C62.4357 535.636 66.903 532.557 70.0889 530.361C70.8745 529.82 71.5822 529.332 72.0947 528.91ZM729.519 560.399C731.583 558.606 734.114 557.367 736.854 558.28L737.12 558.376C745.402 561.273 738.982 572.606 731.88 568.619C729.467 566.81 726.846 565.289 723.968 564.298C722.905 563.204 724.866 562.479 726.77 561.775C727.957 561.336 729.123 560.906 729.519 560.399ZM529.355 604.987C533.852 602.555 533.672 566.735 526.088 576.848C525.623 578.141 525.119 579.452 524.609 580.778C521.734 588.252 518.68 596.191 521.387 603.945C522.626 607.49 527.279 608.264 529.355 604.987ZM167.252 583.152L167.088 583.76C166.246 587.046 168.226 582.711 167.463 583.35C167.395 583.278 167.323 583.216 167.252 583.152ZM245.481 615.437C230.382 606.479 263.434 594.414 264.675 609.026C265.16 618.944 251.771 618.416 245.481 615.437ZM671.073 626.51C683.499 619.577 659.526 598.466 655.501 605.807C654.891 608.068 655.924 610.41 656.878 612.576C657.14 613.17 657.396 613.75 657.611 614.313C659.438 620.552 662.659 630.947 671.073 626.51ZM102.706 623.856C103.31 606.316 131.228 629.153 128.65 638.726C127.086 651.956 111.041 645.776 107.408 636.843C105.153 632.757 103.254 628.511 102.706 623.856ZM397.224 705.108C385.292 698.698 382.324 669.454 401.692 683.512C418.924 689.639 414.19 711.56 397.224 705.108ZM526.747 695.974C514.038 683.572 506.61 690.669 515.071 706.596C522.785 718.949 538.35 704.727 526.747 695.974ZM272.367 718.289C260.476 708.87 278.543 694.018 288.837 700.006C290.167 701.634 289.017 701.901 287.33 702.293C284.985 702.837 281.604 703.622 282.404 708.633C284.406 714.359 278.43 721.98 272.367 718.289Z" transform="translate(31.00027 0.9996)" fill="#000000" fill-rule="evenodd" stroke="none"></path></g><g transform="translate(225 0)"><g><g><path d="M252.793 0C297.565 0 351.283 21.7046 355.85 22.1387L355.973 22.1453C358.376 22.1453 367.765 29.2985 384.141 43.6049L366.404 78.1989L367.84 79.5695C374.708 86.1548 380.572 92.1572 385.201 96.8888C422.992 135.523 429.785 287.213 420.878 340.112C411.972 393.011 395.476 444.774 318.678 444.774C241.879 444.774 156.439 398.596 143.278 384.216C134.503 374.63 124.647 370.037 113.71 370.438C113.26 369.87 112.815 369.305 112.372 368.741L110.763 368.513C95.6259 366.321 84.7798 363.37 78.2251 359.662C65.4219 352.418 51.3497 314.339 51.3497 305.951C51.3497 297.646 30.3369 237.234 29.9167 230.841L29.9103 230.664C29.9103 225.319 2.45921 200.752 2.45921 192.95C2.45921 185.147 -3.07401 185.621 2.45921 158.127L4.06676 150.05C9.95497 120.778 21.4798 72.3064 65.4219 51.2442C113.71 28.0989 207.57 0 252.793 0Z" transform="translate(-7.992421 58.70615)" fill="#FFFFFF" stroke="none"></path><path d="M294.952 1.14476C225.78 -7.23636 89.0586 32.3017 64.9759 57.8635C33.2369 83.9005 9.06486 144.648 1.68586 171.493C-0.0351405 179.159 -0.806141 187.687 1.16686 195.963C2.83758 206.706 8.84988 217.802 15.2437 226.989C15.2209 226.951 15.2529 226.872 15.3112 226.763L15.3959 226.613C18.083 230.297 21.3818 234.904 24.3887 239.009L25.6569 240.733C25.6519 240.764 25.6363 240.821 25.618 240.886C25.5455 241.147 25.4312 241.559 25.772 241.147L25.9069 240.973C26.1669 241.193 26.5069 241.413 26.8859 241.623L27.6159 242.633C28.2069 243.093 28.8369 243.473 29.5069 243.793C30.1569 244.153 30.8459 244.433 31.5559 244.643C31.5959 244.643 31.6269 244.643 31.6569 244.633C30.7849 278.287 38.5211 293.702 45.069 306.749C48.7185 314.021 51.9988 320.557 53.2139 329.105C54.8469 346.847 61.1629 363.303 77.2319 372.203C95.3989 382.161 124.768 394.314 139.457 381.593C148.24 393.149 159.311 403.525 171.957 411.693C173.846 413.233 175.826 414.603 177.877 415.833C180.056 417.403 182.247 418.953 184.417 420.533C186.887 421.903 189.467 423.063 192.137 424.013C192.417 424.143 192.556 424.093 192.627 423.953C193.467 424.293 194.306 424.603 195.177 424.873C196.195 425.318 195.622 423.987 195.218 423.193L195.056 422.883C195.627 423.093 196.197 423.293 196.777 423.483C197.157 423.533 197.366 423.373 197.387 422.993C197.266 422.313 196.967 421.713 196.476 421.203C196.016 420.553 195.497 419.783 194.927 419.073C195.407 419.263 195.896 419.463 196.387 419.643L196.493 419.685C197.388 419.978 196.612 418.177 196.497 418.003C196.476 417.983 196.467 417.963 196.447 417.933C196.797 418.063 197.146 418.203 197.497 418.323C198.297 418.683 198.717 418.333 198.527 417.493C198.146 416.803 197.697 416.153 197.186 415.563C196.707 414.933 196.167 414.363 195.567 413.853L193.527 412.873L193.391 412.745L193.257 412.623C193.317 412.523 193.356 412.423 193.356 412.343C187.491 407.509 177.881 404 171.616 398.543C169.927 397.363 168.297 396.113 166.686 394.843C151.957 381.107 140.56 363.67 131.737 345.112C130.573 344.178 129.592 345.583 130.826 347.303C130.6 347.187 130.383 346.609 130.124 345.922C129.557 344.416 128.793 342.384 127.311 343.532C127.302 343.593 127.294 343.648 127.287 343.697C127.245 343.98 127.229 344.09 127.255 344.188C127.298 344.355 127.462 344.491 127.826 345.403C127.825 345.511 127.824 345.603 127.824 345.682C127.821 345.965 127.819 346.085 127.848 346.197C127.904 346.417 128.074 346.607 128.567 347.922L128.737 348.383C128.587 348.403 128.417 348.453 128.266 348.543C128.655 348.254 123.731 341.214 124.606 346.073C124.564 346.059 124.552 346.054 124.539 346.054C124.533 346.053 124.527 346.055 124.516 346.056C124.502 346.059 124.48 346.062 124.441 346.066L124.286 346.073C124.313 345.574 121.762 344.607 122.667 346.983C122.577 346.963 122.515 346.889 122.438 346.799C122.231 346.556 121.922 346.194 120.697 346.443C81.5229 354.093 71.6599 274.957 109.887 266.673C110.137 266.853 110.536 266.823 110.646 266.483C119.636 263.959 132.39 265.438 138.587 274.963C138.28 275.907 143.464 279.537 140.257 274.353C140.507 274.603 140.757 274.783 141.007 274.853C141.421 276.754 146.1 280.48 142.917 274.563C142.947 274.563 142.987 274.553 143.027 274.543C143.419 276.329 148.398 278.776 144.826 273.683C160.7 268.433 158.187 253.529 155.802 239.385C155.006 234.664 154.225 230.028 154.146 225.863C158.396 203.789 158.557 190.282 180.627 175.303C196.104 161.186 196.186 135.831 214.266 122.973C232.692 108.85 256.307 106.499 279.141 105.031L287.561 104.506C314.516 102.994 340.797 101.399 367.677 99.9335C369.516 100.543 371.356 101.063 373.217 101.533C378.636 103.113 384.136 104.133 389.707 104.583C391.697 107.543 393.547 110.583 395.277 113.703C397.786 117.863 400.067 122.163 402.106 126.583C423.072 172.469 427.338 224.568 427.846 275.258L427.873 278.359C429.612 436.884 322.225 487.363 248.226 430.473C247.586 430.246 246.859 429.399 246.059 428.468C244.748 426.941 243.244 425.188 241.616 425.573C241.322 424.346 237.133 422.478 239.377 425.623C239.333 425.694 239.292 425.759 239.254 425.819C238.842 426.468 238.789 426.552 239.755 427.499L240.837 428.543C240.766 428.683 240.747 428.813 240.766 428.943C239.606 427.843 238.467 426.713 237.346 425.533L237.012 425.371C234.491 424.2 235.502 426.034 237.188 427.832L237.246 427.892L237.059 427.742C236.694 427.458 236.226 427.135 235.606 426.763C235.467 426.613 235.326 426.483 235.197 426.333C232.27 425.813 234.84 428.474 236.823 430.309L237.877 431.263C237.856 431.393 237.866 431.513 237.917 431.633C236.797 430.553 235.697 429.453 234.627 428.323C232.097 429.226 236.684 433.118 240.421 436.289C241.995 437.624 243.417 438.83 244.096 439.633C284.463 474.319 340.731 473.379 376.652 445.404C436.114 401.256 443.6 319.705 440.606 251.433C439.706 215.498 433.561 178.844 423.686 143.623C418.035 129.628 411.054 114.914 402.237 101.903C403.286 99.3635 404.106 96.9135 404.457 94.2535C407.246 86.5525 405.706 76.8925 401.579 69.0735C410.462 51.5634 388.198 39.3046 372.762 30.8053C368.858 28.656 365.391 26.7471 362.975 25.0545C348.636 14.8035 330.71 8.66647 313.356 4.61347C307.987 3.17347 302.547 2.11347 297.027 1.41347L294.952 1.14476ZM156.839 33.4435C201.601 20.9345 247.738 10.6005 294.646 14.6335C298.377 14.7135 302.047 15.2035 305.667 16.0935C323.142 19.7765 341.23 24.9985 357.008 34.6495C364.927 37.5245 372.615 40.9075 379.392 45.9865C369.953 44.0345 360.964 39.8325 351.532 38.9945C350.641 38.6935 349.75 38.3955 348.859 38.1005C287.723 32.0575 199.849 49.1955 167.661 88.7365C132.051 131.723 110.594 207.831 109.657 252.943C63.9789 259.716 60.1489 331.365 97.2069 352.413C100.458 355.065 105.481 357.741 110.226 358.793C110.707 358.893 111.197 358.973 111.686 359.053C113.161 359.496 114.81 359.973 117.427 360.133L117.924 360.171C120.24 360.312 122.503 360.009 124.707 359.253C125.326 359.113 125.297 358.703 125.076 358.293C125.417 358.203 125.747 358.123 126.076 358.013C126.887 359.713 127.737 361.393 128.616 363.053C128.657 363.123 128.697 363.183 128.726 363.243C127.639 363.768 127.866 364.364 128.613 365.592L129.346 366.783C121.167 368.545 112.049 366.058 103.699 362.907L102.614 362.492C76.146 353.704 74.3219 342.648 72.0485 328.869C70.8792 321.782 69.5911 313.975 64.7709 305.385C41.5398 267.317 43.145 239.43 44.824 210.262C45.509 198.36 46.2064 186.246 45.2339 173.139C43.0119 173.481 43.7919 174.34 42.7609 176.962C37.8209 193.745 34.6599 210.664 32.8059 228.093C14.9859 210.554 8.94086 182.231 20.7659 157.113C34.3079 123.306 49.8259 86.6905 79.8769 63.6735C101.386 48.1287 128.299 41.5935 153.751 34.331L156.839 33.4435ZM223.167 35.1131C215.938 30.6631 195.125 25.2621 210.925 36.6171C223.019 46.7931 228.094 39.4581 223.167 35.1131ZM165.699 48.5083C155.76 37.6549 182.359 48.0521 186.343 50.9381L186.457 51.0233C189.43 53.1163 188.827 57.6243 186.034 58.9483C180.277 59.0576 175.622 55.6122 171.007 52.1967C169.251 50.897 167.501 49.6017 165.699 48.5083ZM140.627 75.682C134.193 73.5444 119.499 68.6624 120.798 73.5932C129.818 78.5722 139.693 83.0132 148.7 88.8992C153.093 91.5922 160.185 90.3572 156.681 84.3952C153.691 80.0803 147.959 78.3519 142.959 76.4889L142.176 76.1932C141.743 76.0526 141.22 75.879 140.627 75.682ZM118.811 125.522L115.534 123.39C97.8503 111.816 72.8511 94.2793 117.186 112.423C122.239 114.59 128.953 115.872 131.71 120.684C136.041 129.553 124.643 130.149 118.811 125.522ZM102.079 162.351C104.084 150.029 79.0213 140.725 70.5363 143.833C66.6403 145.531 68.2203 149.397 71.8903 151.218C78.633 154.887 84.2971 158.575 90.5774 162.781L94.1863 165.204C96.9513 166.801 100.885 165.18 102.079 162.351ZM107.566 289.183C109.2 288.296 109.623 288.569 109.889 288.741C110.023 288.828 110.117 288.889 110.306 288.763C127.972 287.322 147.021 302.789 156.896 315.683C156.182 316.425 154.355 314.478 153.766 313.851C153.712 313.792 153.668 313.746 153.636 313.713C153.586 313.763 153.526 313.803 153.466 313.823L153.741 314.211C157.744 319.955 149.809 313.196 149.066 311.803C148.936 311.873 148.806 311.913 148.656 311.883C149.285 312.5 151.206 314.109 151.536 315.253L152.045 315.677C156.848 319.79 156.449 322.883 150.997 317.043C151.126 317.313 151.176 317.563 151.086 317.763L151.274 317.888C153.955 319.762 156.16 324.985 150.556 319.623C151.01 322.672 147.392 318.76 145.674 316.902C145.185 316.374 144.85 316.012 144.806 316.023C134.188 307.688 118.555 299.582 105.236 298.493L104.778 298.441C102.334 298.127 101.178 297.401 102.036 295.803C99.0262 295.087 99.7312 293.605 101.156 293.653C99.0332 292.257 100.944 290.922 102.176 291.443C101.58 289.792 103.087 290.078 104.14 290.278C104.583 290.362 104.944 290.43 105.036 290.333C106.23 288.492 106.833 288.938 107.189 289.2C107.358 289.325 107.472 289.409 107.566 289.183ZM238.524 429.117L238.123 428.76L238.475 429.201C238.66 429.429 238.849 429.634 239.157 429.843C239.137 429.773 239.137 429.703 239.146 429.623C238.942 429.468 238.733 429.297 238.524 429.117Z" transform="translate(-14.99996 50.99953)" fill="#000000" fill-rule="evenodd" stroke="none"></path></g></g><g transform="translate(159 186)"><g><path d="M180.345 18.044C172.985 7.315 160.323 -0.00399509 147.164 3.27348e-06C142.229 0.00100491 134.692 0.532005 130.871 4.05501C128.17 6.545 127.769 9.74901 131.039 11.545C131.764 11.943 132.549 11.143 132.245 10.479C132.877 10.103 133.563 9.856 134.31 9.75801C135.705 9.51641 137.493 9.76313 139.035 10.0215L140.135 10.21C143.539 10.789 147.019 11.93 150.166 13.337C156.616 16.219 162.057 20.646 166.278 26.267L166.436 26.4716C169.09 29.8475 173.396 31.5439 177.423 29.188C181.013 27.089 182.846 21.689 180.345 18.044ZM33.7267 5.1487L35.2249 4.7115C36.3256 4.39269 37.4295 4.04111 38.5332 3.68958C45.2363 1.55471 51.9341 -0.578458 57.8689 4.6385C60.5829 7.0245 61.1419 11.9825 59.1999 14.9585C55.5157 20.6055 50.3495 20.8314 44.5982 21.0828C43.4432 21.1333 42.2647 21.1848 41.0699 21.2815C35.6299 21.7215 30.2709 23.3195 25.1929 25.3165C21.0429 26.9495 17.1939 29.2485 13.5599 31.8125C9.98991 34.3335 7.55091 38.2745 3.88891 40.5435C2.54691 41.3755 0.996911 40.5195 0.514911 39.1705C-1.19309 34.3855 1.69291 28.4245 4.13491 24.3475C7.11591 19.3735 11.6439 15.3055 16.5129 12.2275C21.8446 8.85643 27.7404 6.91001 33.7267 5.1487ZM148.26 42.0111C150.546 39.7239 153.758 40.0619 156.144 41.862L156.461 42.1101C158.71 43.1091 160.571 45.2921 161.793 47.3151C163.062 49.4161 163.905 51.5561 163.938 53.8691C169.472 53.8871 174.773 55.5471 178.836 60.0151C180.148 61.4571 181.044 63.6811 180.322 65.6361L179.892 66.7991C178.527 70.4915 172.394 72.617 170.309 68.2748L170.213 68.0631C167.998 62.9071 159.495 63.4481 154.976 63.9751C151.826 64.3441 148.715 65.1271 145.673 66.0041C144.601 66.3131 143.539 66.6485 142.478 66.991L141.417 67.3351C140.851 67.5181 137.903 69.1191 139.737 68.7401C140.23 68.6381 140.601 69.3561 140.098 69.5971C137.912 70.6421 135.58 68.5611 135.726 66.2131C135.979 62.1373 142.451 59.9025 145.565 58.4971L145.752 58.4121C146.946 57.8601 148.197 57.3311 149.488 56.8401C148.762 55.7601 148.162 54.5601 147.663 53.2721C147.191 52.0561 146.876 50.8741 146.703 49.5811C146.533 48.9491 146.533 48.3171 146.703 47.6841L146.729 47.5031C146.641 47.0851 146.599 46.6531 146.605 46.2181L146.587 46.0491L146.605 46.0491C146.666 44.5261 147.271 43.0001 148.26 42.0111ZM46.6698 41.9793C45.1228 41.3213 43.3608 41.1353 41.6148 41.6163C38.9898 42.3403 36.9398 44.5483 36.1548 47.0993L36.1418 47.0903L36.1188 47.2413C35.9768 47.7363 35.8788 48.2413 35.8358 48.7523L35.392 49.8363C35.1792 50.3632 34.9774 50.8917 34.8148 51.4353C33.7648 54.0583 34.2398 57.2763 35.7758 59.7193C25.2328 63.1083 14.5308 68.6733 6.17181 75.5403C4.40281 76.9943 6.43281 79.4803 8.22081 79.0483L8.21881 79.0553L9.63926 78.6946C20.0732 75.9715 29.9119 71.6317 40.6188 69.6743C45.8048 68.7253 51.3028 68.3903 56.5568 68.9753C58.7382 69.2179 60.8035 69.8406 62.8449 70.4561C66.0049 71.4089 69.1077 72.3445 72.4958 71.8263C76.1188 71.2723 77.9698 66.0943 75.9978 63.2183C72.4865 58.1004 65.9839 57.0907 60.0609 56.5402L59.0018 56.4453C57.9058 56.3503 56.8078 56.3133 55.7098 56.3023C55.8358 54.8923 55.7448 53.4373 55.3708 52.1563C55.0668 51.1143 54.2218 50.0233 54.0308 48.9853L54.4448 50.0393L54.2905 49.6242C54.1921 49.3461 54.1028 49.065 54.0228 48.7803C53.0088 45.4923 50.1238 42.6123 46.6698 41.9793ZM130.428 106.934C135.005 95.5229 120.515 88.1299 111.732 85.4159C109.366 84.5139 109.503 80.1089 113.87 80.0099C153.531 79.1059 153.748 140.665 94.7886 117.34C87.6536 114.223 91.4956 103.882 98.8746 106.326C99.2608 106.485 99.6663 106.654 100.089 106.83C108.658 110.396 124.337 116.921 130.428 106.934ZM123.534 146.337C126.965 140.283 137.203 141.267 138.768 148.328C141.943 162.642 124.874 175.86 111.91 176.19C99.0265 176.517 84.5715 165.552 86.4365 151.702C86.8975 148.276 91.4735 148.692 93.0335 150.84L93.6392 151.664C97.8762 157.356 103.467 163.248 111.331 161.86C114.59 161.286 117.55 159.25 119.52 156.629C121.896 153.466 121.635 149.689 123.534 146.337Z" transform="translate(53.99999 59.00019)" fill="#000000" fill-rule="evenodd" stroke="none"></path></g></g><g transform="translate(123 338)"><g><path d="M276.67 82.0231C278.737 79.5551 285.109 75.4151 286.653 74.1321C289.701 71.6021 295.493 72.9491 295.189 77.6681L293.255 107.666C293.056 110.762 290.518 130.65 289.843 135.839C287.206 156.112 281.179 175.773 268.552 191.974C261.502 201.014 252.892 207.844 243.322 212.814C236.572 217.734 229.132 221.684 221.262 224.514C205.252 230.274 187.822 230.094 171.242 227.184C156.182 224.544 141.182 219.524 127.172 213.174C111.042 208.294 95.3216 202.064 80.3216 195.054C64.5716 187.694 47.6116 179.464 35.1316 167.074C23.1416 155.184 16.8616 139.054 12.8816 122.944C12.2716 120.484 11.7016 118.004 11.1716 115.514C10.6516 114.194 10.2216 112.774 9.88161 111.184C8.79161 106.134 7.80161 101.064 6.91161 95.9841C5.14161 85.9341 3.72161 75.8141 2.65161 65.6641C1.57161 55.3941 0.891612 45.0841 0.591612 34.7641C0.54156 33.006 0.435836 31.1613 0.327412 29.2696C-0.0840528 22.0905 -0.534392 14.2331 1.87161 7.85407C3.66161 3.11407 7.66161 0.104072 11.9916 0.00407165C14.3816 -0.0659284 16.8816 0.764072 19.1616 2.69407C24.6516 7.33407 47.3816 60.2241 56.0016 71.9741C64.8316 84.0041 74.8116 95.2941 85.8616 105.294C86.0516 105.404 86.2416 105.524 86.4216 105.644C101.412 101.864 114.892 94.4641 125.852 82.8841C135.512 72.6741 143.392 60.8341 154.822 52.4041C160.422 48.2741 166.902 45.3441 173.822 44.3941C178.977 43.691 184.101 44.1701 189.228 44.6497C193.509 45.0501 197.793 45.4507 202.102 45.1641C203.708 45.0594 205.295 44.9163 206.868 44.7745C214.012 44.1306 220.86 43.5134 227.802 46.6441C234.992 49.8741 240.502 55.7041 245.882 61.2741C253.452 69.1271 261.935 75.3901 271.464 79.8221C272.829 79.7921 274.168 80.2821 275.077 81.3981C275.605 81.6121 276.136 81.8201 276.67 82.0231ZM238.77 124.972C242.214 126.253 245.642 127.582 249.132 128.724C251.352 129.444 253.632 130.134 255.932 130.624C260.962 125.204 264.642 118.694 267.552 111.724C263.042 111.484 258.412 109.854 254.552 108.194C247.092 104.974 240.342 100.194 232.672 97.4641C216.512 91.7141 199.052 94.2441 182.962 98.8741C165.682 103.834 149.342 111.574 132.002 116.324C126.355 117.876 120.113 119.38 113.738 120.285C114.786 121.52 115.761 122.806 116.701 124.129C125.511 129.063 134.585 133.548 144.232 137.184C145.572 137.684 146.922 138.184 148.272 138.654C150.474 138.04 152.652 137.308 154.812 136.502C163.907 132.197 172.359 125.628 181.423 121.972C199.89 114.523 221.161 116.127 238.77 124.972Z" transform="translate(-0.9999123 -17.00057)" fill="#000000" fill-rule="evenodd" stroke="none"></path></g></g><g transform="translate(47 241)"><g><path d="M375.513 33.9959C378.273 31.6829 383.089 31.1349 386.423 31.1279C394.028 32.5829 390.88 44.1729 376.385 36.9629C398.166 128.052 258.709 131.937 282.237 45.3469C268.157 41.9599 253.29 41.6839 240.365 48.1139C251.522 87.8139 214.401 125.982 171.734 116.181C144.179 109.783 125.789 88.4229 134.308 57.0269C128.899 58.7229 118.76 57.3109 115.622 53.0899C104.775 52.1634 93.9913 50.8415 83.2204 49.5212C59.091 46.5633 35.0273 43.6135 10.4674 45.1359C7.12749 45.5983 7.31436 47.952 7.50111 50.304C7.68714 52.6469 7.87304 54.9883 4.57241 55.4569C-3.01759 54.7649 -0.0355915 41.9389 5.39841 39.8539C13.0234 34.3889 78.5984 39.8119 116.105 49.6479C121.083 46.3825 128.583 47.3802 134.493 48.1664C135.445 48.2929 136.355 48.414 137.206 48.5109C144.594 30.0029 168.272 6.93191 192.028 10.8229C213.793 12.0919 232.079 20.6889 239.509 45.2399C250.854 34.9489 271.426 31.6259 284.509 39.4079C291.765 23.0939 304.532 10.8229 321.737 5.28991C343.585 -10.2001 368.707 11.0429 375.513 33.9959ZM358.311 87.4579C346.17 100.003 325.902 103.603 309.749 96.8749C268.273 79.5459 288.574 25.4959 320.561 10.9809C324.557 9.98491 329.894 7.62191 334.761 7.08591C334.928 7.0043 335.168 7.04274 335.465 7.09029C335.954 7.1686 336.598 7.27161 337.32 6.90391C372.591 10.8419 380.623 65.5939 358.311 87.4579ZM164.916 105.906C185.6 114.302 210.916 108.73 224.533 90.6689C249.948 57.3679 225.561 0.903908 166.504 23.0949C138.547 41.8849 124.054 89.8139 164.916 105.906ZM135.953 50.6509C135.915 50.6329 135.877 50.6239 135.838 50.6059C136.054 50.5109 136.27 50.4159 136.485 50.3189C136.415 50.5019 136.339 50.6829 136.271 50.8659C136.165 50.7929 136.072 50.7079 135.953 50.6509Z" transform="translate(13.99969 7.999794)" fill="#000000" fill-rule="evenodd" stroke="none"></path></g></g></g></g></svg>