<svg id="Layer_1" data-name="Layer 1" xmlns="http://www.w3.org/2000/svg" viewBox="0 0 789.83 184.24"><defs><style>.cls-1{fill:#221f20;}</style></defs><path class="cls-1" d="M1.16,70.41c0-44.48,31.36-65.2,73.37-65.2s73.36,20.72,73.36,64.63c0,44.09-31.36,64.62-70.51,64.62,0,2.47,3.8,4.56,12,4.56,22.43,0,43-7.6,43-7.6l6.85,43.14c-13.5,4.37-30,7.6-54.36,7.6-31.93,0-44.1-8.17-44.1-23.18,0-12.74,8.94-22.43,25.28-22.43V133.7C32.52,133.7,1.16,113.74,1.16,70.41Zm59.68-.76c0,15.77,4.37,26.8,13.69,26.8s13.68-11,13.68-26.8S83.84,43,74.53,43,60.84,53.87,60.84,69.65Z"/><path class="cls-1" d="M185.71,132.56,163.28,7.12h68.24l4.56,60.25h2.85L249.19,7.12h19.39l10.26,60.25h2.85l4.57-60.25h68.23L332.06,132.56h-61.2l-10.64-78.5h-2.85l-10.46,78.5Z"/><path class="cls-1" d="M483.73,132.56H375.59V94.73h25.65V44.94H375.59V7.12H483.73V44.94H458.07V94.73h25.66Z"/><path class="cls-1" d="M564.32,77.63v2.85h62.15v52.08h-119V80.48L569.64,62V59.19H507.49V7.12h119V59.19Z"/><path class="cls-1" d="M707.47,166.39c-31.14,0-52.89-24.24-52.89-58.94,0-2.09-.05-4.22-.09-6.27-.24-10.56-.49-21.45,5.86-30.42l-6.91-44.7a16.09,16.09,0,0,1,31.81-4.92l4.49,29.05,1.44-.42L693,17.35a16.09,16.09,0,0,1,28.08-9.79,15.94,15.94,0,0,1,4.07,11.13c.38,2.68,1.7,15.25-2.41,36.37L714,53.35c4.2-21.64,2.31-33.54,2.29-33.66l-.08-.5,0-.51a7.1,7.1,0,0,0-6.68-7.49A7.14,7.14,0,0,0,702,17.86L699.78,57l-3.32.74a49.81,49.81,0,0,0-8.58,2.73l-5.31,2.24-6.22-40.16a7.09,7.09,0,0,0-14,2.16l7.52,48.6-1.29,1.55c-5.51,6.68-5.31,15.7-5.08,26.15,0,2.1.1,4.28.1,6.47,0,29.87,17.64,49.94,43.89,49.94s43.35-19.15,43.39-48.81l-.38-7.12-.36-.6.32-.19,0-.31.6,0,6.85-4,1.48,2.5.51,9.68C759.86,143.11,738.81,166.39,707.47,166.39Z"/><path class="cls-1" d="M746,106.35a15.92,15.92,0,0,1-3.48-.38l-.49-.11a15.85,15.85,0,0,1-12-18.94l4.74-21.08a15.83,15.83,0,0,1,18.93-12l.49.11a15.87,15.87,0,0,1,12,18.94L761.48,94A15.86,15.86,0,0,1,746,106.35Zm-2-9.28.49.11A6.85,6.85,0,0,0,752.7,92l4.74-21.09a6.83,6.83,0,0,0-5.18-8.17l-.48-.11a6.83,6.83,0,0,0-8.18,5.17L738.86,88.9A6.84,6.84,0,0,0,744,97.07Z"/><path class="cls-1" d="M724.19,98.14a15.91,15.91,0,0,1-3.47-.39l-.5-.11a15.84,15.84,0,0,1-12-18.93l6.4-28.5a15.86,15.86,0,0,1,18.93-12l.49.11a15.86,15.86,0,0,1,12,18.93l-6.41,28.5A15.87,15.87,0,0,1,724.19,98.14Zm5.92-51.3a6.87,6.87,0,0,0-6.68,5.34L717,80.69a6.84,6.84,0,0,0,5.17,8.17h0l.49.11a6.85,6.85,0,0,0,8.17-5.17l6.41-28.51a6.85,6.85,0,0,0-5.18-8.17l-.49-.11A7,7,0,0,0,730.11,46.84Z"/><path class="cls-1" d="M720.78,160.88h-9c0-18.79-15-35.23-27.93-43.61l-4.22-2.74,15-18.19c8.93-9.7,4.85-13.46,3.32-14.87a8.72,8.72,0,0,0-7.74-2.3,15.74,15.74,0,0,0-8.61,5.11l-.29.31L662.63,98.48l-5.38-7.22,18-13.39a24.69,24.69,0,0,1,13.39-7.57A17.76,17.76,0,0,1,704,74.85c11,10.1,1.84,22.51-2.71,27.49l-8.43,10.26C706.54,122.87,720.78,140.54,720.78,160.88Z"/><rect class="cls-1" x="737.79" y="0.62" width="10" height="28" rx="5" transform="translate(106.83 -369.44) rotate(30)"/><rect class="cls-1" x="754.79" y="10.62" width="10" height="28" rx="5" transform="translate(239.95 -530.04) rotate(45)"/><rect class="cls-1" x="769.29" y="25.12" width="10" height="28" rx="5" transform="translate(505.7 -688.15) rotate(66.84)"/></svg>