<svg id="Layer_1" data-name="Layer 1" xmlns="http://www.w3.org/2000/svg" viewBox="0 0 796.7 183.03"><defs><style>.cls-1{fill:#fff;}</style></defs><path class="cls-1" d="M8.1,71.3C8.1,26.83,39.46,6.11,81.46,6.11s73.37,20.72,73.37,64.62c0,44.1-31.37,64.62-70.52,64.62,0,2.47,3.8,4.56,12,4.56,22.42,0,43-7.6,43-7.6l6.84,43.15c-13.49,4.37-30,7.6-54.36,7.6-31.93,0-44.09-8.17-44.09-23.19,0-12.73,8.93-22.43,25.28-22.43v-2.85C39.46,134.59,8.1,114.63,8.1,71.3Zm59.68-.76c0,15.78,4.37,26.8,13.68,26.8s13.69-11,13.69-26.8S90.77,43.93,81.46,43.93,67.78,54.77,67.78,70.54Z"/><path class="cls-1" d="M192.65,133.45,170.22,8h68.23L243,68.26h2.85L256.13,8h19.39l10.26,60.25h2.85L293.19,8h68.23L339,133.45H277.8L267.15,55H264.3l-10.45,78.49Z"/><path class="cls-1" d="M490.67,133.45H382.52V95.63h25.66V45.83H382.52V8H490.67V45.83H465v49.8h25.66Z"/><path class="cls-1" d="M571.25,78.52v2.85H633.4v52.08h-119V81.37l62.15-18.43V60.09H514.42V8h119V60.09Z"/><path class="cls-1" d="M714.41,167.29c-31.14,0-52.9-24.24-52.9-58.95,0-2.09,0-4.21-.09-6.27-.24-10.55-.48-21.45,5.87-30.41L660.37,27A16.09,16.09,0,0,1,692.18,22l4.5,29.06,1.43-.43L700,18.24a16.1,16.1,0,0,1,32.16,1.35c.37,2.68,1.69,15.24-2.41,36.37l-8.84-1.72c4.21-21.63,2.32-33.54,2.3-33.66l-.08-.49,0-.52a7.1,7.1,0,0,0-6.67-7.49A7.13,7.13,0,0,0,709,18.76l-2.25,39.1-3.32.74a50.62,50.62,0,0,0-8.57,2.74l-5.32,2.24-6.21-40.17a7.09,7.09,0,1,0-14,2.17l7.52,48.59-1.29,1.56c-5.52,6.68-5.32,15.7-5.08,26.14.05,2.1.09,4.28.09,6.47,0,29.88,17.64,49.95,43.9,49.95s43.34-19.16,43.39-48.82l-.39-7.11-.35-.61.31-.18v-.31l.59,0,6.86-4,1.47,2.5.52,9.68C766.8,144,745.74,167.29,714.41,167.29Z"/><path class="cls-1" d="M753,107.25a16,16,0,0,1-3.48-.39l-.49-.11a15.84,15.84,0,0,1-12-18.93l4.74-21.09a15.85,15.85,0,0,1,18.93-12l.49.11a15.87,15.87,0,0,1,12,18.93l-4.74,21.09A15.88,15.88,0,0,1,753,107.25ZM751,98l.49.11a6.84,6.84,0,0,0,8.17-5.18l4.74-21.08a6.85,6.85,0,0,0-5.17-8.18l-.49-.11a6.84,6.84,0,0,0-8.18,5.18l-4.74,21.08A6.86,6.86,0,0,0,751,98Z"/><path class="cls-1" d="M731.13,99a15.83,15.83,0,0,1-3.47-.38l-.5-.12a15.83,15.83,0,0,1-12-18.92l6.41-28.51a15.86,15.86,0,0,1,18.93-12l.49.11a15.86,15.86,0,0,1,12,18.93l-6.4,28.5A15.88,15.88,0,0,1,731.13,99ZM737,47.74a6.84,6.84,0,0,0-6.67,5.34L724,81.58a6.84,6.84,0,0,0,5.18,8.17h0l.49.11a6.85,6.85,0,0,0,8.17-5.18l6.41-28.5A6.85,6.85,0,0,0,739,48l-.49-.11A7.11,7.11,0,0,0,737,47.74Z"/><path class="cls-1" d="M727.72,161.78h-9c0-18.79-15.05-35.24-27.94-43.61l-4.22-2.75,15-18.19c8.93-9.7,4.85-13.45,3.31-14.86a8.71,8.71,0,0,0-7.74-2.31,15.82,15.82,0,0,0-8.61,5.12l-.28.31L669.56,99.37l-5.37-7.21,18-13.4a24.69,24.69,0,0,1,13.39-7.57,17.79,17.79,0,0,1,15.38,4.56c11,10.1,1.85,22.51-2.7,27.48L699.8,113.5C713.48,123.76,727.72,141.44,727.72,161.78Z"/><rect class="cls-1" x="744.73" y="1.52" width="10" height="28" rx="5" transform="translate(108.2 -372.78) rotate(30)"/><rect class="cls-1" x="761.73" y="11.52" width="10" height="28" rx="5" transform="translate(242.61 -534.68) rotate(45)"/><rect class="cls-1" x="776.23" y="26.02" width="10" height="28" rx="5" transform="translate(510.73 -693.98) rotate(66.84)"/></svg>