<svg id="Layer_1" data-name="Layer 1" xmlns="http://www.w3.org/2000/svg" viewBox="0 0 788 189"><defs><style>.cls-1{fill:#fbb03b;}.cls-2{fill:#6b5bd8;}</style></defs><path class="cls-1" d="M-.25,76.79c0-44.48,31.36-65.2,73.36-65.2s73.37,20.72,73.37,64.62c0,44.1-31.36,64.63-70.52,64.63,0,2.47,3.8,4.56,12,4.56,22.42,0,42.95-7.6,42.95-7.6l6.84,43.14c-13.49,4.37-30,7.6-54.35,7.6-31.94,0-44.1-8.17-44.1-23.18,0-12.74,8.93-22.43,25.28-22.43v-2.85C31.11,140.08-.25,120.12-.25,76.79ZM59.43,76c0,15.77,4.37,26.79,13.68,26.79S86.8,91.8,86.8,76,82.42,49.42,73.11,49.42,59.43,60.25,59.43,76Z"/><path class="cls-2" d="M184.3,138.94,161.87,13.49H230.1l4.57,60.25h2.85l10.26-60.25h19.39l10.26,60.25h2.85l4.56-60.25h68.23L330.65,138.94h-61.2L258.8,60.44H256l-10.45,78.5Z"/><path class="cls-2" d="M482.32,138.94H374.17V101.11h25.66V51.32H374.17V13.49H482.32V51.32H456.66v49.79h25.66Z"/><path class="cls-2" d="M562.9,84v2.85h62.15v52.08h-119V86.86l62.15-18.44V65.57H506.07V13.49h119V65.57Z"/><path class="cls-2" d="M706.06,172.77c-31.14,0-52.89-24.24-52.89-58.94,0-2.09,0-4.22-.1-6.27-.24-10.56-.48-21.45,5.87-30.42L652,32.44a16.09,16.09,0,1,1,31.81-4.92l4.5,29.05,1.43-.43,1.86-32.41a16.1,16.1,0,0,1,32.16,1.34c.37,2.68,1.69,15.25-2.41,36.37l-8.84-1.71c4.21-21.64,2.32-33.55,2.3-33.66l-.08-.5,0-.51a7.08,7.08,0,0,0-6.67-7.49,7.12,7.12,0,0,0-7.49,6.67l-2.25,39.11-3.32.74a50,50,0,0,0-8.57,2.73l-5.32,2.24-6.21-40.17a7.1,7.1,0,0,0-12.74-3.1,7,7,0,0,0-1.28,5.27l7.52,48.6-1.29,1.55c-5.52,6.68-5.32,15.7-5.08,26.15,0,2.1.1,4.27.1,6.47,0,29.87,17.63,49.94,43.89,49.94S749.4,144.61,749.45,115l-.38-7.12-.36-.6.31-.19v-.31l.59,0,6.86-4,1.47,2.5.52,9.68C758.45,149.49,737.39,172.77,706.06,172.77Z"/><path class="cls-2" d="M744.61,112.73a15.41,15.41,0,0,1-3.48-.39l-.49-.11a15.84,15.84,0,0,1-12-18.93l4.74-21.09a15.85,15.85,0,0,1,18.93-12l.49.11a15.87,15.87,0,0,1,12,18.94l-4.74,21.08A15.88,15.88,0,0,1,744.61,112.73Zm-2-9.28.49.11a6.85,6.85,0,0,0,8.18-5.17L756,77.3a6.87,6.87,0,0,0-5.18-8.18l-.49-.11a6.86,6.86,0,0,0-8.18,5.18l-4.74,21.09a6.84,6.84,0,0,0,5.18,8.17Z"/><path class="cls-2" d="M722.78,104.52a15.85,15.85,0,0,1-3.47-.39l-.5-.11a15.84,15.84,0,0,1-12-18.93l6.41-28.5a15.86,15.86,0,0,1,18.93-12l.49.11a15.86,15.86,0,0,1,12,18.93l-6.4,28.5A15.88,15.88,0,0,1,722.78,104.52Zm5.91-51.3A6.84,6.84,0,0,0,722,58.56l-6.41,28.5a6.86,6.86,0,0,0,5.18,8.18h0l.5.11a6.85,6.85,0,0,0,8.17-5.18l6.4-28.5a6.84,6.84,0,0,0-5.17-8.17l-.49-.11A6.54,6.54,0,0,0,728.69,53.22Z"/><path class="cls-2" d="M719.37,167.26h-9c0-18.79-15-35.23-27.94-43.61l-4.22-2.74,15-18.19c8.93-9.7,4.85-13.46,3.32-14.87a8.74,8.74,0,0,0-7.75-2.31,15.88,15.88,0,0,0-8.61,5.12l-.28.31-18.64,13.89-5.37-7.22,18-13.39a24.69,24.69,0,0,1,13.39-7.57,17.75,17.75,0,0,1,15.38,4.55c11,10.1,1.85,22.51-2.7,27.48L691.45,119C705.13,129.25,719.37,146.92,719.37,167.26Z"/><rect class="cls-2" x="736.38" y="7" width="10" height="28" rx="5" transform="translate(109.83 -367.88) rotate(30)"/><rect class="cls-2" x="753.38" y="17" width="10" height="28" rx="5" transform="translate(244.04 -527.17) rotate(45)"/><rect class="cls-2" x="767.88" y="31.5" width="10" height="28" rx="5" transform="translate(510.71 -682.98) rotate(66.84)"/></svg>