<svg id="Layer_1" data-name="Layer 1" xmlns="http://www.w3.org/2000/svg" viewBox="0 0 403.44 237.31"><defs><style>.cls-1{fill:#6b5bd8;}.cls-2{fill:#fbb03b;}</style></defs><path class="cls-1" d="M294.51,233.18c-41.8,0-71-32.53-71-79.11,0-2.81-.06-5.66-.12-8.42-.32-14.17-.65-28.79,7.87-40.83l-9.28-60a21.6,21.6,0,0,1,42.7-6.61l6,39q1-.3,1.92-.57l2.5-43.51a21.61,21.61,0,0,1,43.17,1.8c.49,3.6,2.27,20.46-3.24,48.82l-11.86-2.3c5.64-29.05,3.11-45,3.08-45.18l-.11-.67,0-.69a9.53,9.53,0,0,0-19-1.09l-3,52.49-4.46,1A67.63,67.63,0,0,0,268.21,91l-7.13,3-8.34-53.92A9.52,9.52,0,1,0,233.92,43L244,108.2l-1.73,2.09c-7.4,9-7.13,21.07-6.82,35.09.07,2.82.13,5.74.13,8.69,0,40.09,23.68,67,58.92,67s58.18-25.71,58.24-65.52l-.51-9.55-.48-.81.42-.25,0-.42.79,0,9.21-5.44,2,3.36.69,13C364.83,201.93,336.57,233.18,294.51,233.18Z"/><path class="cls-1" d="M346.26,152.59a20.83,20.83,0,0,1-4.67-.52l-.66-.14a21.28,21.28,0,0,1-16.08-25.42l6.36-28.3a21.26,21.26,0,0,1,25.41-16.08l.66.15a21.28,21.28,0,0,1,16.08,25.41L367,136A21.29,21.29,0,0,1,346.26,152.59Zm-2.68-12.45.66.15a9.19,9.19,0,0,0,11-6.95l6.37-28.3a9.2,9.2,0,0,0-6.95-11l-.66-.15a9.18,9.18,0,0,0-11,7l-6.37,28.31a9.19,9.19,0,0,0,6.95,11Z"/><path class="cls-1" d="M317,141.57a21.27,21.27,0,0,1-4.66-.52l-.67-.15a21.25,21.25,0,0,1-16.07-25.41l8.59-38.26a21.3,21.3,0,0,1,25.42-16.08l.65.15A21.29,21.29,0,0,1,346.3,86.71L337.7,125A21.31,21.31,0,0,1,317,141.57Zm7.94-68.86a9.21,9.21,0,0,0-9,7.17l-8.6,38.26a9.17,9.17,0,0,0,6.95,11h0l.66.15a9.2,9.2,0,0,0,11-7l8.6-38.26a9.19,9.19,0,0,0-6.94-11l-.66-.15A9.34,9.34,0,0,0,324.89,72.71Z"/><path class="cls-1" d="M312.37,225.79H300.29c0-25.22-20.2-47.3-37.49-58.54l-5.66-3.68,20.07-24.42c12-13,6.51-18.06,4.45-20a11.72,11.72,0,0,0-10.39-3.1A21.22,21.22,0,0,0,259.71,123l-.38.42-25,18.64-7.22-9.69,24.12-18a33.16,33.16,0,0,1,18-10.16,23.86,23.86,0,0,1,20.65,6.11c14.73,13.56,2.48,30.22-3.62,36.89L274.9,161C293.26,174.76,312.37,198.48,312.37,225.79Z"/><rect class="cls-1" x="335.2" y="10.67" width="13.42" height="37.58" rx="5" transform="translate(60.54 -167.01) rotate(30)"/><rect class="cls-1" x="358.02" y="24.1" width="13.42" height="37.58" rx="5" transform="translate(137.15 -245.34) rotate(45)"/><rect class="cls-1" x="377.49" y="43.56" width="13.42" height="37.58" rx="5" transform="translate(290.4 -315.4) rotate(66.84)"/><path class="cls-2" d="M2,88.15C2,28.84,43.86,1.21,99.88,1.21s97.85,27.63,97.85,86.18c0,58.81-41.83,86.18-94,86.18,0,3.3,5.07,6.09,16,6.09,29.91,0,57.28-10.14,57.28-10.14l9.13,57.54c-18,5.83-40,10.14-72.5,10.14-42.58,0-58.81-10.9-58.81-30.93,0-17,11.92-29.91,33.72-29.91v-3.8C43.86,172.56,2,145.94,2,88.15Zm79.59-1c0,21,5.83,35.74,18.25,35.74s18.25-14.71,18.25-35.74S112.3,51.65,99.88,51.65,81.63,66.1,81.63,87.14Z"/></svg>