<?xml version="1.0" standalone="no"?>
<svg viewBox="-1300 -200 3350 3350" style="width: 585px; height: 585px; justify-content: center; align-self: center; transform: scale(1, 1);" xmlns="http://www.w3.org/2000/svg"><g transform="rotate(0 634.8688049316406 1359.9799995422363)"><g transform="translate(-276 473)"><path d="M1277.82 290.523L1283.58 289.289C1284.09 290.842 1284.63 292.375 1285.17 293.879C1298.78 321.71 1271.32 344.498 1245.63 328.542C1245.08 356.708 1217.68 379.73 1188.39 376.28C1188.29 376.735 1188.2 377.193 1188.11 377.647C1187.41 381.16 1186.76 384.423 1181.55 384.019C1149.49 440.152 983.494 613.795 912.334 603.14C841.694 612.279 777.61 550.122 748.68 488.722C737.118 599.718 760.486 646.791 788.824 703.872C803.94 734.322 820.471 767.619 833.867 814.989C837.458 816.729 838.944 819.639 835.968 822.83C836.352 825.802 837.173 828.858 837.997 831.925C839.98 839.305 841.981 846.755 837.964 853.286C837.514 855.244 835.259 855.284 834.011 853.844L825.342 858.361C829.656 875.235 828.363 892.996 827.076 910.67C826.28 921.592 825.487 932.481 826.022 943.108C824.923 1110.94 743.516 1259.77 701.611 1418.37C671.633 1518.54 676.922 1601.63 671.283 1700.19C665.798 1758.19 616.44 1889.63 613.696 1918.66C613.662 1919.02 613.812 1921.28 614.04 1924.73C614.958 1938.61 617.14 1971.58 613.696 1976.55C624.227 1982.6 663.062 2033.43 666.004 2041.54C676.564 2073.56 724.057 2072.33 769.088 2071.16C811.989 2070.06 852.654 2069.01 857.017 2096.81C872.686 2116.08 861.631 2120.49 844.952 2127.14C844.341 2127.39 843.723 2127.63 843.098 2127.88C779.05 2158.11 585.403 2160.72 518.229 2137.91C512.652 2151.65 498.36 2152.02 484.795 2147.51C471.382 2144.27 458.368 2140.85 444.852 2137.86C428.174 2134.3 417.063 2131.07 414.666 2119C412.873 2110.1 412.93 2100.21 412.987 2090.61C412.992 2089.62 412.998 2088.64 413.002 2087.66C412.792 2073.04 413.913 2068.22 425.935 2067.4C405.243 2032.71 415.31 2009.88 425.73 1986.25C433.197 1969.31 440.846 1951.96 437.483 1929.55C422.673 1914.12 420.335 1879.51 414.413 1858.78C414.413 1858.78 414.963 1805.71 400.735 1839.26C400.152 1840.24 399.401 1841.53 398.504 1843.07C388.991 1859.45 363.123 1903.98 348.97 1897.16C323.953 1925.57 320.247 1940.48 318.141 1976.55C317.779 1991.24 322.179 2005.09 326.434 2018.48C335.168 2047.64 345.181 2076.85 356.314 2104.71C361.917 2106.68 367.097 2110.19 371.875 2114.84C374.033 2114.4 376.77 2114.5 377.119 2116.5C404.092 2180.9 336.871 2203.4 280.508 2208.74C228.428 2213.87 173.114 2200.38 131.936 2171.97C117.02 2163.51 119.523 2131.8 129.524 2122.16C137.391 2054.26 150.338 1988.41 168.006 1926.65C167.798 1924.1 167.633 1921.35 167.511 1918.66C158.605 1909.91 153.905 1897.93 152.468 1881.13C151.776 1878.28 164.2 1878.19 167.178 1878.44C168.515 1874.07 171.11 1870.13 175.525 1868.26L178.758 1859.65C177.507 1859.54 171.648 1859.03 170.508 1858.94C184.683 1716 194.579 1568.05 253.615 1434.55C241.094 1405.12 224.045 1377.88 212.943 1347.88C185.102 1267.04 177.902 1180.18 166.432 1096.63C160.728 1092.37 157.123 1086.24 153.493 1079.31L144.072 1081.58C143.885 1096.4 140.767 1099.21 135.079 1099.21C130.494 1099.13 125.398 1097.78 122.227 1086.38L117.226 1067.97L112.554 1086.47C108.764 1100.52 95.5078 1099.34 91.6788 1087.21C90.3459 1076.61 88.8441 1065.97 87.3378 1055.29C81.9507 1017.11 76.5052 978.521 78.5128 940.066C18.6818 804.941 -19.1632 625.894 10.0968 465.013C35.2888 307.759 162.275 85.483 353.529 82.4471C352.306 82.7936 351.084 83.1342 349.861 83.4787C361.642 81.095 373.319 78.136 384.781 74.5149C394.877 71.9833 404.334 70.2327 405.392 58.0083C408.92 6.5132 407.69 11.81 456.557 2.73633C485.339 -3.25853 522.069 -1.08848 539.022 26.522C545.2 36.849 545.866 49.0335 549.38 60.2942C551.33 63.7904 558.432 65.6739 564.177 67.2378C579.013 71.8106 594.362 73.693 610.078 75.3348C713.379 74.9294 761.68 175.173 802.891 260.7C808.989 273.357 814.932 285.69 820.875 297.328C847.303 349.929 872.309 419.999 920.362 455.416C983.949 403.945 1049.7 356.915 1105.38 295.868C1107.86 293.249 1111.95 295.207 1115.24 296.78C1116.24 297.255 1117.16 297.695 1117.94 297.964C1118.8 273.805 1125.35 249.905 1131.76 226.603C1138.72 192.303 1153.09 185.411 1178.15 191.942C1192.74 153.736 1212.21 122.276 1234.81 102.412C1242.22 94.3879 1257.39 83.9381 1258.65 100.025C1257.08 116.765 1248.77 132.785 1243.44 149.292C1236.91 165.01 1230.68 184.028 1220.98 198.687C1225.5 200.283 1230.24 201.594 1234.18 205.04L1236.08 202.9C1246 209.235 1253.46 220.898 1255.96 233.634C1258.52 234.606 1259.47 236.813 1260.4 239.412L1265.07 249.648L1266.4 246.587C1268.27 249.184 1270.09 251.54 1271.79 253.742C1281.14 265.828 1286.9 273.283 1277.82 290.523ZM150.817 694.988L160.661 695.968C169.984 659.363 191.27 627.856 201.316 591.303C207.953 562.071 201.243 534.309 194.52 506.489C190.599 490.266 186.674 474.023 185.388 457.458L175.493 456.874C159.59 534.906 145.973 614.239 150.817 694.988Z" transform="translate(267.0001 -21.00174)" fill="#FFFFFF" fill-rule="evenodd" stroke="none"></path><path d="M547.774 0.508974C547.734 -0.0510255 546.913 -0.221025 546.763 0.368975C544.413 9.33897 542.683 17.809 543.373 27.209C544.76 46.531 551.247 65.499 562.684 81.189C562.896 81.4798 563.112 81.7762 563.331 82.0772C568.764 89.5375 576.268 99.8412 586.303 99.649C590.413 99.569 592.473 96.019 591.903 92.289C589.682 81.413 577.466 74.93 571.944 65.75C590.933 70.069 611.963 76.699 627.183 89.179C652.809 109.096 654.378 149.172 633.912 173.429L633.435 174.003C621.588 188.083 603.998 195.632 586.593 200.279C498.057 223.635 354.803 198.497 322.422 100.67C321.011 86.1456 334.936 78.9041 346.597 72.84C348.015 72.1024 349.4 71.3821 350.72 70.6683L351.833 70.059C367.383 65.722 382.858 61.14 398.453 56.979C394.944 63.229 390.623 68.959 385.473 74.319C381.593 78.349 377.133 86.33 383.673 90.199C390.567 94.2678 397.249 86.5036 401.11 81.4253L401.793 80.519C414.075 64.5 419.904 43.831 417.383 23.749C416.72 18.663 416.056 13.26 413.543 8.70897C412.533 7.09897 411.043 6.13897 410.313 4.22897C410.073 3.61897 409.173 3.83897 409.313 4.49997C409.657 6.11571 409.359 7.99664 409.063 9.86812C408.86 11.1461 408.659 12.4186 408.663 13.599C408.665 14.5005 408.68 15.3993 408.694 16.2971C408.73 18.5372 408.765 20.7702 408.623 23.019C407.973 33.926 404.757 44.885 399.783 54.519C365.313 56.715 331.152 59.602 297.523 68.109C131.416 112.561 43.5186 288.052 11.0616 444.817C-21.3974 604.822 23.1016 767.097 73.1026 918.729C74.2226 922.099 76.5226 924.119 79.1626 925.019C77.3748 954.357 81.2954 983.536 85.211 1012.68C86.7907 1024.43 88.3696 1036.19 89.5726 1047.94C90.3526 1055.39 90.2426 1063.49 92.8626 1070.59C98.7336 1088.19 118.765 1087.22 123.273 1069.34C125.593 1077.89 130.123 1085.62 140.473 1085.87C153.033 1086.16 154.67 1074.91 154.915 1064.86L154.944 1063.29C158.216 1069.48 161.946 1076.22 167.593 1080.89C175.98 1146.93 184.018 1213.15 198.233 1278.26C199.158 1284.41 201.065 1290.21 203.374 1295.95C206.923 1307.92 209.643 1319.88 214.123 1331.61L214.885 1333.65C225.695 1362.22 241.983 1388.79 254.033 1416.66C193.588 1554.66 184.986 1707.2 170.013 1855.12C164.088 1856.53 153.51 1855.8 153.343 1864.1C154.473 1878.28 158.414 1893.06 168.483 1903.55C168.573 1905.35 168.683 1907.14 168.823 1908.93C150.785 1972.28 138.259 2037.66 130.613 2103.06C121.78 2112.93 121.991 2127.97 123.362 2140.76L123.523 2142.21C124.553 2149.92 128.783 2154.87 134.983 2159.22C178.88 2189.29 234.193 2201.9 286.923 2196.89C322.531 2192.53 374.587 2183.47 390.784 2147.11C396.644 2132.1 392.816 2114.8 388.303 2099.82L387.773 2098.08C387.146 2096.04 385.957 2094.63 384.508 2093.75C382.258 2086.35 372.908 2087.07 366.732 2085.62C357.29 2061.87 348.785 2037.75 341.163 2013.37C339.924 2008.87 338.5 2004.38 337.071 1999.88C332.887 1986.69 328.67 1973.4 329.012 1959.53C329.873 1945.25 331.543 1930.23 335.913 1916.57C339.92 1904.22 349.176 1896.02 356.803 1885.68C358.023 1886.03 359.323 1886.02 360.603 1885.48C368.84 1882.66 373.009 1880.31 378.093 1873.06C390.885 1857.52 402.269 1840.81 411.703 1823.02C415.792 1846.46 421.1 1869.71 427.453 1892.64C429.713 1900.77 432.564 1909.04 438.673 1914.8C441.719 1934.69 435.988 1948.74 426.814 1965.58L426.153 1966.79C413.684 1991.39 410.767 2021.9 424.153 2046.72C414.407 2048.54 413.834 2060.33 413.861 2068.87L413.883 2071.9L413.88 2072.19C413.78 2082.22 413.672 2093.18 415.633 2103.03C419.547 2122.75 442.845 2123.63 458.713 2127.91C468.963 2130.41 479.213 2132.91 489.463 2135.45C502.52 2139.3 518.029 2141 526.083 2127.44C531.842 2130.14 538.356 2131.42 544.663 2132.37L546.173 2132.59C558.843 2134.41 571.573 2135.91 584.314 2137.14C662.317 2144.66 741.39 2141.21 818.453 2126.94C825.447 2125.64 833.922 2123.77 841.599 2120.59C848.022 2119.47 853.178 2115.46 859.104 2113.12C863.636 2111.14 869.771 2109.61 873.22 2105.9C876.147 2102.75 876.246 2098.63 875.243 2094.64C873.942 2089.6 872.399 2083.22 867.885 2080.1C864.944 2051.02 833.656 2045.2 809.511 2042.22L807.293 2041.95L770.623 2036.1C749.104 2032.67 724.433 2031.22 706.213 2018.01C688.466 2005.85 694.389 1988.37 677.194 1983.42C677.826 1975.72 673.207 1969.08 665.863 1966.85C664.413 1966.33 662.213 1966.2 661.033 1965.1C659.903 1964.04 659.153 1960.95 658.163 1959.45C653.632 1952.6 647.042 1947.74 640.147 1943.3L638.963 1942.55C640.777 1938.77 639.334 1935.27 637.896 1931.78C637.271 1930.27 636.648 1928.75 636.293 1927.22C635.379 1920.23 636.344 1913.28 637.31 1906.31C637.942 1901.76 638.574 1897.2 638.683 1892.63C639.013 1884.56 638.613 1876.73 637.003 1868.93C637.993 1866 638.984 1863.08 639.973 1860.14C642.873 1858.12 644.263 1854.12 643.024 1850.97C661.187 1796.39 676.748 1740.6 682.133 1683.14C686.694 1634.53 684.053 1585.59 687.843 1536.92C691.413 1491.17 700.493 1446.04 712.314 1401.75C754.102 1243.75 835.388 1093.59 836.893 927.049C836.893 926.217 836.894 925.385 836.894 924.555C836.898 914.468 836.903 904.498 837.633 894.399C837.766 892.484 837.908 890.563 838.05 888.638C839.291 871.853 840.556 854.745 836.033 838.369C839.007 841.956 845.356 842.511 847.763 837.899C848.933 835.639 850.223 833.389 850.863 830.919C851.818 824.548 850.243 818.182 848.689 811.902C848.132 809.652 847.578 807.413 847.144 805.189C850.123 800.74 847.883 795.479 844.043 793.069C829.745 741.123 812.814 708.817 797.722 680.021C772.313 631.539 752.118 593.005 758.484 487.439C786.086 538.81 835.571 582.151 894.783 589.879C895.46 589.967 896.148 590.059 896.847 590.153C904.115 591.131 912.422 592.249 919.073 589.229C995.316 596.045 1150.78 432.911 1190.33 369.5C1194.6 369.16 1197.36 365.878 1198.21 362.149C1225.09 363.362 1251.9 343.774 1255.55 316.559C1274.54 325.382 1297.47 313.759 1299.6 292.589C1300.33 285.7 1298.03 279.213 1295.75 272.781C1294.84 270.195 1293.92 267.619 1293.21 265.029C1293.02 264.349 1292.41 264.109 1291.85 264.229C1297.21 250.945 1288.27 239.156 1280.04 229.289L1277.92 226.759C1275.69 223.699 1274.65 219.339 1272.01 216.74C1271.8 216.539 1271.51 216.609 1271.35 216.83C1268.75 220.787 1270.97 227.009 1272.48 231.228C1272.62 231.645 1272.77 232.043 1272.9 232.417L1273.13 233.119C1281.76 252.729 1282.15 261.081 1259.06 266.339C1237.81 259.247 1237.42 302.418 1275.88 280.399C1281.64 277.429 1287.02 273.128 1290.26 267.519C1289.46 271.169 1289.43 274.965 1289.4 278.718C1289.34 286.411 1289.29 293.926 1282.53 299.639C1278.68 302.889 1274.01 304.66 1268.94 303.979C1263.22 303.219 1260.36 299.479 1255.62 296.859C1248.59 292.959 1241.86 300.439 1244.84 307.219C1238.26 312.57 1235.27 320.93 1229.31 326.929C1222.5 333.969 1212.82 338.868 1203.17 339.389C1195.7 339.15 1185.37 339.495 1184.23 349.049C1152.31 340.368 1137.23 308.035 1125.29 279.645L1123.43 275.199C1134.92 255.172 1141.12 232.707 1147.86 210.75L1148.64 208.219C1155.16 177.718 1164.56 177.848 1190.49 185.782L1192.94 186.54C1202.44 189.029 1217.05 193.378 1212.83 206.33C1211.29 211.049 1207.57 214.089 1202.53 214.128L1202.15 214.138C1198.23 214.171 1194.8 212.101 1192.03 209.469C1190.4 208.279 1188.51 208.189 1186.96 207.009C1182.19 203.359 1177.44 209.369 1178.08 213.83C1177.93 219.998 1181.02 223.348 1185.93 226.332L1186.53 226.689C1188.43 240.43 1186.74 254.253 1183.95 267.75C1183.82 268.335 1183.68 268.913 1183.54 269.487C1182.14 275.421 1180.86 280.844 1182.13 287.08C1183.44 293.519 1191.81 294.809 1196.12 290.769C1210.46 275.226 1203.5 247.433 1195.41 230.229C1224.39 237.19 1241.75 199.801 1220.13 180.918C1209.62 172.417 1195.89 170.719 1183.23 167.099C1203.4 138.748 1221.02 107.676 1248.14 85.189C1249.87 83.699 1254.74 78.689 1257.11 78.669C1258.91 82.4556 1255.42 91.6721 1252.91 98.3342C1252.2 100.193 1251.58 101.853 1251.16 103.141L1250.99 103.679C1245.38 120.196 1238.86 136.387 1231.58 152.249C1229.77 156.189 1227.91 160.109 1226.01 164.009C1225.67 164.707 1225.31 165.406 1224.95 166.109C1223.12 169.675 1221.24 173.331 1221.7 177.399C1222.09 181.114 1225.83 184.021 1229.46 181.859C1236.5 177.43 1239.34 165.295 1243.2 157.969C1246.99 149.209 1250.61 140.369 1253.99 131.439C1257.5 122.16 1260.82 112.809 1263.9 103.378L1264.11 102.764C1264.51 101.556 1264.94 100.331 1265.37 99.0922C1267.52 92.963 1269.78 86.4926 1269.51 80.119C1269.23 73.66 1265.63 67.309 1258.62 66.729C1251.42 66.1258 1244.66 72.3208 1239.32 77.2116C1238.94 77.5633 1238.56 77.9082 1238.19 78.2434L1236.53 79.7374C1211.26 102.68 1194.39 133.184 1181.74 164.573L1180.93 166.599C1149.3 159.79 1138.81 178.386 1132.77 205.899C1127.02 227.259 1120.79 248.942 1119.3 271.049C1115.5 269.349 1110.36 270.109 1107.62 273.009C1084.39 297.569 1059.98 321.009 1034.42 343.128L1031.24 345.891C997.171 375.245 960.342 401.053 925.903 429.959C911.925 420.552 901.733 406.514 892.547 392.569L891.053 390.289C880.623 374.279 871.133 357.719 862.343 340.759C826.623 271.015 800.036 196.02 752.652 132.83C712.735 76.739 686.982 54.539 616.223 50.622C601.178 49.023 586.038 47.212 571.533 42.729L571.034 42.5781C567.54 41.5477 560.843 40.0185 559.444 37.83C558.403 36.199 556.973 35.359 555.484 35.119C551.323 23.939 548.593 11.91 547.774 0.508974ZM1238.04 175.66C1237.29 175.353 1236.99 176.48 1237.54 176.859C1251.13 186.629 1258.68 202.08 1258.14 218.789L1258.13 219.153C1257.73 231.228 1252.37 247.142 1239.01 249.59C1239.28 246.699 1236.38 244.479 1233.55 245.119C1231.56 245.58 1229.58 246.359 1227.77 247.34C1221.31 244.501 1214.23 240.788 1209.73 235.24L1209.68 235.172C1209.35 234.847 1208.77 235.082 1208.87 235.599L1208.93 235.977C1210.56 246.95 1217.48 258.728 1229.24 260.72C1238.92 264.649 1249.55 260.319 1256.64 252.83C1278.01 229.606 1266.42 187.435 1238.04 175.66ZM186.273 438.619L182.269 459.274C175.619 493.702 169.218 528.169 165.203 563.039C160.997 600.517 159.902 638.204 161.683 675.869C170.85 639.398 192.302 607.324 202.314 571.168C208.732 543.02 202.082 515.532 195.423 488.003C191.457 471.605 187.487 455.193 186.273 438.619ZM175.523 815.929C180.283 827.639 176.873 842.779 173.373 854.869C178.764 857.877 182.466 863.017 187.073 867C203.055 879.921 219.324 892.515 235.333 905.419L236.018 905.961C240.729 909.661 245.944 913.321 247.823 919.308C252.226 938.997 226.269 944.363 211.653 942.959C210.955 942.931 209.923 942.792 208.743 942.633C205.339 942.174 200.704 941.55 199.323 942.939C198.516 943.753 198.568 946.703 198.604 948.723C198.615 949.383 198.625 949.944 198.603 950.299C197.586 965.932 196.762 981.581 195.66 997.209L195.233 1003.07C194.343 1014.92 194.323 1028.3 189.643 1039.55C188.633 1046.33 185.813 1053.18 185.123 1059.89C184.493 1065.88 183.083 1072.46 179.083 1076.93L182.778 1106.07C189.738 1160.73 197.094 1215.37 208.553 1269.28C211.123 1281.38 214.663 1293.07 217.944 1304.98C227.395 1339.34 245.143 1370.43 260.813 1402.2L261.417 1403.44C266.693 1414.39 270.184 1424.89 269.163 1437.35C268.533 1445 256.533 1445.05 257.163 1437.35C257.593 1432.17 257.063 1427.41 255.944 1422.86C231.051 1522.78 212.956 1624.25 203.613 1726.84C199.846 1769.1 197.085 1811.26 192.073 1853.43C204.944 1853.31 217.893 1854.57 230.303 1856.75C251.627 1850.57 277.08 1852.56 296.343 1863.62C308.235 1864.87 320.075 1866.48 331.85 1868.57L334.373 1869.03C339.863 1870.05 347.853 1870.13 352.153 1874.12C353.837 1866.22 359.59 1860.61 364.653 1854.7C369.273 1849.12 373.623 1843.35 377.743 1837.41C389.091 1821.21 398.494 1803.75 406.453 1785.66C406.343 1782.82 407.533 1780.56 409.403 1778.97C441.683 1704.68 461.713 1625.81 479.491 1547C520.305 1369.97 555.367 1191.48 576.413 1010.93C576.503 1010.1 577.713 1010.06 577.723 1010.93C582.009 1144.67 558.829 1277.13 530.863 1407.41C502.274 1536.15 480.105 1667.77 427.683 1789.58C431.549 1814.43 436.146 1839.16 442.163 1863.6C500.867 1847.8 561.973 1841.72 622.653 1844.11C648.76 1769.44 665.486 1691.47 664.127 1612.08C661.142 1473.99 705.027 1342.16 752.125 1214.14C784.641 1115.45 824.22 1016.43 828.554 911.509C829.164 904.141 830.27 896.752 831.379 889.354C833.926 872.349 836.481 855.29 833.033 838.289C824.133 849.059 811.394 856.91 798.923 862.689C777.993 872.389 755.573 878.349 733.123 883.316C618.637 912.645 498.384 912.612 383.603 884.781L375.07 882.814C306.762 867.013 237.474 849.372 175.523 815.929ZM92.3626 919.08C121.978 913.022 153.055 896.333 167.933 869.219C170.903 871.839 173.223 875.269 176.103 877.959C180.653 882.229 185.653 886.08 190.433 890.069C203.832 901.425 217.279 912.145 230.403 923.849C224.131 927.364 217.206 927.016 210.269 926.668C204.796 926.394 199.316 926.119 194.143 927.739C183.422 931.726 182.987 942.856 182.6 952.743C182.553 953.942 182.507 955.122 182.444 956.269L182.031 963.569C181.335 975.736 180.606 987.904 180.023 1000.08L179.972 1001.09C179.877 1002.94 179.758 1004.83 179.637 1006.74C179.14 1014.63 178.615 1022.96 179.563 1030.86C175.539 1040.09 173.363 1049.72 172.723 1059.82C170.873 1059.32 168.893 1059.56 167.473 1060.53C159.885 1046.99 157.671 1030.67 156.047 1015.27L155.694 1011.87C154.873 1003.82 143.053 1003.45 142.873 1011.87C142.796 1015.69 142.726 1019.5 142.659 1023.32L142.273 1046.23L141.962 1064.03C141.963 1064.49 142.01 1065.1 142.062 1065.79C142.287 1068.78 142.62 1073.18 139.883 1072.77L139.697 1072.75C134.247 1071.91 133.867 1052.67 132.702 1047.09L132.623 1046.74L127.823 1012.47C126.733 1004.72 115.493 1007.36 114.953 1014.21C113.606 1029.87 112.241 1045.53 111.084 1061.21C110.718 1063.92 110.669 1068.83 107.713 1070.01C105.537 1068.05 104.831 1064.98 104.335 1062.11L104.053 1060.43C99.1366 1015.21 89.9046 970.565 84.2126 925.449C87.9026 924.919 91.2826 922.619 92.3626 919.08ZM432.083 2053.2C432.843 2053.42 433.583 2052.81 433.623 2052.07C499.142 2096.04 576.774 2121.34 656.113 2114.42C700.963 2112.32 745.683 2107.39 790.024 2100.41C797.763 2099.18 805.493 2097.88 813.213 2096.5C820.357 2094.91 828.444 2094.92 834.364 2090.36L834.371 2090.34C840.23 2088.89 846.064 2087.4 851.903 2085.87C855.407 2088.17 855.492 2094.28 852.822 2097.19C852.64 2097.62 852.429 2098.05 852.189 2098.48C852.692 2101.34 839.038 2107.97 836.347 2108.2C829.31 2111.58 820.548 2113.35 814.449 2114.45L809.902 2115.27C739.993 2127.58 668.514 2130.85 597.753 2125.2C584.303 2124.12 570.863 2122.72 557.484 2120.99L556.961 2120.92C546.5 2119.6 535.06 2118.96 527.043 2111.33L526.885 2111.18C522.724 2107.48 514.649 2110.05 515.093 2116.28L515.107 2116.58C515.309 2125.2 496.714 2119.5 489.553 2117.31C488.814 2117.08 488.197 2116.89 487.735 2116.76L483.109 2115.49C471.531 2112.28 459.999 2108.85 448.373 2105.86C434.393 2103.16 433.004 2103.06 432.809 2089.09L432.794 2087.75C432.024 2080.72 431.253 2073.72 430.043 2066.76C430 2066.51 429.914 2066.12 429.804 2065.62C428.966 2061.78 426.749 2051.65 432.083 2053.2ZM377.513 2116.81C377.781 2122.73 374.88 2129.38 367.833 2129.11C362.707 2135.76 355.022 2140.13 347.893 2144.41C300.787 2170.24 241.543 2171.37 191.663 2152.83C178.194 2147.72 165.203 2141.35 153.213 2133.32L152.092 2132.57C146.051 2128.58 139.102 2124.46 134.813 2118.68L134.959 2123.42C135.179 2130.14 135.556 2136.34 137.694 2142.61C139.003 2145.32 141.603 2146.81 144.053 2148.38C149.523 2151.87 155.163 2155.1 160.933 2158.08C221.064 2188.59 298.347 2193.31 358.753 2161.23C376.092 2151.48 383.43 2136.07 377.513 2116.81Z" transform="translate(260.9999 -1.998275)" fill="#4d4d4d" fill-rule="evenodd" stroke="none"></path></g><g transform="translate(225 0)"><g><g><path d="M252.793 0C297.565 0 351.283 21.7046 355.85 22.1387L355.973 22.1453C358.376 22.1453 367.765 29.2985 384.141 43.6049L366.404 78.1989L367.84 79.5695C374.708 86.1548 380.572 92.1572 385.201 96.8888C422.992 135.523 429.785 287.213 420.878 340.112C411.972 393.011 395.476 444.774 318.678 444.774C241.879 444.774 156.439 398.596 143.278 384.216C134.503 374.63 124.647 370.037 113.71 370.438C113.26 369.87 112.815 369.305 112.372 368.741L110.763 368.513C95.6259 366.321 84.7798 363.37 78.2251 359.662C65.4219 352.418 51.3497 314.339 51.3497 305.951C51.3497 297.646 30.3369 237.234 29.9167 230.841L29.9103 230.664C29.9103 225.319 2.45921 200.752 2.45921 192.95C2.45921 185.147 -3.07401 185.621 2.45921 158.127L4.06676 150.05C9.95497 120.778 21.4798 72.3064 65.4219 51.2442C113.71 28.0989 207.57 0 252.793 0Z" transform="translate(-7.992421 58.70615)" fill="#FFFFFF" stroke="none"></path><path d="M294.952 1.14476C225.78 -7.23636 89.0586 32.3017 64.9759 57.8635C33.2369 83.9005 9.06486 144.648 1.68586 171.493C-0.0351405 179.159 -0.806141 187.687 1.16686 195.963C2.83758 206.706 8.84988 217.802 15.2437 226.989C15.2209 226.951 15.2529 226.872 15.3112 226.763L15.3959 226.613C18.083 230.297 21.3818 234.904 24.3887 239.009L25.6569 240.733C25.6519 240.764 25.6363 240.821 25.618 240.886C25.5455 241.147 25.4312 241.559 25.772 241.147L25.9069 240.973C26.1669 241.193 26.5069 241.413 26.8859 241.623L27.6159 242.633C28.2069 243.093 28.8369 243.473 29.5069 243.793C30.1569 244.153 30.8459 244.433 31.5559 244.643C31.5959 244.643 31.6269 244.643 31.6569 244.633C30.7849 278.287 38.5211 293.702 45.069 306.749C48.7185 314.021 51.9988 320.557 53.2139 329.105C54.8469 346.847 61.1629 363.303 77.2319 372.203C95.3989 382.161 124.768 394.314 139.457 381.593C148.24 393.149 159.311 403.525 171.957 411.693C173.846 413.233 175.826 414.603 177.877 415.833C180.056 417.403 182.247 418.953 184.417 420.533C186.887 421.903 189.467 423.063 192.137 424.013C192.417 424.143 192.556 424.093 192.627 423.953C193.467 424.293 194.306 424.603 195.177 424.873C196.195 425.318 195.622 423.987 195.218 423.193L195.056 422.883C195.627 423.093 196.197 423.293 196.777 423.483C197.157 423.533 197.366 423.373 197.387 422.993C197.266 422.313 196.967 421.713 196.476 421.203C196.016 420.553 195.497 419.783 194.927 419.073C195.407 419.263 195.896 419.463 196.387 419.643L196.493 419.685C197.388 419.978 196.612 418.177 196.497 418.003C196.476 417.983 196.467 417.963 196.447 417.933C196.797 418.063 197.146 418.203 197.497 418.323C198.297 418.683 198.717 418.333 198.527 417.493C198.146 416.803 197.697 416.153 197.186 415.563C196.707 414.933 196.167 414.363 195.567 413.853L193.527 412.873L193.391 412.745L193.257 412.623C193.317 412.523 193.356 412.423 193.356 412.343C187.491 407.509 177.881 404 171.616 398.543C169.927 397.363 168.297 396.113 166.686 394.843C151.957 381.107 140.56 363.67 131.737 345.112C130.573 344.178 129.592 345.583 130.826 347.303C130.6 347.187 130.383 346.609 130.124 345.922C129.557 344.416 128.793 342.384 127.311 343.532C127.302 343.593 127.294 343.648 127.287 343.697C127.245 343.98 127.229 344.09 127.255 344.188C127.298 344.355 127.462 344.491 127.826 345.403C127.825 345.511 127.824 345.603 127.824 345.682C127.821 345.965 127.819 346.085 127.848 346.197C127.904 346.417 128.074 346.607 128.567 347.922L128.737 348.383C128.587 348.403 128.417 348.453 128.266 348.543C128.655 348.254 123.731 341.214 124.606 346.073C124.564 346.059 124.552 346.054 124.539 346.054C124.533 346.053 124.527 346.055 124.516 346.056C124.502 346.059 124.48 346.062 124.441 346.066L124.286 346.073C124.313 345.574 121.762 344.607 122.667 346.983C122.577 346.963 122.515 346.889 122.438 346.799C122.231 346.556 121.922 346.194 120.697 346.443C81.5229 354.093 71.6599 274.957 109.887 266.673C110.137 266.853 110.536 266.823 110.646 266.483C119.636 263.959 132.39 265.438 138.587 274.963C138.28 275.907 143.464 279.537 140.257 274.353C140.507 274.603 140.757 274.783 141.007 274.853C141.421 276.754 146.1 280.48 142.917 274.563C142.947 274.563 142.987 274.553 143.027 274.543C143.419 276.329 148.398 278.776 144.826 273.683C160.7 268.433 158.187 253.529 155.802 239.385C155.006 234.664 154.225 230.028 154.146 225.863C158.396 203.789 158.557 190.282 180.627 175.303C196.104 161.186 196.186 135.831 214.266 122.973C232.692 108.85 256.307 106.499 279.141 105.031L287.561 104.506C314.516 102.994 340.797 101.399 367.677 99.9335C369.516 100.543 371.356 101.063 373.217 101.533C378.636 103.113 384.136 104.133 389.707 104.583C391.697 107.543 393.547 110.583 395.277 113.703C397.786 117.863 400.067 122.163 402.106 126.583C423.072 172.469 427.338 224.568 427.846 275.258L427.873 278.359C429.612 436.884 322.225 487.363 248.226 430.473C247.586 430.246 246.859 429.399 246.059 428.468C244.748 426.941 243.244 425.188 241.616 425.573C241.322 424.346 237.133 422.478 239.377 425.623C239.333 425.694 239.292 425.759 239.254 425.819C238.842 426.468 238.789 426.552 239.755 427.499L240.837 428.543C240.766 428.683 240.747 428.813 240.766 428.943C239.606 427.843 238.467 426.713 237.346 425.533L237.012 425.371C234.491 424.2 235.502 426.034 237.188 427.832L237.246 427.892L237.059 427.742C236.694 427.458 236.226 427.135 235.606 426.763C235.467 426.613 235.326 426.483 235.197 426.333C232.27 425.813 234.84 428.474 236.823 430.309L237.877 431.263C237.856 431.393 237.866 431.513 237.917 431.633C236.797 430.553 235.697 429.453 234.627 428.323C232.097 429.226 236.684 433.118 240.421 436.289C241.995 437.624 243.417 438.83 244.096 439.633C284.463 474.319 340.731 473.379 376.652 445.404C436.114 401.256 443.6 319.705 440.606 251.433C439.706 215.498 433.561 178.844 423.686 143.623C418.035 129.628 411.054 114.914 402.237 101.903C403.286 99.3635 404.106 96.9135 404.457 94.2535C407.246 86.5525 405.706 76.8925 401.579 69.0735C410.462 51.5634 388.198 39.3046 372.762 30.8053C368.858 28.656 365.391 26.7471 362.975 25.0545C348.636 14.8035 330.71 8.66647 313.356 4.61347C307.987 3.17347 302.547 2.11347 297.027 1.41347L294.952 1.14476ZM156.839 33.4435C201.601 20.9345 247.738 10.6005 294.646 14.6335C298.377 14.7135 302.047 15.2035 305.667 16.0935C323.142 19.7765 341.23 24.9985 357.008 34.6495C364.927 37.5245 372.615 40.9075 379.392 45.9865C369.953 44.0345 360.964 39.8325 351.532 38.9945C350.641 38.6935 349.75 38.3955 348.859 38.1005C287.723 32.0575 199.849 49.1955 167.661 88.7365C132.051 131.723 110.594 207.831 109.657 252.943C63.9789 259.716 60.1489 331.365 97.2069 352.413C100.458 355.065 105.481 357.741 110.226 358.793C110.707 358.893 111.197 358.973 111.686 359.053C113.161 359.496 114.81 359.973 117.427 360.133L117.924 360.171C120.24 360.312 122.503 360.009 124.707 359.253C125.326 359.113 125.297 358.703 125.076 358.293C125.417 358.203 125.747 358.123 126.076 358.013C126.887 359.713 127.737 361.393 128.616 363.053C128.657 363.123 128.697 363.183 128.726 363.243C127.639 363.768 127.866 364.364 128.613 365.592L129.346 366.783C121.167 368.545 112.049 366.058 103.699 362.907L102.614 362.492C76.146 353.704 74.3219 342.648 72.0485 328.869C70.8792 321.782 69.5911 313.975 64.7709 305.385C41.5398 267.317 43.145 239.43 44.824 210.262C45.509 198.36 46.2064 186.246 45.2339 173.139C43.0119 173.481 43.7919 174.34 42.7609 176.962C37.8209 193.745 34.6599 210.664 32.8059 228.093C14.9859 210.554 8.94086 182.231 20.7659 157.113C34.3079 123.306 49.8259 86.6905 79.8769 63.6735C101.386 48.1287 128.299 41.5935 153.751 34.331L156.839 33.4435ZM223.167 35.1131C215.938 30.6631 195.125 25.2621 210.925 36.6171C223.019 46.7931 228.094 39.4581 223.167 35.1131ZM165.699 48.5083C155.76 37.6549 182.359 48.0521 186.343 50.9381L186.457 51.0233C189.43 53.1163 188.827 57.6243 186.034 58.9483C180.277 59.0576 175.622 55.6122 171.007 52.1967C169.251 50.897 167.501 49.6017 165.699 48.5083ZM140.627 75.682C134.193 73.5444 119.499 68.6624 120.798 73.5932C129.818 78.5722 139.693 83.0132 148.7 88.8992C153.093 91.5922 160.185 90.3572 156.681 84.3952C153.691 80.0803 147.959 78.3519 142.959 76.4889L142.176 76.1932C141.743 76.0526 141.22 75.879 140.627 75.682ZM118.811 125.522L115.534 123.39C97.8503 111.816 72.8511 94.2793 117.186 112.423C122.239 114.59 128.953 115.872 131.71 120.684C136.041 129.553 124.643 130.149 118.811 125.522ZM102.079 162.351C104.084 150.029 79.0213 140.725 70.5363 143.833C66.6403 145.531 68.2203 149.397 71.8903 151.218C78.633 154.887 84.2971 158.575 90.5774 162.781L94.1863 165.204C96.9513 166.801 100.885 165.18 102.079 162.351ZM107.566 289.183C109.2 288.296 109.623 288.569 109.889 288.741C110.023 288.828 110.117 288.889 110.306 288.763C127.972 287.322 147.021 302.789 156.896 315.683C156.182 316.425 154.355 314.478 153.766 313.851C153.712 313.792 153.668 313.746 153.636 313.713C153.586 313.763 153.526 313.803 153.466 313.823L153.741 314.211C157.744 319.955 149.809 313.196 149.066 311.803C148.936 311.873 148.806 311.913 148.656 311.883C149.285 312.5 151.206 314.109 151.536 315.253L152.045 315.677C156.848 319.79 156.449 322.883 150.997 317.043C151.126 317.313 151.176 317.563 151.086 317.763L151.274 317.888C153.955 319.762 156.16 324.985 150.556 319.623C151.01 322.672 147.392 318.76 145.674 316.902C145.185 316.374 144.85 316.012 144.806 316.023C134.188 307.688 118.555 299.582 105.236 298.493L104.778 298.441C102.334 298.127 101.178 297.401 102.036 295.803C99.0262 295.087 99.7312 293.605 101.156 293.653C99.0332 292.257 100.944 290.922 102.176 291.443C101.58 289.792 103.087 290.078 104.14 290.278C104.583 290.362 104.944 290.43 105.036 290.333C106.23 288.492 106.833 288.938 107.189 289.2C107.358 289.325 107.472 289.409 107.566 289.183ZM238.524 429.117L238.123 428.76L238.475 429.201C238.66 429.429 238.849 429.634 239.157 429.843C239.137 429.773 239.137 429.703 239.146 429.623C238.942 429.468 238.733 429.297 238.524 429.117Z" transform="translate(-14.99996 50.99953)" fill="#4d4d4d" fill-rule="evenodd" stroke="none"></path></g></g><g transform="translate(159 186)"><g><path d="M41.4494 4.01602L43.4942 3.23283C50.5004 0.586187 60.1193 -2.47302 65.8154 3.22402C69.3294 6.73702 69.9984 11.912 67.4904 16.199C64.4514 21.392 59.0004 21.52 53.7364 22.285C47.7494 23.155 41.6604 24.809 36.0864 27.167C29.8074 29.824 23.9804 33.136 18.2714 36.835C12.8454 40.35 7.43842 46.095 0.943418 47.178C0.678418 47.222 0.377418 47.108 0.308418 46.817C-1.16658 40.467 2.93242 34.218 6.59042 29.264C11.0164 23.266 16.3794 18.343 22.3734 13.929C28.1584 9.66802 34.7684 6.58902 41.4494 4.01602ZM169.341 26.4832L168.717 26.5926C162.076 27.8106 155.56 29.3316 148.826 30.0316C141.935 30.7466 135 31.2656 128.076 31.4636C126.406 31.5116 124.603 31.4546 122.749 31.396C117.994 31.2457 112.907 31.0848 108.891 32.6576C107.515 33.1966 106.852 34.8626 108.002 36.0266C111.201 39.2657 116.243 40.58 120.647 41.838L123.074 42.5416C128.35 44.0237 133.815 44.9635 139.231 45.7316C151.069 47.4096 164.116 47.7756 175.895 45.5596C179.384 44.9036 181.788 41.7226 182.863 38.5916C184.028 35.1976 183.086 31.8706 180.642 29.3036C177.44 25.9388 173.59 25.7759 169.341 26.4832ZM38.072 56.8927C42.707 49.9387 53.287 50.9627 55.84 59.2147C56.6948 61.9774 56.2916 64.5675 55.8824 67.197C55.6295 68.8218 55.3742 70.4617 55.412 72.1667C55.495 75.9377 55.248 80.1397 54.092 83.7917C51.456 92.1197 43.966 98.0017 35.105 97.7577C26.273 97.5147 18.494 91.9247 14.795 84.0517C11.083 76.1487 11.869 67.9697 14.579 59.9337C14.709 59.5477 15.215 59.3607 15.52 59.6857C18.7234 63.0899 21.0684 66.6836 23.4948 70.4959L25.9814 74.4029C27.8818 77.3449 30.6436 81.1033 34.192 80.8672L34.7244 80.8147C35.1533 80.7778 35.3671 80.7941 35.5343 80.7136C35.7515 80.609 35.8902 80.3412 36.32 79.5817C36.672 78.9597 36.608 77.8037 36.778 77.0697L36.837 76.8217L36.8049 76.6881C36.7298 76.3326 36.6553 75.6628 36.5948 74.5004L36.582 74.2437C36.5312 73.1692 36.4304 72.0342 36.3268 70.8665C35.9058 66.1255 35.437 60.846 38.072 56.8927ZM171.394 57.2342C167.237 50.6532 154.733 52.6282 155.564 61.5222C156.092 67.1692 159.584 70.7392 160.987 75.9872C162.075 80.0522 160.446 82.3812 156.182 81.8332C151.725 81.2602 148.784 77.5842 146.845 73.8122C144.965 70.1552 144.45 65.0352 141.288 62.2282C141.011 61.9822 140.607 62.0232 140.405 62.3422C137.059 67.6052 139.798 77.4572 142.553 82.5032C145.643 88.1582 151.505 91.8832 157.93 92.3772C164.658 92.8932 170.895 89.6352 173.763 83.4722C175.584 79.5592 175.389 75.1952 174.897 71.0002L174.673 69.0616C174.193 64.9772 173.562 60.6661 171.394 57.2342ZM128.749 115.04C136.872 103.66 125.366 92.9573 117.815 88.3673C115.836 86.9473 117.407 82.2435 121.634 82.9705C160.031 89.5675 140.136 155.708 91.1125 119.413C85.276 114.705 92.344 104.334 98.6347 108.366C98.9537 108.611 99.2882 108.869 99.6369 109.139C106.705 114.603 119.636 124.601 128.749 115.04ZM113.944 165.352C115.478 162.685 119.01 160.214 122.242 160.593C136.721 162.291 136.696 179.845 131.105 190.093C126.148 199.18 115.889 204.514 105.621 203.735C94.8343 202.916 85.6433 196.574 81.5983 186.483C78.9233 179.808 77.6873 167.485 84.8033 163C84.9353 162.916 85.1533 162.937 85.2583 163.058C88.6703 167.027 88.8043 172.986 91.7913 177.405C94.5693 181.515 98.8853 184.909 103.941 185.433C107.717 185.825 111.537 184.463 113.014 181.073C113.813 179.239 113.722 178.244 113.422 176.982L113.149 175.885C112.203 172.044 111.779 169.119 113.944 165.352Z" transform="translate(52.99948 55.99989)" fill="#4d4d4d" fill-rule="evenodd" stroke="none"></path></g></g><g transform="translate(123 338)"></g><g transform="translate(47 241)"><g><path d="M375.513 33.9959C378.273 31.6829 383.089 31.1349 386.423 31.1279C394.028 32.5829 390.88 44.1729 376.385 36.9629C398.166 128.052 258.709 131.937 282.237 45.3469C268.157 41.9599 253.29 41.6839 240.365 48.1139C251.522 87.8139 214.401 125.982 171.734 116.181C144.179 109.783 125.789 88.4229 134.308 57.0269C128.899 58.7229 118.76 57.3109 115.622 53.0899C104.775 52.1634 93.9913 50.8415 83.2204 49.5212C59.091 46.5633 35.0273 43.6135 10.4674 45.1359C7.12749 45.5983 7.31436 47.952 7.50111 50.304C7.68714 52.6469 7.87304 54.9883 4.57241 55.4569C-3.01759 54.7649 -0.0355915 41.9389 5.39841 39.8539C13.0234 34.3889 78.5984 39.8119 116.105 49.6479C121.083 46.3825 128.583 47.3802 134.493 48.1664C135.445 48.2929 136.355 48.414 137.206 48.5109C144.594 30.0029 168.272 6.93191 192.028 10.8229C213.793 12.0919 232.079 20.6889 239.509 45.2399C250.854 34.9489 271.426 31.6259 284.509 39.4079C291.765 23.0939 304.532 10.8229 321.737 5.28991C343.585 -10.2001 368.707 11.0429 375.513 33.9959ZM358.311 87.4579C346.17 100.003 325.902 103.603 309.749 96.8749C268.273 79.5459 288.574 25.4959 320.561 10.9809C324.557 9.98491 329.894 7.62191 334.761 7.08591C334.928 7.0043 335.168 7.04274 335.465 7.09029C335.954 7.1686 336.598 7.27161 337.32 6.90391C372.591 10.8419 380.623 65.5939 358.311 87.4579ZM164.916 105.906C185.6 114.302 210.916 108.73 224.533 90.6689C249.948 57.3679 225.561 0.903908 166.504 23.0949C138.547 41.8849 124.054 89.8139 164.916 105.906ZM135.953 50.6509C135.915 50.6329 135.877 50.6239 135.838 50.6059C136.054 50.5109 136.27 50.4159 136.485 50.3189C136.415 50.5019 136.339 50.6829 136.271 50.8659C136.165 50.7929 136.072 50.7079 135.953 50.6509Z" transform="translate(13.99969 7.999794)" fill="#4d4d4d" fill-rule="evenodd" stroke="none"></path></g></g></g></g></svg>