<?xml version="1.0" standalone="no"?>
<svg viewBox="-350 -150 1500 1500" style="width: 585px; height: 585px; justify-content: center; align-self: center; transform: scale(1, 1);" xmlns="http://www.w3.org/2000/svg"><rect x="-350" y="-150" width="100%" height="100%" fill="#f5abf5" rx="30"></rect><g transform="rotate(0 421.22829818725586 567.7701187133789)"><g transform="translate(0 459)"><path d="M672.559 227.567C663.843 193.767 655.827 179.436 640.344 167.688C625.861 156.7 604.72 147.471 573.872 140.729C541.742 135.113 540.831 118.417 532.775 91.5829C530.425 83.5158 518.779 81.3693 513.752 87.1839C513.044 86.4192 512.305 85.7188 511.54 85.0859C512.225 81.2386 506.622 70.2114 506.809 66.5313C508.763 28.1186 496.196 8.82912 464.83 1.6585C458.009 0.0983833 411.677 -0.81986 405.026 1.01861C375.95 9.05596 347.327 34.5746 351.707 65.3154C342.58 77.2407 333.648 84.5193 319.567 88.3616C288.231 92.3397 256.897 95.877 225.553 98.9051C164.196 108.526 106.67 140.997 67.3517 188.352C63.7252 192.723 62.6775 198.657 65.8781 203.318C63.3709 214.055 49.2578 240.099 60.3625 247.459C42.1015 291.125 0.0858881 375.526 0.00706456 399.638C-0.324075 500.934 10.6202 632.784 110.597 688.84C114.6 692.774 115.173 697.128 116.906 702.982C121.301 721.423 137.264 734.603 154.736 733.527C240.807 735.439 324.171 724.941 410.244 724.433C448.201 724.208 493.849 729.873 526.823 733.647C559.796 737.421 593.082 734.083 624.725 724.433C627.394 728.632 632.788 731.079 638.261 729.873C671.065 723.357 697.592 703.146 720.696 681.055C727.757 668.214 755.33 631.626 744.37 618.89C754.305 576.898 753.789 531.777 736.134 491.79C738.637 484.46 734.075 476.405 736.134 468.836C737.624 463.358 741.44 461.093 743.361 455.669C746.064 448.036 743.124 437.797 740.081 430.008C738.834 426.126 742.376 421.948 743.361 417.987C748.03 399.304 737.338 400.951 729.63 388.461C729.745 388.422 731.75 379.506 731.741 379.55C732.921 373.184 729.964 365.029 727.385 359.715C725.642 356.124 721.908 353.876 718.199 354.288C721.935 341.607 726.66 331.055 731.741 318.838C740.727 297.302 752.101 276.68 765.004 257.187C770.289 249.205 763.192 239.957 754.641 239.413C726.963 237.655 699.588 233.671 672.559 227.567Z" transform="translate(37.54753 -31.00012)" fill="#FFFFFF" stroke="none"></path><path d="M692.389 192.767C705.499 193.517 718.589 194.517 731.659 195.767C744.349 196.966 757.329 197.836 769.789 200.566C771.499 200.947 772.979 203.236 772.278 204.956C771.809 206.107 771.339 207.256 770.859 208.406C756.448 243.486 740.278 277.777 722.999 311.527C726.988 311.756 730.419 313.027 732.039 317.656C735.009 326.187 737.109 335.806 734.209 344.566C734.109 344.867 733.829 344.926 733.619 344.806C733.528 349.656 735.169 354.406 738.619 357.956C741.619 361.027 745.659 362.966 748.209 366.496C752.416 372.316 749.544 376.979 746.49 381.936C745.907 382.882 745.318 383.839 744.769 384.816C742.589 388.699 744.831 390.682 747.328 392.89C748.278 393.73 749.265 394.603 750.059 395.626C752.589 398.886 753.278 402.857 752.769 406.886C752.189 411.476 750.179 415.756 748.049 419.816C745.479 424.736 743.149 430.327 739.559 434.577C739.429 434.726 739.299 434.857 739.159 434.956C739.198 434.947 739.229 434.947 739.259 434.947C739.799 434.937 740.499 435.816 740.679 436.256C740.889 436.726 741.089 437.206 741.299 437.676C741.278 437.626 741.259 437.566 741.238 437.517C741.028 436.956 741.669 436.536 742.129 436.546C742.738 436.556 743.749 437.697 743.948 438.216C747.579 446.486 750.729 454.947 753.399 463.576C754.469 467.716 755.539 471.857 756.609 475.996C758.039 482.117 758.889 488.256 759.749 494.456C760.409 498.626 760.899 502.826 761.189 507.046C761.869 513.256 762.269 519.496 762.389 525.746C762.309 535.886 761.169 545.896 759.769 555.926C759.309 560.066 758.629 564.156 757.749 568.216C756.698 574.386 755.269 580.476 753.459 586.476C752.549 590.226 751.649 593.976 750.749 597.716C750.349 598.796 749.948 599.876 749.549 600.956C748.869 603.336 748.049 605.687 747.059 607.976C746.7 609.073 746.312 610.156 745.907 611.231C737.6 608.771 729.239 606.706 720.4 606.565C715.249 606.482 715.248 614.482 720.4 614.565C728.107 614.689 735.447 616.435 742.717 618.577C741.591 620.842 740.359 623.06 739.009 625.226C735.289 632.536 731.609 639.786 727.289 646.767C724.809 650.796 722.079 654.666 719.179 658.396C714.198 664.777 708.499 670.916 701.919 675.726C698.738 678.277 695.369 680.617 691.639 682.246C687.359 684.117 683.059 685.527 678.528 686.607C676.009 687.206 673.488 687.697 670.909 688.027C667.849 688.406 664.749 688.447 661.689 688.906C658.909 689.316 656.169 689.926 653.539 690.926C652.129 691.466 650.929 692.077 649.818 692.796C648.889 693.607 647.988 694.536 647.028 695.656C647.009 695.687 646.988 695.706 646.959 695.716C646.139 698.236 644.159 700.267 640.799 700.827C622.119 703.937 603.698 704.286 584.869 702.327C566.349 700.406 547.988 697.316 529.448 695.577C518.583 694.556 507.695 693.808 496.796 693.242C498.147 690.54 499.569 687.867 500.942 685.16C503.264 680.577 496.364 676.524 494.034 681.122C492.059 685.018 489.976 688.877 488.115 692.827C445.3 691.013 402.29 692.118 359.436 693.219C348.428 693.502 337.43 693.785 326.448 694.017C291.849 694.746 257.269 695.126 222.679 696.277C206.416 696.814 190.124 697.542 173.827 698.148C172.496 693.921 171 689.746 169.569 685.534C167.923 680.685 160.194 682.766 161.855 687.66C163.078 691.263 164.352 694.835 165.528 698.438C150.318 698.954 135.109 699.324 119.919 699.267C119.499 699.267 119.089 699.206 118.699 699.077C118.649 699.396 118.599 699.706 118.549 700.017C118.519 700.176 118.279 700.136 118.279 699.976C118.279 699.636 118.279 699.286 118.259 698.926C117.049 698.416 116.069 697.357 115.709 696.056C114.569 691.896 114.639 687.726 115.229 683.566C114.209 681.376 112.859 679.437 111.109 677.966C105.789 673.496 97.7494 672.456 91.5794 669.296C86.7894 666.857 82.2494 663.966 77.9594 660.726C69.0994 654.056 61.5794 646.056 54.9594 637.187C40.3294 617.607 30.5094 594.626 23.0994 571.456C7.98937 524.246 1.30937 473.316 0.139365 423.836C-0.352635 403.081 0.459365 382.293 2.55437 361.638C7.35037 358.54 12.3004 355.683 17.3964 353.091C21.9854 350.756 17.9424 343.852 13.3584 346.183C10.0594 347.862 6.84037 349.667 3.67837 351.562C9.43737 304.375 21.9524 258.027 41.1794 214.506C51.2034 191.807 62.7954 168.746 77.6624 148.408C83.0984 148.82 88.4794 149.647 93.8014 151.319C98.7244 152.866 100.831 145.145 95.9284 143.605C91.7874 142.304 87.5924 141.474 83.3624 140.941C87.7344 135.486 92.3664 130.261 97.3194 125.357C119.199 103.697 146.819 89.1974 175.719 79.2364C205.939 68.8264 237.528 63.0864 268.959 57.7674C297.679 52.9064 325.028 51.3464 342.299 24.1364C343.379 22.4374 345.829 21.5464 347.629 22.7364C348.409 23.2564 349.189 23.7774 349.969 24.3064C350.009 24.1974 350.049 24.0764 350.089 23.9664C352.589 16.3164 353.139 8.53643 355.019 0.796428C355.309 -0.353572 356.829 -0.173572 357.189 0.796428C360.189 8.90643 359.429 19.2264 356.448 28.8264C364.669 34.6664 372.778 40.6974 381.569 45.6364C394.889 53.1264 417.839 57.0464 432.809 59.6564C447.609 62.2364 463.119 63.7564 478.169 63.0364C483.999 62.7564 489.829 61.9564 495.389 60.1174C498.309 59.1464 501.089 57.8364 503.669 56.1364C504.219 55.7674 504.749 55.3864 505.269 54.9864C504.448 48.7564 504.209 42.3464 504.459 36.0764C504.719 29.3964 505.009 22.9474 508.409 17.1564C508.539 16.9264 508.829 17.0174 508.919 17.2264C512.179 24.9474 512.399 33.9764 513.238 42.6264C521.329 40.1874 530.009 42.9064 535.179 50.0964C538.929 55.3164 539.719 61.3764 542.259 67.1074C542.988 68.7774 546.179 72.1974 546.229 73.8164C547.089 74.5564 547.009 74.6974 545.988 74.2264C545.559 74.0864 545.299 74.0064 545.209 73.9864C545.329 74.0364 545.589 74.1264 546.019 74.2774C547.939 75.2464 549.189 75.7564 550.799 77.1264C552.979 78.9964 553.829 82.1764 553.539 85.0174C557.559 86.9164 561.528 89.0274 565.549 90.6664C573.019 93.7164 580.439 96.7264 587.769 100.117C603.539 107.396 618.988 115.357 634.079 123.966C638.105 126.264 642.232 128.574 646.277 131.032C642.774 133.579 639.46 136.398 636.355 139.45C632.677 143.064 638.335 148.72 642.012 145.107C645.506 141.673 649.325 138.433 653.44 135.666C660.224 140.379 666.414 145.817 670.999 152.767C675.019 158.867 677.549 165.836 680.159 172.596C682.889 179.697 686.039 185.976 690.318 192.256C690.409 192.396 690.499 192.527 690.568 192.666C691.179 192.697 691.778 192.736 692.389 192.767ZM398.707 82.9524C402.379 85.4604 405.596 88.5074 408.733 91.6424C412.38 95.2874 406.722 100.943 403.075 97.2984C400.432 94.6564 397.766 91.9744 394.669 89.8604C392.88 88.6384 392.077 86.3654 393.234 84.3874C394.271 82.6154 396.922 81.7344 398.707 82.9524ZM204.216 104.087C209.281 103.232 207.133 95.5224 202.089 96.3724C195.806 97.4334 189.618 98.6754 183.657 100.981C178.906 102.819 180.971 110.557 185.784 108.695C191.744 106.389 197.932 105.148 204.216 104.087ZM562.86 108.296C567.161 105.429 571.162 112.362 566.899 115.204C563.443 117.507 559.986 119.812 556.53 122.116C552.231 124.982 548.23 118.05 552.492 115.208L562.86 108.296ZM367.799 153.972C372.863 154.909 370.705 162.618 365.673 161.687C360.316 160.696 354.887 160.68 349.456 160.677C344.3 160.675 344.309 152.675 349.456 152.677C355.626 152.68 361.717 152.847 367.799 153.972ZM117.816 187.38C122.563 189.242 120.484 196.976 115.689 195.095C110.371 193.009 104.879 191.421 99.5614 189.335C94.8154 187.473 96.8934 179.74 101.688 181.62C107.006 183.706 112.498 185.294 117.816 187.38ZM258.36 200.855C263.319 199.495 261.213 191.776 256.233 193.14C247.509 195.532 238.525 196.773 229.736 198.901C224.735 200.111 226.854 207.827 231.863 206.615C240.652 204.488 249.635 203.245 258.36 200.855ZM660.469 324.886C676.869 317.077 695.019 312.767 713.149 311.846C713.238 311.506 713.379 311.166 713.568 310.827C732.249 277.327 748.749 242.617 763.629 207.267C752.639 206.447 741.659 204.736 730.679 203.687C718.269 202.496 705.829 201.527 693.379 200.786C690.789 200.626 688.209 200.486 685.619 200.346C677.059 199.896 668.499 199.556 659.929 199.316C658.806 199.286 657.681 199.252 656.556 199.219C651.841 199.079 647.113 198.938 642.399 198.986C639.659 199.017 637.519 199.277 635.698 201.486C634.559 202.857 633.988 205.017 632.369 205.947C632.189 206.046 631.869 206.236 631.559 206.406C631.289 206.687 630.999 206.937 630.769 207.236C629.589 208.746 628.549 210.406 627.579 212.066C624.769 216.906 622.219 221.937 619.689 226.926C615.229 235.726 611.238 244.786 606.579 253.486C602.269 261.517 597.759 269.536 593.019 277.316C591.988 278.996 583.429 292.077 578.419 298.857C582.389 299.027 586.289 299.536 589.899 300.646C591.399 297.216 593.299 294.006 594.859 290.607C596.389 287.256 597.379 283.396 599.429 280.346C600.839 278.256 603.809 279.617 603.379 282.006C602.698 285.756 600.229 289.376 598.159 292.536C596.149 295.607 594.049 298.626 591.389 301.146C591.519 301.187 591.659 301.236 591.789 301.286C600.929 304.736 606.818 314.416 612.528 321.836C616.559 327.077 644.149 364.676 624.889 365.796C619.969 366.086 619.919 358.176 624.869 358.107C624.023 358.107 624.002 357.545 623.976 356.839C623.965 356.543 623.953 356.222 623.879 355.906C623.629 354.846 623.089 353.687 622.679 352.666C621.509 349.777 620.119 346.976 618.619 344.256C616.119 339.716 613.238 335.386 610.189 331.197C606.969 326.777 603.539 322.527 600.089 318.286C596.479 313.867 593.119 309.496 587.369 307.916C583.488 306.846 579.259 306.476 574.939 306.447C570.059 306.423 565.082 306.852 560.407 307.255C559.143 307.364 557.901 307.471 556.689 307.566C546.269 308.396 535.789 309.857 525.619 312.296C516.919 314.376 509.889 318.376 503.969 325.107C498.409 331.416 494.319 338.886 490.069 346.086C479.929 363.267 466.329 377.996 450.059 388.786C449.519 389.966 448.619 391.017 447.329 391.806C447.349 391.827 447.359 391.846 447.369 391.867C447.019 392.017 446.679 392.166 446.329 392.327C446.299 392.336 446.269 392.357 446.238 392.367C434.948 397.327 423.749 402.146 413.089 408.437C412.939 409.636 412.738 410.836 412.639 411.956C412.259 416.406 411.659 420.836 411.278 425.286C410.509 434.197 410.009 443.187 410.278 452.136C410.569 461.536 411.769 470.857 413.988 480.006C414.929 483.876 416.169 487.626 417.399 491.416C423.369 486.777 430.809 483.256 437.539 480.146C444.719 476.826 452.149 474.107 460.009 472.956C468.219 471.756 476.159 472.666 484.309 473.816C484.873 473.896 485.44 473.978 486.011 474.06C492.839 475.045 500.166 476.102 506.819 474.006C518.889 470.197 523.219 455.996 531.849 447.937C535.959 444.107 540.879 441.426 546.519 440.857C547.966 440.707 549.447 440.744 550.931 440.782C553.694 440.852 556.462 440.922 559.019 439.777C562.769 438.086 564.929 434.836 566.049 431.006C566.488 429.536 567.519 428.386 568.818 427.767C566.339 426.896 564.709 425.107 562.549 423.386C559.799 421.197 556.979 419.077 554.089 417.056C551.448 415.206 548.738 413.447 546.068 411.646C545.609 411.336 545.025 410.859 544.37 410.325C542.392 408.711 539.775 406.576 538.039 406.937C537.818 406.976 537.539 406.786 537.629 406.527C540.339 399.256 570.738 418.836 573.059 423.796C573.679 425.136 573.339 426.586 572.419 427.426C578.278 428.937 582.789 423.246 584.068 418.107C585.565 412.125 584.436 405.292 583.428 399.188C583.343 398.679 583.26 398.174 583.179 397.676C583.068 396.976 583.738 396.406 584.309 396.566L584.528 396.066C577.519 393.006 569.988 390.896 562.799 388.396C558.149 386.777 553.499 385.156 548.839 383.536C545.309 382.306 541.669 381.426 539.219 378.437C537.609 376.476 537.939 373.056 540.809 372.406C544.778 371.512 548.391 372.839 552.074 374.192C552.799 374.458 553.526 374.725 554.259 374.976C558.619 376.456 562.969 377.947 567.318 379.437C574.999 382.056 582.929 384.306 590.339 387.636C596.649 390.466 601.909 394.646 604.829 401.046C605.919 403.456 607.159 409.966 610.278 410.666C613.969 411.496 614.999 403.456 615.309 400.796C617.179 384.577 608.068 365.937 593.349 358.806C585.759 355.136 577.359 353.027 569.238 350.926C562.469 349.176 555.549 347.767 548.609 346.656C545.689 346.176 542.769 345.767 539.849 345.396C539.259 345.327 539.229 344.486 539.849 344.466C543.448 344.306 547.089 344.256 550.738 344.336C560.749 339.246 572.639 335.216 583.709 334.566C593.818 333.966 602.769 342.386 604.889 352.077C605.399 354.396 604.309 356.077 602.729 356.786C611.659 362.777 617.329 371.687 621.009 382.566C621.189 383.107 621.369 383.676 621.549 384.286C623.709 378.916 628.519 374.156 633.198 371.066C638.318 367.687 644.079 364.406 650.129 361.676C649.639 361.486 649.169 361.226 648.729 360.886C646.149 358.876 646.059 355.086 645.698 352.117C645.219 348.197 644.999 344.187 645.899 340.306C647.679 332.706 653.759 328.086 660.469 324.886ZM514.735 224.646C514.853 219.921 516.722 215.846 518.798 211.689C521.09 207.095 514.192 203.038 511.89 207.651C509.169 213.101 506.889 218.463 506.736 224.646C506.609 229.796 514.609 229.793 514.735 224.646ZM364.03 286.943C363.303 291.978 371.011 294.153 371.745 289.069C372.869 281.288 374.242 273.609 376.353 266.029C377.736 261.062 370.021 258.942 368.639 263.902C366.528 271.482 365.155 279.161 364.03 286.943ZM89.3904 281.095C84.9524 283.701 88.9734 290.618 93.4274 288.003C98.6454 284.941 104.145 282.587 109.752 280.343C114.473 278.452 112.413 270.712 107.625 272.628C101.386 275.126 95.1974 277.687 89.3904 281.095ZM229.934 317.955C225.309 315.681 229.367 308.785 233.971 311.048C238.823 313.433 243.85 315.277 249.144 316.404C254.185 317.478 252.038 325.189 247.017 324.119C241.059 322.849 235.39 320.638 229.934 317.955ZM732.629 342.386C732.709 342.216 732.869 342.126 733.039 342.107C731.999 335.077 730.259 327.156 727.099 320.996C725.328 317.551 722.578 317.685 719.235 317.848C718.783 317.87 718.321 317.892 717.849 317.906C714.469 318.017 711.109 318.236 707.749 318.586C693.169 320.107 678.519 323.906 665.159 329.976C659.159 332.706 653.229 336.046 652.149 343.156C651.659 346.327 651.988 349.646 652.439 352.806C652.579 353.767 652.729 355.226 653.149 355.426C653.651 355.662 656.297 354.911 657.866 354.466C658.363 354.325 658.751 354.215 658.929 354.176C666.299 352.586 673.679 350.996 681.049 349.396C687.859 347.926 695.149 345.447 702.119 345.296C704.778 345.236 706.249 349.476 703.559 350.617C694.579 354.466 683.679 355.496 674.139 357.596L669.219 358.676C659.979 362.976 650.519 366.706 641.629 371.896C636.499 374.886 630.719 378.187 627.659 383.466C624.929 388.166 625.249 396.077 631.579 397.577C633.539 398.036 635.709 397.996 637.948 397.687C642.488 397.056 647.309 395.306 651.169 394.437L670.488 390.056C683.689 387.066 696.889 384.077 710.089 381.086C713.499 380.316 714.948 385.556 711.539 386.336C694.149 390.286 676.769 394.246 659.389 398.206C652.349 399.806 645.179 401.986 637.988 402.966C631.568 407.086 625.339 411.066 620.339 417.027C619.969 417.456 619.609 417.906 619.259 418.357C616.429 422.027 617.179 426.437 622.329 426.596C622.488 426.607 622.649 426.607 622.809 426.607C625.439 426.577 628.129 425.607 630.639 424.986C635.948 423.656 641.289 422.476 646.669 421.437C668.129 417.246 689.988 415.357 711.738 413.367C715.528 413.017 715.488 418.916 711.738 419.277C696.599 420.706 681.439 422.126 666.379 424.277C659.049 425.327 651.729 426.506 644.459 427.906C640.679 428.636 636.889 429.676 633.089 430.566C633.119 430.666 633.119 430.777 633.039 430.896C629.009 436.916 625.439 446.906 631.809 452.867C634.882 455.735 639.146 455.275 642.983 454.861L643.309 454.826C647.799 454.336 652.289 453.716 656.769 453.086C664.639 451.976 672.488 450.716 680.318 449.357C684.399 448.656 688.469 447.906 692.528 447.117C693.069 447.013 693.573 446.904 694.05 446.801C696.509 446.268 698.261 445.888 700.799 447.136C701.929 447.687 701.889 449.187 701.169 450.006C698.109 453.517 691.929 453.316 687.549 454.096C682.219 455.056 676.879 455.956 671.528 456.746C661.369 458.256 651.049 459.937 640.789 460.536C634.409 460.896 628.809 458.536 625.939 453.346C625.999 454.806 626.059 456.277 626.119 457.736C626.339 462.986 626.389 468.226 626.488 473.476C626.498 473.955 626.469 474.518 626.437 475.125L626.437 475.128L626.437 475.132C626.362 476.59 626.274 478.295 626.669 479.656C634.639 479.906 642.619 479.986 650.599 479.947C655.139 479.926 659.689 479.836 664.229 479.626C664.969 478.437 666.209 477.576 667.839 477.607C681.838 477.881 690.311 468.602 698.925 459.17C700.348 457.613 701.774 456.051 703.229 454.527C712.609 444.697 723.519 435.017 735.709 428.706C737.528 424.486 740.269 420.496 742.389 416.506L742.519 416.262C744.789 411.974 747.882 406.134 745.919 401.277C744.339 397.376 739.729 395.796 738.079 391.827C736.789 388.726 737.389 385.586 738.999 382.726C740.729 379.656 744.778 376.536 744.948 372.816C745.097 369.411 741.743 366.794 738.838 364.529C737.82 363.735 736.857 362.983 736.119 362.256C730.698 356.886 729.309 349.236 732.629 342.386ZM594.329 352.426C583.259 348.086 571.339 345.687 559.359 344.756C565.809 343.626 572.278 342.536 578.799 341.976C583.349 341.586 587.568 341.626 590.988 345.077C593.269 347.376 594.339 350.336 595.839 353.056C595.349 352.836 594.839 352.626 594.329 352.426ZM134.274 502.026C126.82 504.212 118.126 506.222 113.044 512.581C112.796 512.892 112.379 512.493 112.528 512.183C119.034 498.695 137.692 493.964 150.61 489.239C159.747 485.896 169.122 483.124 178.576 480.648C177.93 473.268 178.946 465.526 179.942 457.934C180.402 454.431 180.857 450.961 181.143 447.572C182.11 436.114 182.897 424.626 183.301 413.132C183.714 401.407 183.814 389.603 183.428 377.875C183.044 366.19 181.527 354.648 180.863 343.002C180.799 341.876 182.367 341.822 182.705 342.753C186.631 353.56 188.308 365.531 189.586 376.926C190.902 388.665 191.339 400.37 191.171 412.177C190.997 424.317 190.291 436.428 189.322 448.529C188.863 454.265 188.33 459.993 187.827 465.725C187.443 470.099 187.265 474.438 186.373 478.673C192.075 477.274 197.79 475.95 203.487 474.663C221.653 470.564 239.895 466.76 257.985 462.327C266.865 460.152 275.618 457.546 284.458 455.232C292.782 453.053 301.568 450.411 310.114 449.439C313.164 449.091 313.552 453.263 311.533 454.679C304.587 459.556 295.362 462.952 287.339 465.682C279.287 468.421 270.917 470.392 262.664 472.421C245.453 476.654 228.079 480.115 210.731 483.72C193.407 487.321 176.05 490.895 158.921 495.338C150.672 497.478 142.451 499.626 134.274 502.026ZM343.696 380.709C338.547 380.6 338.546 372.6 343.696 372.709C348.356 372.808 352.937 374.034 357.432 375.156C362.432 376.405 360.3 384.118 355.305 382.87C351.505 381.921 347.636 380.793 343.696 380.709ZM630.589 402.916C628.189 404.017 625.859 405.386 623.689 406.947C624.049 404.517 624.139 401.956 624.039 399.386C625.829 401.306 628.119 402.406 630.589 402.916ZM85.5604 424.693C80.1264 422.538 74.3634 420.607 70.0454 416.505C66.3134 412.96 60.6464 418.607 64.3884 422.161C69.7674 427.271 76.6634 429.722 83.4334 432.407C88.2204 434.304 90.2984 426.57 85.5604 424.693ZM631.899 430.836C629.439 431.386 626.979 431.857 624.519 432.096C624.459 432.107 624.389 432.107 624.329 432.107C624.698 434.836 624.979 437.577 625.198 440.327C626.609 436.746 629.149 433.517 631.899 430.836ZM714.485 565.451C711.574 555.383 712.366 544.633 710.372 534.364C709.343 529.066 707.938 523.81 706.404 518.638C705.166 514.46 703.101 510.016 702.867 505.656C702.853 505.365 703.196 505.197 703.432 505.331C707.539 507.683 710.693 512.768 713.035 516.758C715.839 521.533 717.98 526.533 719.707 531.79C723.149 542.263 725.975 554.896 721.536 565.451C720.215 568.593 715.575 569.222 714.485 565.451ZM246.301 513.273C242.655 509.627 236.997 515.283 240.644 518.929L251.012 529.297C254.657 532.943 260.316 527.287 256.669 523.64L246.301 513.273ZM600.68 515.701C592.392 518.167 584.604 521.896 576.685 525.32C571.972 527.357 576.041 534.251 580.723 532.227C588.015 529.075 595.174 525.687 602.807 523.414C607.73 521.949 605.633 514.226 600.68 515.701ZM493.055 522.924C491.118 518.146 498.861 516.087 500.769 520.798C502.966 526.22 505.484 531.503 507.681 536.925C509.616 541.703 501.875 543.763 499.967 539.052C497.77 533.63 495.251 528.347 493.055 522.924ZM327.97 567.763C329.758 566.945 331.573 566.17 333.342 565.309C336.087 563.97 337.351 562.488 339.753 560.755C342.67 558.651 341.025 553.819 337.225 554.757C334.895 555.333 333.178 555.142 330.919 556.077C329.219 556.781 327.573 557.63 325.91 558.417C322.06 560.239 318.21 562.064 314.362 563.892C307.259 567.267 300.16 570.652 293.068 574.048C278.005 581.259 263.092 588.786 248.16 596.263C233.519 603.594 218.881 610.934 204.271 618.327C196.967 622.025 189.724 625.827 182.49 629.66C179.02 631.497 175.534 633.308 172.112 635.234C168.762 637.118 164.696 638.804 162.147 641.703C161.949 641.928 162.065 642.367 162.412 642.344C169.159 641.886 176.756 637.03 182.902 634.251C190.09 631.001 197.292 627.786 204.44 624.449C219.612 617.363 234.803 610.313 250.034 603.355C264.97 596.533 279.985 589.879 294.885 582.982C302.328 579.537 309.778 576.104 317.232 572.682C320.81 571.039 324.389 569.4 327.97 567.763ZM77.2994 585.218C72.8334 587.808 68.8094 580.892 73.2624 578.311C79.5164 574.686 86.3654 572.267 92.8464 569.095C97.4574 566.837 101.507 573.74 96.8834 576.003C90.4034 579.175 83.5534 581.593 77.2994 585.218ZM405.037 619.779C407.069 620.995 409.22 620.063 410.51 618.343C413.916 613.804 417.413 609.375 421.404 605.329C425.024 601.66 419.37 595.999 415.747 599.672C411.278 604.203 407.415 609.224 403.602 614.306C402.296 616.047 403.335 618.759 405.037 619.779ZM600.877 641.667C596.539 638.64 593.378 634.408 589.699 630.673C586.081 627 591.737 621.343 595.356 625.017C598.495 628.202 601.22 632.182 604.914 634.759C606.692 635.998 607.515 638.239 606.35 640.232C605.32 641.991 602.65 642.904 600.877 641.667ZM279.935 647.34C279.114 645.345 280.833 642.919 282.729 642.419C285 641.821 286.821 643.201 287.65 645.213C289.843 650.548 292.967 655.443 296.988 659.577C300.582 663.271 294.928 668.93 291.331 665.234C286.292 660.052 282.672 653.996 279.935 647.34Z" transform="translate(35.00024 6.999272)" fill="#802d80" fill-rule="evenodd" stroke="none"></path></g><g transform="translate(225 0)"><g><g><path d="M101.559 0.333343C253.129 -7.12039 355.969 112.412 360.393 160.078C363.464 193.166 361.38 237.293 361.38 266.859C361.38 281.951 368.996 327.825 360.393 349.821C341.247 398.78 319.615 437.129 259.678 437.129C199.741 437.129 108.369 406.064 76.9939 365.997C71.2653 358.681 0.0805339 305.131 0.0805339 263.038C0.0805339 173.233 -6.59297 5.6519 101.559 0.333343Z" transform="translate(47.92791 63.53391)" fill="#FFFFFF" stroke="none"></path><path d="M130.169 8.08201C126.236 2.06001 120.723 -1.82699 112.085 0.873012C109.564 1.66201 107.285 3.04601 105.243 4.84101C100.149 1.50301 93.1925 2.28801 88.9815 8.45201C87.8215 10.151 86.8675 12.009 86.0795 13.963C81.7845 12.14 77.3215 12.22 73.0945 16.483C71.4035 18.188 70.3515 20.268 69.9015 22.47C69.7845 22.221 69.6615 21.986 69.5475 21.729L69.4385 21.496C67.2054 16.9608 59.6802 15.194 55.6535 18.086C52.9925 19.998 50.9535 22.158 49.7315 24.815C48.0485 24.808 46.3925 25.015 44.8015 25.576C38.8505 27.676 36.3325 33.844 36.7825 39.867C31.7175 41.682 26.8975 44.251 22.5025 47.612C18.9025 50.362 17.4725 54.052 18.5525 57.752C14.3025 59.592 10.7725 62.252 8.60248 66.602C6.15248 71.522 5.87248 77.212 7.77248 81.712C7.12948 82.952 6.60948 84.243 6.18348 85.563C2.34348 86.533 -0.50952 90.207 0.0764801 94.541C0.54448 97.998 2.84148 100.3 5.68748 101.133C6.37848 104.072 7.49148 106.916 8.98948 109.524C5.55448 112.069 2.55448 115.314 1.08148 119.193C-0.0355199 122.137 0.39548 124.764 1.74248 126.804C1.78648 130.366 3.75248 134.025 6.76748 135.751C4.49748 140.261 6.13948 146.521 10.9155 148.307C8.96848 152.259 7.86348 156.533 8.27248 161.163C8.83248 167.613 12.1225 173.783 17.1725 177.453C15.7635 183.522 15.8725 189.832 17.6725 196.062C19.1845 201.303 24.6405 203.464 29.4065 201.62C30.2185 203.8 31.9275 205.69 34.1285 206.721C34.1958 206.753 34.2636 206.782 34.3316 206.811L34.7415 206.972C34.0945 208.185 33.7905 209.621 34.0095 211.246C34.5635 215.346 38.8475 218.637 43.0445 217.265C46.3395 216.188 49.3435 214.307 52.2145 212.263C52.2255 213.059 52.3345 213.85 52.5155 214.582C53.7655 219.639 58.3425 222.881 63.3485 223.472C67.7635 223.993 71.9015 222.469 75.3495 219.895C79.0185 227.25 87.5185 229.858 94.9505 225.462C98.6995 223.245 103.16 219.539 106.525 215.261C107.589 214.535 108.618 213.734 109.599 212.875C107.895 216.956 106.287 221.085 104.792 225.272C103.843 227.932 102.944 230.611 102.083 233.301C99.7895 233.899 97.7075 234.667 96.1525 235.403C92.0265 237.353 90.1335 242.747 91.0645 247.176C88.9195 249.601 87.5175 252.564 87.5175 256.304C87.5175 258.383 87.9195 260.24 88.6105 261.898C87.2945 264.078 86.1525 266.431 85.1535 269.003C83.7495 272.622 84.8785 276.484 87.2555 279.39C85.5645 281.805 84.5175 284.644 84.5485 288.043C84.5625 289.578 84.8195 291.073 85.2715 292.487C84.0975 295.32 84.1505 298.495 85.1785 301.309C82.4005 304.868 80.5315 308.749 81.5525 312.828C82.0925 314.987 83.3005 316.757 84.8555 318.226C84.6965 319.601 84.7475 320.991 84.9935 322.332C83.8825 324.323 83.3715 326.648 83.5325 328.982C83.9425 334.916 87.3455 338.136 91.7655 339.694C91.6015 340.045 91.4415 340.398 91.3175 340.773C90.2705 343.952 90.4825 347.746 92.1055 350.707C92.2735 351.013 92.4595 351.295 92.6425 351.582C93.8995 353.896 95.9375 355.717 98.3415 357.064C98.9628 357.412 99.8264 357.711 100.769 358.011L102.222 358.468C102.16 358.539 102.102 358.605 102.05 358.664L101.422 359.394C99.2233 361.996 97.2682 364.809 97.0615 368.339C96.8365 372.211 98.8465 375.955 102.117 378.044C102.444 378.252 102.815 378.459 103.205 378.661L103.209 379.035C102.354 380.225 101.812 381.649 101.962 383.045C102.683 389.796 106.739 393.017 112.739 395.403L113.942 395.914L114.025 397.416C114.052 397.914 114.092 398.411 114.13 398.908C113.865 399.519 113.648 400.06 113.529 400.377L113.448 400.599C111.09 407.652 114.528 415.28 120.533 419.343C121.371 419.911 122.246 420.396 123.147 420.815C124.019 423.714 125.503 426.339 127.47 428.668C129.085 430.582 131.218 432.384 133.587 433.713C134.911 436.175 136.983 437.984 139.675 438.895C140.067 439.028 140.464 439.131 140.864 439.215C140.491 442.129 141.266 445.195 143.288 447.365C144.286 448.436 145.373 449.134 146.519 449.587C147.136 449.887 147.809 450.07 148.504 450.135C149.945 450.374 151.455 450.333 152.993 450.198C154.005 451.667 155.203 453.047 156.592 454.323C158.106 455.71 160.145 456.389 162.102 456.211C166.348 458.825 171.35 459.071 176.2 458.479C177.299 458.345 178.354 458.047 179.313 457.604C183.884 462.999 188.756 468.135 193.822 473.073C201.142 480.203 208.202 487.373 218.272 490.203C220.842 490.922 224.162 488.283 223.002 485.482C217.263 471.573 203.412 462.502 193.542 451.512C188.442 445.832 183.692 439.852 179.552 433.432C175.132 426.592 172.022 421.672 163.892 419.132L163.295 418.941C151.396 415.068 141.933 407.377 135.952 396.252C130.933 386.913 128.312 373.422 132.852 363.212C133.622 362.292 134.202 361.232 134.542 360.082C134.912 359.522 135.302 358.962 135.722 358.432C140.522 352.363 147.642 349.012 155.002 347.302C159.172 346.332 163.672 345.892 167.952 346.042C171.42 346.169 174.806 347.004 178.24 347.45C178.603 347.736 178.964 348.017 179.316 348.291L179.964 348.796C184.559 352.368 190.413 356.714 196.314 356.873C210.845 357.266 209.81 340.76 209.118 329.714C209.056 328.722 208.997 327.774 208.952 326.886L208.907 325.913C208.426 313.582 208.16 301.247 207.673 288.918L207.67 288.825C207.664 288.591 207.665 288.236 207.671 287.78L207.725 284.968C208.256 281.129 208.884 277.303 209.643 273.491C214.618 273.804 219.707 272.411 224.079 269.733C229.934 270.323 235.777 268.067 239.769 263.765C240.648 263.498 241.51 263.168 242.336 262.777C242.944 262.49 243.485 262.198 244.011 261.89C247.839 263.478 252.41 263.116 255.935 259.668C258.243 259.808 260.54 259.328 262.311 258.169C263.965 257.089 265.57 255.966 267.12 254.779C269.667 254.716 272.329 253.745 274.826 251.713L278.411 248.792C279.724 248.953 281.059 248.874 282.354 248.499C286.487 247.301 290.399 245.57 293.983 243.32C295.717 243.308 297.544 242.847 299.382 241.825C310.808 235.469 321.667 228.623 331.82 220.507C336.207 220.068 339.845 217.079 343.094 213.996C349.651 212.087 355.435 210.156 361.092 205.93C364.989 203.019 368.524 199.693 371.855 196.165C373.247 196.831 374.744 197.29 376.254 197.508C378.941 197.896 381.617 197.131 384.26 196.376C387.436 195.468 390.563 194.574 393.601 195.711C398.865 197.682 403.05 201.935 408.29 204.087C411.155 205.264 414.099 205.943 417.012 205.97C417.983 206.538 418.947 207.118 419.902 207.71C422.19 210.605 425.328 212.615 428.904 213.949C429.181 214.166 429.466 214.372 429.742 214.592C432.55 216.835 435.224 219.227 437.779 221.734C438.18 222.857 438.675 223.955 439.279 225.007C441.07 228.127 443.687 230.819 446.822 232.596C446.931 232.658 447.119 232.75 447.36 232.86L447.673 233C449.109 234.916 450.47 236.891 451.76 238.918C451.806 239.501 451.883 240.083 452.029 240.66C452.737 243.425 454.567 245.562 456.736 247.282C462.678 257.517 473.385 275.833 474.742 275.762C473.086 284.481 472.125 293.388 471.271 302.228L470.552 309.783C469.172 324.302 468.142 338.873 467.612 353.453C467.196 364.783 467.236 376.125 467.346 387.46L467.488 401.009C467.617 413.375 467.652 425.814 465.742 438.052C458.842 482.243 423.872 519.512 378.992 525.652C366.562 527.363 353.592 526.762 341.362 524.012C335.263 522.652 329.242 520.802 323.473 518.392C317.013 515.692 311.172 511.863 304.663 509.272C298.092 506.663 293.562 516.152 298.042 520.632C306.528 529.108 319.886 533.948 331.419 537.117L332.692 537.462C344.612 540.652 357.142 542.052 369.462 541.363C393.684 539.993 416.492 531.232 435.412 516.092C453.891 501.292 467.672 481.772 474.552 459.033C481.482 436.143 480.251 412.114 479.038 388.427C478.779 383.365 478.52 378.318 478.342 373.302C477.742 356.113 477.383 338.892 477.473 321.682C477.507 314.939 477.737 308.173 477.968 301.401C478.278 292.296 478.589 283.181 478.422 274.102C478.742 273.762 479.032 273.352 479.272 272.892C481.355 268.927 483.471 263.971 484.454 259.121C486.465 257.876 487.478 255.281 487.745 253.061C487.932 251.509 487.33 249.936 486.322 248.649C486.868 247.551 487.015 245.944 487.378 244.794C488.322 241.814 489.122 238.973 489.454 235.853C489.73 233.253 489.673 230.505 488.851 227.992C488.432 226.705 487.879 225.55 487.162 224.466C488.047 223.113 488.655 221.597 488.655 219.651C488.655 215.642 486.338 212.179 482.949 210.184C482.234 209.81 481.508 209.463 480.766 209.143L480.754 209.135L480.69 208.787C480.627 208.432 480.565 208.067 480.513 207.752L480.311 206.452C479.837 203.231 479.536 200.185 477.878 197.263C475.701 193.424 472.146 191.238 468.056 189.885C467.3 189.635 465.892 189.474 465.063 189.017C465.886 189.403 465.199 187.264 464.785 185.976C464.715 185.757 464.652 185.562 464.606 185.409L464.438 184.797C462.497 177.92 457.882 174.025 451.988 170.515L451.228 170.069C449.239 168.915 447.148 167.907 445.78 166.019C443.896 163.42 443.2 160.049 441.564 157.297C440.218 155.03 438.486 152.936 436.273 151.483C435.684 148.627 435.167 145.768 433.768 143.155C430.423 136.894 423.391 134.392 416.813 133.082C414.398 132.6 411.347 132.687 409.194 131.312C408.784 130.873 408.349 130.455 407.889 130.065C406.577 128.403 404.681 125.379 403.427 123.839C397.692 116.802 390.241 114.133 381.311 115.865C380.659 115.992 379.289 116.549 378.409 116.691C378.353 116.581 378.293 116.458 378.225 116.311L378.014 115.859C376.553 112.832 374.118 109.515 371.849 107.171C365.712 100.833 357.688 100.488 349.494 100.712L347.323 100.777C345.296 100.817 344.401 100.636 342.852 98.98L342.52 98.6262C339.202 95.1081 335.97 92.1964 331.098 90.887C326.443 89.636 321.57 90.516 317.015 91.704L316.533 91.8278C312.245 92.9088 309.46 93.0965 305.032 91.922L303.816 91.6054C294.32 89.1804 285.491 88.0846 275.835 91.036C275.481 91.144 275.137 91.281 274.777 91.399L273.914 91.6933C272.523 92.1779 271.152 92.7172 269.813 93.328C267.114 91.603 263.503 91.563 260.62 94.309C258.362 96.461 255.986 98.527 253.718 100.688C245.49 101.94 237.343 103.709 229.337 105.99C228.859 106.972 228.007 107.802 226.708 108.243C208.674 114.353 191.737 123.47 177.718 136.461C176.142 137.921 174.276 137.958 172.767 137.233C174.654 134.215 176.707 131.304 178.942 128.554C183.419 123.047 188.508 118.097 193.853 113.415C202.434 108.331 211.547 104.135 220.998 100.728C224.413 94.916 227.477 88.815 231.052 83.292L231.181 83.0864C233.822 78.6951 229.963 74.0264 225.492 73.602L225.472 73.602L225.539 73.1846C227.113 63.157 226.356 52.5272 217.942 45.632C216.222 44.222 214.36 43.097 212.427 42.256C212.979 41.253 213.575 40.266 214.26 39.311L214.428 39.0714C219.826 31.1498 212.015 21.925 203.938 21.326C200.19 21.047 196.327 21.454 192.726 22.56C191.741 22.863 190.78 23.305 189.834 23.776C188.733 23.102 187.558 22.6 186.369 22.321C185.325 20.309 183.948 18.547 182.076 17.14C178.232 14.248 173.276 13.106 168.559 14.316C167.724 14.531 166.944 14.823 166.206 15.17C165.155 14.412 163.935 13.796 162.635 13.37C162.056 12.12 161.378 10.935 160.539 9.87101C156.204 4.36301 149.272 3.32901 142.878 5.55701L142.13 5.83201C140.515 5.59201 138.813 5.93201 137.161 7.10001C136.426 7.62001 135.745 8.26501 135.097 8.97201L134.928 9.06101C134.644 8.88501 134.349 8.71901 134.022 8.58201C133.599 8.41601 133.04 8.20501 132.809 8.14901C131.875 7.92401 131.036 7.91301 130.169 8.08201ZM169.342 372.392C160.962 369.203 150.672 368.222 142.193 371.542C141.523 371.802 141.273 373.033 142.193 373.163C150.382 374.372 158.013 376.002 165.273 380.192C168.752 382.203 171.943 384.493 174.792 387.342C177.672 390.222 179.702 394.192 183.322 396.163C187.483 398.432 191.582 394.703 190.832 390.392C189.383 382.067 177.358 375.557 169.956 372.631L169.342 372.392Z" transform="translate(-65.99968 -34.00051)" fill="#802d80" fill-rule="evenodd" stroke="none"></path></g></g><g transform="translate(159 186)"><g><path d="M30.8552 0.284389C38.3472 -0.854611 48.2682 1.30939 51.7612 8.92739C53.3172 12.3214 51.4742 16.0744 47.5512 16.2624C45.2969 16.3703 43.0978 16.3333 40.9433 16.2971C34.0368 16.1808 27.5885 16.0723 21.2452 20.7714C17.6638 23.425 14.6527 27.0992 12.1259 30.764L11.1699 32.1587L10.378 33.3078C8.66227 35.8303 7.03756 38.5709 7.29125 41.6144C7.36625 42.5154 6.44525 43.3704 5.57025 43.3344C0.116248 43.1104 -0.470752 36.2724 0.246248 32.1654C1.58025 24.5434 5.26925 17.3884 10.3822 11.6254C15.7522 5.57339 22.8412 1.50339 30.8552 0.284389ZM151.87 5.42689C145.818 4.93789 139.21 6.21389 134.044 9.53489C130.712 11.6769 126.944 16.4719 130.271 20.1519C130.813 20.7519 131.993 20.1239 131.681 19.3309C130.088 15.2799 140.94 15.2309 143.089 15.4139L143.684 15.4705C147.254 15.8464 150.894 16.8774 154.04 18.5789C157.232 20.3039 160.213 22.3289 162.565 25.1279C165.513 28.6319 166.477 32.7989 170.438 35.4799C174.122 37.9739 180.374 35.6019 181.187 31.1069C183.822 16.5319 163.803 6.38789 151.87 5.42689ZM160.774 62.6982L160.773 62.9235C160.686 69.3861 156.318 82.5333 147.866 82.5333C139.314 82.5333 137.684 68.0213 138.046 61.8852L138.097 61.1198C138.825 51.1814 142.274 41.7618 147.866 41.7618C157.046 41.7618 160.76 56.3214 160.774 62.6982ZM25.6175 64.9235L25.6162 64.6982C25.6302 58.3214 29.3442 43.7618 38.5243 43.7618C44.2593 43.7618 47.7411 53.6706 48.3439 63.8852L48.3648 64.3016C48.631 70.6522 46.8883 84.5333 38.5243 84.5333C30.0718 84.5333 25.7044 71.3861 25.6175 64.9235ZM122.515 105.602C122.392 108.007 121.556 110.507 119.748 113.039C110.636 122.601 97.7042 112.603 90.6366 107.139C90.2878 106.869 89.9534 106.61 89.6344 106.366C83.3436 102.333 76.2756 112.704 82.1122 117.412C131.136 153.708 151.031 87.567 112.634 80.97C108.406 80.243 106.836 84.9468 108.814 86.3667C114.647 89.9119 122.838 97.1039 122.523 105.438C122.487 105.449 122.449 105.462 122.408 105.476L122.046 105.606L122.046 105.862C122.139 105.805 122.238 105.762 122.328 105.703L122.515 105.602ZM122.515 105.602L122.691 105.506L122.814 105.432C123.008 105.306 122.911 105.308 122.523 105.438C122.521 105.492 122.518 105.547 122.515 105.602ZM77.237 145.626C60.152 142.068 39.527 143.059 27.281 157.289C15.604 170.857 17.589 190.909 28.418 204.336C40.024 218.727 59.961 223.621 77.703 222.74C88.7586 222.191 99.734 219.892 110.483 217.27L112.96 216.66L113.282 216.58C121.775 214.473 136.168 210.902 136.112 200.085C136.098 197.644 134.179 196.085 131.893 195.867C128.89 195.58 126.454 196.442 123.9 197.626L123.2 197.956L122.132 198.473L121.794 198.626C121.907 197.61 121.83 196.483 121.492 195.233L121.237 194.245C119.778 188.298 119.517 182.055 118.687 176.003C118.266 172.928 117.844 169.857 117.467 166.776C117.3 165.41 117.093 164.062 116.866 162.705C116.781 162.196 116.744 161.596 116.718 160.981C125.028 160.136 134.505 158.75 141.54 154.429C142.223 154.008 141.925 152.973 141.137 152.944C138.235 152.835 135.324 153.12 132.411 153.405C130.177 153.623 127.942 153.842 125.709 153.883C120.47 153.98 115.213 153.783 110.012 153.124C98.876 151.714 88.201 147.91 77.237 145.626ZM80.2623 159.354L85.358 160.088L86.6564 160.265C94.0151 161.243 101.385 161.793 108.787 161.541C108.345 163.254 108.072 167.063 107.863 168.823C105.904 168.465 95.485 168.998 93.939 169.16L89.5462 169.616L85.151 170.061C78.967 170.678 72.78 171.266 66.59 171.824L63.8913 172.072C53.9983 172.997 44.1346 174.109 34.307 175.565C35.104 171.423 37.238 167.567 41.03 164.611C51.4161 156.512 65.6227 157.386 78.2553 159.078L80.2623 159.354ZM107.852 203.317C105.99 186.824 85.7218 185.917 79.8911 196.376C77.3037 181.797 39.028 195.116 42.021 198.014C53.365 209 70.58 209.989 85.379 207.957C92.916 206.922 100.459 205.237 107.852 203.317Z" transform="translate(61.99985 58.00041)" fill="#802d80" fill-rule="evenodd" stroke="none"></path></g></g><g transform="translate(123 338)"></g><g transform="translate(47 241)"></g></g></g></svg>